%TF.GenerationSoftware,KiCad,Pcbnew,9.0.3*%
%TF.CreationDate,2025-07-30T11:35:09+02:00*%
%TF.ProjectId,TPOneBoard,54504f6e-6542-46f6-9172-642e6b696361,rev?*%
%TF.SameCoordinates,Original*%
%TF.FileFunction,Soldermask,Bot*%
%TF.FilePolarity,Negative*%
%FSLAX46Y46*%
G04 Gerber Fmt 4.6, Leading zero omitted, Abs format (unit mm)*
G04 Created by KiCad (PCBNEW 9.0.3) date 2025-07-30 11:35:09*
%MOMM*%
%LPD*%
G01*
G04 APERTURE LIST*
G04 Aperture macros list*
%AMRoundRect*
0 Rectangle with rounded corners*
0 $1 Rounding radius*
0 $2 $3 $4 $5 $6 $7 $8 $9 X,Y pos of 4 corners*
0 Add a 4 corners polygon primitive as box body*
4,1,4,$2,$3,$4,$5,$6,$7,$8,$9,$2,$3,0*
0 Add four circle primitives for the rounded corners*
1,1,$1+$1,$2,$3*
1,1,$1+$1,$4,$5*
1,1,$1+$1,$6,$7*
1,1,$1+$1,$8,$9*
0 Add four rect primitives between the rounded corners*
20,1,$1+$1,$2,$3,$4,$5,0*
20,1,$1+$1,$4,$5,$6,$7,0*
20,1,$1+$1,$6,$7,$8,$9,0*
20,1,$1+$1,$8,$9,$2,$3,0*%
G04 Aperture macros list end*
%ADD10R,1.700000X1.700000*%
%ADD11C,1.700000*%
%ADD12RoundRect,0.250000X-0.550000X-0.550000X0.550000X-0.550000X0.550000X0.550000X-0.550000X0.550000X0*%
%ADD13C,1.600000*%
%ADD14R,1.500000X1.500000*%
%ADD15C,1.500000*%
%ADD16RoundRect,0.250000X-0.725000X0.600000X-0.725000X-0.600000X0.725000X-0.600000X0.725000X0.600000X0*%
%ADD17O,1.950000X1.700000*%
%ADD18R,2.800000X2.800000*%
%ADD19C,3.200000*%
%ADD20R,3.500000X3.500000*%
%ADD21C,3.500000*%
%ADD22C,1.524000*%
G04 APERTURE END LIST*
D10*
%TO.C,JP6*%
X168895000Y-84913000D03*
D11*
X168895000Y-87453000D03*
%TD*%
D12*
%TO.C,C5*%
X149352000Y-119668000D03*
D13*
X151852000Y-119668000D03*
%TD*%
D14*
%TO.C,U2*%
X159522000Y-120918000D03*
D15*
X162062000Y-120918000D03*
X164602000Y-120918000D03*
%TD*%
D10*
%TO.C,J8*%
X227102000Y-99418000D03*
D11*
X227102000Y-96878000D03*
X227102000Y-94338000D03*
X227102000Y-91798000D03*
%TD*%
D10*
%TO.C,J4*%
X203820000Y-87580000D03*
D11*
X203820000Y-85040000D03*
%TD*%
%TO.C,SW4*%
X234785000Y-84096000D03*
X241285000Y-84096000D03*
X234785000Y-88596000D03*
X241285000Y-88596000D03*
%TD*%
D10*
%TO.C,JP3*%
X175118000Y-87580000D03*
D11*
X175118000Y-85040000D03*
%TD*%
%TO.C,SW5*%
X186525000Y-84096000D03*
X193025000Y-84096000D03*
X186525000Y-88596000D03*
X193025000Y-88596000D03*
%TD*%
D10*
%TO.C,JP2*%
X180960000Y-84913000D03*
D11*
X180960000Y-87453000D03*
%TD*%
D16*
%TO.C,J1*%
X238602000Y-111418000D03*
D17*
X238602000Y-113918000D03*
X238602000Y-116418000D03*
X238602000Y-118918000D03*
X238602000Y-121418000D03*
%TD*%
D10*
%TO.C,J3*%
X195402000Y-99918000D03*
D11*
X197942000Y-99918000D03*
X200482000Y-99918000D03*
X203022000Y-99918000D03*
X205562000Y-99918000D03*
X208102000Y-99918000D03*
%TD*%
D18*
%TO.C,J5*%
X162037000Y-83984000D03*
X147837000Y-83984000D03*
X162037000Y-106884000D03*
X147537000Y-106884000D03*
X158537000Y-106884000D03*
X150937000Y-106884000D03*
%TD*%
D10*
%TO.C,J2*%
X176515000Y-118695000D03*
D11*
X176515000Y-116155000D03*
X176515000Y-113615000D03*
X176515000Y-111075000D03*
%TD*%
D19*
%TO.C,BT2*%
X177159000Y-95835000D03*
X232769000Y-95835000D03*
D20*
X168514000Y-95835000D03*
D21*
X240514000Y-95835000D03*
%TD*%
D22*
%TO.C,J6*%
X164577000Y-113996000D03*
X159577000Y-110495997D03*
%TD*%
D10*
%TO.C,J7*%
X155852000Y-99418000D03*
D11*
X155852000Y-96878000D03*
X155852000Y-94338000D03*
X155852000Y-91798000D03*
%TD*%
M02*
