%TF.GenerationSoftware,KiCad,Pcbnew,9.0.3*%
%TF.CreationDate,2025-07-30T11:35:09+02:00*%
%TF.ProjectId,TPOneBoard,54504f6e-6542-46f6-9172-642e6b696361,rev?*%
%TF.SameCoordinates,Original*%
%TF.FileFunction,Soldermask,Top*%
%TF.FilePolarity,Negative*%
%FSLAX46Y46*%
G04 Gerber Fmt 4.6, Leading zero omitted, Abs format (unit mm)*
G04 Created by KiCad (PCBNEW 9.0.3) date 2025-07-30 11:35:09*
%MOMM*%
%LPD*%
G01*
G04 APERTURE LIST*
G04 Aperture macros list*
%AMRoundRect*
0 Rectangle with rounded corners*
0 $1 Rounding radius*
0 $2 $3 $4 $5 $6 $7 $8 $9 X,Y pos of 4 corners*
0 Add a 4 corners polygon primitive as box body*
4,1,4,$2,$3,$4,$5,$6,$7,$8,$9,$2,$3,0*
0 Add four circle primitives for the rounded corners*
1,1,$1+$1,$2,$3*
1,1,$1+$1,$4,$5*
1,1,$1+$1,$6,$7*
1,1,$1+$1,$8,$9*
0 Add four rect primitives between the rounded corners*
20,1,$1+$1,$2,$3,$4,$5,0*
20,1,$1+$1,$4,$5,$6,$7,0*
20,1,$1+$1,$6,$7,$8,$9,0*
20,1,$1+$1,$8,$9,$2,$3,0*%
G04 Aperture macros list end*
%ADD10RoundRect,0.250000X-0.400000X-0.625000X0.400000X-0.625000X0.400000X0.625000X-0.400000X0.625000X0*%
%ADD11RoundRect,0.250000X-0.650000X0.412500X-0.650000X-0.412500X0.650000X-0.412500X0.650000X0.412500X0*%
%ADD12R,1.700000X1.700000*%
%ADD13C,1.700000*%
%ADD14RoundRect,0.250000X-0.550000X-0.550000X0.550000X-0.550000X0.550000X0.550000X-0.550000X0.550000X0*%
%ADD15C,1.600000*%
%ADD16R,1.500000X1.500000*%
%ADD17C,1.500000*%
%ADD18RoundRect,0.150000X-0.725000X-0.150000X0.725000X-0.150000X0.725000X0.150000X-0.725000X0.150000X0*%
%ADD19RoundRect,0.250000X0.400000X0.625000X-0.400000X0.625000X-0.400000X-0.625000X0.400000X-0.625000X0*%
%ADD20RoundRect,0.100000X-0.225000X-0.100000X0.225000X-0.100000X0.225000X0.100000X-0.225000X0.100000X0*%
%ADD21RoundRect,0.250000X-0.412500X-0.650000X0.412500X-0.650000X0.412500X0.650000X-0.412500X0.650000X0*%
%ADD22RoundRect,0.250000X-0.725000X0.600000X-0.725000X-0.600000X0.725000X-0.600000X0.725000X0.600000X0*%
%ADD23O,1.950000X1.700000*%
%ADD24R,2.800000X2.800000*%
%ADD25R,2.500000X1.000000*%
%ADD26RoundRect,0.250001X-0.462499X-0.624999X0.462499X-0.624999X0.462499X0.624999X-0.462499X0.624999X0*%
%ADD27C,3.200000*%
%ADD28R,3.500000X3.500000*%
%ADD29C,3.500000*%
%ADD30C,1.524000*%
G04 APERTURE END LIST*
D10*
%TO.C,R1*%
X176590000Y-105487000D03*
X179690000Y-105487000D03*
%TD*%
D11*
%TO.C,C4*%
X197216000Y-84836000D03*
X197216000Y-87961000D03*
%TD*%
D12*
%TO.C,JP6*%
X168895000Y-84913000D03*
D13*
X168895000Y-87453000D03*
%TD*%
D10*
%TO.C,R3*%
X165593000Y-102693000D03*
X168693000Y-102693000D03*
%TD*%
D14*
%TO.C,C5*%
X149352000Y-119668000D03*
D15*
X151852000Y-119668000D03*
%TD*%
D10*
%TO.C,R7*%
X216349000Y-115393000D03*
X219449000Y-115393000D03*
%TD*%
D16*
%TO.C,U2*%
X159522000Y-120918000D03*
D17*
X162062000Y-120918000D03*
X164602000Y-120918000D03*
%TD*%
D18*
%TO.C,U1*%
X184954000Y-100407000D03*
X184954000Y-101677000D03*
X184954000Y-102947000D03*
X184954000Y-104217000D03*
X184954000Y-105487000D03*
X184954000Y-106757000D03*
X184954000Y-108027000D03*
X184954000Y-109297000D03*
X190104000Y-109297000D03*
X190104000Y-108027000D03*
X190104000Y-106757000D03*
X190104000Y-105487000D03*
X190104000Y-104217000D03*
X190104000Y-102947000D03*
X190104000Y-101677000D03*
X190104000Y-100407000D03*
%TD*%
D12*
%TO.C,J8*%
X227102000Y-99418000D03*
D13*
X227102000Y-96878000D03*
X227102000Y-94338000D03*
X227102000Y-91798000D03*
%TD*%
D10*
%TO.C,R8*%
X216341000Y-118949000D03*
X219441000Y-118949000D03*
%TD*%
D19*
%TO.C,R2*%
X179690000Y-102693000D03*
X176590000Y-102693000D03*
%TD*%
D12*
%TO.C,J4*%
X203820000Y-87580000D03*
D13*
X203820000Y-85040000D03*
%TD*%
%TO.C,SW4*%
X234785000Y-84096000D03*
X241285000Y-84096000D03*
X234785000Y-88596000D03*
X241285000Y-88596000D03*
%TD*%
D19*
%TO.C,R4*%
X168693000Y-105487000D03*
X165593000Y-105487000D03*
%TD*%
D12*
%TO.C,JP3*%
X175118000Y-87580000D03*
D13*
X175118000Y-85040000D03*
%TD*%
D20*
%TO.C,Q2*%
X209159000Y-84883000D03*
X209159000Y-85533000D03*
X209159000Y-86183000D03*
X211059000Y-86183000D03*
X211059000Y-85533000D03*
X211059000Y-84883000D03*
%TD*%
D13*
%TO.C,SW5*%
X186525000Y-84096000D03*
X193025000Y-84096000D03*
X186525000Y-88596000D03*
X193025000Y-88596000D03*
%TD*%
D21*
%TO.C,C6*%
X149387000Y-112980000D03*
X152512000Y-112980000D03*
%TD*%
D12*
%TO.C,JP2*%
X180960000Y-84913000D03*
D13*
X180960000Y-87453000D03*
%TD*%
D22*
%TO.C,J1*%
X238602000Y-111418000D03*
D23*
X238602000Y-113918000D03*
X238602000Y-116418000D03*
X238602000Y-118918000D03*
X238602000Y-121418000D03*
%TD*%
D12*
%TO.C,J3*%
X195402000Y-99918000D03*
D13*
X197942000Y-99918000D03*
X200482000Y-99918000D03*
X203022000Y-99918000D03*
X205562000Y-99918000D03*
X208102000Y-99918000D03*
%TD*%
D19*
%TO.C,R5*%
X188909000Y-116153000D03*
X185809000Y-116153000D03*
%TD*%
D24*
%TO.C,J5*%
X162037000Y-83984000D03*
X147837000Y-83984000D03*
X162037000Y-106884000D03*
X147537000Y-106884000D03*
X158537000Y-106884000D03*
X150937000Y-106884000D03*
%TD*%
D19*
%TO.C,R6*%
X190384000Y-93422000D03*
X187284000Y-93422000D03*
%TD*%
D25*
%TO.C,U7*%
X209702000Y-119360000D03*
X209702000Y-117360000D03*
X209702000Y-115360000D03*
X209702000Y-113360000D03*
X209702000Y-111360000D03*
X209702000Y-109360000D03*
X209702000Y-107360000D03*
X209702000Y-105360000D03*
X194502000Y-105360000D03*
X194502000Y-107360000D03*
X194502000Y-109360000D03*
X194502000Y-111360000D03*
X194502000Y-113360000D03*
X194502000Y-115360000D03*
X194502000Y-117360000D03*
X194502000Y-119360000D03*
%TD*%
D26*
%TO.C,D4*%
X185988000Y-118947000D03*
X188963000Y-118947000D03*
%TD*%
D19*
%TO.C,R9*%
X188834000Y-113488000D03*
X185734000Y-113488000D03*
%TD*%
D12*
%TO.C,J2*%
X176515000Y-118695000D03*
D13*
X176515000Y-116155000D03*
X176515000Y-113615000D03*
X176515000Y-111075000D03*
%TD*%
D27*
%TO.C,BT2*%
X177159000Y-95835000D03*
X232769000Y-95835000D03*
D28*
X168514000Y-95835000D03*
D29*
X240514000Y-95835000D03*
%TD*%
D30*
%TO.C,J6*%
X164577000Y-113996000D03*
X159577000Y-110495997D03*
%TD*%
D12*
%TO.C,J7*%
X155852000Y-99418000D03*
D13*
X155852000Y-96878000D03*
X155852000Y-94338000D03*
X155852000Y-91798000D03*
%TD*%
M02*
