M48
; DRILL file {KiCad 9.0.3} date 2025-07-30T11:35:27+0200
; FORMAT={-:-/ absolute / metric / decimal}
; #@! TF.CreationDate,2025-07-30T11:35:27+02:00
; #@! TF.GenerationSoftware,Kicad,Pcbnew,9.0.3
; #@! TF.FileFunction,Plated,1,2,PTH
FMAT,2
METRIC
; #@! TA.AperFunction,Plated,PTH,ViaDrill
T1C0.400
; #@! TA.AperFunction,Plated,PTH,ViaDrill
T2C0.700
; #@! TA.AperFunction,Plated,PTH,ComponentDrill
T3C0.800
; #@! TA.AperFunction,Plated,PTH,ComponentDrill
T4C0.950
; #@! TA.AperFunction,Plated,PTH,ComponentDrill
T5C1.000
; #@! TA.AperFunction,Plated,PTH,ComponentDrill
T6C1.016
; #@! TA.AperFunction,Plated,PTH,ComponentDrill
T7C1.540
; #@! TA.AperFunction,Plated,PTH,ComponentDrill
T8C2.000
%
G90
G05
T1
X149.387Y-109.501
X172.451Y-105.487
X178.739Y-89.612
X183.754Y-113.361
X187.945Y-100.407
X188.453Y-104.217
X190.358Y-95.073
X190.739Y-114.504
X191.896Y-104.457
X192.517Y-116.663
X192.676Y-110.911
X196.454Y-117.298
X196.581Y-119.33
X196.835Y-107.392
X196.835Y-109.297
X196.962Y-111.329
X203.439Y-116.79
X207.757Y-113.234
X209.154Y-87.834
X212.202Y-118.314
X212.456Y-84.913
X231.633Y-88.596
T2
X196.962Y-105.36
T3
X149.352Y-119.668
X151.852Y-119.668
X159.522Y-120.918
X162.062Y-120.918
X164.602Y-120.918
T4
X238.602Y-111.418
X238.602Y-113.918
X238.602Y-116.418
X238.602Y-118.918
X238.602Y-121.418
T5
X155.852Y-91.798
X155.852Y-94.338
X155.852Y-96.878
X155.852Y-99.418
X168.895Y-84.913
X168.895Y-87.453
X175.118Y-85.04
X175.118Y-87.58
X176.515Y-111.075
X176.515Y-113.615
X176.515Y-116.155
X176.515Y-118.695
X180.96Y-84.913
X180.96Y-87.453
X186.525Y-84.096
X186.525Y-88.596
X193.025Y-84.096
X193.025Y-88.596
X195.402Y-99.918
X197.942Y-99.918
X200.482Y-99.918
X203.022Y-99.918
X203.82Y-85.04
X203.82Y-87.58
X205.562Y-99.918
X208.102Y-99.918
X227.102Y-91.798
X227.102Y-94.338
X227.102Y-96.878
X227.102Y-99.418
X234.785Y-84.096
X234.785Y-88.596
X241.285Y-84.096
X241.285Y-88.596
T6
X159.577Y-110.496
X164.577Y-113.996
T7
X147.537Y-106.884
X147.837Y-83.984
X150.937Y-106.884
X158.537Y-106.884
X162.037Y-83.984
X162.037Y-106.884
T8
X168.514Y-95.835
X240.514Y-95.835
M30
