%TF.GenerationSoftware,KiCad,Pcbnew,9.0.3*%
%TF.CreationDate,2025-07-30T11:35:08+02:00*%
%TF.ProjectId,TPOneBoard,54504f6e-6542-46f6-9172-642e6b696361,rev?*%
%TF.SameCoordinates,Original*%
%TF.FileFunction,Copper,L1,Top*%
%TF.FilePolarity,Positive*%
%FSLAX46Y46*%
G04 Gerber Fmt 4.6, Leading zero omitted, Abs format (unit mm)*
G04 Created by KiCad (PCBNEW 9.0.3) date 2025-07-30 11:35:08*
%MOMM*%
%LPD*%
G01*
G04 APERTURE LIST*
G04 Aperture macros list*
%AMRoundRect*
0 Rectangle with rounded corners*
0 $1 Rounding radius*
0 $2 $3 $4 $5 $6 $7 $8 $9 X,Y pos of 4 corners*
0 Add a 4 corners polygon primitive as box body*
4,1,4,$2,$3,$4,$5,$6,$7,$8,$9,$2,$3,0*
0 Add four circle primitives for the rounded corners*
1,1,$1+$1,$2,$3*
1,1,$1+$1,$4,$5*
1,1,$1+$1,$6,$7*
1,1,$1+$1,$8,$9*
0 Add four rect primitives between the rounded corners*
20,1,$1+$1,$2,$3,$4,$5,0*
20,1,$1+$1,$4,$5,$6,$7,0*
20,1,$1+$1,$6,$7,$8,$9,0*
20,1,$1+$1,$8,$9,$2,$3,0*%
G04 Aperture macros list end*
%TA.AperFunction,SMDPad,CuDef*%
%ADD10RoundRect,0.250000X-0.400000X-0.625000X0.400000X-0.625000X0.400000X0.625000X-0.400000X0.625000X0*%
%TD*%
%TA.AperFunction,SMDPad,CuDef*%
%ADD11RoundRect,0.250000X-0.650000X0.412500X-0.650000X-0.412500X0.650000X-0.412500X0.650000X0.412500X0*%
%TD*%
%TA.AperFunction,ComponentPad*%
%ADD12R,1.700000X1.700000*%
%TD*%
%TA.AperFunction,ComponentPad*%
%ADD13C,1.700000*%
%TD*%
%TA.AperFunction,ComponentPad*%
%ADD14RoundRect,0.250000X-0.550000X-0.550000X0.550000X-0.550000X0.550000X0.550000X-0.550000X0.550000X0*%
%TD*%
%TA.AperFunction,ComponentPad*%
%ADD15C,1.600000*%
%TD*%
%TA.AperFunction,ComponentPad*%
%ADD16R,1.500000X1.500000*%
%TD*%
%TA.AperFunction,ComponentPad*%
%ADD17C,1.500000*%
%TD*%
%TA.AperFunction,SMDPad,CuDef*%
%ADD18RoundRect,0.150000X-0.725000X-0.150000X0.725000X-0.150000X0.725000X0.150000X-0.725000X0.150000X0*%
%TD*%
%TA.AperFunction,SMDPad,CuDef*%
%ADD19RoundRect,0.250000X0.400000X0.625000X-0.400000X0.625000X-0.400000X-0.625000X0.400000X-0.625000X0*%
%TD*%
%TA.AperFunction,SMDPad,CuDef*%
%ADD20RoundRect,0.100000X-0.225000X-0.100000X0.225000X-0.100000X0.225000X0.100000X-0.225000X0.100000X0*%
%TD*%
%TA.AperFunction,SMDPad,CuDef*%
%ADD21RoundRect,0.250000X-0.412500X-0.650000X0.412500X-0.650000X0.412500X0.650000X-0.412500X0.650000X0*%
%TD*%
%TA.AperFunction,ComponentPad*%
%ADD22RoundRect,0.250000X-0.725000X0.600000X-0.725000X-0.600000X0.725000X-0.600000X0.725000X0.600000X0*%
%TD*%
%TA.AperFunction,ComponentPad*%
%ADD23O,1.950000X1.700000*%
%TD*%
%TA.AperFunction,ComponentPad*%
%ADD24R,2.800000X2.800000*%
%TD*%
%TA.AperFunction,SMDPad,CuDef*%
%ADD25R,2.500000X1.000000*%
%TD*%
%TA.AperFunction,SMDPad,CuDef*%
%ADD26RoundRect,0.250001X-0.462499X-0.624999X0.462499X-0.624999X0.462499X0.624999X-0.462499X0.624999X0*%
%TD*%
%TA.AperFunction,ComponentPad*%
%ADD27R,3.500000X3.500000*%
%TD*%
%TA.AperFunction,ComponentPad*%
%ADD28C,3.500000*%
%TD*%
%TA.AperFunction,ComponentPad*%
%ADD29C,1.524000*%
%TD*%
%TA.AperFunction,ViaPad*%
%ADD30C,0.800000*%
%TD*%
%TA.AperFunction,ViaPad*%
%ADD31C,1.400000*%
%TD*%
%TA.AperFunction,Conductor*%
%ADD32C,0.250000*%
%TD*%
%TA.AperFunction,Conductor*%
%ADD33C,0.508000*%
%TD*%
%TA.AperFunction,Conductor*%
%ADD34C,0.254000*%
%TD*%
%TA.AperFunction,Conductor*%
%ADD35C,0.200000*%
%TD*%
G04 APERTURE END LIST*
D10*
%TO.P,R1,1*%
%TO.N,SCell+*%
X176590000Y-105487000D03*
%TO.P,R1,2*%
%TO.N,SolarPanel*%
X179690000Y-105487000D03*
%TD*%
D11*
%TO.P,C4,1*%
%TO.N,Net-(C4-Pad1)*%
X197216000Y-84836000D03*
%TO.P,C4,2*%
%TO.N,Net-(SW5-K)*%
X197216000Y-87961000D03*
%TD*%
D12*
%TO.P,JP6,1,A*%
%TO.N,+3.3V*%
X168895000Y-84913000D03*
D13*
%TO.P,JP6,2,B*%
%TO.N,Net-(JP6-B)*%
X168895000Y-87453000D03*
%TD*%
D10*
%TO.P,R3,1*%
%TO.N,18650+*%
X165593000Y-102693000D03*
%TO.P,R3,2*%
%TO.N,Akku*%
X168693000Y-102693000D03*
%TD*%
D14*
%TO.P,C5,1*%
%TO.N,Net-(JP6-B)*%
X149352000Y-119668000D03*
D15*
%TO.P,C5,2*%
%TO.N,GND*%
X151852000Y-119668000D03*
%TD*%
D10*
%TO.P,R7,1*%
%TO.N,EN*%
X216349000Y-115393000D03*
%TO.P,R7,2*%
%TO.N,+3.3V*%
X219449000Y-115393000D03*
%TD*%
D16*
%TO.P,U2,1,GND*%
%TO.N,GND*%
X159522000Y-120918000D03*
D17*
%TO.P,U2,2,VI*%
%TO.N,4056 Out+*%
X162062000Y-120918000D03*
%TO.P,U2,3,VO*%
%TO.N,Net-(JP6-B)*%
X164602000Y-120918000D03*
%TD*%
D18*
%TO.P,U1,1,X4*%
%TO.N,unconnected-(U1-X4-Pad1)*%
X184954000Y-100407000D03*
%TO.P,U1,2,X6*%
%TO.N,unconnected-(U1-X6-Pad2)*%
X184954000Y-101677000D03*
%TO.P,U1,3,X*%
%TO.N,ADC*%
X184954000Y-102947000D03*
%TO.P,U1,4,X7*%
%TO.N,unconnected-(U1-X7-Pad4)*%
X184954000Y-104217000D03*
%TO.P,U1,5,X5*%
%TO.N,unconnected-(U1-X5-Pad5)*%
X184954000Y-105487000D03*
%TO.P,U1,6,INH*%
%TO.N,GND*%
X184954000Y-106757000D03*
%TO.P,U1,7,VEE*%
X184954000Y-108027000D03*
%TO.P,U1,8,VSS*%
%TO.N,unconnected-(U1-VSS-Pad8)*%
X184954000Y-109297000D03*
%TO.P,U1,9,C*%
%TO.N,IO14*%
X190104000Y-109297000D03*
%TO.P,U1,10,B*%
%TO.N,IO13*%
X190104000Y-108027000D03*
%TO.P,U1,11,A*%
%TO.N,IO12*%
X190104000Y-106757000D03*
%TO.P,U1,12,X3*%
%TO.N,unconnected-(U1-X3-Pad12)*%
X190104000Y-105487000D03*
%TO.P,U1,13,X0*%
%TO.N,Akku*%
X190104000Y-104217000D03*
%TO.P,U1,14,X1*%
%TO.N,SolarPanel*%
X190104000Y-102947000D03*
%TO.P,U1,15,X2*%
%TO.N,unconnected-(U1-X2-Pad15)*%
X190104000Y-101677000D03*
%TO.P,U1,16,VDD*%
%TO.N,+3.3V*%
X190104000Y-100407000D03*
%TD*%
D12*
%TO.P,J8,1,Pin_1*%
%TO.N,18650+*%
X227102000Y-99418000D03*
D13*
%TO.P,J8,2,Pin_2*%
%TO.N,18650-*%
X227102000Y-96878000D03*
%TO.P,J8,3,Pin_3*%
%TO.N,18650+*%
X227102000Y-94338000D03*
%TO.P,J8,4,Pin_4*%
%TO.N,18650-*%
X227102000Y-91798000D03*
%TD*%
D10*
%TO.P,R8,1*%
%TO.N,DeepS*%
X216341000Y-118949000D03*
%TO.P,R8,2*%
%TO.N,+3.3V*%
X219441000Y-118949000D03*
%TD*%
D19*
%TO.P,R2,1*%
%TO.N,SolarPanel*%
X179690000Y-102693000D03*
%TO.P,R2,2*%
%TO.N,GND*%
X176590000Y-102693000D03*
%TD*%
D12*
%TO.P,J4,1,Pin_1*%
%TO.N,DTR*%
X203820000Y-87580000D03*
D13*
%TO.P,J4,2,Pin_2*%
%TO.N,RTS*%
X203820000Y-85040000D03*
%TD*%
%TO.P,SW4,1,1*%
%TO.N,GND*%
X234785000Y-84096000D03*
%TO.P,SW4,2,2*%
X241285000Y-84096000D03*
%TO.P,SW4,3,K*%
%TO.N,IO0*%
X234785000Y-88596000D03*
%TO.P,SW4,4,A*%
X241285000Y-88596000D03*
%TD*%
D19*
%TO.P,R4,1*%
%TO.N,Akku*%
X168693000Y-105487000D03*
%TO.P,R4,2*%
%TO.N,GND*%
X165593000Y-105487000D03*
%TD*%
D12*
%TO.P,JP3,1,A*%
%TO.N,+3.3V*%
X175118000Y-87580000D03*
D13*
%TO.P,JP3,2,B*%
%TO.N,Net-(J3-Pin_4)*%
X175118000Y-85040000D03*
%TD*%
D20*
%TO.P,Q2,1,E1*%
%TO.N,RTS*%
X209159000Y-84883000D03*
%TO.P,Q2,2,B1*%
%TO.N,DTR*%
X209159000Y-85533000D03*
%TO.P,Q2,3,C2*%
%TO.N,IO0*%
X209159000Y-86183000D03*
%TO.P,Q2,4,E2*%
%TO.N,DTR*%
X211059000Y-86183000D03*
%TO.P,Q2,5,B2*%
%TO.N,RTS*%
X211059000Y-85533000D03*
%TO.P,Q2,6,C1*%
%TO.N,DeepS*%
X211059000Y-84883000D03*
%TD*%
D13*
%TO.P,SW5,1,1*%
%TO.N,GND*%
X186525000Y-84096000D03*
%TO.P,SW5,2,2*%
%TO.N,Net-(C4-Pad1)*%
X193025000Y-84096000D03*
%TO.P,SW5,3,K*%
%TO.N,Net-(SW5-K)*%
X186525000Y-88596000D03*
%TO.P,SW5,4,A*%
%TO.N,DeepS*%
X193025000Y-88596000D03*
%TD*%
D21*
%TO.P,C6,1*%
%TO.N,Net-(JP6-B)*%
X149387000Y-112980000D03*
%TO.P,C6,2*%
%TO.N,GND*%
X152512000Y-112980000D03*
%TD*%
D12*
%TO.P,JP2,1,A*%
%TO.N,DeepS*%
X180960000Y-84913000D03*
D13*
%TO.P,JP2,2,B*%
%TO.N,GND*%
X180960000Y-87453000D03*
%TD*%
D22*
%TO.P,J1,1,Pin_1*%
%TO.N,unconnected-(J1-Pin_1-Pad1)*%
X238602000Y-111418000D03*
D23*
%TO.P,J1,2,Pin_2*%
%TO.N,GND*%
X238602000Y-113918000D03*
%TO.P,J1,3,Pin_3*%
%TO.N,SDA*%
X238602000Y-116418000D03*
%TO.P,J1,4,Pin_4*%
%TO.N,SCL*%
X238602000Y-118918000D03*
%TO.P,J1,5,Pin_5*%
%TO.N,+3.3V*%
X238602000Y-121418000D03*
%TD*%
D12*
%TO.P,J3,1,Pin_1*%
%TO.N,DTR*%
X195402000Y-99918000D03*
D13*
%TO.P,J3,2,Pin_2*%
%TO.N,TXD*%
X197942000Y-99918000D03*
%TO.P,J3,3,Pin_3*%
%TO.N,RXD*%
X200482000Y-99918000D03*
%TO.P,J3,4,Pin_4*%
%TO.N,Net-(J3-Pin_4)*%
X203022000Y-99918000D03*
%TO.P,J3,5,Pin_5*%
%TO.N,unconnected-(J3-Pin_5-Pad5)*%
X205562000Y-99918000D03*
%TO.P,J3,6,Pin_6*%
%TO.N,GND*%
X208102000Y-99918000D03*
%TD*%
D19*
%TO.P,R5,1*%
%TO.N,Net-(D4-A)*%
X188909000Y-116153000D03*
%TO.P,R5,2*%
%TO.N,+3.3V*%
X185809000Y-116153000D03*
%TD*%
D24*
%TO.P,J5,1,Pin_1*%
%TO.N,SCell+*%
X162037000Y-83984000D03*
%TO.P,J5,2,Pin_2*%
%TO.N,SCell-*%
X147837000Y-83984000D03*
%TO.P,J5,3,Pin_3*%
%TO.N,4056 Out+*%
X162037000Y-106884000D03*
%TO.P,J5,4,Pin_4*%
%TO.N,GND*%
X147537000Y-106884000D03*
%TO.P,J5,5,Pin_5*%
%TO.N,18650+*%
X158537000Y-106884000D03*
%TO.P,J5,6,Pin_6*%
%TO.N,18650-*%
X150937000Y-106884000D03*
%TD*%
D19*
%TO.P,R6,1*%
%TO.N,Net-(U7-GPIO15)*%
X190384000Y-93422000D03*
%TO.P,R6,2*%
%TO.N,GND*%
X187284000Y-93422000D03*
%TD*%
D25*
%TO.P,U7,1,REST*%
%TO.N,DeepS*%
X209702000Y-119360000D03*
%TO.P,U7,2,ADC*%
%TO.N,ADC*%
X209702000Y-117360000D03*
%TO.P,U7,3,CH_PD*%
%TO.N,EN*%
X209702000Y-115360000D03*
%TO.P,U7,4,GPIO16*%
%TO.N,DeepS*%
X209702000Y-113360000D03*
%TO.P,U7,5,GPIO14*%
%TO.N,IO14*%
X209702000Y-111360000D03*
%TO.P,U7,6,GPIO12*%
%TO.N,IO12*%
X209702000Y-109360000D03*
%TO.P,U7,7,GPIO13*%
%TO.N,IO13*%
X209702000Y-107360000D03*
%TO.P,U7,8,VCC*%
%TO.N,+3.3V*%
X209702000Y-105360000D03*
%TO.P,U7,9,GND*%
%TO.N,GND*%
X194502000Y-105360000D03*
%TO.P,U7,10,GPIO15*%
%TO.N,Net-(U7-GPIO15)*%
X194502000Y-107360000D03*
%TO.P,U7,11,GPIO2*%
%TO.N,LED_Buildin*%
X194502000Y-109360000D03*
%TO.P,U7,12,GPIO0*%
%TO.N,IO0*%
X194502000Y-111360000D03*
%TO.P,U7,13,GPIO4*%
%TO.N,SDA*%
X194502000Y-113360000D03*
%TO.P,U7,14,GPIO5*%
%TO.N,SCL*%
X194502000Y-115360000D03*
%TO.P,U7,15,RXD*%
%TO.N,RXD*%
X194502000Y-117360000D03*
%TO.P,U7,16,TXD*%
%TO.N,TXD*%
X194502000Y-119360000D03*
%TD*%
D26*
%TO.P,D4,1,K*%
%TO.N,LED_Buildin*%
X185988000Y-118947000D03*
%TO.P,D4,2,A*%
%TO.N,Net-(D4-A)*%
X188963000Y-118947000D03*
%TD*%
D19*
%TO.P,R9,1*%
%TO.N,IO0*%
X188834000Y-113488000D03*
%TO.P,R9,2*%
%TO.N,+3.3V*%
X185734000Y-113488000D03*
%TD*%
D12*
%TO.P,J2,1,Pin_1*%
%TO.N,+3.3V*%
X176515000Y-118695000D03*
D13*
%TO.P,J2,2,Pin_2*%
%TO.N,GND*%
X176515000Y-116155000D03*
%TO.P,J2,3,Pin_3*%
%TO.N,SCL*%
X176515000Y-113615000D03*
%TO.P,J2,4,Pin_4*%
%TO.N,SDA*%
X176515000Y-111075000D03*
%TD*%
D27*
%TO.P,BT2,1,+*%
%TO.N,18650+*%
X168514000Y-95835000D03*
D28*
%TO.P,BT2,2,-*%
%TO.N,18650-*%
X240514000Y-95835000D03*
%TD*%
D29*
%TO.P,J6,1,Pin_1*%
%TO.N,SCell+*%
X164577000Y-113996000D03*
%TO.P,J6,2,Pin_2*%
%TO.N,SCell-*%
X159577000Y-110495997D03*
%TD*%
D12*
%TO.P,J7,1,Pin_1*%
%TO.N,18650+*%
X155852000Y-99418000D03*
D13*
%TO.P,J7,2,Pin_2*%
%TO.N,18650-*%
X155852000Y-96878000D03*
%TO.P,J7,3,Pin_3*%
%TO.N,18650+*%
X155852000Y-94338000D03*
%TO.P,J7,4,Pin_4*%
%TO.N,18650-*%
X155852000Y-91798000D03*
%TD*%
D30*
%TO.N,Net-(J3-Pin_4)*%
X178739000Y-89612000D03*
%TO.N,Net-(JP6-B)*%
X149387000Y-109501000D03*
D31*
%TO.N,GND*%
X196962000Y-105360000D03*
D30*
%TO.N,+3.3V*%
X183754000Y-113361000D03*
X187945000Y-100407000D03*
%TO.N,SDA*%
X212202000Y-118314000D03*
%TO.N,LED_Buildin*%
X192517000Y-116663000D03*
X196835000Y-109297000D03*
%TO.N,RXD*%
X196454000Y-117298000D03*
%TO.N,TXD*%
X196581000Y-119330000D03*
%TO.N,ADC*%
X191896161Y-104456839D03*
X196962000Y-111329000D03*
%TO.N,DeepS*%
X203439000Y-116790000D03*
X212456000Y-84913000D03*
X207757000Y-113234000D03*
%TO.N,IO0*%
X192676304Y-110911000D03*
X190739000Y-114504000D03*
X231633000Y-88596000D03*
X209154000Y-87834000D03*
%TO.N,Akku*%
X188453000Y-104217000D03*
X172451000Y-105487000D03*
%TO.N,Net-(U7-GPIO15)*%
X196835000Y-107392000D03*
X190358000Y-95073000D03*
%TD*%
D32*
%TO.N,Net-(SW5-K)*%
X187795000Y-87326000D02*
X186525000Y-88596000D01*
X197216000Y-87961000D02*
X196581000Y-87326000D01*
X196581000Y-87326000D02*
X187795000Y-87326000D01*
%TO.N,Net-(J3-Pin_4)*%
X178739000Y-88661000D02*
X178739000Y-89612000D01*
X175118000Y-85040000D02*
X178739000Y-88661000D01*
%TO.N,DTR*%
X203820000Y-91500000D02*
X203820000Y-87580000D01*
X210096191Y-85533000D02*
X210746191Y-86183000D01*
X210746191Y-86183000D02*
X211059000Y-86183000D01*
X205867000Y-85533000D02*
X209159000Y-85533000D01*
X209159000Y-85533000D02*
X210096191Y-85533000D01*
X203820000Y-87580000D02*
X205867000Y-85533000D01*
X195402000Y-99918000D02*
X203820000Y-91500000D01*
%TO.N,Net-(C4-Pad1)*%
X197216000Y-84836000D02*
X193765000Y-84836000D01*
X193765000Y-84836000D02*
X193025000Y-84096000D01*
%TO.N,Net-(JP6-B)*%
X149352000Y-119668000D02*
X151878000Y-122194000D01*
X149464000Y-109424000D02*
X149387000Y-109501000D01*
X151878000Y-122194000D02*
X163326000Y-122194000D01*
X149352000Y-113015000D02*
X149387000Y-112980000D01*
X149352000Y-119668000D02*
X149352000Y-113015000D01*
X149387000Y-112980000D02*
X149387000Y-109501000D01*
X163326000Y-122194000D02*
X164602000Y-120918000D01*
D33*
%TO.N,GND*%
X184954000Y-106757000D02*
X184954000Y-108027000D01*
X194502000Y-105360000D02*
X196962000Y-105360000D01*
D32*
%TO.N,+3.3V*%
X197274000Y-104142000D02*
X208484000Y-104142000D01*
X219449000Y-118941000D02*
X219441000Y-118949000D01*
X227315000Y-118949000D02*
X219441000Y-118949000D01*
X185734000Y-113488000D02*
X185734000Y-116078000D01*
D33*
X219299000Y-115243000D02*
X219449000Y-115393000D01*
D32*
X219358000Y-115302000D02*
X219449000Y-115393000D01*
X208484000Y-104142000D02*
X209702000Y-105360000D01*
X175118000Y-87580000D02*
X187945000Y-100407000D01*
X176515000Y-118695000D02*
X179057000Y-116153000D01*
X183881000Y-113488000D02*
X183754000Y-113361000D01*
X179057000Y-116153000D02*
X185809000Y-116153000D01*
D33*
X219449000Y-115393000D02*
X219949000Y-115393000D01*
D32*
X185734000Y-113488000D02*
X183881000Y-113488000D01*
X229784000Y-121418000D02*
X227315000Y-118949000D01*
X210452000Y-105360000D02*
X219449000Y-114357000D01*
X238602000Y-121418000D02*
X229784000Y-121418000D01*
X209702000Y-105360000D02*
X210452000Y-105360000D01*
X185734000Y-116078000D02*
X185809000Y-116153000D01*
X193539000Y-100407000D02*
X197274000Y-104142000D01*
X219449000Y-115393000D02*
X219449000Y-118941000D01*
X187945000Y-100407000D02*
X190104000Y-100407000D01*
X190104000Y-100407000D02*
X193539000Y-100407000D01*
X219449000Y-114357000D02*
X219449000Y-115393000D01*
%TO.N,SDA*%
X194100000Y-113360000D02*
X194502000Y-113360000D01*
X203300000Y-113360000D02*
X208254000Y-118314000D01*
X191815000Y-111075000D02*
X194100000Y-113360000D01*
X176515000Y-111075000D02*
X191815000Y-111075000D01*
X208254000Y-118314000D02*
X212202000Y-118314000D01*
X194502000Y-113360000D02*
X203300000Y-113360000D01*
%TO.N,LED_Buildin*%
X187189000Y-120148000D02*
X189671014Y-120148000D01*
X196772000Y-109360000D02*
X196835000Y-109297000D01*
X194502000Y-109360000D02*
X196772000Y-109360000D01*
X189671014Y-120148000D02*
X192517000Y-117302014D01*
X185988000Y-118947000D02*
X187189000Y-120148000D01*
X192517000Y-117302014D02*
X192517000Y-116663000D01*
%TO.N,RXD*%
X194502000Y-117360000D02*
X196392000Y-117360000D01*
X196392000Y-117360000D02*
X196454000Y-117298000D01*
%TO.N,TXD*%
X196551000Y-119360000D02*
X196581000Y-119330000D01*
X194502000Y-119360000D02*
X196551000Y-119360000D01*
%TO.N,ADC*%
X189195678Y-103591000D02*
X191030322Y-103591000D01*
X203947000Y-112726000D02*
X198359000Y-112726000D01*
X184954000Y-102947000D02*
X188551678Y-102947000D01*
X208581000Y-117360000D02*
X203947000Y-112726000D01*
X198359000Y-112726000D02*
X196962000Y-111329000D01*
X209702000Y-117360000D02*
X208581000Y-117360000D01*
X191030322Y-103591000D02*
X191896161Y-104456839D01*
X188551678Y-102947000D02*
X189195678Y-103591000D01*
X191896161Y-104456839D02*
X191950304Y-104510982D01*
%TO.N,EN*%
X209702000Y-115360000D02*
X216316000Y-115360000D01*
X216316000Y-115360000D02*
X216349000Y-115393000D01*
%TO.N,DeepS*%
X198613000Y-88448014D02*
X198613000Y-83008000D01*
X211059000Y-84883000D02*
X212426000Y-84883000D01*
X198613000Y-83008000D02*
X210170000Y-83008000D01*
X206390000Y-119360000D02*
X209702000Y-119360000D01*
X193025000Y-88596000D02*
X193378500Y-88949500D01*
X210170000Y-83994000D02*
X211059000Y-84883000D01*
X209286000Y-119776000D02*
X209702000Y-119360000D01*
X210170000Y-83008000D02*
X210170000Y-83994000D01*
X193378500Y-88949500D02*
X198111514Y-88949500D01*
X209702000Y-113360000D02*
X207883000Y-113360000D01*
X215930000Y-119360000D02*
X216341000Y-118949000D01*
X207883000Y-113360000D02*
X207757000Y-113234000D01*
X198111514Y-88949500D02*
X198613000Y-88448014D01*
X203439000Y-116790000D02*
X203820000Y-116790000D01*
X209702000Y-119360000D02*
X215930000Y-119360000D01*
X212426000Y-84883000D02*
X212456000Y-84913000D01*
X203566000Y-116917000D02*
X203439000Y-116790000D01*
X203820000Y-116790000D02*
X206390000Y-119360000D01*
%TO.N,SCL*%
X239903000Y-120219000D02*
X238602000Y-118918000D01*
X189785514Y-111906000D02*
X193239514Y-115360000D01*
X194502000Y-115360000D02*
X196002000Y-115360000D01*
X227955190Y-120227000D02*
X230322190Y-122594000D01*
X196002000Y-115360000D02*
X200869000Y-120227000D01*
X178224000Y-111906000D02*
X189785514Y-111906000D01*
X239903000Y-121905115D02*
X239903000Y-120219000D01*
X200869000Y-120227000D02*
X227955190Y-120227000D01*
X176515000Y-113615000D02*
X178224000Y-111906000D01*
X230322190Y-122594000D02*
X239214115Y-122594000D01*
X239214115Y-122594000D02*
X239903000Y-121905115D01*
X193239514Y-115360000D02*
X194502000Y-115360000D01*
%TO.N,IO14*%
X210774000Y-111360000D02*
X209702000Y-111360000D01*
X190993000Y-110186000D02*
X208528000Y-110186000D01*
X190104000Y-109297000D02*
X190993000Y-110186000D01*
X208528000Y-110186000D02*
X209702000Y-111360000D01*
%TO.N,IO13*%
X196454588Y-106585000D02*
X208177000Y-106585000D01*
X188903000Y-106405678D02*
X189177678Y-106131000D01*
X189177678Y-106131000D02*
X192523000Y-106131000D01*
X192926000Y-106534000D02*
X196403588Y-106534000D01*
X208177000Y-106585000D02*
X208952000Y-107360000D01*
X192523000Y-106131000D02*
X192926000Y-106534000D01*
X189229001Y-108027000D02*
X188903000Y-107700999D01*
X208952000Y-107360000D02*
X209702000Y-107360000D01*
X196403588Y-106534000D02*
X196454588Y-106585000D01*
X188903000Y-107700999D02*
X188903000Y-106405678D01*
X190104000Y-108027000D02*
X189229001Y-108027000D01*
D34*
%TO.N,Net-(D4-A)*%
X189088000Y-118822000D02*
X188963000Y-118947000D01*
D32*
X188909000Y-116153000D02*
X188909000Y-118893000D01*
X188909000Y-118893000D02*
X188963000Y-118947000D01*
%TO.N,IO0*%
X209154000Y-87834000D02*
X230871000Y-87834000D01*
X209159000Y-87829000D02*
X209154000Y-87834000D01*
X230871000Y-87834000D02*
X231633000Y-88596000D01*
X209159000Y-86183000D02*
X209159000Y-87829000D01*
X194502000Y-111360000D02*
X193056000Y-111360000D01*
X192607000Y-110911000D02*
X192676304Y-110911000D01*
X193056000Y-111360000D02*
X192607000Y-110911000D01*
X189723000Y-113488000D02*
X190739000Y-114504000D01*
X188834000Y-113488000D02*
X189723000Y-113488000D01*
D35*
%TO.N,18650-*%
X236227000Y-91668000D02*
X227102000Y-91668000D01*
X155852000Y-86767000D02*
X160336000Y-82283000D01*
X157003000Y-92949000D02*
X157003000Y-95727000D01*
X160336000Y-82283000D02*
X226842000Y-82283000D01*
X155852000Y-91798000D02*
X155852000Y-86767000D01*
X226842000Y-82283000D02*
X240140000Y-95581000D01*
X227102000Y-91668000D02*
X228253000Y-92819000D01*
X157003000Y-95727000D02*
X155852000Y-96878000D01*
X228253000Y-95597000D02*
X227102000Y-96748000D01*
X228253000Y-92819000D02*
X228253000Y-95597000D01*
X155852000Y-91798000D02*
X157003000Y-92949000D01*
X240140000Y-95581000D02*
X236227000Y-91668000D01*
%TO.N,SCell+*%
X163815000Y-85762000D02*
X163815001Y-113234001D01*
X164577000Y-113996000D02*
X168081000Y-113996000D01*
X163815001Y-113234001D02*
X164577000Y-113996000D01*
X168081000Y-113996000D02*
X176590000Y-105487000D01*
X162037000Y-83984000D02*
X163815000Y-85762000D01*
%TO.N,SCell-*%
X147837000Y-83984000D02*
X153147000Y-89294000D01*
X158536997Y-110495997D02*
X159577000Y-110495997D01*
X153147000Y-105106000D02*
X158536997Y-110495997D01*
X153147000Y-89294000D02*
X153147000Y-105106000D01*
%TO.N,18650+*%
X155852000Y-104199000D02*
X158537000Y-106884000D01*
X165593000Y-102693000D02*
X168514000Y-99772000D01*
X154701000Y-98267000D02*
X155852000Y-99418000D01*
X154701000Y-95489000D02*
X154701000Y-98267000D01*
X155852000Y-99418000D02*
X155852000Y-104199000D01*
X168514000Y-99772000D02*
X168514000Y-95835000D01*
X155852000Y-94338000D02*
X154701000Y-95489000D01*
D32*
%TO.N,RTS*%
X203977000Y-84883000D02*
X209159000Y-84883000D01*
X210734001Y-85533000D02*
X211059000Y-85533000D01*
X210084001Y-84883000D02*
X210734001Y-85533000D01*
X209159000Y-84883000D02*
X210084001Y-84883000D01*
X203820000Y-85040000D02*
X203977000Y-84883000D01*
%TO.N,SolarPanel*%
X179690000Y-102693000D02*
X180071000Y-102312000D01*
X189469000Y-102312000D02*
X190104000Y-102947000D01*
X179690000Y-102693000D02*
X179690000Y-105487000D01*
X180071000Y-102312000D02*
X189469000Y-102312000D01*
%TO.N,Akku*%
X168693000Y-105487000D02*
X172451000Y-105487000D01*
X168693000Y-102693000D02*
X168693000Y-105487000D01*
X190104000Y-104217000D02*
X188453000Y-104217000D01*
%TO.N,Net-(U7-GPIO15)*%
X196803000Y-107360000D02*
X196835000Y-107392000D01*
X194502000Y-107360000D02*
X196803000Y-107360000D01*
X190384000Y-93422000D02*
X190384000Y-95047000D01*
X190384000Y-95047000D02*
X190358000Y-95073000D01*
%TO.N,IO12*%
X191149000Y-106757000D02*
X192926000Y-108534000D01*
X208126000Y-108534000D02*
X208952000Y-109360000D01*
X208952000Y-109360000D02*
X209702000Y-109360000D01*
X192926000Y-108534000D02*
X208126000Y-108534000D01*
X190104000Y-106757000D02*
X191149000Y-106757000D01*
%TD*%
%TA.AperFunction,Conductor*%
%TO.N,GND*%
G36*
X244728138Y-80667863D02*
G01*
X244795154Y-80687622D01*
X244840851Y-80740476D01*
X244852000Y-80791863D01*
X244852000Y-125294000D01*
X244832315Y-125361039D01*
X244779511Y-125406794D01*
X244728000Y-125418000D01*
X225226000Y-125418000D01*
X225158961Y-125398315D01*
X225113206Y-125345511D01*
X225102000Y-125294000D01*
X225102000Y-120984500D01*
X225121685Y-120917461D01*
X225174489Y-120871706D01*
X225226000Y-120860500D01*
X227641424Y-120860500D01*
X227708463Y-120880185D01*
X227729105Y-120896819D01*
X229918353Y-123086069D01*
X229918357Y-123086072D01*
X230022111Y-123155399D01*
X230022113Y-123155399D01*
X230022115Y-123155401D01*
X230103637Y-123189168D01*
X230137405Y-123203155D01*
X230137407Y-123203155D01*
X230137412Y-123203157D01*
X230259791Y-123227499D01*
X230259795Y-123227500D01*
X230259796Y-123227500D01*
X239276510Y-123227500D01*
X239276511Y-123227499D01*
X239398900Y-123203155D01*
X239514190Y-123155400D01*
X239617948Y-123086071D01*
X240395072Y-122308948D01*
X240464401Y-122205190D01*
X240512155Y-122089899D01*
X240513270Y-122084298D01*
X240523553Y-122032600D01*
X240536499Y-121967512D01*
X240536500Y-121967510D01*
X240536500Y-120156605D01*
X240536499Y-120156601D01*
X240524870Y-120098139D01*
X240512155Y-120034215D01*
X240464400Y-119918925D01*
X240464399Y-119918924D01*
X240464396Y-119918918D01*
X240395072Y-119815168D01*
X240371108Y-119791204D01*
X240306833Y-119726929D01*
X240047897Y-119467993D01*
X240014412Y-119406670D01*
X240017646Y-119341995D01*
X240052049Y-119236116D01*
X240085500Y-119024916D01*
X240085500Y-118811084D01*
X240052049Y-118599884D01*
X240007653Y-118463244D01*
X239985973Y-118396519D01*
X239985972Y-118396516D01*
X239923269Y-118273455D01*
X239888894Y-118205991D01*
X239763206Y-118032996D01*
X239612004Y-117881794D01*
X239605596Y-117877138D01*
X239455818Y-117768318D01*
X239413152Y-117712988D01*
X239407173Y-117643375D01*
X239439779Y-117581580D01*
X239455818Y-117567682D01*
X239523074Y-117518817D01*
X239612004Y-117454206D01*
X239763206Y-117303004D01*
X239888894Y-117130009D01*
X239985972Y-116939483D01*
X240052049Y-116736116D01*
X240085500Y-116524916D01*
X240085500Y-116311084D01*
X240052049Y-116099884D01*
X240005729Y-115957324D01*
X239985973Y-115896519D01*
X239985972Y-115896516D01*
X239927497Y-115781754D01*
X239888894Y-115705991D01*
X239763206Y-115532996D01*
X239612004Y-115381794D01*
X239448586Y-115263064D01*
X239405921Y-115207734D01*
X239399942Y-115138121D01*
X239432548Y-115076326D01*
X239448587Y-115062428D01*
X239606459Y-114947727D01*
X239606464Y-114947723D01*
X239756723Y-114797464D01*
X239756727Y-114797459D01*
X239881620Y-114625557D01*
X239978095Y-114436217D01*
X240043757Y-114234129D01*
X240043757Y-114234126D01*
X240054231Y-114168000D01*
X239006146Y-114168000D01*
X239044630Y-114101343D01*
X239077000Y-113980535D01*
X239077000Y-113855465D01*
X239044630Y-113734657D01*
X239006146Y-113668000D01*
X240054231Y-113668000D01*
X240043757Y-113601873D01*
X240043757Y-113601870D01*
X239978095Y-113399782D01*
X239881620Y-113210442D01*
X239756727Y-113038540D01*
X239756723Y-113038535D01*
X239623670Y-112905482D01*
X239590185Y-112844159D01*
X239595169Y-112774467D01*
X239637041Y-112718534D01*
X239646255Y-112712262D01*
X239649733Y-112710116D01*
X239649738Y-112710115D01*
X239800652Y-112617030D01*
X239926030Y-112491652D01*
X240019115Y-112340738D01*
X240074887Y-112172426D01*
X240085500Y-112068545D01*
X240085499Y-110767456D01*
X240074887Y-110663574D01*
X240019115Y-110495262D01*
X239926030Y-110344348D01*
X239800652Y-110218970D01*
X239649738Y-110125885D01*
X239649735Y-110125884D01*
X239481427Y-110070113D01*
X239377545Y-110059500D01*
X237826462Y-110059500D01*
X237826446Y-110059501D01*
X237722572Y-110070113D01*
X237554264Y-110125884D01*
X237554259Y-110125886D01*
X237403346Y-110218971D01*
X237277971Y-110344346D01*
X237184886Y-110495259D01*
X237184884Y-110495264D01*
X237129113Y-110663572D01*
X237118500Y-110767447D01*
X237118500Y-112068537D01*
X237118501Y-112068553D01*
X237129113Y-112172427D01*
X237164763Y-112280013D01*
X237184885Y-112340738D01*
X237277970Y-112491652D01*
X237403348Y-112617030D01*
X237554262Y-112710115D01*
X237554266Y-112710116D01*
X237557745Y-112712262D01*
X237604469Y-112764210D01*
X237615692Y-112833173D01*
X237587848Y-112897255D01*
X237580330Y-112905482D01*
X237447271Y-113038541D01*
X237322379Y-113210442D01*
X237225904Y-113399782D01*
X237160242Y-113601870D01*
X237160242Y-113601873D01*
X237149769Y-113668000D01*
X238197854Y-113668000D01*
X238159370Y-113734657D01*
X238127000Y-113855465D01*
X238127000Y-113980535D01*
X238159370Y-114101343D01*
X238197854Y-114168000D01*
X237149769Y-114168000D01*
X237160242Y-114234126D01*
X237160242Y-114234129D01*
X237225904Y-114436217D01*
X237322379Y-114625557D01*
X237447272Y-114797459D01*
X237447276Y-114797464D01*
X237597535Y-114947723D01*
X237597540Y-114947727D01*
X237755412Y-115062428D01*
X237798078Y-115117758D01*
X237804057Y-115187371D01*
X237771451Y-115249166D01*
X237755413Y-115263064D01*
X237657769Y-115334006D01*
X237591996Y-115381794D01*
X237591994Y-115381796D01*
X237591993Y-115381796D01*
X237440796Y-115532993D01*
X237315106Y-115705990D01*
X237218027Y-115896516D01*
X237218026Y-115896519D01*
X237151951Y-116099882D01*
X237130920Y-116232667D01*
X237118500Y-116311084D01*
X237118500Y-116524916D01*
X237123281Y-116555099D01*
X237151951Y-116736117D01*
X237218026Y-116939480D01*
X237218027Y-116939483D01*
X237276887Y-117055000D01*
X237315106Y-117130009D01*
X237440794Y-117303004D01*
X237591996Y-117454206D01*
X237680926Y-117518817D01*
X237748182Y-117567682D01*
X237790847Y-117623012D01*
X237796826Y-117692626D01*
X237764220Y-117754421D01*
X237748182Y-117768318D01*
X237709583Y-117796362D01*
X237591996Y-117881794D01*
X237591994Y-117881796D01*
X237591993Y-117881796D01*
X237440796Y-118032993D01*
X237315106Y-118205990D01*
X237218027Y-118396516D01*
X237218026Y-118396519D01*
X237151951Y-118599882D01*
X237118500Y-118811084D01*
X237118500Y-119024915D01*
X237151951Y-119236117D01*
X237218026Y-119439480D01*
X237218027Y-119439483D01*
X237296574Y-119593638D01*
X237315106Y-119630009D01*
X237440794Y-119803004D01*
X237591996Y-119954206D01*
X237649368Y-119995889D01*
X237748182Y-120067682D01*
X237790847Y-120123012D01*
X237796826Y-120192626D01*
X237764220Y-120254421D01*
X237748182Y-120268318D01*
X237679315Y-120318353D01*
X237591996Y-120381794D01*
X237591994Y-120381796D01*
X237591993Y-120381796D01*
X237440796Y-120532993D01*
X237315109Y-120705986D01*
X237315107Y-120705989D01*
X237315106Y-120705991D01*
X237309601Y-120716794D01*
X237261629Y-120767590D01*
X237199117Y-120784500D01*
X230097766Y-120784500D01*
X230030727Y-120764815D01*
X230010085Y-120748181D01*
X227718836Y-118456931D01*
X227718832Y-118456928D01*
X227615081Y-118387603D01*
X227615072Y-118387598D01*
X227499785Y-118339845D01*
X227499777Y-118339843D01*
X227377398Y-118315500D01*
X227377394Y-118315500D01*
X220715772Y-118315500D01*
X220648733Y-118295815D01*
X220602978Y-118243011D01*
X220592414Y-118204101D01*
X220591595Y-118196085D01*
X220588887Y-118169574D01*
X220533115Y-118001262D01*
X220440030Y-117850348D01*
X220314652Y-117724970D01*
X220163738Y-117631885D01*
X220163736Y-117631884D01*
X220163734Y-117631883D01*
X220157193Y-117628833D01*
X220158191Y-117626691D01*
X220110042Y-117593346D01*
X220083226Y-117528826D01*
X220082500Y-117515424D01*
X220082500Y-116829226D01*
X220102185Y-116762187D01*
X220154989Y-116716432D01*
X220167488Y-116711522D01*
X220171738Y-116710115D01*
X220322652Y-116617030D01*
X220448030Y-116491652D01*
X220541115Y-116340738D01*
X220596887Y-116172426D01*
X220607500Y-116068545D01*
X220607499Y-115817452D01*
X220622142Y-115758998D01*
X220624713Y-115754185D01*
X220624718Y-115754179D01*
X220682197Y-115615413D01*
X220696433Y-115543845D01*
X220711500Y-115468102D01*
X220711500Y-115317897D01*
X220682198Y-115170592D01*
X220682197Y-115170591D01*
X220682197Y-115170587D01*
X220624718Y-115031821D01*
X220624717Y-115031819D01*
X220622139Y-115026995D01*
X220607499Y-114968545D01*
X220607499Y-114717462D01*
X220607498Y-114717446D01*
X220606945Y-114712030D01*
X220596887Y-114613574D01*
X220541115Y-114445262D01*
X220448030Y-114294348D01*
X220322652Y-114168970D01*
X220228707Y-114111024D01*
X220171740Y-114075886D01*
X220171733Y-114075883D01*
X220021225Y-114026011D01*
X219968674Y-113991935D01*
X219962345Y-113985007D01*
X219941071Y-113953167D01*
X219852833Y-113864929D01*
X211496819Y-105508915D01*
X211463334Y-105447592D01*
X211460500Y-105421234D01*
X211460500Y-104811362D01*
X211460499Y-104811345D01*
X211456917Y-104778034D01*
X211453989Y-104750799D01*
X211443187Y-104721839D01*
X211415397Y-104647332D01*
X211402889Y-104613796D01*
X211315261Y-104496739D01*
X211198204Y-104409111D01*
X211156763Y-104393654D01*
X211061203Y-104358011D01*
X211000654Y-104351500D01*
X211000638Y-104351500D01*
X209640766Y-104351500D01*
X209573727Y-104331815D01*
X209553085Y-104315181D01*
X208887836Y-103649931D01*
X208887832Y-103649928D01*
X208784081Y-103580603D01*
X208784072Y-103580598D01*
X208668785Y-103532845D01*
X208668777Y-103532843D01*
X208546398Y-103508500D01*
X208546394Y-103508500D01*
X197587767Y-103508500D01*
X197520728Y-103488815D01*
X197500086Y-103472181D01*
X196561303Y-102533398D01*
X195516084Y-101488180D01*
X195482600Y-101426858D01*
X195487584Y-101357166D01*
X195529456Y-101301233D01*
X195594920Y-101276816D01*
X195603766Y-101276500D01*
X196300638Y-101276500D01*
X196300654Y-101276499D01*
X196327692Y-101273591D01*
X196361201Y-101269989D01*
X196498204Y-101218889D01*
X196615261Y-101131261D01*
X196702889Y-101014204D01*
X196747957Y-100893371D01*
X196789827Y-100837442D01*
X196855291Y-100813025D01*
X196923564Y-100827877D01*
X196951818Y-100849028D01*
X197056996Y-100954206D01*
X197229991Y-101079894D01*
X197295436Y-101113240D01*
X197420516Y-101176972D01*
X197420519Y-101176973D01*
X197522200Y-101210010D01*
X197623884Y-101243049D01*
X197835084Y-101276500D01*
X197835085Y-101276500D01*
X198048915Y-101276500D01*
X198048916Y-101276500D01*
X198260116Y-101243049D01*
X198463483Y-101176972D01*
X198654009Y-101079894D01*
X198827004Y-100954206D01*
X198978206Y-100803004D01*
X199103894Y-100630009D01*
X199103896Y-100630004D01*
X199106270Y-100626132D01*
X199158080Y-100579254D01*
X199227009Y-100567829D01*
X199291173Y-100595483D01*
X199317730Y-100626132D01*
X199320103Y-100630005D01*
X199320106Y-100630009D01*
X199445794Y-100803004D01*
X199596996Y-100954206D01*
X199769991Y-101079894D01*
X199835436Y-101113240D01*
X199960516Y-101176972D01*
X199960519Y-101176973D01*
X200062200Y-101210010D01*
X200163884Y-101243049D01*
X200375084Y-101276500D01*
X200375085Y-101276500D01*
X200588915Y-101276500D01*
X200588916Y-101276500D01*
X200800116Y-101243049D01*
X201003483Y-101176972D01*
X201194009Y-101079894D01*
X201367004Y-100954206D01*
X201518206Y-100803004D01*
X201643894Y-100630009D01*
X201643896Y-100630004D01*
X201646270Y-100626132D01*
X201698080Y-100579254D01*
X201767009Y-100567829D01*
X201831173Y-100595483D01*
X201857730Y-100626132D01*
X201860103Y-100630005D01*
X201860106Y-100630009D01*
X201985794Y-100803004D01*
X202136996Y-100954206D01*
X202309991Y-101079894D01*
X202375436Y-101113240D01*
X202500516Y-101176972D01*
X202500519Y-101176973D01*
X202602200Y-101210010D01*
X202703884Y-101243049D01*
X202915084Y-101276500D01*
X202915085Y-101276500D01*
X203128915Y-101276500D01*
X203128916Y-101276500D01*
X203340116Y-101243049D01*
X203543483Y-101176972D01*
X203734009Y-101079894D01*
X203907004Y-100954206D01*
X204058206Y-100803004D01*
X204183894Y-100630009D01*
X204183896Y-100630004D01*
X204186270Y-100626132D01*
X204238080Y-100579254D01*
X204307009Y-100567829D01*
X204371173Y-100595483D01*
X204397730Y-100626132D01*
X204400103Y-100630005D01*
X204400106Y-100630009D01*
X204525794Y-100803004D01*
X204676996Y-100954206D01*
X204849991Y-101079894D01*
X204915436Y-101113240D01*
X205040516Y-101176972D01*
X205040519Y-101176973D01*
X205142200Y-101210010D01*
X205243884Y-101243049D01*
X205455084Y-101276500D01*
X205455085Y-101276500D01*
X205668915Y-101276500D01*
X205668916Y-101276500D01*
X205880116Y-101243049D01*
X206083483Y-101176972D01*
X206274009Y-101079894D01*
X206447004Y-100954206D01*
X206598206Y-100803004D01*
X206723894Y-100630009D01*
X206726283Y-100625319D01*
X206774254Y-100574522D01*
X206842074Y-100557724D01*
X206908210Y-100580258D01*
X206944196Y-100621783D01*
X206944829Y-100621396D01*
X206947167Y-100625211D01*
X206947251Y-100625308D01*
X206947371Y-100625545D01*
X206947373Y-100625547D01*
X206986728Y-100679716D01*
X207619037Y-100047408D01*
X207636075Y-100110993D01*
X207701901Y-100225007D01*
X207794993Y-100318099D01*
X207909007Y-100383925D01*
X207972590Y-100400962D01*
X207340282Y-101033269D01*
X207340282Y-101033270D01*
X207394449Y-101072624D01*
X207583782Y-101169095D01*
X207785870Y-101234757D01*
X207995754Y-101268000D01*
X208208246Y-101268000D01*
X208418127Y-101234757D01*
X208418130Y-101234757D01*
X208620217Y-101169095D01*
X208809554Y-101072622D01*
X208863716Y-101033270D01*
X208863717Y-101033270D01*
X208231408Y-100400962D01*
X208294993Y-100383925D01*
X208409007Y-100318099D01*
X208502099Y-100225007D01*
X208567925Y-100110993D01*
X208584962Y-100047408D01*
X209217270Y-100679717D01*
X209217270Y-100679716D01*
X209256622Y-100625554D01*
X209353095Y-100436217D01*
X209418757Y-100234130D01*
X209418757Y-100234127D01*
X209452000Y-100024246D01*
X209452000Y-99811753D01*
X209418757Y-99601872D01*
X209418757Y-99601869D01*
X209353095Y-99399782D01*
X209256624Y-99210449D01*
X209217270Y-99156282D01*
X209217269Y-99156282D01*
X208584962Y-99788590D01*
X208567925Y-99725007D01*
X208502099Y-99610993D01*
X208409007Y-99517901D01*
X208294993Y-99452075D01*
X208231409Y-99435037D01*
X208863716Y-98802728D01*
X208809550Y-98763375D01*
X208620217Y-98666904D01*
X208418129Y-98601242D01*
X208208246Y-98568000D01*
X207995754Y-98568000D01*
X207785872Y-98601242D01*
X207785869Y-98601242D01*
X207583782Y-98666904D01*
X207394439Y-98763380D01*
X207340282Y-98802727D01*
X207340282Y-98802728D01*
X207972591Y-99435037D01*
X207909007Y-99452075D01*
X207794993Y-99517901D01*
X207701901Y-99610993D01*
X207636075Y-99725007D01*
X207619037Y-99788591D01*
X206986728Y-99156282D01*
X206986727Y-99156282D01*
X206947380Y-99210440D01*
X206947374Y-99210449D01*
X206947246Y-99210702D01*
X206947172Y-99210780D01*
X206944838Y-99214590D01*
X206944036Y-99214099D01*
X206899264Y-99261490D01*
X206831441Y-99278275D01*
X206765309Y-99255728D01*
X206726283Y-99210680D01*
X206723894Y-99205991D01*
X206598206Y-99032996D01*
X206447004Y-98881794D01*
X206274009Y-98756106D01*
X206083483Y-98659027D01*
X206083480Y-98659026D01*
X205880117Y-98592951D01*
X205774516Y-98576225D01*
X205668916Y-98559500D01*
X205455084Y-98559500D01*
X205384684Y-98570650D01*
X205243882Y-98592951D01*
X205040519Y-98659026D01*
X205040516Y-98659027D01*
X204849990Y-98756106D01*
X204676993Y-98881796D01*
X204525796Y-99032993D01*
X204400105Y-99205991D01*
X204397727Y-99209873D01*
X204345914Y-99256748D01*
X204276984Y-99268169D01*
X204212822Y-99240512D01*
X204186273Y-99209873D01*
X204183894Y-99205991D01*
X204147778Y-99156282D01*
X204058206Y-99032996D01*
X203907004Y-98881794D01*
X203734009Y-98756106D01*
X203543483Y-98659027D01*
X203543480Y-98659026D01*
X203340117Y-98592951D01*
X203234516Y-98576225D01*
X203128916Y-98559500D01*
X202915084Y-98559500D01*
X202844684Y-98570650D01*
X202703882Y-98592951D01*
X202500519Y-98659026D01*
X202500516Y-98659027D01*
X202309990Y-98756106D01*
X202136993Y-98881796D01*
X201985796Y-99032993D01*
X201860105Y-99205991D01*
X201857727Y-99209873D01*
X201805914Y-99256748D01*
X201736984Y-99268169D01*
X201672822Y-99240512D01*
X201646273Y-99209873D01*
X201643894Y-99205991D01*
X201607778Y-99156282D01*
X201518206Y-99032996D01*
X201367004Y-98881794D01*
X201194009Y-98756106D01*
X201003483Y-98659027D01*
X201003480Y-98659026D01*
X200800117Y-98592951D01*
X200694516Y-98576225D01*
X200588916Y-98559500D01*
X200375084Y-98559500D01*
X200304684Y-98570650D01*
X200163882Y-98592951D01*
X199960519Y-98659026D01*
X199960516Y-98659027D01*
X199769990Y-98756106D01*
X199596993Y-98881796D01*
X199445796Y-99032993D01*
X199320105Y-99205991D01*
X199317727Y-99209873D01*
X199265914Y-99256748D01*
X199196984Y-99268169D01*
X199132822Y-99240512D01*
X199106273Y-99209873D01*
X199103894Y-99205991D01*
X199067778Y-99156282D01*
X198978206Y-99032996D01*
X198827004Y-98881794D01*
X198654009Y-98756106D01*
X198463483Y-98659027D01*
X198463480Y-98659026D01*
X198260117Y-98592951D01*
X198154516Y-98576225D01*
X198048916Y-98559500D01*
X197955765Y-98559500D01*
X197888726Y-98539815D01*
X197842971Y-98487011D01*
X197833027Y-98417853D01*
X197862052Y-98354297D01*
X197868084Y-98347819D01*
X199350611Y-96865293D01*
X204312072Y-91903833D01*
X204381401Y-91800075D01*
X204429155Y-91684785D01*
X204453500Y-91562394D01*
X204453500Y-91437606D01*
X204453500Y-89062500D01*
X204473185Y-88995461D01*
X204525989Y-88949706D01*
X204577500Y-88938500D01*
X204718638Y-88938500D01*
X204718654Y-88938499D01*
X204745692Y-88935591D01*
X204779201Y-88931989D01*
X204916204Y-88880889D01*
X205033261Y-88793261D01*
X205120889Y-88676204D01*
X205171989Y-88539201D01*
X205177364Y-88489206D01*
X205178499Y-88478654D01*
X205178500Y-88478637D01*
X205178500Y-87168766D01*
X205198185Y-87101727D01*
X205214819Y-87081085D01*
X206093085Y-86202819D01*
X206154408Y-86169334D01*
X206180766Y-86166500D01*
X208201501Y-86166500D01*
X208268540Y-86186185D01*
X208314295Y-86238989D01*
X208325501Y-86290500D01*
X208325501Y-86322886D01*
X208341160Y-86441842D01*
X208341163Y-86441853D01*
X208402474Y-86589874D01*
X208402476Y-86589877D01*
X208499875Y-86716808D01*
X208525070Y-86781977D01*
X208525500Y-86792295D01*
X208525500Y-87126324D01*
X208505815Y-87193363D01*
X208489181Y-87214005D01*
X208448324Y-87254861D01*
X208448321Y-87254865D01*
X208348901Y-87403657D01*
X208348896Y-87403667D01*
X208280413Y-87568999D01*
X208280411Y-87569007D01*
X208245500Y-87744516D01*
X208245500Y-87923483D01*
X208280411Y-88098992D01*
X208280413Y-88099000D01*
X208348896Y-88264332D01*
X208348901Y-88264342D01*
X208448321Y-88413134D01*
X208448324Y-88413138D01*
X208574861Y-88539675D01*
X208574865Y-88539678D01*
X208723657Y-88639098D01*
X208723661Y-88639100D01*
X208723664Y-88639102D01*
X208889000Y-88707587D01*
X209064516Y-88742499D01*
X209064520Y-88742500D01*
X209064521Y-88742500D01*
X209243480Y-88742500D01*
X209243481Y-88742499D01*
X209419000Y-88707587D01*
X209584336Y-88639102D01*
X209733135Y-88539678D01*
X209768993Y-88503820D01*
X209830315Y-88470334D01*
X209856675Y-88467500D01*
X230557234Y-88467500D01*
X230586674Y-88476144D01*
X230616661Y-88482668D01*
X230621676Y-88486422D01*
X230624273Y-88487185D01*
X230644915Y-88503819D01*
X230688181Y-88547085D01*
X230721666Y-88608408D01*
X230724500Y-88634766D01*
X230724500Y-88685483D01*
X230759411Y-88860992D01*
X230759413Y-88861000D01*
X230827896Y-89026332D01*
X230827901Y-89026342D01*
X230927321Y-89175134D01*
X230927324Y-89175138D01*
X231053861Y-89301675D01*
X231053865Y-89301678D01*
X231202657Y-89401098D01*
X231202661Y-89401100D01*
X231202664Y-89401102D01*
X231368000Y-89469587D01*
X231543516Y-89504499D01*
X231543520Y-89504500D01*
X231543521Y-89504500D01*
X231722480Y-89504500D01*
X231722481Y-89504499D01*
X231898000Y-89469587D01*
X232063336Y-89401102D01*
X232212135Y-89301678D01*
X232338678Y-89175135D01*
X232438102Y-89026336D01*
X232451052Y-88995071D01*
X232494892Y-88940669D01*
X232561185Y-88918603D01*
X232628885Y-88935881D01*
X232653294Y-88954843D01*
X234546270Y-90847819D01*
X234579755Y-90909142D01*
X234574771Y-90978834D01*
X234532899Y-91034767D01*
X234467435Y-91059184D01*
X234458589Y-91059500D01*
X228307828Y-91059500D01*
X228240789Y-91039815D01*
X228207511Y-91008387D01*
X228138206Y-90912996D01*
X227987004Y-90761794D01*
X227814009Y-90636106D01*
X227623483Y-90539027D01*
X227623480Y-90539026D01*
X227420117Y-90472951D01*
X227304348Y-90454615D01*
X227208916Y-90439500D01*
X226995084Y-90439500D01*
X226924684Y-90450650D01*
X226783882Y-90472951D01*
X226580519Y-90539026D01*
X226580516Y-90539027D01*
X226389990Y-90636106D01*
X226216993Y-90761796D01*
X226065796Y-90912993D01*
X225940106Y-91085990D01*
X225843027Y-91276516D01*
X225843026Y-91276519D01*
X225776951Y-91479882D01*
X225743500Y-91691084D01*
X225743500Y-91904915D01*
X225776951Y-92116117D01*
X225843026Y-92319480D01*
X225843027Y-92319483D01*
X225907172Y-92445373D01*
X225940106Y-92510009D01*
X226065794Y-92683004D01*
X226216996Y-92834206D01*
X226389991Y-92959894D01*
X226393873Y-92962273D01*
X226440748Y-93014086D01*
X226452169Y-93083016D01*
X226424512Y-93147178D01*
X226393873Y-93173727D01*
X226389991Y-93176105D01*
X226216993Y-93301796D01*
X226065796Y-93452993D01*
X225940106Y-93625990D01*
X225843027Y-93816516D01*
X225843026Y-93816519D01*
X225776951Y-94019882D01*
X225752893Y-94171777D01*
X225743500Y-94231084D01*
X225743500Y-94444916D01*
X225755496Y-94520653D01*
X225776951Y-94656117D01*
X225843026Y-94859480D01*
X225843027Y-94859483D01*
X225922158Y-95014785D01*
X225940106Y-95050009D01*
X226065794Y-95223004D01*
X226216996Y-95374206D01*
X226353265Y-95473211D01*
X226389991Y-95499894D01*
X226393873Y-95502273D01*
X226440748Y-95554086D01*
X226452169Y-95623016D01*
X226424512Y-95687178D01*
X226393873Y-95713727D01*
X226389991Y-95716105D01*
X226216993Y-95841796D01*
X226065796Y-95992993D01*
X225940106Y-96165990D01*
X225843027Y-96356516D01*
X225843026Y-96356519D01*
X225776951Y-96559882D01*
X225743500Y-96771084D01*
X225743500Y-96984915D01*
X225776951Y-97196117D01*
X225843026Y-97399480D01*
X225843027Y-97399483D01*
X225893338Y-97498222D01*
X225940106Y-97590009D01*
X226065794Y-97763004D01*
X226065796Y-97763006D01*
X226170971Y-97868181D01*
X226204456Y-97929504D01*
X226199472Y-97999196D01*
X226157600Y-98055129D01*
X226126625Y-98072043D01*
X226005795Y-98117111D01*
X225888739Y-98204739D01*
X225801111Y-98321795D01*
X225750011Y-98458795D01*
X225750011Y-98458797D01*
X225743500Y-98519345D01*
X225743500Y-100316654D01*
X225750011Y-100377202D01*
X225750011Y-100377204D01*
X225794500Y-100496479D01*
X225801111Y-100514204D01*
X225888739Y-100631261D01*
X226005796Y-100718889D01*
X226142799Y-100769989D01*
X226170050Y-100772918D01*
X226203345Y-100776499D01*
X226203362Y-100776500D01*
X228000638Y-100776500D01*
X228000654Y-100776499D01*
X228027692Y-100773591D01*
X228061201Y-100769989D01*
X228198204Y-100718889D01*
X228315261Y-100631261D01*
X228402889Y-100514204D01*
X228453989Y-100377201D01*
X228457591Y-100343692D01*
X228460499Y-100316654D01*
X228460500Y-100316637D01*
X228460500Y-98519362D01*
X228460499Y-98519345D01*
X228457022Y-98487011D01*
X228453989Y-98458799D01*
X228402889Y-98321796D01*
X228315261Y-98204739D01*
X228198204Y-98117111D01*
X228198202Y-98117110D01*
X228198204Y-98117110D01*
X228077375Y-98072043D01*
X228021441Y-98030172D01*
X227997025Y-97964707D01*
X228011877Y-97896434D01*
X228033022Y-97868187D01*
X228138206Y-97763004D01*
X228263894Y-97590009D01*
X228360972Y-97399483D01*
X228427049Y-97196116D01*
X228460500Y-96984916D01*
X228460500Y-96771084D01*
X228427049Y-96559884D01*
X228382749Y-96423543D01*
X228380755Y-96353705D01*
X228412997Y-96297551D01*
X228739922Y-95970627D01*
X228820032Y-95831872D01*
X228840659Y-95754889D01*
X228851693Y-95713711D01*
X230918500Y-95713711D01*
X230918500Y-95956288D01*
X230937501Y-96100623D01*
X230950162Y-96196789D01*
X230977160Y-96297546D01*
X231012947Y-96431104D01*
X231067388Y-96562535D01*
X231105776Y-96655212D01*
X231227064Y-96865289D01*
X231227066Y-96865292D01*
X231227067Y-96865293D01*
X231374733Y-97057736D01*
X231374739Y-97057743D01*
X231546256Y-97229260D01*
X231546262Y-97229265D01*
X231738711Y-97376936D01*
X231948788Y-97498224D01*
X232172900Y-97591054D01*
X232407211Y-97653838D01*
X232587586Y-97677584D01*
X232647711Y-97685500D01*
X232647712Y-97685500D01*
X232890289Y-97685500D01*
X232938388Y-97679167D01*
X233130789Y-97653838D01*
X233365100Y-97591054D01*
X233589212Y-97498224D01*
X233799289Y-97376936D01*
X233991738Y-97229265D01*
X234163265Y-97057738D01*
X234310936Y-96865289D01*
X234432224Y-96655212D01*
X234525054Y-96431100D01*
X234587838Y-96196789D01*
X234619500Y-95956288D01*
X234619500Y-95713712D01*
X234614740Y-95677559D01*
X234598485Y-95554086D01*
X234587838Y-95473211D01*
X234525054Y-95238900D01*
X234432224Y-95014788D01*
X234310936Y-94804711D01*
X234226240Y-94694333D01*
X234163266Y-94612263D01*
X234163260Y-94612256D01*
X233991743Y-94440739D01*
X233991736Y-94440733D01*
X233799293Y-94293067D01*
X233799292Y-94293066D01*
X233799289Y-94293064D01*
X233589212Y-94171776D01*
X233589205Y-94171773D01*
X233365104Y-94078947D01*
X233206112Y-94036345D01*
X233130789Y-94016162D01*
X233130788Y-94016161D01*
X233130785Y-94016161D01*
X232890289Y-93984500D01*
X232890288Y-93984500D01*
X232647712Y-93984500D01*
X232647711Y-93984500D01*
X232407214Y-94016161D01*
X232172895Y-94078947D01*
X231948794Y-94171773D01*
X231948785Y-94171777D01*
X231738706Y-94293067D01*
X231546263Y-94440733D01*
X231546256Y-94440739D01*
X231374739Y-94612256D01*
X231374733Y-94612263D01*
X231227067Y-94804706D01*
X231105777Y-95014785D01*
X231105773Y-95014794D01*
X231012947Y-95238895D01*
X230950161Y-95473214D01*
X230918500Y-95713711D01*
X228851693Y-95713711D01*
X228861380Y-95677559D01*
X228861381Y-95677557D01*
X228861499Y-95677116D01*
X228861500Y-95677110D01*
X228861500Y-92738891D01*
X228861500Y-92738889D01*
X228820032Y-92584128D01*
X228814977Y-92575372D01*
X228749809Y-92462498D01*
X228733337Y-92394600D01*
X228756189Y-92328573D01*
X228811110Y-92285383D01*
X228857197Y-92276500D01*
X235923589Y-92276500D01*
X235990628Y-92296185D01*
X236011270Y-92312819D01*
X238439635Y-94741184D01*
X238473120Y-94802507D01*
X238468136Y-94872199D01*
X238466515Y-94876317D01*
X238370774Y-95107458D01*
X238370767Y-95107477D01*
X238339812Y-95223004D01*
X238299299Y-95374206D01*
X238294145Y-95393440D01*
X238294143Y-95393451D01*
X238255500Y-95686962D01*
X238255500Y-95983037D01*
X238283642Y-96196785D01*
X238294144Y-96276557D01*
X238370769Y-96562529D01*
X238409157Y-96655205D01*
X238484070Y-96836059D01*
X238484071Y-96836060D01*
X238632096Y-97092447D01*
X238812324Y-97327326D01*
X238812330Y-97327333D01*
X239021666Y-97536669D01*
X239021673Y-97536675D01*
X239256552Y-97716903D01*
X239512939Y-97864928D01*
X239512940Y-97864929D01*
X239512943Y-97864930D01*
X239512948Y-97864933D01*
X239786471Y-97978231D01*
X240072443Y-98054856D01*
X240365970Y-98093500D01*
X240365977Y-98093500D01*
X240662023Y-98093500D01*
X240662030Y-98093500D01*
X240955557Y-98054856D01*
X241241529Y-97978231D01*
X241515052Y-97864933D01*
X241771448Y-97716903D01*
X242006328Y-97536674D01*
X242215674Y-97327328D01*
X242395903Y-97092448D01*
X242543933Y-96836052D01*
X242657231Y-96562529D01*
X242733856Y-96276557D01*
X242772500Y-95983030D01*
X242772500Y-95686970D01*
X242733856Y-95393443D01*
X242657231Y-95107471D01*
X242543933Y-94833948D01*
X242543930Y-94833943D01*
X242543929Y-94833940D01*
X242543928Y-94833939D01*
X242395903Y-94577552D01*
X242215675Y-94342673D01*
X242215669Y-94342666D01*
X242006333Y-94133330D01*
X242006326Y-94133324D01*
X241771447Y-93953096D01*
X241515060Y-93805071D01*
X241515059Y-93805070D01*
X241515052Y-93805067D01*
X241241529Y-93691769D01*
X240955557Y-93615144D01*
X240906503Y-93608685D01*
X240662037Y-93576500D01*
X240662030Y-93576500D01*
X240365970Y-93576500D01*
X240365962Y-93576500D01*
X240086571Y-93613283D01*
X240072443Y-93615144D01*
X240031965Y-93625990D01*
X239786477Y-93691767D01*
X239786473Y-93691768D01*
X239786471Y-93691769D01*
X239786464Y-93691772D01*
X239512954Y-93805063D01*
X239512949Y-93805066D01*
X239412552Y-93863030D01*
X239344652Y-93879502D01*
X239278625Y-93856649D01*
X239262872Y-93843323D01*
X235405992Y-89986443D01*
X235372507Y-89925120D01*
X235377491Y-89855428D01*
X235419363Y-89799495D01*
X235437379Y-89788277D01*
X235497007Y-89757895D01*
X235497006Y-89757895D01*
X235497009Y-89757894D01*
X235670004Y-89632206D01*
X235821206Y-89481004D01*
X235946894Y-89308009D01*
X236043972Y-89117483D01*
X236110049Y-88914116D01*
X236143500Y-88702916D01*
X236143500Y-88489084D01*
X239926500Y-88489084D01*
X239926500Y-88702916D01*
X239932769Y-88742499D01*
X239959951Y-88914117D01*
X240026026Y-89117480D01*
X240026027Y-89117483D01*
X240058731Y-89181667D01*
X240123106Y-89308009D01*
X240248794Y-89481004D01*
X240399996Y-89632206D01*
X240572991Y-89757894D01*
X240666438Y-89805507D01*
X240763516Y-89854972D01*
X240763519Y-89854973D01*
X240831313Y-89877000D01*
X240966884Y-89921049D01*
X241178084Y-89954500D01*
X241178085Y-89954500D01*
X241391915Y-89954500D01*
X241391916Y-89954500D01*
X241603116Y-89921049D01*
X241806483Y-89854972D01*
X241997009Y-89757894D01*
X242170004Y-89632206D01*
X242321206Y-89481004D01*
X242446894Y-89308009D01*
X242543972Y-89117483D01*
X242610049Y-88914116D01*
X242643500Y-88702916D01*
X242643500Y-88489084D01*
X242610049Y-88277884D01*
X242559341Y-88121818D01*
X242543973Y-88074519D01*
X242543972Y-88074516D01*
X242482056Y-87953000D01*
X242446894Y-87883991D01*
X242321206Y-87710996D01*
X242170004Y-87559794D01*
X241997009Y-87434106D01*
X241806483Y-87337027D01*
X241806480Y-87337026D01*
X241603117Y-87270951D01*
X241435777Y-87244447D01*
X241391916Y-87237500D01*
X241178084Y-87237500D01*
X241134223Y-87244447D01*
X240966882Y-87270951D01*
X240763519Y-87337026D01*
X240763516Y-87337027D01*
X240572990Y-87434106D01*
X240399993Y-87559796D01*
X240248796Y-87710993D01*
X240123106Y-87883990D01*
X240026027Y-88074516D01*
X240026026Y-88074519D01*
X239959951Y-88277882D01*
X239928538Y-88476214D01*
X239926500Y-88489084D01*
X236143500Y-88489084D01*
X236110049Y-88277884D01*
X236059341Y-88121818D01*
X236043973Y-88074519D01*
X236043972Y-88074516D01*
X235982056Y-87953000D01*
X235946894Y-87883991D01*
X235821206Y-87710996D01*
X235670004Y-87559794D01*
X235497009Y-87434106D01*
X235306483Y-87337027D01*
X235306480Y-87337026D01*
X235103117Y-87270951D01*
X234935777Y-87244447D01*
X234891916Y-87237500D01*
X234678084Y-87237500D01*
X234634223Y-87244447D01*
X234466882Y-87270951D01*
X234263519Y-87337026D01*
X234263516Y-87337027D01*
X234072990Y-87434106D01*
X233899993Y-87559796D01*
X233748796Y-87710993D01*
X233623104Y-87883993D01*
X233592721Y-87943622D01*
X233544746Y-87994418D01*
X233476925Y-88011212D01*
X233410790Y-87988674D01*
X233394556Y-87975007D01*
X229409302Y-83989753D01*
X233435000Y-83989753D01*
X233435000Y-84202246D01*
X233468242Y-84412127D01*
X233468242Y-84412130D01*
X233533904Y-84614217D01*
X233630375Y-84803550D01*
X233669728Y-84857716D01*
X234302037Y-84225408D01*
X234319075Y-84288993D01*
X234384901Y-84403007D01*
X234477993Y-84496099D01*
X234592007Y-84561925D01*
X234655590Y-84578962D01*
X234023282Y-85211269D01*
X234023282Y-85211270D01*
X234077449Y-85250624D01*
X234266782Y-85347095D01*
X234468870Y-85412757D01*
X234678754Y-85446000D01*
X234891246Y-85446000D01*
X235101127Y-85412757D01*
X235101130Y-85412757D01*
X235303217Y-85347095D01*
X235492554Y-85250622D01*
X235546716Y-85211270D01*
X235546717Y-85211270D01*
X234914408Y-84578962D01*
X234977993Y-84561925D01*
X235092007Y-84496099D01*
X235185099Y-84403007D01*
X235250925Y-84288993D01*
X235267962Y-84225408D01*
X235900270Y-84857717D01*
X235900270Y-84857716D01*
X235939622Y-84803554D01*
X236036095Y-84614217D01*
X236101757Y-84412130D01*
X236101757Y-84412127D01*
X236135000Y-84202246D01*
X236135000Y-83989753D01*
X239935000Y-83989753D01*
X239935000Y-84202246D01*
X239968242Y-84412127D01*
X239968242Y-84412130D01*
X240033904Y-84614217D01*
X240130375Y-84803550D01*
X240169728Y-84857716D01*
X240802037Y-84225408D01*
X240819075Y-84288993D01*
X240884901Y-84403007D01*
X240977993Y-84496099D01*
X241092007Y-84561925D01*
X241155590Y-84578962D01*
X240523282Y-85211269D01*
X240523282Y-85211270D01*
X240577449Y-85250624D01*
X240766782Y-85347095D01*
X240968870Y-85412757D01*
X241178754Y-85446000D01*
X241391246Y-85446000D01*
X241601127Y-85412757D01*
X241601130Y-85412757D01*
X241803217Y-85347095D01*
X241992554Y-85250622D01*
X242046716Y-85211270D01*
X242046717Y-85211270D01*
X241414408Y-84578962D01*
X241477993Y-84561925D01*
X241592007Y-84496099D01*
X241685099Y-84403007D01*
X241750925Y-84288993D01*
X241767962Y-84225408D01*
X242400270Y-84857717D01*
X242400270Y-84857716D01*
X242439622Y-84803554D01*
X242536095Y-84614217D01*
X242601757Y-84412130D01*
X242601757Y-84412127D01*
X242635000Y-84202246D01*
X242635000Y-83989753D01*
X242601757Y-83779872D01*
X242601757Y-83779869D01*
X242536095Y-83577782D01*
X242439624Y-83388449D01*
X242400270Y-83334282D01*
X242400269Y-83334282D01*
X241767962Y-83966590D01*
X241750925Y-83903007D01*
X241685099Y-83788993D01*
X241592007Y-83695901D01*
X241477993Y-83630075D01*
X241414409Y-83613037D01*
X242046716Y-82980728D01*
X241992550Y-82941375D01*
X241803217Y-82844904D01*
X241601129Y-82779242D01*
X241391246Y-82746000D01*
X241178754Y-82746000D01*
X240968872Y-82779242D01*
X240968869Y-82779242D01*
X240766782Y-82844904D01*
X240577439Y-82941380D01*
X240523282Y-82980727D01*
X240523282Y-82980728D01*
X241155591Y-83613037D01*
X241092007Y-83630075D01*
X240977993Y-83695901D01*
X240884901Y-83788993D01*
X240819075Y-83903007D01*
X240802037Y-83966590D01*
X240169728Y-83334282D01*
X240169727Y-83334282D01*
X240130380Y-83388439D01*
X240033904Y-83577782D01*
X239968242Y-83779869D01*
X239968242Y-83779872D01*
X239935000Y-83989753D01*
X236135000Y-83989753D01*
X236101757Y-83779872D01*
X236101757Y-83779869D01*
X236036095Y-83577782D01*
X235939624Y-83388449D01*
X235900270Y-83334282D01*
X235900269Y-83334282D01*
X235267962Y-83966590D01*
X235250925Y-83903007D01*
X235185099Y-83788993D01*
X235092007Y-83695901D01*
X234977993Y-83630075D01*
X234914409Y-83613037D01*
X235546716Y-82980728D01*
X235492550Y-82941375D01*
X235303217Y-82844904D01*
X235101129Y-82779242D01*
X234891246Y-82746000D01*
X234678754Y-82746000D01*
X234468872Y-82779242D01*
X234468869Y-82779242D01*
X234266782Y-82844904D01*
X234077439Y-82941380D01*
X234023282Y-82980727D01*
X234023282Y-82980728D01*
X234655591Y-83613037D01*
X234592007Y-83630075D01*
X234477993Y-83695901D01*
X234384901Y-83788993D01*
X234319075Y-83903007D01*
X234302037Y-83966591D01*
X233669728Y-83334282D01*
X233669727Y-83334282D01*
X233630380Y-83388439D01*
X233533904Y-83577782D01*
X233468242Y-83779869D01*
X233468242Y-83779872D01*
X233435000Y-83989753D01*
X229409302Y-83989753D01*
X227215629Y-81796080D01*
X227215627Y-81796078D01*
X227076873Y-81715968D01*
X226999491Y-81695234D01*
X226999490Y-81695233D01*
X226942844Y-81680055D01*
X226922111Y-81674500D01*
X160255889Y-81674500D01*
X160101128Y-81715968D01*
X160101125Y-81715969D01*
X159962376Y-81796075D01*
X159962371Y-81796079D01*
X155365080Y-86393370D01*
X155365078Y-86393373D01*
X155292112Y-86519754D01*
X155284968Y-86532127D01*
X155264234Y-86609508D01*
X155244981Y-86681362D01*
X155243500Y-86686889D01*
X155243500Y-90507377D01*
X155223815Y-90574416D01*
X155175797Y-90617861D01*
X155139990Y-90636106D01*
X154966993Y-90761796D01*
X154815796Y-90912993D01*
X154690106Y-91085990D01*
X154593027Y-91276516D01*
X154593026Y-91276519D01*
X154526951Y-91479882D01*
X154493500Y-91691084D01*
X154493500Y-91904915D01*
X154526951Y-92116117D01*
X154593026Y-92319480D01*
X154593027Y-92319483D01*
X154657172Y-92445373D01*
X154690106Y-92510009D01*
X154815794Y-92683004D01*
X154966996Y-92834206D01*
X155139991Y-92959894D01*
X155143873Y-92962273D01*
X155190748Y-93014086D01*
X155202169Y-93083016D01*
X155174512Y-93147178D01*
X155143873Y-93173727D01*
X155139991Y-93176105D01*
X154966993Y-93301796D01*
X154815796Y-93452993D01*
X154690106Y-93625990D01*
X154593027Y-93816516D01*
X154593026Y-93816519D01*
X154526951Y-94019882D01*
X154502893Y-94171777D01*
X154493500Y-94231084D01*
X154493500Y-94444916D01*
X154505496Y-94520653D01*
X154526951Y-94656117D01*
X154539368Y-94694333D01*
X154541363Y-94764174D01*
X154509118Y-94820332D01*
X154214080Y-95115370D01*
X154214078Y-95115373D01*
X154133968Y-95254125D01*
X154127126Y-95279663D01*
X154092500Y-95408889D01*
X154092500Y-98347109D01*
X154133968Y-98501874D01*
X154144065Y-98519362D01*
X154214078Y-98640627D01*
X154214080Y-98640629D01*
X154457181Y-98883730D01*
X154490666Y-98945053D01*
X154493500Y-98971411D01*
X154493500Y-100316654D01*
X154500011Y-100377202D01*
X154500011Y-100377204D01*
X154544500Y-100496479D01*
X154551111Y-100514204D01*
X154638739Y-100631261D01*
X154755796Y-100718889D01*
X154892799Y-100769989D01*
X154920050Y-100772918D01*
X154953345Y-100776499D01*
X154953362Y-100776500D01*
X155119500Y-100776500D01*
X155186539Y-100796185D01*
X155232294Y-100848989D01*
X155243500Y-100900500D01*
X155243500Y-104118890D01*
X155243500Y-104279110D01*
X155253165Y-104315181D01*
X155284968Y-104433874D01*
X155312754Y-104482000D01*
X155365078Y-104572627D01*
X155365080Y-104572629D01*
X156592181Y-105799730D01*
X156625666Y-105861053D01*
X156628500Y-105887411D01*
X156628500Y-107427589D01*
X156608815Y-107494628D01*
X156556011Y-107540383D01*
X156486853Y-107550327D01*
X156423297Y-107521302D01*
X156416819Y-107515270D01*
X153791819Y-104890270D01*
X153758334Y-104828947D01*
X153755500Y-104802589D01*
X153755500Y-89213891D01*
X153755500Y-89213889D01*
X153714032Y-89059128D01*
X153714032Y-89059127D01*
X153670735Y-88984136D01*
X153633921Y-88920372D01*
X153520628Y-88807079D01*
X153520627Y-88807078D01*
X153516297Y-88802748D01*
X153516286Y-88802738D01*
X149781819Y-85068270D01*
X149748334Y-85006947D01*
X149745500Y-84980589D01*
X149745500Y-82535362D01*
X149745499Y-82535345D01*
X149742157Y-82504270D01*
X149738989Y-82474799D01*
X149687889Y-82337796D01*
X149600261Y-82220739D01*
X149483204Y-82133111D01*
X149346203Y-82082011D01*
X149285654Y-82075500D01*
X149285638Y-82075500D01*
X146388362Y-82075500D01*
X146388345Y-82075500D01*
X146327797Y-82082011D01*
X146327795Y-82082011D01*
X146190795Y-82133111D01*
X146073739Y-82220739D01*
X145986111Y-82337795D01*
X145935011Y-82474795D01*
X145935011Y-82474797D01*
X145928500Y-82535345D01*
X145928500Y-85432654D01*
X145935011Y-85493202D01*
X145935011Y-85493204D01*
X145964118Y-85571240D01*
X145986111Y-85630204D01*
X146073739Y-85747261D01*
X146190796Y-85834889D01*
X146327799Y-85885989D01*
X146355050Y-85888918D01*
X146388345Y-85892499D01*
X146388362Y-85892500D01*
X148833589Y-85892500D01*
X148900628Y-85912185D01*
X148921270Y-85928819D01*
X152502181Y-89509729D01*
X152535666Y-89571052D01*
X152538500Y-89597410D01*
X152538500Y-104853888D01*
X152518815Y-104920927D01*
X152466011Y-104966682D01*
X152401245Y-104977177D01*
X152385656Y-104975501D01*
X152385638Y-104975500D01*
X149488362Y-104975500D01*
X149488345Y-104975500D01*
X149427797Y-104982011D01*
X149427795Y-104982011D01*
X149290797Y-105033110D01*
X149286960Y-105035206D01*
X149282689Y-105036134D01*
X149282488Y-105036210D01*
X149282477Y-105036181D01*
X149218687Y-105050056D01*
X149184203Y-105042554D01*
X149044379Y-104990403D01*
X149044372Y-104990401D01*
X148984844Y-104984000D01*
X147787000Y-104984000D01*
X147787000Y-106154110D01*
X147761601Y-106143590D01*
X147612838Y-106114000D01*
X147461162Y-106114000D01*
X147312399Y-106143590D01*
X147287000Y-106154110D01*
X147287000Y-104984000D01*
X146089155Y-104984000D01*
X146029627Y-104990401D01*
X146029620Y-104990403D01*
X145894913Y-105040645D01*
X145894906Y-105040649D01*
X145779812Y-105126809D01*
X145779809Y-105126812D01*
X145693649Y-105241906D01*
X145693645Y-105241913D01*
X145643403Y-105376620D01*
X145643401Y-105376627D01*
X145637000Y-105436155D01*
X145637000Y-106634000D01*
X146807111Y-106634000D01*
X146796590Y-106659399D01*
X146767000Y-106808162D01*
X146767000Y-106959838D01*
X146796590Y-107108601D01*
X146807111Y-107134000D01*
X145637000Y-107134000D01*
X145637000Y-108331844D01*
X145643401Y-108391372D01*
X145643403Y-108391379D01*
X145693645Y-108526086D01*
X145693649Y-108526093D01*
X145779809Y-108641187D01*
X145779812Y-108641190D01*
X145894906Y-108727350D01*
X145894913Y-108727354D01*
X146029620Y-108777596D01*
X146029627Y-108777598D01*
X146089155Y-108783999D01*
X146089172Y-108784000D01*
X147287000Y-108784000D01*
X147287000Y-107613889D01*
X147312399Y-107624410D01*
X147461162Y-107654000D01*
X147612838Y-107654000D01*
X147761601Y-107624410D01*
X147787000Y-107613889D01*
X147787000Y-108784000D01*
X148541452Y-108784000D01*
X148608491Y-108803685D01*
X148654246Y-108856489D01*
X148664190Y-108925647D01*
X148644554Y-108976890D01*
X148581904Y-109070652D01*
X148581896Y-109070667D01*
X148513413Y-109235999D01*
X148513411Y-109236007D01*
X148478500Y-109411516D01*
X148478500Y-109590483D01*
X148513411Y-109765992D01*
X148513413Y-109766000D01*
X148581896Y-109931332D01*
X148581901Y-109931342D01*
X148681321Y-110080134D01*
X148681324Y-110080138D01*
X148717180Y-110115993D01*
X148750666Y-110177315D01*
X148753500Y-110203675D01*
X148753500Y-111514631D01*
X148733815Y-111581670D01*
X148681011Y-111627425D01*
X148668507Y-111632336D01*
X148651766Y-111637883D01*
X148651759Y-111637886D01*
X148500846Y-111730971D01*
X148375471Y-111856346D01*
X148282386Y-112007259D01*
X148282384Y-112007264D01*
X148226613Y-112175572D01*
X148216000Y-112279447D01*
X148216000Y-113680537D01*
X148216001Y-113680553D01*
X148226613Y-113784427D01*
X148282384Y-113952735D01*
X148282386Y-113952740D01*
X148292540Y-113969202D01*
X148375470Y-114103652D01*
X148500848Y-114229030D01*
X148651762Y-114322115D01*
X148651763Y-114322115D01*
X148657909Y-114325906D01*
X148656455Y-114328261D01*
X148699340Y-114366016D01*
X148718500Y-114432232D01*
X148718500Y-118257069D01*
X148698815Y-118324108D01*
X148646011Y-118369863D01*
X148633504Y-118374775D01*
X148479264Y-118425884D01*
X148479259Y-118425886D01*
X148328346Y-118518971D01*
X148202971Y-118644346D01*
X148109886Y-118795259D01*
X148109884Y-118795264D01*
X148054113Y-118963572D01*
X148043500Y-119067447D01*
X148043500Y-120268537D01*
X148043501Y-120268553D01*
X148054113Y-120372427D01*
X148109884Y-120540735D01*
X148109886Y-120540740D01*
X148145142Y-120597898D01*
X148202970Y-120691652D01*
X148328348Y-120817030D01*
X148479262Y-120910115D01*
X148647574Y-120965887D01*
X148751455Y-120976500D01*
X149713233Y-120976499D01*
X149780272Y-120996183D01*
X149800914Y-121012818D01*
X151385929Y-122597833D01*
X151474167Y-122686071D01*
X151474168Y-122686072D01*
X151577918Y-122755396D01*
X151577924Y-122755399D01*
X151577925Y-122755400D01*
X151693215Y-122803155D01*
X151815601Y-122827499D01*
X151815605Y-122827500D01*
X151815606Y-122827500D01*
X163388395Y-122827500D01*
X163388396Y-122827499D01*
X163510785Y-122803155D01*
X163626075Y-122755400D01*
X163729833Y-122686071D01*
X164230764Y-122185138D01*
X164292084Y-122151656D01*
X164337840Y-122150349D01*
X164502949Y-122176500D01*
X164502954Y-122176500D01*
X164701051Y-122176500D01*
X164896700Y-122145512D01*
X164924559Y-122136460D01*
X165085097Y-122084298D01*
X165261598Y-121994366D01*
X165421858Y-121877930D01*
X165561930Y-121737858D01*
X165678366Y-121577598D01*
X165768298Y-121401097D01*
X165829512Y-121212700D01*
X165837288Y-121163606D01*
X165860500Y-121017051D01*
X165860500Y-120818948D01*
X165829512Y-120623299D01*
X165778611Y-120466643D01*
X165768298Y-120434903D01*
X165768296Y-120434900D01*
X165768296Y-120434898D01*
X165708913Y-120318353D01*
X165678366Y-120258402D01*
X165561930Y-120098142D01*
X165421858Y-119958070D01*
X165261598Y-119841634D01*
X165085101Y-119751703D01*
X164896700Y-119690487D01*
X164701051Y-119659500D01*
X164701046Y-119659500D01*
X164502954Y-119659500D01*
X164502949Y-119659500D01*
X164307299Y-119690487D01*
X164118898Y-119751703D01*
X163942401Y-119841634D01*
X163869315Y-119894735D01*
X163782142Y-119958070D01*
X163782140Y-119958072D01*
X163782139Y-119958072D01*
X163642072Y-120098139D01*
X163642072Y-120098140D01*
X163642070Y-120098142D01*
X163624001Y-120123012D01*
X163525634Y-120258401D01*
X163442485Y-120421590D01*
X163394510Y-120472386D01*
X163326689Y-120489181D01*
X163260554Y-120466643D01*
X163221515Y-120421590D01*
X163169694Y-120319887D01*
X163138366Y-120258402D01*
X163021930Y-120098142D01*
X162881858Y-119958070D01*
X162721598Y-119841634D01*
X162545101Y-119751703D01*
X162356700Y-119690487D01*
X162161051Y-119659500D01*
X162161046Y-119659500D01*
X161962954Y-119659500D01*
X161962949Y-119659500D01*
X161767299Y-119690487D01*
X161578898Y-119751703D01*
X161402401Y-119841634D01*
X161329315Y-119894735D01*
X161242142Y-119958070D01*
X161242140Y-119958072D01*
X161242139Y-119958072D01*
X161102071Y-120098140D01*
X160996318Y-120243696D01*
X160940987Y-120286361D01*
X160871374Y-120292340D01*
X160809579Y-120259734D01*
X160775222Y-120198895D01*
X160772000Y-120170810D01*
X160772000Y-120120172D01*
X160771999Y-120120155D01*
X160765598Y-120060627D01*
X160765596Y-120060620D01*
X160715354Y-119925913D01*
X160715350Y-119925906D01*
X160629190Y-119810812D01*
X160629187Y-119810809D01*
X160514093Y-119724649D01*
X160514086Y-119724645D01*
X160379379Y-119674403D01*
X160379372Y-119674401D01*
X160319844Y-119668000D01*
X159772000Y-119668000D01*
X159772000Y-120602314D01*
X159767606Y-120597920D01*
X159676394Y-120545259D01*
X159574661Y-120518000D01*
X159469339Y-120518000D01*
X159367606Y-120545259D01*
X159276394Y-120597920D01*
X159272000Y-120602314D01*
X159272000Y-119668000D01*
X158724155Y-119668000D01*
X158664627Y-119674401D01*
X158664620Y-119674403D01*
X158529913Y-119724645D01*
X158529906Y-119724649D01*
X158414812Y-119810809D01*
X158414809Y-119810812D01*
X158328649Y-119925906D01*
X158328645Y-119925913D01*
X158278403Y-120060620D01*
X158278401Y-120060627D01*
X158272000Y-120120155D01*
X158272000Y-120668000D01*
X159206314Y-120668000D01*
X159201920Y-120672394D01*
X159149259Y-120763606D01*
X159122000Y-120865339D01*
X159122000Y-120970661D01*
X159149259Y-121072394D01*
X159201920Y-121163606D01*
X159206314Y-121168000D01*
X158272000Y-121168000D01*
X158272000Y-121436500D01*
X158252315Y-121503539D01*
X158199511Y-121549294D01*
X158148000Y-121560500D01*
X152191766Y-121560500D01*
X152124727Y-121540815D01*
X152104085Y-121524181D01*
X151759585Y-121179681D01*
X151726100Y-121118358D01*
X151731084Y-121048666D01*
X151772956Y-120992733D01*
X151838420Y-120968316D01*
X151847266Y-120968000D01*
X151954317Y-120968000D01*
X152156417Y-120935990D01*
X152351031Y-120872755D01*
X152533349Y-120779859D01*
X152577921Y-120747474D01*
X151898446Y-120068000D01*
X151904661Y-120068000D01*
X152006394Y-120040741D01*
X152097606Y-119988080D01*
X152172080Y-119913606D01*
X152224741Y-119822394D01*
X152252000Y-119720661D01*
X152252000Y-119714447D01*
X152931474Y-120393921D01*
X152963859Y-120349349D01*
X153056755Y-120167031D01*
X153085511Y-120078532D01*
X153119990Y-119972417D01*
X153152000Y-119770317D01*
X153152000Y-119565682D01*
X153119990Y-119363582D01*
X153056755Y-119168968D01*
X152963859Y-118986650D01*
X152931474Y-118942077D01*
X152931474Y-118942076D01*
X152252000Y-119621551D01*
X152252000Y-119615339D01*
X152224741Y-119513606D01*
X152172080Y-119422394D01*
X152097606Y-119347920D01*
X152006394Y-119295259D01*
X151904661Y-119268000D01*
X151898446Y-119268000D01*
X152577922Y-118588524D01*
X152577921Y-118588523D01*
X152533359Y-118556147D01*
X152533350Y-118556141D01*
X152351031Y-118463244D01*
X152156417Y-118400009D01*
X151954317Y-118368000D01*
X151749683Y-118368000D01*
X151547582Y-118400009D01*
X151352968Y-118463244D01*
X151170644Y-118556143D01*
X151126077Y-118588523D01*
X151126077Y-118588524D01*
X151805554Y-119268000D01*
X151799339Y-119268000D01*
X151697606Y-119295259D01*
X151606394Y-119347920D01*
X151531920Y-119422394D01*
X151479259Y-119513606D01*
X151452000Y-119615339D01*
X151452000Y-119621553D01*
X150772524Y-118942077D01*
X150742932Y-118944406D01*
X150722730Y-118940162D01*
X150702099Y-118940824D01*
X150689230Y-118933124D01*
X150674555Y-118930042D01*
X150659854Y-118915549D01*
X150642141Y-118904952D01*
X150632460Y-118888544D01*
X150624798Y-118880990D01*
X150622117Y-118875888D01*
X150618243Y-118868079D01*
X150594115Y-118795262D01*
X150501030Y-118644348D01*
X150375652Y-118518970D01*
X150264052Y-118450134D01*
X150224740Y-118425886D01*
X150224735Y-118425884D01*
X150070496Y-118374775D01*
X150013051Y-118335003D01*
X149986228Y-118270487D01*
X149985500Y-118257069D01*
X149985500Y-114456966D01*
X150005185Y-114389927D01*
X150057989Y-114344172D01*
X150070491Y-114339261D01*
X150122238Y-114322115D01*
X150273152Y-114229030D01*
X150398530Y-114103652D01*
X150491615Y-113952738D01*
X150547387Y-113784426D01*
X150558000Y-113680545D01*
X150558000Y-113679986D01*
X151349501Y-113679986D01*
X151359994Y-113782697D01*
X151415141Y-113949119D01*
X151415143Y-113949124D01*
X151507184Y-114098345D01*
X151631154Y-114222315D01*
X151780375Y-114314356D01*
X151780380Y-114314358D01*
X151946802Y-114369505D01*
X151946809Y-114369506D01*
X152049519Y-114379999D01*
X152261999Y-114379999D01*
X152762000Y-114379999D01*
X152974472Y-114379999D01*
X152974486Y-114379998D01*
X153077197Y-114369505D01*
X153243619Y-114314358D01*
X153243624Y-114314356D01*
X153392845Y-114222315D01*
X153516815Y-114098345D01*
X153608856Y-113949124D01*
X153608858Y-113949119D01*
X153664005Y-113782697D01*
X153664006Y-113782690D01*
X153674499Y-113679986D01*
X153674500Y-113679973D01*
X153674500Y-113230000D01*
X152762000Y-113230000D01*
X152762000Y-114379999D01*
X152261999Y-114379999D01*
X152262000Y-114379998D01*
X152262000Y-113230000D01*
X151349501Y-113230000D01*
X151349501Y-113679986D01*
X150558000Y-113679986D01*
X150557999Y-112969007D01*
X150557999Y-112280013D01*
X151349500Y-112280013D01*
X151349500Y-112730000D01*
X152262000Y-112730000D01*
X152762000Y-112730000D01*
X153674499Y-112730000D01*
X153674499Y-112280028D01*
X153674498Y-112280013D01*
X153664005Y-112177302D01*
X153608858Y-112010880D01*
X153608856Y-112010875D01*
X153516815Y-111861654D01*
X153392845Y-111737684D01*
X153243624Y-111645643D01*
X153243619Y-111645641D01*
X153077197Y-111590494D01*
X153077190Y-111590493D01*
X152974486Y-111580000D01*
X152762000Y-111580000D01*
X152762000Y-112730000D01*
X152262000Y-112730000D01*
X152262000Y-111580000D01*
X152049529Y-111580000D01*
X152049512Y-111580001D01*
X151946802Y-111590494D01*
X151780380Y-111645641D01*
X151780375Y-111645643D01*
X151631154Y-111737684D01*
X151507184Y-111861654D01*
X151415143Y-112010875D01*
X151415141Y-112010880D01*
X151359994Y-112177302D01*
X151359993Y-112177309D01*
X151349500Y-112280013D01*
X150557999Y-112280013D01*
X150557999Y-112279462D01*
X150557998Y-112279446D01*
X150553348Y-112233928D01*
X150547387Y-112175574D01*
X150491615Y-112007262D01*
X150398530Y-111856348D01*
X150273152Y-111730970D01*
X150134816Y-111645643D01*
X150122240Y-111637886D01*
X150122233Y-111637883D01*
X150105493Y-111632336D01*
X150048049Y-111592562D01*
X150021228Y-111528045D01*
X150020500Y-111514631D01*
X150020500Y-110203675D01*
X150040185Y-110136636D01*
X150056820Y-110115993D01*
X150092675Y-110080138D01*
X150092678Y-110080135D01*
X150192102Y-109931336D01*
X150260587Y-109766000D01*
X150295500Y-109590479D01*
X150295500Y-109411521D01*
X150260587Y-109236000D01*
X150192102Y-109070664D01*
X150192100Y-109070661D01*
X150192098Y-109070657D01*
X150135125Y-108985391D01*
X150114247Y-108918713D01*
X150132732Y-108851333D01*
X150184710Y-108804643D01*
X150238227Y-108792500D01*
X152385638Y-108792500D01*
X152385654Y-108792499D01*
X152412692Y-108789591D01*
X152446201Y-108785989D01*
X152451537Y-108783999D01*
X152468703Y-108777596D01*
X152583204Y-108734889D01*
X152700261Y-108647261D01*
X152787889Y-108530204D01*
X152838989Y-108393201D01*
X152842591Y-108359692D01*
X152845499Y-108332654D01*
X152845500Y-108332637D01*
X152845500Y-105964411D01*
X152865185Y-105897372D01*
X152917989Y-105851617D01*
X152987147Y-105841673D01*
X153050703Y-105870698D01*
X153057181Y-105876730D01*
X158163370Y-110982919D01*
X158193785Y-111000479D01*
X158302125Y-111063029D01*
X158408475Y-111091525D01*
X158468134Y-111127889D01*
X158486862Y-111154999D01*
X158490369Y-111161881D01*
X158490371Y-111161884D01*
X158607917Y-111323672D01*
X158749325Y-111465080D01*
X158911113Y-111582626D01*
X159019564Y-111637885D01*
X159089299Y-111673417D01*
X159184393Y-111704314D01*
X159279490Y-111735213D01*
X159477009Y-111766497D01*
X159477010Y-111766497D01*
X159676990Y-111766497D01*
X159676991Y-111766497D01*
X159874510Y-111735213D01*
X160064703Y-111673416D01*
X160242887Y-111582626D01*
X160404675Y-111465080D01*
X160546083Y-111323672D01*
X160663629Y-111161884D01*
X160754419Y-110983700D01*
X160816216Y-110793507D01*
X160847500Y-110595988D01*
X160847500Y-110396006D01*
X160816216Y-110198487D01*
X160754419Y-110008294D01*
X160663629Y-109830110D01*
X160546083Y-109668322D01*
X160404675Y-109526914D01*
X160242887Y-109409368D01*
X160197965Y-109386479D01*
X160064700Y-109318576D01*
X159874511Y-109256781D01*
X159743298Y-109235999D01*
X159676991Y-109225497D01*
X159477009Y-109225497D01*
X159411169Y-109235925D01*
X159279488Y-109256781D01*
X159089299Y-109318576D01*
X158911112Y-109409368D01*
X158818806Y-109476432D01*
X158749325Y-109526914D01*
X158749323Y-109526916D01*
X158749322Y-109526916D01*
X158676575Y-109599664D01*
X158615252Y-109633149D01*
X158545560Y-109628165D01*
X158501213Y-109599664D01*
X157905730Y-109004181D01*
X157872245Y-108942858D01*
X157877229Y-108873166D01*
X157919101Y-108817233D01*
X157984565Y-108792816D01*
X157993411Y-108792500D01*
X159985638Y-108792500D01*
X159985654Y-108792499D01*
X160012692Y-108789591D01*
X160046201Y-108785989D01*
X160051537Y-108783999D01*
X160068703Y-108777596D01*
X160183204Y-108734889D01*
X160212689Y-108712816D01*
X160278152Y-108688399D01*
X160346425Y-108703250D01*
X160361307Y-108712814D01*
X160390796Y-108734889D01*
X160505297Y-108777596D01*
X160522463Y-108783999D01*
X160527799Y-108785989D01*
X160555050Y-108788918D01*
X160588345Y-108792499D01*
X160588362Y-108792500D01*
X163082501Y-108792500D01*
X163149540Y-108812185D01*
X163195295Y-108864989D01*
X163206501Y-108916500D01*
X163206501Y-113314108D01*
X163206500Y-113314108D01*
X163206501Y-113314111D01*
X163206501Y-113314112D01*
X163215586Y-113348019D01*
X163247969Y-113468874D01*
X163325605Y-113603343D01*
X163342078Y-113671243D01*
X163338794Y-113694280D01*
X163337784Y-113698485D01*
X163306500Y-113896009D01*
X163306500Y-114095991D01*
X163310631Y-114122071D01*
X163337784Y-114293511D01*
X163399579Y-114483700D01*
X163484927Y-114651203D01*
X163490371Y-114661887D01*
X163607917Y-114823675D01*
X163749325Y-114965083D01*
X163911113Y-115082629D01*
X164061053Y-115159028D01*
X164089299Y-115173420D01*
X164132237Y-115187371D01*
X164279490Y-115235216D01*
X164477009Y-115266500D01*
X164477010Y-115266500D01*
X164676990Y-115266500D01*
X164676991Y-115266500D01*
X164874510Y-115235216D01*
X165064703Y-115173419D01*
X165242887Y-115082629D01*
X165404675Y-114965083D01*
X165546083Y-114823675D01*
X165663629Y-114661887D01*
X165663629Y-114661886D01*
X165666493Y-114657945D01*
X165667822Y-114658910D01*
X165714308Y-114616842D01*
X165768239Y-114604500D01*
X168161109Y-114604500D01*
X168161110Y-114604500D01*
X168161111Y-114604500D01*
X168238491Y-114583766D01*
X168315873Y-114563032D01*
X168454627Y-114482922D01*
X173857056Y-109080492D01*
X183570500Y-109080492D01*
X183570500Y-109513507D01*
X183573437Y-109550829D01*
X183573438Y-109550835D01*
X183619853Y-109710596D01*
X183619855Y-109710601D01*
X183704544Y-109853803D01*
X183704551Y-109853812D01*
X183822187Y-109971448D01*
X183822191Y-109971451D01*
X183822193Y-109971453D01*
X183965399Y-110056145D01*
X183976951Y-110059501D01*
X184125164Y-110102561D01*
X184125167Y-110102561D01*
X184125169Y-110102562D01*
X184162498Y-110105500D01*
X184162504Y-110105500D01*
X185745496Y-110105500D01*
X185745502Y-110105500D01*
X185782831Y-110102562D01*
X185782833Y-110102561D01*
X185782835Y-110102561D01*
X185824962Y-110090321D01*
X185942601Y-110056145D01*
X186085807Y-109971453D01*
X186203453Y-109853807D01*
X186288145Y-109710601D01*
X186334562Y-109550831D01*
X186337500Y-109513502D01*
X186337500Y-109080498D01*
X186334562Y-109043169D01*
X186315306Y-108976890D01*
X186288146Y-108883403D01*
X186288145Y-108883399D01*
X186225573Y-108777596D01*
X186203455Y-108740196D01*
X186198670Y-108734027D01*
X186200583Y-108732542D01*
X186172848Y-108681749D01*
X186177832Y-108612057D01*
X186192748Y-108585292D01*
X186192712Y-108585271D01*
X186193545Y-108583862D01*
X186196042Y-108579382D01*
X186196684Y-108578553D01*
X186280281Y-108437198D01*
X186326100Y-108279486D01*
X186326295Y-108277001D01*
X186326295Y-108277000D01*
X183581705Y-108277000D01*
X183581704Y-108277001D01*
X183581899Y-108279486D01*
X183627718Y-108437198D01*
X183711319Y-108578560D01*
X183711969Y-108579398D01*
X183712273Y-108580173D01*
X183715288Y-108585271D01*
X183714465Y-108585757D01*
X183737500Y-108644436D01*
X183723816Y-108712953D01*
X183708684Y-108733533D01*
X183709327Y-108734032D01*
X183704543Y-108740198D01*
X183619855Y-108883398D01*
X183619853Y-108883403D01*
X183573438Y-109043164D01*
X183573437Y-109043170D01*
X183570500Y-109080492D01*
X173857056Y-109080492D01*
X175930546Y-107007001D01*
X183581704Y-107007001D01*
X183581899Y-107009486D01*
X183627718Y-107167198D01*
X183711314Y-107308552D01*
X183716100Y-107314722D01*
X183713753Y-107316542D01*
X183740564Y-107365642D01*
X183735580Y-107435334D01*
X183714541Y-107468069D01*
X183716100Y-107469278D01*
X183711314Y-107475447D01*
X183627718Y-107616801D01*
X183581899Y-107774513D01*
X183581704Y-107776998D01*
X183581705Y-107777000D01*
X184704000Y-107777000D01*
X185204000Y-107777000D01*
X186326295Y-107777000D01*
X186326295Y-107776998D01*
X186326100Y-107774513D01*
X186280281Y-107616801D01*
X186196685Y-107475447D01*
X186191900Y-107469278D01*
X186194252Y-107467453D01*
X186167445Y-107418405D01*
X186172402Y-107348712D01*
X186193465Y-107315936D01*
X186191900Y-107314722D01*
X186196685Y-107308552D01*
X186280281Y-107167198D01*
X186326100Y-107009486D01*
X186326295Y-107007001D01*
X186326295Y-107007000D01*
X185204000Y-107007000D01*
X185204000Y-107777000D01*
X184704000Y-107777000D01*
X184704000Y-107007000D01*
X183581705Y-107007000D01*
X183581704Y-107007001D01*
X175930546Y-107007001D01*
X176032095Y-106905452D01*
X176093416Y-106871969D01*
X176132378Y-106869777D01*
X176139455Y-106870500D01*
X177040544Y-106870499D01*
X177144426Y-106859887D01*
X177312738Y-106804115D01*
X177463652Y-106711030D01*
X177589030Y-106585652D01*
X177682115Y-106434738D01*
X177737887Y-106266426D01*
X177748500Y-106162545D01*
X177748499Y-104811456D01*
X177737887Y-104707574D01*
X177682115Y-104539262D01*
X177589030Y-104388348D01*
X177463652Y-104262970D01*
X177346230Y-104190543D01*
X177299508Y-104138597D01*
X177288285Y-104069634D01*
X177316129Y-104005552D01*
X177346233Y-103979467D01*
X177458343Y-103910317D01*
X177582315Y-103786345D01*
X177674356Y-103637124D01*
X177674358Y-103637119D01*
X177729505Y-103470697D01*
X177729506Y-103470690D01*
X177739999Y-103367986D01*
X177740000Y-103367973D01*
X177740000Y-102943000D01*
X175440001Y-102943000D01*
X175440001Y-103367986D01*
X175450494Y-103470697D01*
X175505641Y-103637119D01*
X175505643Y-103637124D01*
X175597684Y-103786345D01*
X175721654Y-103910315D01*
X175833767Y-103979467D01*
X175880491Y-104031415D01*
X175891714Y-104100378D01*
X175863870Y-104164460D01*
X175833767Y-104190544D01*
X175716351Y-104262967D01*
X175716347Y-104262970D01*
X175590971Y-104388346D01*
X175497886Y-104539259D01*
X175497884Y-104539264D01*
X175442113Y-104707572D01*
X175431500Y-104811447D01*
X175431500Y-105733588D01*
X175411815Y-105800627D01*
X175395181Y-105821269D01*
X167865270Y-113351181D01*
X167803947Y-113384666D01*
X167777589Y-113387500D01*
X165768239Y-113387500D01*
X165701200Y-113367815D01*
X165667467Y-113333347D01*
X165666493Y-113334055D01*
X165658809Y-113323479D01*
X165546083Y-113168325D01*
X165404675Y-113026917D01*
X165242887Y-112909371D01*
X165064700Y-112818579D01*
X164874511Y-112756784D01*
X164775750Y-112741142D01*
X164676991Y-112725500D01*
X164547500Y-112725500D01*
X164480461Y-112705815D01*
X164434706Y-112653011D01*
X164423500Y-112601500D01*
X164423500Y-106702523D01*
X164443185Y-106635484D01*
X164495989Y-106589729D01*
X164565147Y-106579785D01*
X164628703Y-106608810D01*
X164635181Y-106614842D01*
X164724654Y-106704315D01*
X164873875Y-106796356D01*
X164873880Y-106796358D01*
X165040302Y-106851505D01*
X165040309Y-106851506D01*
X165143019Y-106861999D01*
X165342999Y-106861999D01*
X165843000Y-106861999D01*
X166042972Y-106861999D01*
X166042986Y-106861998D01*
X166145697Y-106851505D01*
X166312119Y-106796358D01*
X166312124Y-106796356D01*
X166461345Y-106704315D01*
X166585315Y-106580345D01*
X166677356Y-106431124D01*
X166677358Y-106431119D01*
X166732505Y-106264697D01*
X166732506Y-106264690D01*
X166742999Y-106161986D01*
X166743000Y-106161973D01*
X166743000Y-105737000D01*
X165843000Y-105737000D01*
X165843000Y-106861999D01*
X165342999Y-106861999D01*
X165343000Y-106861998D01*
X165343000Y-105611000D01*
X165362685Y-105543961D01*
X165415489Y-105498206D01*
X165467000Y-105487000D01*
X165593000Y-105487000D01*
X165593000Y-105361000D01*
X165612685Y-105293961D01*
X165665489Y-105248206D01*
X165717000Y-105237000D01*
X166742999Y-105237000D01*
X166742999Y-104812028D01*
X166742998Y-104812013D01*
X166732505Y-104709302D01*
X166677358Y-104542880D01*
X166677356Y-104542875D01*
X166585315Y-104393654D01*
X166461345Y-104269684D01*
X166349232Y-104200532D01*
X166302508Y-104148584D01*
X166291286Y-104079621D01*
X166319129Y-104015539D01*
X166349228Y-103989457D01*
X166466652Y-103917030D01*
X166592030Y-103791652D01*
X166685115Y-103640738D01*
X166740887Y-103472426D01*
X166751500Y-103368545D01*
X166751499Y-102446409D01*
X166771183Y-102379371D01*
X166787813Y-102358734D01*
X167334168Y-101812379D01*
X167395489Y-101778896D01*
X167465181Y-101783880D01*
X167521114Y-101825752D01*
X167545531Y-101891216D01*
X167545205Y-101912664D01*
X167534500Y-102017445D01*
X167534500Y-103368537D01*
X167534501Y-103368553D01*
X167545113Y-103472427D01*
X167600884Y-103640735D01*
X167600886Y-103640740D01*
X167611531Y-103657998D01*
X167690895Y-103786667D01*
X167693971Y-103791653D01*
X167819347Y-103917029D01*
X167819351Y-103917032D01*
X167928671Y-103984462D01*
X167975396Y-104036410D01*
X167986617Y-104105372D01*
X167958774Y-104169454D01*
X167928671Y-104195538D01*
X167819351Y-104262967D01*
X167819347Y-104262970D01*
X167693971Y-104388346D01*
X167600886Y-104539259D01*
X167600884Y-104539264D01*
X167545113Y-104707572D01*
X167534500Y-104811447D01*
X167534500Y-106162537D01*
X167534501Y-106162553D01*
X167545113Y-106266427D01*
X167587105Y-106393153D01*
X167600885Y-106434738D01*
X167693970Y-106585652D01*
X167819348Y-106711030D01*
X167970262Y-106804115D01*
X168138574Y-106859887D01*
X168242455Y-106870500D01*
X169143544Y-106870499D01*
X169247426Y-106859887D01*
X169415738Y-106804115D01*
X169566652Y-106711030D01*
X169692030Y-106585652D01*
X169785115Y-106434738D01*
X169840887Y-106266426D01*
X169844415Y-106231896D01*
X169870812Y-106167205D01*
X169927993Y-106127054D01*
X169967773Y-106120500D01*
X171748325Y-106120500D01*
X171815364Y-106140185D01*
X171836007Y-106156820D01*
X171871861Y-106192675D01*
X171871865Y-106192678D01*
X172020657Y-106292098D01*
X172020661Y-106292100D01*
X172020664Y-106292102D01*
X172186000Y-106360587D01*
X172349722Y-106393153D01*
X172361516Y-106395499D01*
X172361520Y-106395500D01*
X172361521Y-106395500D01*
X172540480Y-106395500D01*
X172540481Y-106395499D01*
X172716000Y-106360587D01*
X172881336Y-106292102D01*
X173030135Y-106192678D01*
X173156678Y-106066135D01*
X173256102Y-105917336D01*
X173324587Y-105752000D01*
X173359500Y-105576479D01*
X173359500Y-105397521D01*
X173324587Y-105222000D01*
X173256102Y-105056664D01*
X173256100Y-105056661D01*
X173256098Y-105056657D01*
X173156678Y-104907865D01*
X173156675Y-104907861D01*
X173030138Y-104781324D01*
X173030134Y-104781321D01*
X172881342Y-104681901D01*
X172881332Y-104681896D01*
X172716000Y-104613413D01*
X172715992Y-104613411D01*
X172540483Y-104578500D01*
X172540479Y-104578500D01*
X172361521Y-104578500D01*
X172361516Y-104578500D01*
X172186007Y-104613411D01*
X172185999Y-104613413D01*
X172020667Y-104681896D01*
X172020657Y-104681901D01*
X171871865Y-104781321D01*
X171871861Y-104781324D01*
X171836007Y-104817180D01*
X171774685Y-104850666D01*
X171748325Y-104853500D01*
X169967772Y-104853500D01*
X169900733Y-104833815D01*
X169854978Y-104781011D01*
X169844414Y-104742101D01*
X169842344Y-104721839D01*
X169840887Y-104707574D01*
X169785115Y-104539262D01*
X169692030Y-104388348D01*
X169566652Y-104262970D01*
X169457326Y-104195536D01*
X169410604Y-104143591D01*
X169399381Y-104074628D01*
X169427225Y-104010546D01*
X169457324Y-103984464D01*
X169566652Y-103917030D01*
X169692030Y-103791652D01*
X169785115Y-103640738D01*
X169840887Y-103472426D01*
X169851500Y-103368545D01*
X169851499Y-102018013D01*
X175440000Y-102018013D01*
X175440000Y-102443000D01*
X176340000Y-102443000D01*
X176840000Y-102443000D01*
X177739999Y-102443000D01*
X177739999Y-102018028D01*
X177739998Y-102018013D01*
X177729505Y-101915302D01*
X177674358Y-101748880D01*
X177674356Y-101748875D01*
X177582315Y-101599654D01*
X177458345Y-101475684D01*
X177309124Y-101383643D01*
X177309119Y-101383641D01*
X177142697Y-101328494D01*
X177142690Y-101328493D01*
X177039986Y-101318000D01*
X176840000Y-101318000D01*
X176840000Y-102443000D01*
X176340000Y-102443000D01*
X176340000Y-101318000D01*
X176140029Y-101318000D01*
X176140012Y-101318001D01*
X176037302Y-101328494D01*
X175870880Y-101383641D01*
X175870875Y-101383643D01*
X175721654Y-101475684D01*
X175597684Y-101599654D01*
X175505643Y-101748875D01*
X175505641Y-101748880D01*
X175450494Y-101915302D01*
X175450493Y-101915309D01*
X175440000Y-102018013D01*
X169851499Y-102018013D01*
X169851499Y-102017456D01*
X169840887Y-101913574D01*
X169785115Y-101745262D01*
X169692030Y-101594348D01*
X169566652Y-101468970D01*
X169428316Y-101383643D01*
X169415740Y-101375886D01*
X169415735Y-101375884D01*
X169247427Y-101320113D01*
X169143546Y-101309500D01*
X168242462Y-101309500D01*
X168242444Y-101309501D01*
X168137663Y-101320205D01*
X168068970Y-101307435D01*
X168018086Y-101259554D01*
X168001166Y-101191764D01*
X168023583Y-101125588D01*
X168037372Y-101109175D01*
X169000922Y-100145627D01*
X169081032Y-100006872D01*
X169121278Y-99856672D01*
X169122500Y-99852111D01*
X169122500Y-98217500D01*
X169142185Y-98150461D01*
X169194989Y-98104706D01*
X169246500Y-98093500D01*
X170312638Y-98093500D01*
X170312654Y-98093499D01*
X170339692Y-98090591D01*
X170373201Y-98086989D01*
X170510204Y-98035889D01*
X170627261Y-97948261D01*
X170714889Y-97831204D01*
X170765989Y-97694201D01*
X170769591Y-97660692D01*
X170772499Y-97633654D01*
X170772500Y-97633637D01*
X170772500Y-95713711D01*
X175308500Y-95713711D01*
X175308500Y-95956288D01*
X175327501Y-96100623D01*
X175340162Y-96196789D01*
X175367160Y-96297546D01*
X175402947Y-96431104D01*
X175457388Y-96562535D01*
X175495776Y-96655212D01*
X175617064Y-96865289D01*
X175617066Y-96865292D01*
X175617067Y-96865293D01*
X175764733Y-97057736D01*
X175764739Y-97057743D01*
X175936256Y-97229260D01*
X175936262Y-97229265D01*
X176128711Y-97376936D01*
X176338788Y-97498224D01*
X176562900Y-97591054D01*
X176797211Y-97653838D01*
X176977586Y-97677584D01*
X177037711Y-97685500D01*
X177037712Y-97685500D01*
X177280289Y-97685500D01*
X177328388Y-97679167D01*
X177520789Y-97653838D01*
X177755100Y-97591054D01*
X177979212Y-97498224D01*
X178189289Y-97376936D01*
X178381738Y-97229265D01*
X178553265Y-97057738D01*
X178700936Y-96865289D01*
X178822224Y-96655212D01*
X178915054Y-96431100D01*
X178977838Y-96196789D01*
X179009500Y-95956288D01*
X179009500Y-95713712D01*
X179004740Y-95677559D01*
X178988485Y-95554086D01*
X178977838Y-95473211D01*
X178915054Y-95238900D01*
X178822224Y-95014788D01*
X178700936Y-94804711D01*
X178616240Y-94694333D01*
X178553266Y-94612263D01*
X178553260Y-94612256D01*
X178381743Y-94440739D01*
X178381736Y-94440733D01*
X178189293Y-94293067D01*
X178189292Y-94293066D01*
X178189289Y-94293064D01*
X177979212Y-94171776D01*
X177979205Y-94171773D01*
X177755104Y-94078947D01*
X177596112Y-94036345D01*
X177520789Y-94016162D01*
X177520788Y-94016161D01*
X177520785Y-94016161D01*
X177280289Y-93984500D01*
X177280288Y-93984500D01*
X177037712Y-93984500D01*
X177037711Y-93984500D01*
X176797214Y-94016161D01*
X176562895Y-94078947D01*
X176338794Y-94171773D01*
X176338785Y-94171777D01*
X176128706Y-94293067D01*
X175936263Y-94440733D01*
X175936256Y-94440739D01*
X175764739Y-94612256D01*
X175764733Y-94612263D01*
X175617067Y-94804706D01*
X175495777Y-95014785D01*
X175495773Y-95014794D01*
X175402947Y-95238895D01*
X175340161Y-95473214D01*
X175308500Y-95713711D01*
X170772500Y-95713711D01*
X170772500Y-94036362D01*
X170772499Y-94036345D01*
X170766924Y-93984500D01*
X170765989Y-93975799D01*
X170714889Y-93838796D01*
X170627261Y-93721739D01*
X170510204Y-93634111D01*
X170459355Y-93615145D01*
X170373203Y-93583011D01*
X170312654Y-93576500D01*
X170312638Y-93576500D01*
X166715362Y-93576500D01*
X166715345Y-93576500D01*
X166654797Y-93583011D01*
X166654795Y-93583011D01*
X166517795Y-93634111D01*
X166400739Y-93721739D01*
X166313111Y-93838795D01*
X166262011Y-93975795D01*
X166262011Y-93975797D01*
X166255500Y-94036345D01*
X166255500Y-97633654D01*
X166262011Y-97694202D01*
X166262011Y-97694204D01*
X166287673Y-97763004D01*
X166313111Y-97831204D01*
X166400739Y-97948261D01*
X166517796Y-98035889D01*
X166654799Y-98086989D01*
X166682050Y-98089918D01*
X166715345Y-98093499D01*
X166715362Y-98093500D01*
X167781500Y-98093500D01*
X167848539Y-98113185D01*
X167894294Y-98165989D01*
X167905500Y-98217500D01*
X167905500Y-99468588D01*
X167885815Y-99535627D01*
X167869181Y-99556269D01*
X166150904Y-101274545D01*
X166089581Y-101308030D01*
X166050630Y-101310223D01*
X166043547Y-101309500D01*
X165142462Y-101309500D01*
X165142446Y-101309501D01*
X165038572Y-101320113D01*
X164870264Y-101375884D01*
X164870259Y-101375886D01*
X164719346Y-101468971D01*
X164635181Y-101553137D01*
X164573858Y-101586622D01*
X164504166Y-101581638D01*
X164448233Y-101539766D01*
X164423816Y-101474302D01*
X164423500Y-101465456D01*
X164423500Y-85681891D01*
X164423500Y-85681889D01*
X164382032Y-85527128D01*
X164351647Y-85474500D01*
X164301922Y-85388373D01*
X163981819Y-85068270D01*
X163948334Y-85006947D01*
X163945500Y-84980589D01*
X163945500Y-84014345D01*
X167536500Y-84014345D01*
X167536500Y-85811654D01*
X167543011Y-85872202D01*
X167543011Y-85872204D01*
X167593289Y-86006999D01*
X167594111Y-86009204D01*
X167681739Y-86126261D01*
X167728407Y-86161196D01*
X167782772Y-86201894D01*
X167798796Y-86213889D01*
X167919626Y-86258956D01*
X167975557Y-86300827D01*
X167999974Y-86366291D01*
X167985122Y-86434564D01*
X167963972Y-86462818D01*
X167858793Y-86567997D01*
X167733106Y-86740990D01*
X167636027Y-86931516D01*
X167636026Y-86931519D01*
X167569951Y-87134882D01*
X167536500Y-87346084D01*
X167536500Y-87559915D01*
X167569951Y-87771117D01*
X167636026Y-87974480D01*
X167636027Y-87974483D01*
X167730834Y-88160550D01*
X167733106Y-88165009D01*
X167858794Y-88338004D01*
X168009996Y-88489206D01*
X168182991Y-88614894D01*
X168221992Y-88634766D01*
X168373516Y-88711972D01*
X168373519Y-88711973D01*
X168467471Y-88742499D01*
X168576884Y-88778049D01*
X168788084Y-88811500D01*
X168788085Y-88811500D01*
X169001915Y-88811500D01*
X169001916Y-88811500D01*
X169213116Y-88778049D01*
X169416483Y-88711972D01*
X169607009Y-88614894D01*
X169780004Y-88489206D01*
X169931206Y-88338004D01*
X170056894Y-88165009D01*
X170153972Y-87974483D01*
X170220049Y-87771116D01*
X170253500Y-87559916D01*
X170253500Y-87346084D01*
X170220049Y-87134884D01*
X170187010Y-87033200D01*
X170153973Y-86931519D01*
X170153972Y-86931516D01*
X170104248Y-86833928D01*
X170056894Y-86740991D01*
X169931206Y-86567996D01*
X169826028Y-86462818D01*
X169792543Y-86401495D01*
X169797527Y-86331803D01*
X169839399Y-86275870D01*
X169870367Y-86258959D01*
X169991204Y-86213889D01*
X170108261Y-86126261D01*
X170195889Y-86009204D01*
X170246989Y-85872201D01*
X170251000Y-85834889D01*
X170253499Y-85811654D01*
X170253500Y-85811637D01*
X170253500Y-84014362D01*
X170253499Y-84014345D01*
X170250157Y-83983270D01*
X170246989Y-83953799D01*
X170245515Y-83949848D01*
X170218757Y-83878106D01*
X170195889Y-83816796D01*
X170108261Y-83699739D01*
X169991204Y-83612111D01*
X169980287Y-83608039D01*
X169854203Y-83561011D01*
X169793654Y-83554500D01*
X169793638Y-83554500D01*
X167996362Y-83554500D01*
X167996345Y-83554500D01*
X167935797Y-83561011D01*
X167935795Y-83561011D01*
X167798795Y-83612111D01*
X167681739Y-83699739D01*
X167594111Y-83816795D01*
X167543011Y-83953795D01*
X167543011Y-83953797D01*
X167536500Y-84014345D01*
X163945500Y-84014345D01*
X163945500Y-83015500D01*
X163965185Y-82948461D01*
X164017989Y-82902706D01*
X164069500Y-82891500D01*
X185636162Y-82891500D01*
X185703201Y-82911185D01*
X185748956Y-82963989D01*
X185749474Y-82966920D01*
X186395591Y-83613037D01*
X186332007Y-83630075D01*
X186217993Y-83695901D01*
X186124901Y-83788993D01*
X186059075Y-83903007D01*
X186042037Y-83966591D01*
X185409728Y-83334282D01*
X185409727Y-83334282D01*
X185370380Y-83388439D01*
X185273904Y-83577782D01*
X185208242Y-83779869D01*
X185208242Y-83779872D01*
X185175000Y-83989753D01*
X185175000Y-84202246D01*
X185208242Y-84412127D01*
X185208242Y-84412130D01*
X185273904Y-84614217D01*
X185370375Y-84803550D01*
X185409728Y-84857716D01*
X186042037Y-84225408D01*
X186059075Y-84288993D01*
X186124901Y-84403007D01*
X186217993Y-84496099D01*
X186332007Y-84561925D01*
X186395590Y-84578962D01*
X185763282Y-85211269D01*
X185763282Y-85211270D01*
X185817449Y-85250624D01*
X186006782Y-85347095D01*
X186208870Y-85412757D01*
X186418754Y-85446000D01*
X186631246Y-85446000D01*
X186841127Y-85412757D01*
X186841130Y-85412757D01*
X187043217Y-85347095D01*
X187232554Y-85250622D01*
X187286716Y-85211270D01*
X187286717Y-85211270D01*
X186654408Y-84578962D01*
X186717993Y-84561925D01*
X186832007Y-84496099D01*
X186925099Y-84403007D01*
X186990925Y-84288993D01*
X187007962Y-84225408D01*
X187640270Y-84857717D01*
X187640270Y-84857716D01*
X187679622Y-84803554D01*
X187776095Y-84614217D01*
X187841757Y-84412130D01*
X187841757Y-84412127D01*
X187875000Y-84202246D01*
X187875000Y-83989753D01*
X187841757Y-83779872D01*
X187841757Y-83779869D01*
X187776095Y-83577782D01*
X187679624Y-83388449D01*
X187640270Y-83334282D01*
X187640269Y-83334282D01*
X187007962Y-83966590D01*
X186990925Y-83903007D01*
X186925099Y-83788993D01*
X186832007Y-83695901D01*
X186717993Y-83630075D01*
X186654409Y-83613037D01*
X187302984Y-82964460D01*
X187304582Y-82956854D01*
X187353632Y-82907096D01*
X187413837Y-82891500D01*
X192008928Y-82891500D01*
X192075967Y-82911185D01*
X192121722Y-82963989D01*
X192131666Y-83033147D01*
X192102641Y-83096703D01*
X192096609Y-83103181D01*
X191988796Y-83210993D01*
X191863106Y-83383990D01*
X191766027Y-83574516D01*
X191766026Y-83574519D01*
X191699951Y-83777882D01*
X191689051Y-83846703D01*
X191666500Y-83989084D01*
X191666500Y-84202916D01*
X191672383Y-84240061D01*
X191699951Y-84414117D01*
X191766026Y-84617480D01*
X191766027Y-84617483D01*
X191819222Y-84721882D01*
X191863106Y-84808009D01*
X191988794Y-84981004D01*
X192139996Y-85132206D01*
X192312991Y-85257894D01*
X192406438Y-85305507D01*
X192503516Y-85354972D01*
X192503519Y-85354973D01*
X192548670Y-85369643D01*
X192706884Y-85421049D01*
X192918084Y-85454500D01*
X192918085Y-85454500D01*
X193131915Y-85454500D01*
X193131916Y-85454500D01*
X193343116Y-85421049D01*
X193399867Y-85402608D01*
X193469706Y-85400614D01*
X193485633Y-85405977D01*
X193580215Y-85445155D01*
X193702601Y-85469499D01*
X193702605Y-85469500D01*
X193702606Y-85469500D01*
X193827394Y-85469500D01*
X195750632Y-85469500D01*
X195817671Y-85489185D01*
X195863426Y-85541989D01*
X195868338Y-85554497D01*
X195873883Y-85571233D01*
X195873886Y-85571240D01*
X195903146Y-85618678D01*
X195966970Y-85722152D01*
X196092348Y-85847530D01*
X196243262Y-85940615D01*
X196411574Y-85996387D01*
X196515455Y-86007000D01*
X197855500Y-86006999D01*
X197922539Y-86026684D01*
X197968294Y-86079487D01*
X197979500Y-86130999D01*
X197979500Y-86666000D01*
X197959815Y-86733039D01*
X197907011Y-86778794D01*
X197855500Y-86790000D01*
X196956704Y-86790000D01*
X196889665Y-86770315D01*
X196887814Y-86769103D01*
X196881079Y-86764603D01*
X196881075Y-86764600D01*
X196881070Y-86764598D01*
X196765785Y-86716845D01*
X196765777Y-86716843D01*
X196643398Y-86692500D01*
X196643394Y-86692500D01*
X187857394Y-86692500D01*
X187732606Y-86692500D01*
X187732601Y-86692500D01*
X187610222Y-86716843D01*
X187610214Y-86716845D01*
X187494927Y-86764598D01*
X187494918Y-86764603D01*
X187391167Y-86833928D01*
X187391163Y-86833931D01*
X186980647Y-87244447D01*
X186919324Y-87277932D01*
X186854652Y-87274698D01*
X186843119Y-87270951D01*
X186675777Y-87244447D01*
X186631916Y-87237500D01*
X186418084Y-87237500D01*
X186374223Y-87244447D01*
X186206882Y-87270951D01*
X186003519Y-87337026D01*
X186003516Y-87337027D01*
X185812990Y-87434106D01*
X185639993Y-87559796D01*
X185488796Y-87710993D01*
X185363106Y-87883990D01*
X185266027Y-88074516D01*
X185266026Y-88074519D01*
X185199951Y-88277882D01*
X185168538Y-88476214D01*
X185166500Y-88489084D01*
X185166500Y-88702916D01*
X185172769Y-88742499D01*
X185199951Y-88914117D01*
X185266026Y-89117480D01*
X185266027Y-89117483D01*
X185298731Y-89181667D01*
X185363106Y-89308009D01*
X185488794Y-89481004D01*
X185639996Y-89632206D01*
X185812991Y-89757894D01*
X185906438Y-89805507D01*
X186003516Y-89854972D01*
X186003519Y-89854973D01*
X186071313Y-89877000D01*
X186206884Y-89921049D01*
X186418084Y-89954500D01*
X186418085Y-89954500D01*
X186631915Y-89954500D01*
X186631916Y-89954500D01*
X186843116Y-89921049D01*
X187046483Y-89854972D01*
X187237009Y-89757894D01*
X187410004Y-89632206D01*
X187561206Y-89481004D01*
X187686894Y-89308009D01*
X187783972Y-89117483D01*
X187850049Y-88914116D01*
X187883500Y-88702916D01*
X187883500Y-88489084D01*
X187850049Y-88277884D01*
X187846300Y-88266348D01*
X187845866Y-88251136D01*
X187840548Y-88236877D01*
X187844889Y-88216921D01*
X187844306Y-88196509D01*
X187852393Y-88182422D01*
X187855400Y-88168604D01*
X187876544Y-88140358D01*
X188021086Y-87995816D01*
X188082409Y-87962334D01*
X188108766Y-87959500D01*
X191632728Y-87959500D01*
X191699767Y-87979185D01*
X191745522Y-88031989D01*
X191755466Y-88101147D01*
X191750659Y-88121818D01*
X191699951Y-88277882D01*
X191668538Y-88476214D01*
X191666500Y-88489084D01*
X191666500Y-88702916D01*
X191672769Y-88742499D01*
X191699951Y-88914117D01*
X191766026Y-89117480D01*
X191766027Y-89117483D01*
X191798731Y-89181667D01*
X191863106Y-89308009D01*
X191988794Y-89481004D01*
X192139996Y-89632206D01*
X192312991Y-89757894D01*
X192406438Y-89805507D01*
X192503516Y-89854972D01*
X192503519Y-89854973D01*
X192571313Y-89877000D01*
X192706884Y-89921049D01*
X192918084Y-89954500D01*
X192918085Y-89954500D01*
X193131915Y-89954500D01*
X193131916Y-89954500D01*
X193343116Y-89921049D01*
X193546483Y-89854972D01*
X193737009Y-89757894D01*
X193910004Y-89632206D01*
X193922891Y-89619319D01*
X193984214Y-89585834D01*
X194010572Y-89583000D01*
X198173909Y-89583000D01*
X198173910Y-89582999D01*
X198296299Y-89558655D01*
X198411589Y-89510900D01*
X198515347Y-89441571D01*
X199105071Y-88851847D01*
X199174400Y-88748089D01*
X199222155Y-88632799D01*
X199246500Y-88510408D01*
X199246500Y-88385621D01*
X199246500Y-83765500D01*
X199266185Y-83698461D01*
X199318989Y-83652706D01*
X199370500Y-83641500D01*
X203055859Y-83641500D01*
X203122898Y-83661185D01*
X203168653Y-83713989D01*
X203178597Y-83783147D01*
X203149572Y-83846703D01*
X203112154Y-83875985D01*
X203107990Y-83878106D01*
X202934993Y-84003796D01*
X202783796Y-84154993D01*
X202658106Y-84327990D01*
X202561027Y-84518516D01*
X202561026Y-84518519D01*
X202494951Y-84721882D01*
X202461500Y-84933084D01*
X202461500Y-85146915D01*
X202494951Y-85358117D01*
X202561026Y-85561480D01*
X202561027Y-85561483D01*
X202643701Y-85723737D01*
X202658106Y-85752009D01*
X202783794Y-85925004D01*
X202783796Y-85925006D01*
X202888971Y-86030181D01*
X202922456Y-86091504D01*
X202917472Y-86161196D01*
X202875600Y-86217129D01*
X202844625Y-86234043D01*
X202723795Y-86279111D01*
X202606739Y-86366739D01*
X202519111Y-86483795D01*
X202468011Y-86620795D01*
X202468011Y-86620797D01*
X202461500Y-86681345D01*
X202461500Y-88478654D01*
X202468011Y-88539202D01*
X202468011Y-88539204D01*
X202505273Y-88639103D01*
X202519111Y-88676204D01*
X202606739Y-88793261D01*
X202723796Y-88880889D01*
X202860799Y-88931989D01*
X202888050Y-88934918D01*
X202921345Y-88938499D01*
X202921362Y-88938500D01*
X203062500Y-88938500D01*
X203129539Y-88958185D01*
X203175294Y-89010989D01*
X203186500Y-89062500D01*
X203186500Y-91186233D01*
X203166815Y-91253272D01*
X203150181Y-91273914D01*
X195900915Y-98523181D01*
X195839592Y-98556666D01*
X195813234Y-98559500D01*
X194503345Y-98559500D01*
X194442797Y-98566011D01*
X194442795Y-98566011D01*
X194305795Y-98617111D01*
X194188739Y-98704739D01*
X194101111Y-98821795D01*
X194050011Y-98958795D01*
X194050011Y-98958797D01*
X194043500Y-99019345D01*
X194043500Y-99750204D01*
X194023815Y-99817243D01*
X193971011Y-99862998D01*
X193901853Y-99872942D01*
X193850610Y-99853307D01*
X193839079Y-99845602D01*
X193839072Y-99845598D01*
X193723785Y-99797845D01*
X193723777Y-99797843D01*
X193601398Y-99773500D01*
X193601394Y-99773500D01*
X191328123Y-99773500D01*
X191261084Y-99753815D01*
X191240442Y-99737181D01*
X191235812Y-99732551D01*
X191235803Y-99732544D01*
X191092601Y-99647855D01*
X191092596Y-99647853D01*
X190932835Y-99601438D01*
X190932829Y-99601437D01*
X190895507Y-99598500D01*
X190895502Y-99598500D01*
X189312498Y-99598500D01*
X189312492Y-99598500D01*
X189275170Y-99601437D01*
X189275164Y-99601438D01*
X189115403Y-99647853D01*
X189115398Y-99647855D01*
X188972196Y-99732544D01*
X188972187Y-99732551D01*
X188967558Y-99737181D01*
X188940630Y-99751884D01*
X188914812Y-99768477D01*
X188908611Y-99769368D01*
X188906235Y-99770666D01*
X188879877Y-99773500D01*
X188647675Y-99773500D01*
X188580636Y-99753815D01*
X188559993Y-99737180D01*
X188524138Y-99701324D01*
X188524134Y-99701321D01*
X188375342Y-99601901D01*
X188375332Y-99601896D01*
X188210000Y-99533413D01*
X188209992Y-99533411D01*
X188034483Y-99498500D01*
X188034479Y-99498500D01*
X187983766Y-99498500D01*
X187916727Y-99478815D01*
X187896085Y-99462181D01*
X182530890Y-94096986D01*
X186134001Y-94096986D01*
X186144494Y-94199697D01*
X186199641Y-94366119D01*
X186199643Y-94366124D01*
X186291684Y-94515345D01*
X186415654Y-94639315D01*
X186564875Y-94731356D01*
X186564880Y-94731358D01*
X186731302Y-94786505D01*
X186731309Y-94786506D01*
X186834019Y-94796999D01*
X187033999Y-94796999D01*
X187534000Y-94796999D01*
X187733972Y-94796999D01*
X187733986Y-94796998D01*
X187836697Y-94786505D01*
X188003119Y-94731358D01*
X188003124Y-94731356D01*
X188152345Y-94639315D01*
X188276315Y-94515345D01*
X188368356Y-94366124D01*
X188368358Y-94366119D01*
X188423505Y-94199697D01*
X188423506Y-94199690D01*
X188433999Y-94096986D01*
X188434000Y-94096973D01*
X188434000Y-93672000D01*
X187534000Y-93672000D01*
X187534000Y-94796999D01*
X187033999Y-94796999D01*
X187034000Y-94796998D01*
X187034000Y-93672000D01*
X186134001Y-93672000D01*
X186134001Y-94096986D01*
X182530890Y-94096986D01*
X181180917Y-92747013D01*
X186134000Y-92747013D01*
X186134000Y-93172000D01*
X187034000Y-93172000D01*
X187534000Y-93172000D01*
X188433999Y-93172000D01*
X188433999Y-92747027D01*
X188433998Y-92747014D01*
X188433940Y-92746447D01*
X189225500Y-92746447D01*
X189225500Y-94097537D01*
X189225501Y-94097553D01*
X189236113Y-94201427D01*
X189291884Y-94369735D01*
X189291886Y-94369740D01*
X189384971Y-94520653D01*
X189480862Y-94616544D01*
X189514347Y-94677867D01*
X189509363Y-94747559D01*
X189507742Y-94751677D01*
X189484414Y-94807995D01*
X189484411Y-94808007D01*
X189449500Y-94983516D01*
X189449500Y-95162483D01*
X189484411Y-95337992D01*
X189484413Y-95338000D01*
X189552896Y-95503332D01*
X189552901Y-95503342D01*
X189652321Y-95652134D01*
X189652324Y-95652138D01*
X189778861Y-95778675D01*
X189778865Y-95778678D01*
X189927657Y-95878098D01*
X189927661Y-95878100D01*
X189927664Y-95878102D01*
X190093000Y-95946587D01*
X190268516Y-95981499D01*
X190268520Y-95981500D01*
X190268521Y-95981500D01*
X190447480Y-95981500D01*
X190447481Y-95981499D01*
X190623000Y-95946587D01*
X190788336Y-95878102D01*
X190937135Y-95778678D01*
X191063678Y-95652135D01*
X191163102Y-95503336D01*
X191231587Y-95338000D01*
X191266500Y-95162479D01*
X191266500Y-94983521D01*
X191231587Y-94808000D01*
X191223345Y-94788104D01*
X191215876Y-94718637D01*
X191247149Y-94656157D01*
X191252568Y-94651160D01*
X191252545Y-94651137D01*
X191291426Y-94612256D01*
X191383030Y-94520652D01*
X191476115Y-94369738D01*
X191531887Y-94201426D01*
X191542500Y-94097545D01*
X191542499Y-92746456D01*
X191531887Y-92642574D01*
X191476115Y-92474262D01*
X191383030Y-92323348D01*
X191257652Y-92197970D01*
X191124948Y-92116117D01*
X191106740Y-92104886D01*
X191106735Y-92104884D01*
X190938427Y-92049113D01*
X190834546Y-92038500D01*
X189933462Y-92038500D01*
X189933446Y-92038501D01*
X189829572Y-92049113D01*
X189661264Y-92104884D01*
X189661259Y-92104886D01*
X189510346Y-92197971D01*
X189384971Y-92323346D01*
X189291886Y-92474259D01*
X189291884Y-92474264D01*
X189236113Y-92642572D01*
X189225500Y-92746447D01*
X188433940Y-92746447D01*
X188423505Y-92644302D01*
X188368358Y-92477880D01*
X188368356Y-92477875D01*
X188276315Y-92328654D01*
X188152345Y-92204684D01*
X188003124Y-92112643D01*
X188003119Y-92112641D01*
X187836697Y-92057494D01*
X187836690Y-92057493D01*
X187733986Y-92047000D01*
X187534000Y-92047000D01*
X187534000Y-93172000D01*
X187034000Y-93172000D01*
X187034000Y-92047000D01*
X186834029Y-92047000D01*
X186834012Y-92047001D01*
X186731302Y-92057494D01*
X186564880Y-92112641D01*
X186564875Y-92112643D01*
X186415654Y-92204684D01*
X186291684Y-92328654D01*
X186199643Y-92477875D01*
X186199641Y-92477880D01*
X186144494Y-92644302D01*
X186144493Y-92644309D01*
X186134000Y-92747013D01*
X181180917Y-92747013D01*
X179075467Y-90641563D01*
X179041982Y-90580240D01*
X179046966Y-90510548D01*
X179088838Y-90454615D01*
X179115695Y-90439321D01*
X179169336Y-90417102D01*
X179318135Y-90317678D01*
X179444678Y-90191135D01*
X179544102Y-90042336D01*
X179612587Y-89877000D01*
X179647500Y-89701479D01*
X179647500Y-89522521D01*
X179612587Y-89347000D01*
X179544102Y-89181664D01*
X179544100Y-89181661D01*
X179544098Y-89181657D01*
X179444678Y-89032865D01*
X179444675Y-89032861D01*
X179408819Y-88997005D01*
X179375334Y-88935682D01*
X179372500Y-88909324D01*
X179372500Y-88598605D01*
X179372499Y-88598601D01*
X179361878Y-88545202D01*
X179350185Y-88486422D01*
X179348155Y-88476215D01*
X179300400Y-88360925D01*
X179300399Y-88360924D01*
X179300396Y-88360918D01*
X179231072Y-88257168D01*
X179188620Y-88214716D01*
X179142833Y-88168929D01*
X176469551Y-85495647D01*
X176436066Y-85434324D01*
X176439301Y-85369648D01*
X176443049Y-85358116D01*
X176476500Y-85146916D01*
X176476500Y-84933084D01*
X176443049Y-84721884D01*
X176376972Y-84518517D01*
X176376972Y-84518516D01*
X176322765Y-84412130D01*
X176279894Y-84327991D01*
X176154206Y-84154996D01*
X176013555Y-84014345D01*
X179601500Y-84014345D01*
X179601500Y-85811654D01*
X179608011Y-85872202D01*
X179608011Y-85872204D01*
X179658289Y-86006999D01*
X179659111Y-86009204D01*
X179746739Y-86126261D01*
X179863796Y-86213889D01*
X180000799Y-86264989D01*
X180028050Y-86267918D01*
X180061345Y-86271499D01*
X180061362Y-86271500D01*
X180080692Y-86271500D01*
X180147731Y-86291185D01*
X180168373Y-86307819D01*
X180830591Y-86970037D01*
X180767007Y-86987075D01*
X180652993Y-87052901D01*
X180559901Y-87145993D01*
X180494075Y-87260007D01*
X180477037Y-87323591D01*
X179844728Y-86691282D01*
X179844727Y-86691282D01*
X179805380Y-86745439D01*
X179708904Y-86934782D01*
X179643242Y-87136869D01*
X179643242Y-87136872D01*
X179610000Y-87346753D01*
X179610000Y-87559246D01*
X179643242Y-87769127D01*
X179643242Y-87769130D01*
X179708904Y-87971217D01*
X179805375Y-88160550D01*
X179844728Y-88214716D01*
X180477037Y-87582408D01*
X180494075Y-87645993D01*
X180559901Y-87760007D01*
X180652993Y-87853099D01*
X180767007Y-87918925D01*
X180830590Y-87935962D01*
X180198282Y-88568269D01*
X180198282Y-88568270D01*
X180252449Y-88607624D01*
X180441782Y-88704095D01*
X180643870Y-88769757D01*
X180853754Y-88803000D01*
X181066246Y-88803000D01*
X181276127Y-88769757D01*
X181276130Y-88769757D01*
X181478217Y-88704095D01*
X181667554Y-88607622D01*
X181721716Y-88568270D01*
X181721717Y-88568270D01*
X181089408Y-87935962D01*
X181152993Y-87918925D01*
X181267007Y-87853099D01*
X181360099Y-87760007D01*
X181425925Y-87645993D01*
X181442962Y-87582409D01*
X182075270Y-88214717D01*
X182075270Y-88214716D01*
X182114622Y-88160554D01*
X182211095Y-87971217D01*
X182276757Y-87769130D01*
X182276757Y-87769127D01*
X182310000Y-87559246D01*
X182310000Y-87346753D01*
X182276757Y-87136872D01*
X182276757Y-87136869D01*
X182211095Y-86934782D01*
X182114624Y-86745449D01*
X182075270Y-86691282D01*
X182075269Y-86691282D01*
X181442962Y-87323590D01*
X181425925Y-87260007D01*
X181360099Y-87145993D01*
X181267007Y-87052901D01*
X181152993Y-86987075D01*
X181089409Y-86970037D01*
X181751626Y-86307819D01*
X181812949Y-86274334D01*
X181839307Y-86271500D01*
X181858638Y-86271500D01*
X181858654Y-86271499D01*
X181885692Y-86268591D01*
X181919201Y-86264989D01*
X182056204Y-86213889D01*
X182173261Y-86126261D01*
X182260889Y-86009204D01*
X182311989Y-85872201D01*
X182316000Y-85834889D01*
X182318499Y-85811654D01*
X182318500Y-85811637D01*
X182318500Y-84014362D01*
X182318499Y-84014350D01*
X182316756Y-83998139D01*
X182316756Y-83998136D01*
X182311989Y-83953798D01*
X182311988Y-83953795D01*
X182283757Y-83878106D01*
X182260889Y-83816796D01*
X182173261Y-83699739D01*
X182056204Y-83612111D01*
X182045287Y-83608039D01*
X181919203Y-83561011D01*
X181858654Y-83554500D01*
X181858638Y-83554500D01*
X180061362Y-83554500D01*
X180061345Y-83554500D01*
X180000797Y-83561011D01*
X180000795Y-83561011D01*
X179863795Y-83612111D01*
X179746739Y-83699739D01*
X179659111Y-83816795D01*
X179608011Y-83953795D01*
X179608011Y-83953797D01*
X179601500Y-84014345D01*
X176013555Y-84014345D01*
X176003004Y-84003794D01*
X175830009Y-83878106D01*
X175825846Y-83875985D01*
X175639483Y-83781027D01*
X175639480Y-83781026D01*
X175436117Y-83714951D01*
X175315840Y-83695901D01*
X175224916Y-83681500D01*
X175011084Y-83681500D01*
X174940684Y-83692650D01*
X174799882Y-83714951D01*
X174596519Y-83781026D01*
X174596516Y-83781027D01*
X174405990Y-83878106D01*
X174232993Y-84003796D01*
X174081796Y-84154993D01*
X173956106Y-84327990D01*
X173859027Y-84518516D01*
X173859026Y-84518519D01*
X173792951Y-84721882D01*
X173759500Y-84933084D01*
X173759500Y-85146915D01*
X173792951Y-85358117D01*
X173859026Y-85561480D01*
X173859027Y-85561483D01*
X173941701Y-85723737D01*
X173956106Y-85752009D01*
X174081794Y-85925004D01*
X174081796Y-85925006D01*
X174186971Y-86030181D01*
X174220456Y-86091504D01*
X174215472Y-86161196D01*
X174173600Y-86217129D01*
X174142625Y-86234043D01*
X174021795Y-86279111D01*
X173904739Y-86366739D01*
X173817111Y-86483795D01*
X173766011Y-86620795D01*
X173766011Y-86620797D01*
X173759500Y-86681345D01*
X173759500Y-88478654D01*
X173766011Y-88539202D01*
X173766011Y-88539204D01*
X173803273Y-88639103D01*
X173817111Y-88676204D01*
X173904739Y-88793261D01*
X174021796Y-88880889D01*
X174158799Y-88931989D01*
X174186050Y-88934918D01*
X174219345Y-88938499D01*
X174219362Y-88938500D01*
X175529234Y-88938500D01*
X175596273Y-88958185D01*
X175616915Y-88974819D01*
X186098628Y-99456532D01*
X186132113Y-99517855D01*
X186127129Y-99587547D01*
X186085257Y-99643480D01*
X186019793Y-99667897D01*
X185951520Y-99653045D01*
X185947828Y-99650946D01*
X185942603Y-99647856D01*
X185942596Y-99647853D01*
X185782835Y-99601438D01*
X185782829Y-99601437D01*
X185745507Y-99598500D01*
X185745502Y-99598500D01*
X184162498Y-99598500D01*
X184162492Y-99598500D01*
X184125170Y-99601437D01*
X184125164Y-99601438D01*
X183965403Y-99647853D01*
X183965398Y-99647855D01*
X183822196Y-99732544D01*
X183822187Y-99732551D01*
X183704551Y-99850187D01*
X183704544Y-99850196D01*
X183619855Y-99993398D01*
X183619853Y-99993403D01*
X183573438Y-100153164D01*
X183573437Y-100153170D01*
X183570500Y-100190492D01*
X183570500Y-100623507D01*
X183573437Y-100660829D01*
X183573438Y-100660835D01*
X183619853Y-100820596D01*
X183619855Y-100820601D01*
X183704547Y-100963808D01*
X183706249Y-100966002D01*
X183707047Y-100968034D01*
X183708518Y-100970522D01*
X183708116Y-100970759D01*
X183731783Y-101031039D01*
X183718101Y-101099556D01*
X183706249Y-101117998D01*
X183704547Y-101120191D01*
X183619855Y-101263398D01*
X183619853Y-101263403D01*
X183573438Y-101423164D01*
X183573437Y-101423170D01*
X183570500Y-101460492D01*
X183570500Y-101554500D01*
X183550815Y-101621539D01*
X183498011Y-101667294D01*
X183446500Y-101678500D01*
X180810142Y-101678500D01*
X180743103Y-101658815D01*
X180704603Y-101619596D01*
X180689030Y-101594348D01*
X180563653Y-101468971D01*
X180563652Y-101468970D01*
X180425316Y-101383643D01*
X180412740Y-101375886D01*
X180412735Y-101375884D01*
X180244427Y-101320113D01*
X180140546Y-101309500D01*
X179239462Y-101309500D01*
X179239446Y-101309501D01*
X179135572Y-101320113D01*
X178967264Y-101375884D01*
X178967259Y-101375886D01*
X178816346Y-101468971D01*
X178690971Y-101594346D01*
X178597886Y-101745259D01*
X178597884Y-101745264D01*
X178542113Y-101913572D01*
X178531500Y-102017447D01*
X178531500Y-103368537D01*
X178531501Y-103368553D01*
X178542113Y-103472427D01*
X178597884Y-103640735D01*
X178597886Y-103640740D01*
X178608531Y-103657998D01*
X178687895Y-103786667D01*
X178690971Y-103791653D01*
X178816347Y-103917029D01*
X178816351Y-103917032D01*
X178925671Y-103984462D01*
X178972396Y-104036410D01*
X178983617Y-104105372D01*
X178955774Y-104169454D01*
X178925671Y-104195538D01*
X178816351Y-104262967D01*
X178816347Y-104262970D01*
X178690971Y-104388346D01*
X178597886Y-104539259D01*
X178597884Y-104539264D01*
X178542113Y-104707572D01*
X178531500Y-104811447D01*
X178531500Y-106162537D01*
X178531501Y-106162553D01*
X178542113Y-106266427D01*
X178584105Y-106393153D01*
X178597885Y-106434738D01*
X178690970Y-106585652D01*
X178816348Y-106711030D01*
X178967262Y-106804115D01*
X179135574Y-106859887D01*
X179239455Y-106870500D01*
X180140544Y-106870499D01*
X180244426Y-106859887D01*
X180412738Y-106804115D01*
X180563652Y-106711030D01*
X180689030Y-106585652D01*
X180782115Y-106434738D01*
X180837887Y-106266426D01*
X180848500Y-106162545D01*
X180848499Y-104811456D01*
X180837887Y-104707574D01*
X180782115Y-104539262D01*
X180689030Y-104388348D01*
X180563652Y-104262970D01*
X180454326Y-104195536D01*
X180407604Y-104143591D01*
X180396381Y-104074628D01*
X180424225Y-104010546D01*
X180454324Y-103984464D01*
X180563652Y-103917030D01*
X180689030Y-103791652D01*
X180782115Y-103640738D01*
X180837887Y-103472426D01*
X180848500Y-103368545D01*
X180848500Y-103069500D01*
X180868185Y-103002461D01*
X180920989Y-102956706D01*
X180972500Y-102945500D01*
X183446500Y-102945500D01*
X183513539Y-102965185D01*
X183559294Y-103017989D01*
X183570500Y-103069500D01*
X183570500Y-103163507D01*
X183573437Y-103200829D01*
X183573438Y-103200835D01*
X183619853Y-103360596D01*
X183619855Y-103360601D01*
X183704547Y-103503808D01*
X183706249Y-103506002D01*
X183707047Y-103508034D01*
X183708518Y-103510522D01*
X183708116Y-103510759D01*
X183731783Y-103571039D01*
X183718101Y-103639556D01*
X183706249Y-103657998D01*
X183704547Y-103660191D01*
X183619855Y-103803398D01*
X183619853Y-103803403D01*
X183573438Y-103963164D01*
X183573437Y-103963170D01*
X183570500Y-104000492D01*
X183570500Y-104433507D01*
X183573437Y-104470829D01*
X183573438Y-104470835D01*
X183619853Y-104630596D01*
X183619855Y-104630601D01*
X183704547Y-104773808D01*
X183706249Y-104776002D01*
X183707047Y-104778034D01*
X183708518Y-104780522D01*
X183708116Y-104780759D01*
X183731783Y-104841039D01*
X183718101Y-104909556D01*
X183706249Y-104927998D01*
X183704547Y-104930191D01*
X183619855Y-105073398D01*
X183619853Y-105073403D01*
X183573438Y-105233164D01*
X183573437Y-105233170D01*
X183570500Y-105270492D01*
X183570500Y-105703507D01*
X183573437Y-105740829D01*
X183573438Y-105740835D01*
X183619853Y-105900596D01*
X183619855Y-105900601D01*
X183704544Y-106043803D01*
X183709330Y-106049973D01*
X183707416Y-106051457D01*
X183735151Y-106102250D01*
X183730167Y-106171942D01*
X183715252Y-106198708D01*
X183715288Y-106198729D01*
X183714482Y-106200091D01*
X183711969Y-106204602D01*
X183711319Y-106205439D01*
X183627718Y-106346801D01*
X183581899Y-106504513D01*
X183581704Y-106506998D01*
X183581705Y-106507000D01*
X186326295Y-106507000D01*
X186326295Y-106506998D01*
X186326100Y-106504513D01*
X186280281Y-106346801D01*
X186196683Y-106205443D01*
X186196031Y-106204603D01*
X186195725Y-106203824D01*
X186192712Y-106198729D01*
X186193534Y-106198242D01*
X186170499Y-106139565D01*
X186184182Y-106071048D01*
X186199318Y-106050468D01*
X186198673Y-106049968D01*
X186203445Y-106043814D01*
X186203453Y-106043807D01*
X186288145Y-105900601D01*
X186331317Y-105752000D01*
X186334561Y-105740835D01*
X186334562Y-105740829D01*
X186337500Y-105703502D01*
X186337500Y-105270498D01*
X186334562Y-105233169D01*
X186331319Y-105222007D01*
X186293139Y-105090588D01*
X186288145Y-105073399D01*
X186239060Y-104990401D01*
X186203456Y-104930197D01*
X186201755Y-104928005D01*
X186200956Y-104925970D01*
X186199482Y-104923478D01*
X186199883Y-104923240D01*
X186176217Y-104862970D01*
X186189894Y-104794452D01*
X186201755Y-104775995D01*
X186203449Y-104773810D01*
X186203453Y-104773807D01*
X186288145Y-104630601D01*
X186331317Y-104482000D01*
X186334561Y-104470835D01*
X186334562Y-104470829D01*
X186337500Y-104433502D01*
X186337500Y-104000498D01*
X186334562Y-103963169D01*
X186331319Y-103952007D01*
X186296705Y-103832863D01*
X186288145Y-103803399D01*
X186281198Y-103791653D01*
X186266986Y-103767621D01*
X186249803Y-103699897D01*
X186271963Y-103633634D01*
X186326429Y-103589871D01*
X186373718Y-103580500D01*
X187553664Y-103580500D01*
X187620703Y-103600185D01*
X187666458Y-103652989D01*
X187676402Y-103722147D01*
X187656766Y-103773390D01*
X187647904Y-103786652D01*
X187647896Y-103786667D01*
X187579413Y-103951999D01*
X187579411Y-103952007D01*
X187544500Y-104127516D01*
X187544500Y-104306483D01*
X187579411Y-104481992D01*
X187579413Y-104482000D01*
X187647896Y-104647332D01*
X187647901Y-104647342D01*
X187747321Y-104796134D01*
X187747324Y-104796138D01*
X187873861Y-104922675D01*
X187873865Y-104922678D01*
X188022657Y-105022098D01*
X188022661Y-105022100D01*
X188022664Y-105022102D01*
X188188000Y-105090587D01*
X188331738Y-105119178D01*
X188363516Y-105125499D01*
X188363520Y-105125500D01*
X188363521Y-105125500D01*
X188542479Y-105125500D01*
X188574261Y-105119178D01*
X188643852Y-105125405D01*
X188699030Y-105168267D01*
X188722275Y-105234157D01*
X188722071Y-105250518D01*
X188720501Y-105270477D01*
X188720500Y-105270504D01*
X188720500Y-105640912D01*
X188700815Y-105707951D01*
X188684181Y-105728593D01*
X188499167Y-105913607D01*
X188472480Y-105940294D01*
X188410927Y-106001846D01*
X188341603Y-106105596D01*
X188341598Y-106105605D01*
X188293845Y-106220892D01*
X188293843Y-106220900D01*
X188269500Y-106343279D01*
X188269500Y-107763397D01*
X188293843Y-107885776D01*
X188293845Y-107885784D01*
X188341598Y-108001071D01*
X188341603Y-108001080D01*
X188410928Y-108104831D01*
X188410931Y-108104835D01*
X188736930Y-108430833D01*
X188792292Y-108486195D01*
X188811342Y-108510754D01*
X188854545Y-108583805D01*
X188856249Y-108586002D01*
X188857047Y-108588037D01*
X188858517Y-108590521D01*
X188858116Y-108590758D01*
X188881783Y-108651039D01*
X188868101Y-108719556D01*
X188856249Y-108737998D01*
X188854547Y-108740191D01*
X188769855Y-108883398D01*
X188769853Y-108883403D01*
X188723438Y-109043164D01*
X188723437Y-109043170D01*
X188720500Y-109080492D01*
X188720500Y-109513507D01*
X188723437Y-109550829D01*
X188723438Y-109550835D01*
X188769853Y-109710596D01*
X188769855Y-109710601D01*
X188854544Y-109853803D01*
X188854551Y-109853812D01*
X188972187Y-109971448D01*
X188972191Y-109971451D01*
X188972193Y-109971453D01*
X189115399Y-110056145D01*
X189126951Y-110059501D01*
X189275164Y-110102561D01*
X189275167Y-110102561D01*
X189275169Y-110102562D01*
X189312498Y-110105500D01*
X189965234Y-110105500D01*
X189994674Y-110114144D01*
X190024661Y-110120668D01*
X190029676Y-110124422D01*
X190032273Y-110125185D01*
X190052915Y-110141819D01*
X190140915Y-110229819D01*
X190174400Y-110291142D01*
X190169416Y-110360834D01*
X190127544Y-110416767D01*
X190062080Y-110441184D01*
X190053234Y-110441500D01*
X177792883Y-110441500D01*
X177725844Y-110421815D01*
X177682398Y-110373795D01*
X177676894Y-110362991D01*
X177551206Y-110189996D01*
X177400004Y-110038794D01*
X177227009Y-109913106D01*
X177036483Y-109816027D01*
X177036480Y-109816026D01*
X176833117Y-109749951D01*
X176727516Y-109733225D01*
X176621916Y-109716500D01*
X176408084Y-109716500D01*
X176337684Y-109727650D01*
X176196882Y-109749951D01*
X175993519Y-109816026D01*
X175993516Y-109816027D01*
X175802990Y-109913106D01*
X175629993Y-110038796D01*
X175478796Y-110189993D01*
X175353106Y-110362990D01*
X175256027Y-110553516D01*
X175256026Y-110553519D01*
X175189951Y-110756882D01*
X175156500Y-110968084D01*
X175156500Y-111181915D01*
X175189951Y-111393117D01*
X175256026Y-111596480D01*
X175256027Y-111596483D01*
X175353106Y-111787009D01*
X175478794Y-111960004D01*
X175629996Y-112111206D01*
X175784227Y-112223261D01*
X175802991Y-112236894D01*
X175806873Y-112239273D01*
X175853748Y-112291086D01*
X175865169Y-112360016D01*
X175837512Y-112424178D01*
X175806873Y-112450727D01*
X175802991Y-112453105D01*
X175629993Y-112578796D01*
X175478796Y-112729993D01*
X175353106Y-112902990D01*
X175256027Y-113093516D01*
X175256026Y-113093519D01*
X175189951Y-113296882D01*
X175175599Y-113387500D01*
X175156500Y-113508084D01*
X175156500Y-113721916D01*
X175167495Y-113791336D01*
X175189951Y-113933117D01*
X175256026Y-114136480D01*
X175256027Y-114136483D01*
X175344892Y-114310889D01*
X175353106Y-114327009D01*
X175478794Y-114500004D01*
X175629996Y-114651206D01*
X175802991Y-114776894D01*
X175807680Y-114779283D01*
X175858478Y-114827254D01*
X175875276Y-114895074D01*
X175852742Y-114961210D01*
X175811205Y-114997209D01*
X175811590Y-114997838D01*
X175807804Y-115000157D01*
X175807702Y-115000246D01*
X175807449Y-115000374D01*
X175807440Y-115000380D01*
X175753282Y-115039727D01*
X175753282Y-115039728D01*
X176385591Y-115672037D01*
X176322007Y-115689075D01*
X176207993Y-115754901D01*
X176114901Y-115847993D01*
X176049075Y-115962007D01*
X176032037Y-116025591D01*
X175399728Y-115393282D01*
X175399727Y-115393282D01*
X175360380Y-115447439D01*
X175263904Y-115636782D01*
X175198242Y-115838869D01*
X175198242Y-115838872D01*
X175165000Y-116048753D01*
X175165000Y-116261246D01*
X175198242Y-116471127D01*
X175198242Y-116471130D01*
X175263904Y-116673217D01*
X175360375Y-116862550D01*
X175399728Y-116916716D01*
X176032037Y-116284408D01*
X176049075Y-116347993D01*
X176114901Y-116462007D01*
X176207993Y-116555099D01*
X176322007Y-116620925D01*
X176385590Y-116637962D01*
X175723371Y-117300181D01*
X175662048Y-117333666D01*
X175635690Y-117336500D01*
X175616345Y-117336500D01*
X175555797Y-117343011D01*
X175555795Y-117343011D01*
X175418795Y-117394111D01*
X175301739Y-117481739D01*
X175214111Y-117598795D01*
X175163011Y-117735795D01*
X175163011Y-117735797D01*
X175156500Y-117796345D01*
X175156500Y-119593654D01*
X175163011Y-119654202D01*
X175163011Y-119654204D01*
X175202600Y-119760342D01*
X175214111Y-119791204D01*
X175301739Y-119908261D01*
X175418796Y-119995889D01*
X175521548Y-120034214D01*
X175552211Y-120045651D01*
X175555799Y-120046989D01*
X175583050Y-120049918D01*
X175616345Y-120053499D01*
X175616362Y-120053500D01*
X177413638Y-120053500D01*
X177413654Y-120053499D01*
X177440692Y-120050591D01*
X177474201Y-120046989D01*
X177477789Y-120045651D01*
X177490952Y-120040741D01*
X177611204Y-119995889D01*
X177728261Y-119908261D01*
X177815889Y-119791204D01*
X177866989Y-119654201D01*
X177873354Y-119595000D01*
X177873499Y-119593654D01*
X177873500Y-119593637D01*
X177873500Y-118283766D01*
X177893185Y-118216727D01*
X177909819Y-118196085D01*
X179283085Y-116822819D01*
X179344408Y-116789334D01*
X179370766Y-116786500D01*
X184534228Y-116786500D01*
X184601267Y-116806185D01*
X184647022Y-116858989D01*
X184657586Y-116897899D01*
X184661113Y-116932427D01*
X184716884Y-117100735D01*
X184716886Y-117100740D01*
X184751913Y-117157527D01*
X184809970Y-117251652D01*
X184935348Y-117377030D01*
X185086262Y-117470115D01*
X185086265Y-117470116D01*
X185091689Y-117472645D01*
X185144129Y-117518817D01*
X185163281Y-117586011D01*
X185143066Y-117652892D01*
X185104383Y-117690566D01*
X185051849Y-117722969D01*
X184926470Y-117848348D01*
X184926467Y-117848352D01*
X184833384Y-117999261D01*
X184833383Y-117999264D01*
X184777613Y-118167571D01*
X184767000Y-118271448D01*
X184767000Y-119622551D01*
X184777613Y-119726428D01*
X184833383Y-119894735D01*
X184833384Y-119894738D01*
X184926467Y-120045647D01*
X184926470Y-120045651D01*
X185051848Y-120171029D01*
X185051852Y-120171032D01*
X185148202Y-120230462D01*
X185194927Y-120282410D01*
X185206148Y-120351372D01*
X185178305Y-120415454D01*
X185120236Y-120454310D01*
X185083105Y-120460000D01*
X179102000Y-120460000D01*
X179102000Y-125294000D01*
X179082315Y-125361039D01*
X179029511Y-125406794D01*
X178978000Y-125418000D01*
X145226000Y-125418000D01*
X145158961Y-125398315D01*
X145113206Y-125345511D01*
X145102000Y-125294000D01*
X145102000Y-80682136D01*
X145121685Y-80615097D01*
X145174489Y-80569342D01*
X145226132Y-80558136D01*
X244728138Y-80667863D01*
G37*
%TD.AperFunction*%
%TA.AperFunction,Conductor*%
G36*
X183058363Y-112559185D02*
G01*
X183104118Y-112611989D01*
X183114062Y-112681147D01*
X183085037Y-112744703D01*
X183079005Y-112751181D01*
X183048324Y-112781861D01*
X183048321Y-112781865D01*
X182948901Y-112930657D01*
X182948896Y-112930667D01*
X182880413Y-113095999D01*
X182880411Y-113096007D01*
X182845500Y-113271516D01*
X182845500Y-113450483D01*
X182880411Y-113625992D01*
X182880413Y-113626000D01*
X182948896Y-113791332D01*
X182948901Y-113791342D01*
X183048321Y-113940134D01*
X183048324Y-113940138D01*
X183174861Y-114066675D01*
X183174865Y-114066678D01*
X183323657Y-114166098D01*
X183323661Y-114166100D01*
X183323664Y-114166102D01*
X183489000Y-114234587D01*
X183620446Y-114260733D01*
X183664516Y-114269499D01*
X183664520Y-114269500D01*
X183664521Y-114269500D01*
X183843480Y-114269500D01*
X183843481Y-114269499D01*
X184019000Y-114234587D01*
X184184336Y-114166102D01*
X184219812Y-114142397D01*
X184237857Y-114136747D01*
X184253767Y-114126523D01*
X184284726Y-114122071D01*
X184286488Y-114121520D01*
X184288702Y-114121500D01*
X184459228Y-114121500D01*
X184526267Y-114141185D01*
X184572022Y-114193989D01*
X184582585Y-114232898D01*
X184584175Y-114248463D01*
X184586113Y-114267427D01*
X184641884Y-114435735D01*
X184641886Y-114435740D01*
X184656398Y-114459267D01*
X184734970Y-114586652D01*
X184860348Y-114712030D01*
X184907439Y-114741076D01*
X184954163Y-114793023D01*
X184965384Y-114861986D01*
X184937541Y-114926068D01*
X184930023Y-114934295D01*
X184809969Y-115054349D01*
X184716886Y-115205259D01*
X184716884Y-115205264D01*
X184661113Y-115373572D01*
X184657585Y-115408104D01*
X184631188Y-115472795D01*
X184574007Y-115512946D01*
X184534227Y-115519500D01*
X178994601Y-115519500D01*
X178872222Y-115543843D01*
X178872214Y-115543845D01*
X178756927Y-115591598D01*
X178756918Y-115591603D01*
X178653167Y-115660928D01*
X178653163Y-115660931D01*
X178076681Y-116237414D01*
X178015358Y-116270899D01*
X177945666Y-116265915D01*
X177889733Y-116224043D01*
X177865316Y-116158579D01*
X177865000Y-116149733D01*
X177865000Y-116048753D01*
X177831757Y-115838872D01*
X177831757Y-115838869D01*
X177766095Y-115636782D01*
X177669624Y-115447449D01*
X177630270Y-115393282D01*
X177630269Y-115393282D01*
X176997962Y-116025590D01*
X176980925Y-115962007D01*
X176915099Y-115847993D01*
X176822007Y-115754901D01*
X176707993Y-115689075D01*
X176644409Y-115672037D01*
X177276716Y-115039728D01*
X177222547Y-115000373D01*
X177222545Y-115000371D01*
X177222308Y-115000251D01*
X177222234Y-115000181D01*
X177218396Y-114997829D01*
X177218890Y-114997022D01*
X177171515Y-114952274D01*
X177154724Y-114884451D01*
X177177266Y-114818318D01*
X177222319Y-114779283D01*
X177227009Y-114776894D01*
X177400004Y-114651206D01*
X177551206Y-114500004D01*
X177676894Y-114327009D01*
X177773972Y-114136483D01*
X177840049Y-113933116D01*
X177873500Y-113721916D01*
X177873500Y-113508084D01*
X177840049Y-113296884D01*
X177836300Y-113285348D01*
X177834306Y-113215509D01*
X177866549Y-113159353D01*
X178450085Y-112575819D01*
X178511408Y-112542334D01*
X178537766Y-112539500D01*
X182991324Y-112539500D01*
X183058363Y-112559185D01*
G37*
%TD.AperFunction*%
%TA.AperFunction,Conductor*%
G36*
X193292273Y-101060185D02*
G01*
X193312915Y-101076819D01*
X196870163Y-104634069D01*
X196870167Y-104634072D01*
X196973921Y-104703399D01*
X196973923Y-104703399D01*
X196973925Y-104703401D01*
X197055447Y-104737168D01*
X197089215Y-104751155D01*
X197089217Y-104751155D01*
X197089222Y-104751157D01*
X197211601Y-104775499D01*
X197211605Y-104775500D01*
X197211606Y-104775500D01*
X197211607Y-104775500D01*
X197336394Y-104775500D01*
X207819500Y-104775500D01*
X207886539Y-104795185D01*
X207932294Y-104847989D01*
X207943500Y-104899500D01*
X207943500Y-105827500D01*
X207923815Y-105894539D01*
X207871011Y-105940294D01*
X207819500Y-105951500D01*
X196677388Y-105951500D01*
X196629936Y-105942061D01*
X196588373Y-105924845D01*
X196588365Y-105924843D01*
X196465986Y-105900500D01*
X196465982Y-105900500D01*
X196376000Y-105900500D01*
X196308961Y-105880815D01*
X196263206Y-105828011D01*
X196252000Y-105776500D01*
X196252000Y-105610000D01*
X192921153Y-105610000D01*
X192854114Y-105590315D01*
X192852261Y-105589101D01*
X192823083Y-105569604D01*
X192823072Y-105569598D01*
X192707785Y-105521845D01*
X192707777Y-105521843D01*
X192585398Y-105497500D01*
X192585394Y-105497500D01*
X192380833Y-105497500D01*
X192313794Y-105477815D01*
X192268039Y-105425011D01*
X192258095Y-105355853D01*
X192287120Y-105292297D01*
X192322384Y-105264139D01*
X192326490Y-105261943D01*
X192326497Y-105261941D01*
X192475296Y-105162517D01*
X192512408Y-105125405D01*
X192552226Y-105085588D01*
X192613549Y-105052103D01*
X192683241Y-105057087D01*
X192727588Y-105085588D01*
X192752000Y-105110000D01*
X194252000Y-105110000D01*
X194752000Y-105110000D01*
X196252000Y-105110000D01*
X196252000Y-104812172D01*
X196251999Y-104812155D01*
X196245598Y-104752627D01*
X196245596Y-104752620D01*
X196195354Y-104617913D01*
X196195350Y-104617906D01*
X196109190Y-104502812D01*
X196109187Y-104502809D01*
X195994093Y-104416649D01*
X195994086Y-104416645D01*
X195859379Y-104366403D01*
X195859372Y-104366401D01*
X195799844Y-104360000D01*
X194752000Y-104360000D01*
X194752000Y-105110000D01*
X194252000Y-105110000D01*
X194252000Y-104360000D01*
X193204155Y-104360000D01*
X193144627Y-104366401D01*
X193144620Y-104366403D01*
X193009913Y-104416645D01*
X193009907Y-104416649D01*
X192997330Y-104426064D01*
X192931865Y-104450480D01*
X192863592Y-104435627D01*
X192814188Y-104386221D01*
X192801405Y-104350992D01*
X192769748Y-104191839D01*
X192701263Y-104026503D01*
X192701261Y-104026500D01*
X192701259Y-104026496D01*
X192601839Y-103877704D01*
X192601836Y-103877700D01*
X192475299Y-103751163D01*
X192475295Y-103751160D01*
X192326503Y-103651740D01*
X192326493Y-103651735D01*
X192161161Y-103583252D01*
X192161153Y-103583250D01*
X191985644Y-103548339D01*
X191985640Y-103548339D01*
X191934927Y-103548339D01*
X191867888Y-103528654D01*
X191847246Y-103512020D01*
X191523819Y-103188593D01*
X191490334Y-103127270D01*
X191487500Y-103100912D01*
X191487500Y-102730504D01*
X191487500Y-102730498D01*
X191484562Y-102693169D01*
X191438145Y-102533399D01*
X191356325Y-102395049D01*
X191353456Y-102390197D01*
X191351755Y-102388005D01*
X191350956Y-102385970D01*
X191349482Y-102383478D01*
X191349883Y-102383240D01*
X191326217Y-102322970D01*
X191339894Y-102254452D01*
X191351755Y-102235995D01*
X191353449Y-102233810D01*
X191353453Y-102233807D01*
X191438145Y-102090601D01*
X191484562Y-101930831D01*
X191487500Y-101893502D01*
X191487500Y-101460498D01*
X191484562Y-101423169D01*
X191454648Y-101320205D01*
X191443139Y-101280588D01*
X191438145Y-101263399D01*
X191426109Y-101243048D01*
X191416986Y-101227621D01*
X191399803Y-101159897D01*
X191421963Y-101093634D01*
X191476429Y-101049871D01*
X191523718Y-101040500D01*
X193225234Y-101040500D01*
X193292273Y-101060185D01*
G37*
%TD.AperFunction*%
%TD*%
M02*
