%TF.GenerationSoftware,KiCad,Pcbnew,9.0.3*%
%TF.CreationDate,2025-07-30T11:35:09+02:00*%
%TF.ProjectId,TPOneBoard,54504f6e-6542-46f6-9172-642e6b696361,rev?*%
%TF.SameCoordinates,Original*%
%TF.FileFunction,Other,User*%
%FSLAX46Y46*%
G04 Gerber Fmt 4.6, Leading zero omitted, Abs format (unit mm)*
G04 Created by KiCad (PCBNEW 9.0.3) date 2025-07-30 11:35:09*
%MOMM*%
%LPD*%
G01*
G04 APERTURE LIST*
%ADD10C,0.050000*%
G04 APERTURE END LIST*
D10*
%TO.C,R1*%
X175690000Y-104367000D02*
X180590000Y-104367000D01*
X175690000Y-106607000D02*
X175690000Y-104367000D01*
X180590000Y-104367000D02*
X180590000Y-106607000D01*
X180590000Y-106607000D02*
X175690000Y-106607000D01*
%TO.C,C4*%
X196066000Y-83918500D02*
X198366000Y-83918500D01*
X196066000Y-88878500D02*
X196066000Y-83918500D01*
X198366000Y-83918500D02*
X198366000Y-88878500D01*
X198366000Y-88878500D02*
X196066000Y-88878500D01*
%TO.C,JP6*%
X167125000Y-83143000D02*
X167125000Y-89233000D01*
X167125000Y-89233000D02*
X170665000Y-89233000D01*
X170665000Y-83143000D02*
X167125000Y-83143000D01*
X170665000Y-89233000D02*
X170665000Y-83143000D01*
%TO.C,R3*%
X164693000Y-101573000D02*
X169593000Y-101573000D01*
X164693000Y-103813000D02*
X164693000Y-101573000D01*
X169593000Y-101573000D02*
X169593000Y-103813000D01*
X169593000Y-103813000D02*
X164693000Y-103813000D01*
%TO.C,C5*%
X154002000Y-119668000D02*
G75*
G02*
X147202000Y-119668000I-3400000J0D01*
G01*
X147202000Y-119668000D02*
G75*
G02*
X154002000Y-119668000I3400000J0D01*
G01*
%TO.C,R7*%
X215449000Y-114273000D02*
X220349000Y-114273000D01*
X215449000Y-116513000D02*
X215449000Y-114273000D01*
X220349000Y-114273000D02*
X220349000Y-116513000D01*
X220349000Y-116513000D02*
X215449000Y-116513000D01*
%TO.C,U2*%
X158522000Y-118168000D02*
X158522000Y-122768000D01*
X158522000Y-118168000D02*
X165622000Y-118168000D01*
X165622000Y-122768000D02*
X158522000Y-122768000D01*
X165622000Y-122768000D02*
X165622000Y-118168000D01*
%TO.C,U1*%
X183829000Y-99852000D02*
X185329000Y-99852000D01*
X183829000Y-109852000D02*
X183829000Y-99852000D01*
X185329000Y-99652000D02*
X189729000Y-99652000D01*
X185329000Y-99852000D02*
X185329000Y-99652000D01*
X185329000Y-109852000D02*
X183829000Y-109852000D01*
X185329000Y-110052000D02*
X185329000Y-109852000D01*
X189729000Y-99652000D02*
X189729000Y-99852000D01*
X189729000Y-99852000D02*
X191229000Y-99852000D01*
X189729000Y-109852000D02*
X189729000Y-110052000D01*
X189729000Y-110052000D02*
X185329000Y-110052000D01*
X191229000Y-99852000D02*
X191229000Y-109852000D01*
X191229000Y-109852000D02*
X189729000Y-109852000D01*
%TO.C,J8*%
X225352000Y-90018000D02*
X228902000Y-90018000D01*
X225352000Y-101218000D02*
X225352000Y-90018000D01*
X228902000Y-90018000D02*
X228902000Y-101218000D01*
X228902000Y-101218000D02*
X225352000Y-101218000D01*
%TO.C,R8*%
X215441000Y-117829000D02*
X220341000Y-117829000D01*
X215441000Y-120069000D02*
X215441000Y-117829000D01*
X220341000Y-117829000D02*
X220341000Y-120069000D01*
X220341000Y-120069000D02*
X215441000Y-120069000D01*
%TO.C,R2*%
X175690000Y-101573000D02*
X180590000Y-101573000D01*
X175690000Y-103813000D02*
X175690000Y-101573000D01*
X180590000Y-101573000D02*
X180590000Y-103813000D01*
X180590000Y-103813000D02*
X175690000Y-103813000D01*
%TO.C,J4*%
X202050000Y-83260000D02*
X202050000Y-89350000D01*
X202050000Y-89350000D02*
X205590000Y-89350000D01*
X205590000Y-83260000D02*
X202050000Y-83260000D01*
X205590000Y-89350000D02*
X205590000Y-83260000D01*
%TO.C,SW4*%
X233685000Y-82996000D02*
X233685000Y-89696000D01*
X233685000Y-82996000D02*
X242385000Y-82996000D01*
X233685000Y-89696000D02*
X242385000Y-89696000D01*
X242385000Y-89696000D02*
X242385000Y-82996000D01*
%TO.C,R4*%
X164693000Y-104367000D02*
X169593000Y-104367000D01*
X164693000Y-106607000D02*
X164693000Y-104367000D01*
X169593000Y-104367000D02*
X169593000Y-106607000D01*
X169593000Y-106607000D02*
X164693000Y-106607000D01*
%TO.C,JP3*%
X173348000Y-83260000D02*
X173348000Y-89350000D01*
X173348000Y-89350000D02*
X176888000Y-89350000D01*
X176888000Y-83260000D02*
X173348000Y-83260000D01*
X176888000Y-89350000D02*
X176888000Y-83260000D01*
%TO.C,Q2*%
X208509000Y-84133000D02*
X208509000Y-86933000D01*
X208509000Y-84133000D02*
X211709000Y-84133000D01*
X208509000Y-86933000D02*
X211709000Y-86933000D01*
X211709000Y-86933000D02*
X211709000Y-84133000D01*
%TO.C,SW5*%
X185425000Y-82996000D02*
X185425000Y-89696000D01*
X185425000Y-82996000D02*
X194125000Y-82996000D01*
X185425000Y-89696000D02*
X194125000Y-89696000D01*
X194125000Y-89696000D02*
X194125000Y-82996000D01*
%TO.C,C6*%
X148469500Y-111830000D02*
X153429500Y-111830000D01*
X148469500Y-114130000D02*
X148469500Y-111830000D01*
X153429500Y-111830000D02*
X153429500Y-114130000D01*
X153429500Y-114130000D02*
X148469500Y-114130000D01*
%TO.C,JP2*%
X179190000Y-83143000D02*
X179190000Y-89233000D01*
X179190000Y-89233000D02*
X182730000Y-89233000D01*
X182730000Y-83143000D02*
X179190000Y-83143000D01*
X182730000Y-89233000D02*
X182730000Y-83143000D01*
%TO.C,J1*%
X234702000Y-108468000D02*
X234702000Y-124368000D01*
X234702000Y-124368000D02*
X241452000Y-124368000D01*
X241452000Y-108468000D02*
X234702000Y-108468000D01*
X241452000Y-124368000D02*
X241452000Y-108468000D01*
%TO.C,J3*%
X193602000Y-98168000D02*
X209852000Y-98168000D01*
X193602000Y-101718000D02*
X193602000Y-98168000D01*
X209852000Y-98168000D02*
X209852000Y-101718000D01*
X209852000Y-101718000D02*
X193602000Y-101718000D01*
%TO.C,R5*%
X184909000Y-115033000D02*
X189809000Y-115033000D01*
X184909000Y-117273000D02*
X184909000Y-115033000D01*
X189809000Y-115033000D02*
X189809000Y-117273000D01*
X189809000Y-117273000D02*
X184909000Y-117273000D01*
%TO.C,R6*%
X186384000Y-92302000D02*
X191284000Y-92302000D01*
X186384000Y-94542000D02*
X186384000Y-92302000D01*
X191284000Y-92302000D02*
X191284000Y-94542000D01*
X191284000Y-94542000D02*
X186384000Y-94542000D01*
%TO.C,U7*%
X193002000Y-103610000D02*
X211202000Y-103610000D01*
X193002000Y-125310000D02*
X193002000Y-103610000D01*
X211202000Y-103610000D02*
X211202000Y-125310000D01*
X211202000Y-125310000D02*
X193002000Y-125310000D01*
%TO.C,D4*%
X185025500Y-117827000D02*
X189925500Y-117827000D01*
X185025500Y-120067000D02*
X185025500Y-117827000D01*
X189925500Y-117827000D02*
X189925500Y-120067000D01*
X189925500Y-120067000D02*
X185025500Y-120067000D01*
%TO.C,R9*%
X184834000Y-112368000D02*
X189734000Y-112368000D01*
X184834000Y-114608000D02*
X184834000Y-112368000D01*
X189734000Y-112368000D02*
X189734000Y-114608000D01*
X189734000Y-114608000D02*
X184834000Y-114608000D01*
%TD*%
M02*
