%TF.GenerationSoftware,KiCad,Pcbnew,9.0.3*%
%TF.CreationDate,2025-07-30T11:35:09+02:00*%
%TF.ProjectId,TPOneBoard,54504f6e-6542-46f6-9172-642e6b696361,rev?*%
%TF.SameCoordinates,Original*%
%TF.FileFunction,Paste,Top*%
%TF.FilePolarity,Positive*%
%FSLAX46Y46*%
G04 Gerber Fmt 4.6, Leading zero omitted, Abs format (unit mm)*
G04 Created by KiCad (PCBNEW 9.0.3) date 2025-07-30 11:35:09*
%MOMM*%
%LPD*%
G01*
G04 APERTURE LIST*
G04 Aperture macros list*
%AMRoundRect*
0 Rectangle with rounded corners*
0 $1 Rounding radius*
0 $2 $3 $4 $5 $6 $7 $8 $9 X,Y pos of 4 corners*
0 Add a 4 corners polygon primitive as box body*
4,1,4,$2,$3,$4,$5,$6,$7,$8,$9,$2,$3,0*
0 Add four circle primitives for the rounded corners*
1,1,$1+$1,$2,$3*
1,1,$1+$1,$4,$5*
1,1,$1+$1,$6,$7*
1,1,$1+$1,$8,$9*
0 Add four rect primitives between the rounded corners*
20,1,$1+$1,$2,$3,$4,$5,0*
20,1,$1+$1,$4,$5,$6,$7,0*
20,1,$1+$1,$6,$7,$8,$9,0*
20,1,$1+$1,$8,$9,$2,$3,0*%
G04 Aperture macros list end*
%ADD10RoundRect,0.250000X-0.400000X-0.625000X0.400000X-0.625000X0.400000X0.625000X-0.400000X0.625000X0*%
%ADD11RoundRect,0.250000X-0.650000X0.412500X-0.650000X-0.412500X0.650000X-0.412500X0.650000X0.412500X0*%
%ADD12RoundRect,0.150000X-0.725000X-0.150000X0.725000X-0.150000X0.725000X0.150000X-0.725000X0.150000X0*%
%ADD13RoundRect,0.250000X0.400000X0.625000X-0.400000X0.625000X-0.400000X-0.625000X0.400000X-0.625000X0*%
%ADD14RoundRect,0.100000X-0.225000X-0.100000X0.225000X-0.100000X0.225000X0.100000X-0.225000X0.100000X0*%
%ADD15RoundRect,0.250000X-0.412500X-0.650000X0.412500X-0.650000X0.412500X0.650000X-0.412500X0.650000X0*%
%ADD16R,2.500000X1.000000*%
%ADD17RoundRect,0.250001X-0.462499X-0.624999X0.462499X-0.624999X0.462499X0.624999X-0.462499X0.624999X0*%
G04 APERTURE END LIST*
D10*
%TO.C,R1*%
X176590000Y-105487000D03*
X179690000Y-105487000D03*
%TD*%
D11*
%TO.C,C4*%
X197216000Y-84836000D03*
X197216000Y-87961000D03*
%TD*%
D10*
%TO.C,R3*%
X165593000Y-102693000D03*
X168693000Y-102693000D03*
%TD*%
%TO.C,R7*%
X216349000Y-115393000D03*
X219449000Y-115393000D03*
%TD*%
D12*
%TO.C,U1*%
X184954000Y-100407000D03*
X184954000Y-101677000D03*
X184954000Y-102947000D03*
X184954000Y-104217000D03*
X184954000Y-105487000D03*
X184954000Y-106757000D03*
X184954000Y-108027000D03*
X184954000Y-109297000D03*
X190104000Y-109297000D03*
X190104000Y-108027000D03*
X190104000Y-106757000D03*
X190104000Y-105487000D03*
X190104000Y-104217000D03*
X190104000Y-102947000D03*
X190104000Y-101677000D03*
X190104000Y-100407000D03*
%TD*%
D10*
%TO.C,R8*%
X216341000Y-118949000D03*
X219441000Y-118949000D03*
%TD*%
D13*
%TO.C,R2*%
X179690000Y-102693000D03*
X176590000Y-102693000D03*
%TD*%
%TO.C,R4*%
X168693000Y-105487000D03*
X165593000Y-105487000D03*
%TD*%
D14*
%TO.C,Q2*%
X209159000Y-84883000D03*
X209159000Y-85533000D03*
X209159000Y-86183000D03*
X211059000Y-86183000D03*
X211059000Y-85533000D03*
X211059000Y-84883000D03*
%TD*%
D15*
%TO.C,C6*%
X149387000Y-112980000D03*
X152512000Y-112980000D03*
%TD*%
D13*
%TO.C,R5*%
X188909000Y-116153000D03*
X185809000Y-116153000D03*
%TD*%
%TO.C,R6*%
X190384000Y-93422000D03*
X187284000Y-93422000D03*
%TD*%
D16*
%TO.C,U7*%
X209702000Y-119360000D03*
X209702000Y-117360000D03*
X209702000Y-115360000D03*
X209702000Y-113360000D03*
X209702000Y-111360000D03*
X209702000Y-109360000D03*
X209702000Y-107360000D03*
X209702000Y-105360000D03*
X194502000Y-105360000D03*
X194502000Y-107360000D03*
X194502000Y-109360000D03*
X194502000Y-111360000D03*
X194502000Y-113360000D03*
X194502000Y-115360000D03*
X194502000Y-117360000D03*
X194502000Y-119360000D03*
%TD*%
D17*
%TO.C,D4*%
X185988000Y-118947000D03*
X188963000Y-118947000D03*
%TD*%
D13*
%TO.C,R9*%
X188834000Y-113488000D03*
X185734000Y-113488000D03*
%TD*%
M02*
