%TF.GenerationSoftware,KiCad,Pcbnew,9.0.3*%
%TF.CreationDate,2025-07-30T11:35:09+02:00*%
%TF.ProjectId,TPOneBoard,54504f6e-6542-46f6-9172-642e6b696361,rev?*%
%TF.SameCoordinates,Original*%
%TF.FileFunction,Legend,Top*%
%TF.FilePolarity,Positive*%
%FSLAX46Y46*%
G04 Gerber Fmt 4.6, Leading zero omitted, Abs format (unit mm)*
G04 Created by KiCad (PCBNEW 9.0.3) date 2025-07-30 11:35:09*
%MOMM*%
%LPD*%
G01*
G04 APERTURE LIST*
%ADD10C,0.300000*%
%ADD11C,0.150000*%
%ADD12C,0.200000*%
%ADD13C,0.120000*%
G04 APERTURE END LIST*
D10*
X228942225Y-119334900D02*
X229156511Y-119406328D01*
X229156511Y-119406328D02*
X229513653Y-119406328D01*
X229513653Y-119406328D02*
X229656511Y-119334900D01*
X229656511Y-119334900D02*
X229727939Y-119263471D01*
X229727939Y-119263471D02*
X229799368Y-119120614D01*
X229799368Y-119120614D02*
X229799368Y-118977757D01*
X229799368Y-118977757D02*
X229727939Y-118834900D01*
X229727939Y-118834900D02*
X229656511Y-118763471D01*
X229656511Y-118763471D02*
X229513653Y-118692042D01*
X229513653Y-118692042D02*
X229227939Y-118620614D01*
X229227939Y-118620614D02*
X229085082Y-118549185D01*
X229085082Y-118549185D02*
X229013653Y-118477757D01*
X229013653Y-118477757D02*
X228942225Y-118334900D01*
X228942225Y-118334900D02*
X228942225Y-118192042D01*
X228942225Y-118192042D02*
X229013653Y-118049185D01*
X229013653Y-118049185D02*
X229085082Y-117977757D01*
X229085082Y-117977757D02*
X229227939Y-117906328D01*
X229227939Y-117906328D02*
X229585082Y-117906328D01*
X229585082Y-117906328D02*
X229799368Y-117977757D01*
X231299367Y-119263471D02*
X231227939Y-119334900D01*
X231227939Y-119334900D02*
X231013653Y-119406328D01*
X231013653Y-119406328D02*
X230870796Y-119406328D01*
X230870796Y-119406328D02*
X230656510Y-119334900D01*
X230656510Y-119334900D02*
X230513653Y-119192042D01*
X230513653Y-119192042D02*
X230442224Y-119049185D01*
X230442224Y-119049185D02*
X230370796Y-118763471D01*
X230370796Y-118763471D02*
X230370796Y-118549185D01*
X230370796Y-118549185D02*
X230442224Y-118263471D01*
X230442224Y-118263471D02*
X230513653Y-118120614D01*
X230513653Y-118120614D02*
X230656510Y-117977757D01*
X230656510Y-117977757D02*
X230870796Y-117906328D01*
X230870796Y-117906328D02*
X231013653Y-117906328D01*
X231013653Y-117906328D02*
X231227939Y-117977757D01*
X231227939Y-117977757D02*
X231299367Y-118049185D01*
X232656510Y-119406328D02*
X231942224Y-119406328D01*
X231942224Y-119406328D02*
X231942224Y-117906328D01*
X228513653Y-120468828D02*
X229442225Y-120468828D01*
X229442225Y-120468828D02*
X228942225Y-121040257D01*
X228942225Y-121040257D02*
X229156510Y-121040257D01*
X229156510Y-121040257D02*
X229299368Y-121111685D01*
X229299368Y-121111685D02*
X229370796Y-121183114D01*
X229370796Y-121183114D02*
X229442225Y-121325971D01*
X229442225Y-121325971D02*
X229442225Y-121683114D01*
X229442225Y-121683114D02*
X229370796Y-121825971D01*
X229370796Y-121825971D02*
X229299368Y-121897400D01*
X229299368Y-121897400D02*
X229156510Y-121968828D01*
X229156510Y-121968828D02*
X228727939Y-121968828D01*
X228727939Y-121968828D02*
X228585082Y-121897400D01*
X228585082Y-121897400D02*
X228513653Y-121825971D01*
X230085081Y-121825971D02*
X230156510Y-121897400D01*
X230156510Y-121897400D02*
X230085081Y-121968828D01*
X230085081Y-121968828D02*
X230013653Y-121897400D01*
X230013653Y-121897400D02*
X230085081Y-121825971D01*
X230085081Y-121825971D02*
X230085081Y-121968828D01*
X230656510Y-120468828D02*
X231585082Y-120468828D01*
X231585082Y-120468828D02*
X231085082Y-121040257D01*
X231085082Y-121040257D02*
X231299367Y-121040257D01*
X231299367Y-121040257D02*
X231442225Y-121111685D01*
X231442225Y-121111685D02*
X231513653Y-121183114D01*
X231513653Y-121183114D02*
X231585082Y-121325971D01*
X231585082Y-121325971D02*
X231585082Y-121683114D01*
X231585082Y-121683114D02*
X231513653Y-121825971D01*
X231513653Y-121825971D02*
X231442225Y-121897400D01*
X231442225Y-121897400D02*
X231299367Y-121968828D01*
X231299367Y-121968828D02*
X230870796Y-121968828D01*
X230870796Y-121968828D02*
X230727939Y-121897400D01*
X230727939Y-121897400D02*
X230656510Y-121825971D01*
X232013653Y-120468828D02*
X232513653Y-121968828D01*
X232513653Y-121968828D02*
X233013653Y-120468828D01*
D11*
X200283207Y-85290819D02*
X199949874Y-84814628D01*
X199711779Y-85290819D02*
X199711779Y-84290819D01*
X199711779Y-84290819D02*
X200092731Y-84290819D01*
X200092731Y-84290819D02*
X200187969Y-84338438D01*
X200187969Y-84338438D02*
X200235588Y-84386057D01*
X200235588Y-84386057D02*
X200283207Y-84481295D01*
X200283207Y-84481295D02*
X200283207Y-84624152D01*
X200283207Y-84624152D02*
X200235588Y-84719390D01*
X200235588Y-84719390D02*
X200187969Y-84767009D01*
X200187969Y-84767009D02*
X200092731Y-84814628D01*
X200092731Y-84814628D02*
X199711779Y-84814628D01*
X200568922Y-84290819D02*
X201140350Y-84290819D01*
X200854636Y-85290819D02*
X200854636Y-84290819D01*
X201426065Y-85243200D02*
X201568922Y-85290819D01*
X201568922Y-85290819D02*
X201807017Y-85290819D01*
X201807017Y-85290819D02*
X201902255Y-85243200D01*
X201902255Y-85243200D02*
X201949874Y-85195580D01*
X201949874Y-85195580D02*
X201997493Y-85100342D01*
X201997493Y-85100342D02*
X201997493Y-85005104D01*
X201997493Y-85005104D02*
X201949874Y-84909866D01*
X201949874Y-84909866D02*
X201902255Y-84862247D01*
X201902255Y-84862247D02*
X201807017Y-84814628D01*
X201807017Y-84814628D02*
X201616541Y-84767009D01*
X201616541Y-84767009D02*
X201521303Y-84719390D01*
X201521303Y-84719390D02*
X201473684Y-84671771D01*
X201473684Y-84671771D02*
X201426065Y-84576533D01*
X201426065Y-84576533D02*
X201426065Y-84481295D01*
X201426065Y-84481295D02*
X201473684Y-84386057D01*
X201473684Y-84386057D02*
X201521303Y-84338438D01*
X201521303Y-84338438D02*
X201616541Y-84290819D01*
X201616541Y-84290819D02*
X201854636Y-84290819D01*
X201854636Y-84290819D02*
X201997493Y-84338438D01*
X199584779Y-88084819D02*
X199584779Y-87084819D01*
X199584779Y-87084819D02*
X199822874Y-87084819D01*
X199822874Y-87084819D02*
X199965731Y-87132438D01*
X199965731Y-87132438D02*
X200060969Y-87227676D01*
X200060969Y-87227676D02*
X200108588Y-87322914D01*
X200108588Y-87322914D02*
X200156207Y-87513390D01*
X200156207Y-87513390D02*
X200156207Y-87656247D01*
X200156207Y-87656247D02*
X200108588Y-87846723D01*
X200108588Y-87846723D02*
X200060969Y-87941961D01*
X200060969Y-87941961D02*
X199965731Y-88037200D01*
X199965731Y-88037200D02*
X199822874Y-88084819D01*
X199822874Y-88084819D02*
X199584779Y-88084819D01*
X200441922Y-87084819D02*
X201013350Y-87084819D01*
X200727636Y-88084819D02*
X200727636Y-87084819D01*
X201918112Y-88084819D02*
X201584779Y-87608628D01*
X201346684Y-88084819D02*
X201346684Y-87084819D01*
X201346684Y-87084819D02*
X201727636Y-87084819D01*
X201727636Y-87084819D02*
X201822874Y-87132438D01*
X201822874Y-87132438D02*
X201870493Y-87180057D01*
X201870493Y-87180057D02*
X201918112Y-87275295D01*
X201918112Y-87275295D02*
X201918112Y-87418152D01*
X201918112Y-87418152D02*
X201870493Y-87513390D01*
X201870493Y-87513390D02*
X201822874Y-87561009D01*
X201822874Y-87561009D02*
X201727636Y-87608628D01*
X201727636Y-87608628D02*
X201346684Y-87608628D01*
D12*
X192401523Y-96547695D02*
X192401523Y-97119123D01*
X192401523Y-97119123D02*
X192363428Y-97233409D01*
X192363428Y-97233409D02*
X192287237Y-97309600D01*
X192287237Y-97309600D02*
X192172952Y-97347695D01*
X192172952Y-97347695D02*
X192096761Y-97347695D01*
X192744380Y-96623885D02*
X192782476Y-96585790D01*
X192782476Y-96585790D02*
X192858666Y-96547695D01*
X192858666Y-96547695D02*
X193049142Y-96547695D01*
X193049142Y-96547695D02*
X193125333Y-96585790D01*
X193125333Y-96585790D02*
X193163428Y-96623885D01*
X193163428Y-96623885D02*
X193201523Y-96700076D01*
X193201523Y-96700076D02*
X193201523Y-96776266D01*
X193201523Y-96776266D02*
X193163428Y-96890552D01*
X193163428Y-96890552D02*
X192706285Y-97347695D01*
X192706285Y-97347695D02*
X193201523Y-97347695D01*
X193544381Y-97271504D02*
X193582476Y-97309600D01*
X193582476Y-97309600D02*
X193544381Y-97347695D01*
X193544381Y-97347695D02*
X193506285Y-97309600D01*
X193506285Y-97309600D02*
X193544381Y-97271504D01*
X193544381Y-97271504D02*
X193544381Y-97347695D01*
X193544381Y-96852457D02*
X193582476Y-96890552D01*
X193582476Y-96890552D02*
X193544381Y-96928647D01*
X193544381Y-96928647D02*
X193506285Y-96890552D01*
X193506285Y-96890552D02*
X193544381Y-96852457D01*
X193544381Y-96852457D02*
X193544381Y-96928647D01*
X194534857Y-97347695D02*
X194534857Y-96547695D01*
X194534857Y-96547695D02*
X194725333Y-96547695D01*
X194725333Y-96547695D02*
X194839619Y-96585790D01*
X194839619Y-96585790D02*
X194915809Y-96661980D01*
X194915809Y-96661980D02*
X194953904Y-96738171D01*
X194953904Y-96738171D02*
X194992000Y-96890552D01*
X194992000Y-96890552D02*
X194992000Y-97004838D01*
X194992000Y-97004838D02*
X194953904Y-97157219D01*
X194953904Y-97157219D02*
X194915809Y-97233409D01*
X194915809Y-97233409D02*
X194839619Y-97309600D01*
X194839619Y-97309600D02*
X194725333Y-97347695D01*
X194725333Y-97347695D02*
X194534857Y-97347695D01*
X195220571Y-96547695D02*
X195677714Y-96547695D01*
X195449142Y-97347695D02*
X195449142Y-96547695D01*
X196401524Y-97347695D02*
X196134857Y-96966742D01*
X195944381Y-97347695D02*
X195944381Y-96547695D01*
X195944381Y-96547695D02*
X196249143Y-96547695D01*
X196249143Y-96547695D02*
X196325333Y-96585790D01*
X196325333Y-96585790D02*
X196363428Y-96623885D01*
X196363428Y-96623885D02*
X196401524Y-96700076D01*
X196401524Y-96700076D02*
X196401524Y-96814361D01*
X196401524Y-96814361D02*
X196363428Y-96890552D01*
X196363428Y-96890552D02*
X196325333Y-96928647D01*
X196325333Y-96928647D02*
X196249143Y-96966742D01*
X196249143Y-96966742D02*
X195944381Y-96966742D01*
X197811048Y-97347695D02*
X197544381Y-96966742D01*
X197353905Y-97347695D02*
X197353905Y-96547695D01*
X197353905Y-96547695D02*
X197658667Y-96547695D01*
X197658667Y-96547695D02*
X197734857Y-96585790D01*
X197734857Y-96585790D02*
X197772952Y-96623885D01*
X197772952Y-96623885D02*
X197811048Y-96700076D01*
X197811048Y-96700076D02*
X197811048Y-96814361D01*
X197811048Y-96814361D02*
X197772952Y-96890552D01*
X197772952Y-96890552D02*
X197734857Y-96928647D01*
X197734857Y-96928647D02*
X197658667Y-96966742D01*
X197658667Y-96966742D02*
X197353905Y-96966742D01*
X198077714Y-96547695D02*
X198611048Y-97347695D01*
X198611048Y-96547695D02*
X198077714Y-97347695D01*
X199411048Y-96547695D02*
X199868191Y-96547695D01*
X199639619Y-97347695D02*
X199639619Y-96547695D01*
X200058667Y-96547695D02*
X200592001Y-97347695D01*
X200592001Y-96547695D02*
X200058667Y-97347695D01*
X201392001Y-96547695D02*
X201658668Y-97347695D01*
X201658668Y-97347695D02*
X201925334Y-96547695D01*
X202534858Y-97309600D02*
X202458667Y-97347695D01*
X202458667Y-97347695D02*
X202306286Y-97347695D01*
X202306286Y-97347695D02*
X202230096Y-97309600D01*
X202230096Y-97309600D02*
X202192001Y-97271504D01*
X202192001Y-97271504D02*
X202153905Y-97195314D01*
X202153905Y-97195314D02*
X202153905Y-96966742D01*
X202153905Y-96966742D02*
X202192001Y-96890552D01*
X202192001Y-96890552D02*
X202230096Y-96852457D01*
X202230096Y-96852457D02*
X202306286Y-96814361D01*
X202306286Y-96814361D02*
X202458667Y-96814361D01*
X202458667Y-96814361D02*
X202534858Y-96852457D01*
X203220572Y-97309600D02*
X203144381Y-97347695D01*
X203144381Y-97347695D02*
X202992000Y-97347695D01*
X202992000Y-97347695D02*
X202915810Y-97309600D01*
X202915810Y-97309600D02*
X202877715Y-97271504D01*
X202877715Y-97271504D02*
X202839619Y-97195314D01*
X202839619Y-97195314D02*
X202839619Y-96966742D01*
X202839619Y-96966742D02*
X202877715Y-96890552D01*
X202877715Y-96890552D02*
X202915810Y-96852457D01*
X202915810Y-96852457D02*
X202992000Y-96814361D01*
X202992000Y-96814361D02*
X203144381Y-96814361D01*
X203144381Y-96814361D02*
X203220572Y-96852457D01*
X204630096Y-97271504D02*
X204592000Y-97309600D01*
X204592000Y-97309600D02*
X204477715Y-97347695D01*
X204477715Y-97347695D02*
X204401524Y-97347695D01*
X204401524Y-97347695D02*
X204287238Y-97309600D01*
X204287238Y-97309600D02*
X204211048Y-97233409D01*
X204211048Y-97233409D02*
X204172953Y-97157219D01*
X204172953Y-97157219D02*
X204134857Y-97004838D01*
X204134857Y-97004838D02*
X204134857Y-96890552D01*
X204134857Y-96890552D02*
X204172953Y-96738171D01*
X204172953Y-96738171D02*
X204211048Y-96661980D01*
X204211048Y-96661980D02*
X204287238Y-96585790D01*
X204287238Y-96585790D02*
X204401524Y-96547695D01*
X204401524Y-96547695D02*
X204477715Y-96547695D01*
X204477715Y-96547695D02*
X204592000Y-96585790D01*
X204592000Y-96585790D02*
X204630096Y-96623885D01*
X204858667Y-96547695D02*
X205315810Y-96547695D01*
X205087238Y-97347695D02*
X205087238Y-96547695D01*
X205544381Y-97309600D02*
X205658667Y-97347695D01*
X205658667Y-97347695D02*
X205849143Y-97347695D01*
X205849143Y-97347695D02*
X205925334Y-97309600D01*
X205925334Y-97309600D02*
X205963429Y-97271504D01*
X205963429Y-97271504D02*
X206001524Y-97195314D01*
X206001524Y-97195314D02*
X206001524Y-97119123D01*
X206001524Y-97119123D02*
X205963429Y-97042933D01*
X205963429Y-97042933D02*
X205925334Y-97004838D01*
X205925334Y-97004838D02*
X205849143Y-96966742D01*
X205849143Y-96966742D02*
X205696762Y-96928647D01*
X205696762Y-96928647D02*
X205620572Y-96890552D01*
X205620572Y-96890552D02*
X205582477Y-96852457D01*
X205582477Y-96852457D02*
X205544381Y-96776266D01*
X205544381Y-96776266D02*
X205544381Y-96700076D01*
X205544381Y-96700076D02*
X205582477Y-96623885D01*
X205582477Y-96623885D02*
X205620572Y-96585790D01*
X205620572Y-96585790D02*
X205696762Y-96547695D01*
X205696762Y-96547695D02*
X205887239Y-96547695D01*
X205887239Y-96547695D02*
X206001524Y-96585790D01*
X207372953Y-96585790D02*
X207296763Y-96547695D01*
X207296763Y-96547695D02*
X207182477Y-96547695D01*
X207182477Y-96547695D02*
X207068191Y-96585790D01*
X207068191Y-96585790D02*
X206992001Y-96661980D01*
X206992001Y-96661980D02*
X206953906Y-96738171D01*
X206953906Y-96738171D02*
X206915810Y-96890552D01*
X206915810Y-96890552D02*
X206915810Y-97004838D01*
X206915810Y-97004838D02*
X206953906Y-97157219D01*
X206953906Y-97157219D02*
X206992001Y-97233409D01*
X206992001Y-97233409D02*
X207068191Y-97309600D01*
X207068191Y-97309600D02*
X207182477Y-97347695D01*
X207182477Y-97347695D02*
X207258668Y-97347695D01*
X207258668Y-97347695D02*
X207372953Y-97309600D01*
X207372953Y-97309600D02*
X207411049Y-97271504D01*
X207411049Y-97271504D02*
X207411049Y-97004838D01*
X207411049Y-97004838D02*
X207258668Y-97004838D01*
X207753906Y-97347695D02*
X207753906Y-96547695D01*
X207753906Y-96547695D02*
X208211049Y-97347695D01*
X208211049Y-97347695D02*
X208211049Y-96547695D01*
X208592001Y-97347695D02*
X208592001Y-96547695D01*
X208592001Y-96547695D02*
X208782477Y-96547695D01*
X208782477Y-96547695D02*
X208896763Y-96585790D01*
X208896763Y-96585790D02*
X208972953Y-96661980D01*
X208972953Y-96661980D02*
X209011048Y-96738171D01*
X209011048Y-96738171D02*
X209049144Y-96890552D01*
X209049144Y-96890552D02*
X209049144Y-97004838D01*
X209049144Y-97004838D02*
X209011048Y-97157219D01*
X209011048Y-97157219D02*
X208972953Y-97233409D01*
X208972953Y-97233409D02*
X208896763Y-97309600D01*
X208896763Y-97309600D02*
X208782477Y-97347695D01*
X208782477Y-97347695D02*
X208592001Y-97347695D01*
D10*
X228906511Y-116772400D02*
X229120797Y-116843828D01*
X229120797Y-116843828D02*
X229477939Y-116843828D01*
X229477939Y-116843828D02*
X229620797Y-116772400D01*
X229620797Y-116772400D02*
X229692225Y-116700971D01*
X229692225Y-116700971D02*
X229763654Y-116558114D01*
X229763654Y-116558114D02*
X229763654Y-116415257D01*
X229763654Y-116415257D02*
X229692225Y-116272400D01*
X229692225Y-116272400D02*
X229620797Y-116200971D01*
X229620797Y-116200971D02*
X229477939Y-116129542D01*
X229477939Y-116129542D02*
X229192225Y-116058114D01*
X229192225Y-116058114D02*
X229049368Y-115986685D01*
X229049368Y-115986685D02*
X228977939Y-115915257D01*
X228977939Y-115915257D02*
X228906511Y-115772400D01*
X228906511Y-115772400D02*
X228906511Y-115629542D01*
X228906511Y-115629542D02*
X228977939Y-115486685D01*
X228977939Y-115486685D02*
X229049368Y-115415257D01*
X229049368Y-115415257D02*
X229192225Y-115343828D01*
X229192225Y-115343828D02*
X229549368Y-115343828D01*
X229549368Y-115343828D02*
X229763654Y-115415257D01*
X230406510Y-116843828D02*
X230406510Y-115343828D01*
X230406510Y-115343828D02*
X230763653Y-115343828D01*
X230763653Y-115343828D02*
X230977939Y-115415257D01*
X230977939Y-115415257D02*
X231120796Y-115558114D01*
X231120796Y-115558114D02*
X231192225Y-115700971D01*
X231192225Y-115700971D02*
X231263653Y-115986685D01*
X231263653Y-115986685D02*
X231263653Y-116200971D01*
X231263653Y-116200971D02*
X231192225Y-116486685D01*
X231192225Y-116486685D02*
X231120796Y-116629542D01*
X231120796Y-116629542D02*
X230977939Y-116772400D01*
X230977939Y-116772400D02*
X230763653Y-116843828D01*
X230763653Y-116843828D02*
X230406510Y-116843828D01*
X231835082Y-116415257D02*
X232549368Y-116415257D01*
X231692225Y-116843828D02*
X232192225Y-115343828D01*
X232192225Y-115343828D02*
X232692225Y-116843828D01*
D11*
X197552779Y-95831819D02*
X197552779Y-94831819D01*
X197552779Y-94831819D02*
X197933731Y-94831819D01*
X197933731Y-94831819D02*
X198028969Y-94879438D01*
X198028969Y-94879438D02*
X198076588Y-94927057D01*
X198076588Y-94927057D02*
X198124207Y-95022295D01*
X198124207Y-95022295D02*
X198124207Y-95165152D01*
X198124207Y-95165152D02*
X198076588Y-95260390D01*
X198076588Y-95260390D02*
X198028969Y-95308009D01*
X198028969Y-95308009D02*
X197933731Y-95355628D01*
X197933731Y-95355628D02*
X197552779Y-95355628D01*
X198552779Y-95831819D02*
X198552779Y-95165152D01*
X198552779Y-95355628D02*
X198600398Y-95260390D01*
X198600398Y-95260390D02*
X198648017Y-95212771D01*
X198648017Y-95212771D02*
X198743255Y-95165152D01*
X198743255Y-95165152D02*
X198838493Y-95165152D01*
X199314684Y-95831819D02*
X199219446Y-95784200D01*
X199219446Y-95784200D02*
X199171827Y-95736580D01*
X199171827Y-95736580D02*
X199124208Y-95641342D01*
X199124208Y-95641342D02*
X199124208Y-95355628D01*
X199124208Y-95355628D02*
X199171827Y-95260390D01*
X199171827Y-95260390D02*
X199219446Y-95212771D01*
X199219446Y-95212771D02*
X199314684Y-95165152D01*
X199314684Y-95165152D02*
X199457541Y-95165152D01*
X199457541Y-95165152D02*
X199552779Y-95212771D01*
X199552779Y-95212771D02*
X199600398Y-95260390D01*
X199600398Y-95260390D02*
X199648017Y-95355628D01*
X199648017Y-95355628D02*
X199648017Y-95641342D01*
X199648017Y-95641342D02*
X199600398Y-95736580D01*
X199600398Y-95736580D02*
X199552779Y-95784200D01*
X199552779Y-95784200D02*
X199457541Y-95831819D01*
X199457541Y-95831819D02*
X199314684Y-95831819D01*
X200505160Y-95165152D02*
X200505160Y-95974676D01*
X200505160Y-95974676D02*
X200457541Y-96069914D01*
X200457541Y-96069914D02*
X200409922Y-96117533D01*
X200409922Y-96117533D02*
X200314684Y-96165152D01*
X200314684Y-96165152D02*
X200171827Y-96165152D01*
X200171827Y-96165152D02*
X200076589Y-96117533D01*
X200505160Y-95784200D02*
X200409922Y-95831819D01*
X200409922Y-95831819D02*
X200219446Y-95831819D01*
X200219446Y-95831819D02*
X200124208Y-95784200D01*
X200124208Y-95784200D02*
X200076589Y-95736580D01*
X200076589Y-95736580D02*
X200028970Y-95641342D01*
X200028970Y-95641342D02*
X200028970Y-95355628D01*
X200028970Y-95355628D02*
X200076589Y-95260390D01*
X200076589Y-95260390D02*
X200124208Y-95212771D01*
X200124208Y-95212771D02*
X200219446Y-95165152D01*
X200219446Y-95165152D02*
X200409922Y-95165152D01*
X200409922Y-95165152D02*
X200505160Y-95212771D01*
X201695637Y-95546104D02*
X202171827Y-95546104D01*
X201600399Y-95831819D02*
X201933732Y-94831819D01*
X201933732Y-94831819D02*
X202267065Y-95831819D01*
X203028970Y-95831819D02*
X203028970Y-94831819D01*
X203028970Y-95784200D02*
X202933732Y-95831819D01*
X202933732Y-95831819D02*
X202743256Y-95831819D01*
X202743256Y-95831819D02*
X202648018Y-95784200D01*
X202648018Y-95784200D02*
X202600399Y-95736580D01*
X202600399Y-95736580D02*
X202552780Y-95641342D01*
X202552780Y-95641342D02*
X202552780Y-95355628D01*
X202552780Y-95355628D02*
X202600399Y-95260390D01*
X202600399Y-95260390D02*
X202648018Y-95212771D01*
X202648018Y-95212771D02*
X202743256Y-95165152D01*
X202743256Y-95165152D02*
X202933732Y-95165152D01*
X202933732Y-95165152D02*
X203028970Y-95212771D01*
X203933732Y-95831819D02*
X203933732Y-95308009D01*
X203933732Y-95308009D02*
X203886113Y-95212771D01*
X203886113Y-95212771D02*
X203790875Y-95165152D01*
X203790875Y-95165152D02*
X203600399Y-95165152D01*
X203600399Y-95165152D02*
X203505161Y-95212771D01*
X203933732Y-95784200D02*
X203838494Y-95831819D01*
X203838494Y-95831819D02*
X203600399Y-95831819D01*
X203600399Y-95831819D02*
X203505161Y-95784200D01*
X203505161Y-95784200D02*
X203457542Y-95688961D01*
X203457542Y-95688961D02*
X203457542Y-95593723D01*
X203457542Y-95593723D02*
X203505161Y-95498485D01*
X203505161Y-95498485D02*
X203600399Y-95450866D01*
X203600399Y-95450866D02*
X203838494Y-95450866D01*
X203838494Y-95450866D02*
X203933732Y-95403247D01*
X204409923Y-95165152D02*
X204409923Y-96165152D01*
X204409923Y-95212771D02*
X204505161Y-95165152D01*
X204505161Y-95165152D02*
X204695637Y-95165152D01*
X204695637Y-95165152D02*
X204790875Y-95212771D01*
X204790875Y-95212771D02*
X204838494Y-95260390D01*
X204838494Y-95260390D02*
X204886113Y-95355628D01*
X204886113Y-95355628D02*
X204886113Y-95641342D01*
X204886113Y-95641342D02*
X204838494Y-95736580D01*
X204838494Y-95736580D02*
X204790875Y-95784200D01*
X204790875Y-95784200D02*
X204695637Y-95831819D01*
X204695637Y-95831819D02*
X204505161Y-95831819D01*
X204505161Y-95831819D02*
X204409923Y-95784200D01*
X205171828Y-95165152D02*
X205552780Y-95165152D01*
X205314685Y-94831819D02*
X205314685Y-95688961D01*
X205314685Y-95688961D02*
X205362304Y-95784200D01*
X205362304Y-95784200D02*
X205457542Y-95831819D01*
X205457542Y-95831819D02*
X205552780Y-95831819D01*
X206267066Y-95784200D02*
X206171828Y-95831819D01*
X206171828Y-95831819D02*
X205981352Y-95831819D01*
X205981352Y-95831819D02*
X205886114Y-95784200D01*
X205886114Y-95784200D02*
X205838495Y-95688961D01*
X205838495Y-95688961D02*
X205838495Y-95308009D01*
X205838495Y-95308009D02*
X205886114Y-95212771D01*
X205886114Y-95212771D02*
X205981352Y-95165152D01*
X205981352Y-95165152D02*
X206171828Y-95165152D01*
X206171828Y-95165152D02*
X206267066Y-95212771D01*
X206267066Y-95212771D02*
X206314685Y-95308009D01*
X206314685Y-95308009D02*
X206314685Y-95403247D01*
X206314685Y-95403247D02*
X205838495Y-95498485D01*
X206743257Y-95831819D02*
X206743257Y-95165152D01*
X206743257Y-95355628D02*
X206790876Y-95260390D01*
X206790876Y-95260390D02*
X206838495Y-95212771D01*
X206838495Y-95212771D02*
X206933733Y-95165152D01*
X206933733Y-95165152D02*
X207028971Y-95165152D01*
D10*
X229585082Y-112852757D02*
X229442225Y-112781328D01*
X229442225Y-112781328D02*
X229227939Y-112781328D01*
X229227939Y-112781328D02*
X229013653Y-112852757D01*
X229013653Y-112852757D02*
X228870796Y-112995614D01*
X228870796Y-112995614D02*
X228799367Y-113138471D01*
X228799367Y-113138471D02*
X228727939Y-113424185D01*
X228727939Y-113424185D02*
X228727939Y-113638471D01*
X228727939Y-113638471D02*
X228799367Y-113924185D01*
X228799367Y-113924185D02*
X228870796Y-114067042D01*
X228870796Y-114067042D02*
X229013653Y-114209900D01*
X229013653Y-114209900D02*
X229227939Y-114281328D01*
X229227939Y-114281328D02*
X229370796Y-114281328D01*
X229370796Y-114281328D02*
X229585082Y-114209900D01*
X229585082Y-114209900D02*
X229656510Y-114138471D01*
X229656510Y-114138471D02*
X229656510Y-113638471D01*
X229656510Y-113638471D02*
X229370796Y-113638471D01*
X230299367Y-114281328D02*
X230299367Y-112781328D01*
X230299367Y-112781328D02*
X231156510Y-114281328D01*
X231156510Y-114281328D02*
X231156510Y-112781328D01*
X231870796Y-114281328D02*
X231870796Y-112781328D01*
X231870796Y-112781328D02*
X232227939Y-112781328D01*
X232227939Y-112781328D02*
X232442225Y-112852757D01*
X232442225Y-112852757D02*
X232585082Y-112995614D01*
X232585082Y-112995614D02*
X232656511Y-113138471D01*
X232656511Y-113138471D02*
X232727939Y-113424185D01*
X232727939Y-113424185D02*
X232727939Y-113638471D01*
X232727939Y-113638471D02*
X232656511Y-113924185D01*
X232656511Y-113924185D02*
X232585082Y-114067042D01*
X232585082Y-114067042D02*
X232442225Y-114209900D01*
X232442225Y-114209900D02*
X232227939Y-114281328D01*
X232227939Y-114281328D02*
X231870796Y-114281328D01*
X160025558Y-99895733D02*
X161549368Y-99895733D01*
X160787463Y-100657638D02*
X160787463Y-99133828D01*
D11*
X181555333Y-105941819D02*
X181222000Y-105465628D01*
X180983905Y-105941819D02*
X180983905Y-104941819D01*
X180983905Y-104941819D02*
X181364857Y-104941819D01*
X181364857Y-104941819D02*
X181460095Y-104989438D01*
X181460095Y-104989438D02*
X181507714Y-105037057D01*
X181507714Y-105037057D02*
X181555333Y-105132295D01*
X181555333Y-105132295D02*
X181555333Y-105275152D01*
X181555333Y-105275152D02*
X181507714Y-105370390D01*
X181507714Y-105370390D02*
X181460095Y-105418009D01*
X181460095Y-105418009D02*
X181364857Y-105465628D01*
X181364857Y-105465628D02*
X180983905Y-105465628D01*
X182507714Y-105941819D02*
X181936286Y-105941819D01*
X182222000Y-105941819D02*
X182222000Y-104941819D01*
X182222000Y-104941819D02*
X182126762Y-105084676D01*
X182126762Y-105084676D02*
X182031524Y-105179914D01*
X182031524Y-105179914D02*
X181936286Y-105227533D01*
X177380285Y-107688152D02*
X177380285Y-108354819D01*
X177142190Y-107307200D02*
X176904095Y-108021485D01*
X176904095Y-108021485D02*
X177523142Y-108021485D01*
X177808857Y-107354819D02*
X178475523Y-107354819D01*
X178475523Y-107354819D02*
X178046952Y-108354819D01*
X178856476Y-108354819D02*
X178856476Y-107354819D01*
X179427904Y-108354819D02*
X178999333Y-107783390D01*
X179427904Y-107354819D02*
X178856476Y-107926247D01*
X197321580Y-90413666D02*
X197369200Y-90461285D01*
X197369200Y-90461285D02*
X197416819Y-90604142D01*
X197416819Y-90604142D02*
X197416819Y-90699380D01*
X197416819Y-90699380D02*
X197369200Y-90842237D01*
X197369200Y-90842237D02*
X197273961Y-90937475D01*
X197273961Y-90937475D02*
X197178723Y-90985094D01*
X197178723Y-90985094D02*
X196988247Y-91032713D01*
X196988247Y-91032713D02*
X196845390Y-91032713D01*
X196845390Y-91032713D02*
X196654914Y-90985094D01*
X196654914Y-90985094D02*
X196559676Y-90937475D01*
X196559676Y-90937475D02*
X196464438Y-90842237D01*
X196464438Y-90842237D02*
X196416819Y-90699380D01*
X196416819Y-90699380D02*
X196416819Y-90604142D01*
X196416819Y-90604142D02*
X196464438Y-90461285D01*
X196464438Y-90461285D02*
X196512057Y-90413666D01*
X196750152Y-89556523D02*
X197416819Y-89556523D01*
X196369200Y-89794618D02*
X197083485Y-90032713D01*
X197083485Y-90032713D02*
X197083485Y-89413666D01*
X195820819Y-87803262D02*
X195820819Y-88374690D01*
X195820819Y-88088976D02*
X194820819Y-88088976D01*
X194820819Y-88088976D02*
X194963676Y-88184214D01*
X194963676Y-88184214D02*
X195058914Y-88279452D01*
X195058914Y-88279452D02*
X195106533Y-88374690D01*
X194820819Y-87184214D02*
X194820819Y-87088976D01*
X194820819Y-87088976D02*
X194868438Y-86993738D01*
X194868438Y-86993738D02*
X194916057Y-86946119D01*
X194916057Y-86946119D02*
X195011295Y-86898500D01*
X195011295Y-86898500D02*
X195201771Y-86850881D01*
X195201771Y-86850881D02*
X195439866Y-86850881D01*
X195439866Y-86850881D02*
X195630342Y-86898500D01*
X195630342Y-86898500D02*
X195725580Y-86946119D01*
X195725580Y-86946119D02*
X195773200Y-86993738D01*
X195773200Y-86993738D02*
X195820819Y-87088976D01*
X195820819Y-87088976D02*
X195820819Y-87184214D01*
X195820819Y-87184214D02*
X195773200Y-87279452D01*
X195773200Y-87279452D02*
X195725580Y-87327071D01*
X195725580Y-87327071D02*
X195630342Y-87374690D01*
X195630342Y-87374690D02*
X195439866Y-87422309D01*
X195439866Y-87422309D02*
X195201771Y-87422309D01*
X195201771Y-87422309D02*
X195011295Y-87374690D01*
X195011295Y-87374690D02*
X194916057Y-87327071D01*
X194916057Y-87327071D02*
X194868438Y-87279452D01*
X194868438Y-87279452D02*
X194820819Y-87184214D01*
X194820819Y-86231833D02*
X194820819Y-86136595D01*
X194820819Y-86136595D02*
X194868438Y-86041357D01*
X194868438Y-86041357D02*
X194916057Y-85993738D01*
X194916057Y-85993738D02*
X195011295Y-85946119D01*
X195011295Y-85946119D02*
X195201771Y-85898500D01*
X195201771Y-85898500D02*
X195439866Y-85898500D01*
X195439866Y-85898500D02*
X195630342Y-85946119D01*
X195630342Y-85946119D02*
X195725580Y-85993738D01*
X195725580Y-85993738D02*
X195773200Y-86041357D01*
X195773200Y-86041357D02*
X195820819Y-86136595D01*
X195820819Y-86136595D02*
X195820819Y-86231833D01*
X195820819Y-86231833D02*
X195773200Y-86327071D01*
X195773200Y-86327071D02*
X195725580Y-86374690D01*
X195725580Y-86374690D02*
X195630342Y-86422309D01*
X195630342Y-86422309D02*
X195439866Y-86469928D01*
X195439866Y-86469928D02*
X195201771Y-86469928D01*
X195201771Y-86469928D02*
X195011295Y-86422309D01*
X195011295Y-86422309D02*
X194916057Y-86374690D01*
X194916057Y-86374690D02*
X194868438Y-86327071D01*
X194868438Y-86327071D02*
X194820819Y-86231833D01*
X195154152Y-85469928D02*
X195820819Y-85469928D01*
X195249390Y-85469928D02*
X195201771Y-85422309D01*
X195201771Y-85422309D02*
X195154152Y-85327071D01*
X195154152Y-85327071D02*
X195154152Y-85184214D01*
X195154152Y-85184214D02*
X195201771Y-85088976D01*
X195201771Y-85088976D02*
X195297009Y-85041357D01*
X195297009Y-85041357D02*
X195820819Y-85041357D01*
X195154152Y-84708023D02*
X195154152Y-84327071D01*
X195820819Y-84565166D02*
X194963676Y-84565166D01*
X194963676Y-84565166D02*
X194868438Y-84517547D01*
X194868438Y-84517547D02*
X194820819Y-84422309D01*
X194820819Y-84422309D02*
X194820819Y-84327071D01*
X168061666Y-81987819D02*
X168061666Y-82702104D01*
X168061666Y-82702104D02*
X168014047Y-82844961D01*
X168014047Y-82844961D02*
X167918809Y-82940200D01*
X167918809Y-82940200D02*
X167775952Y-82987819D01*
X167775952Y-82987819D02*
X167680714Y-82987819D01*
X168537857Y-82987819D02*
X168537857Y-81987819D01*
X168537857Y-81987819D02*
X168918809Y-81987819D01*
X168918809Y-81987819D02*
X169014047Y-82035438D01*
X169014047Y-82035438D02*
X169061666Y-82083057D01*
X169061666Y-82083057D02*
X169109285Y-82178295D01*
X169109285Y-82178295D02*
X169109285Y-82321152D01*
X169109285Y-82321152D02*
X169061666Y-82416390D01*
X169061666Y-82416390D02*
X169014047Y-82464009D01*
X169014047Y-82464009D02*
X168918809Y-82511628D01*
X168918809Y-82511628D02*
X168537857Y-82511628D01*
X169966428Y-81987819D02*
X169775952Y-81987819D01*
X169775952Y-81987819D02*
X169680714Y-82035438D01*
X169680714Y-82035438D02*
X169633095Y-82083057D01*
X169633095Y-82083057D02*
X169537857Y-82225914D01*
X169537857Y-82225914D02*
X169490238Y-82416390D01*
X169490238Y-82416390D02*
X169490238Y-82797342D01*
X169490238Y-82797342D02*
X169537857Y-82892580D01*
X169537857Y-82892580D02*
X169585476Y-82940200D01*
X169585476Y-82940200D02*
X169680714Y-82987819D01*
X169680714Y-82987819D02*
X169871190Y-82987819D01*
X169871190Y-82987819D02*
X169966428Y-82940200D01*
X169966428Y-82940200D02*
X170014047Y-82892580D01*
X170014047Y-82892580D02*
X170061666Y-82797342D01*
X170061666Y-82797342D02*
X170061666Y-82559247D01*
X170061666Y-82559247D02*
X170014047Y-82464009D01*
X170014047Y-82464009D02*
X169966428Y-82416390D01*
X169966428Y-82416390D02*
X169871190Y-82368771D01*
X169871190Y-82368771D02*
X169680714Y-82368771D01*
X169680714Y-82368771D02*
X169585476Y-82416390D01*
X169585476Y-82416390D02*
X169537857Y-82464009D01*
X169537857Y-82464009D02*
X169490238Y-82559247D01*
X166069619Y-89828819D02*
X166688666Y-89828819D01*
X166688666Y-89828819D02*
X166355333Y-90209771D01*
X166355333Y-90209771D02*
X166498190Y-90209771D01*
X166498190Y-90209771D02*
X166593428Y-90257390D01*
X166593428Y-90257390D02*
X166641047Y-90305009D01*
X166641047Y-90305009D02*
X166688666Y-90400247D01*
X166688666Y-90400247D02*
X166688666Y-90638342D01*
X166688666Y-90638342D02*
X166641047Y-90733580D01*
X166641047Y-90733580D02*
X166593428Y-90781200D01*
X166593428Y-90781200D02*
X166498190Y-90828819D01*
X166498190Y-90828819D02*
X166212476Y-90828819D01*
X166212476Y-90828819D02*
X166117238Y-90781200D01*
X166117238Y-90781200D02*
X166069619Y-90733580D01*
X167117238Y-90733580D02*
X167164857Y-90781200D01*
X167164857Y-90781200D02*
X167117238Y-90828819D01*
X167117238Y-90828819D02*
X167069619Y-90781200D01*
X167069619Y-90781200D02*
X167117238Y-90733580D01*
X167117238Y-90733580D02*
X167117238Y-90828819D01*
X167498190Y-89828819D02*
X168117237Y-89828819D01*
X168117237Y-89828819D02*
X167783904Y-90209771D01*
X167783904Y-90209771D02*
X167926761Y-90209771D01*
X167926761Y-90209771D02*
X168021999Y-90257390D01*
X168021999Y-90257390D02*
X168069618Y-90305009D01*
X168069618Y-90305009D02*
X168117237Y-90400247D01*
X168117237Y-90400247D02*
X168117237Y-90638342D01*
X168117237Y-90638342D02*
X168069618Y-90733580D01*
X168069618Y-90733580D02*
X168021999Y-90781200D01*
X168021999Y-90781200D02*
X167926761Y-90828819D01*
X167926761Y-90828819D02*
X167641047Y-90828819D01*
X167641047Y-90828819D02*
X167545809Y-90781200D01*
X167545809Y-90781200D02*
X167498190Y-90733580D01*
X168402952Y-89828819D02*
X168736285Y-90828819D01*
X168736285Y-90828819D02*
X169069618Y-89828819D01*
X170355333Y-89828819D02*
X170545809Y-89828819D01*
X170545809Y-89828819D02*
X170641047Y-89876438D01*
X170641047Y-89876438D02*
X170736285Y-89971676D01*
X170736285Y-89971676D02*
X170783904Y-90162152D01*
X170783904Y-90162152D02*
X170783904Y-90495485D01*
X170783904Y-90495485D02*
X170736285Y-90685961D01*
X170736285Y-90685961D02*
X170641047Y-90781200D01*
X170641047Y-90781200D02*
X170545809Y-90828819D01*
X170545809Y-90828819D02*
X170355333Y-90828819D01*
X170355333Y-90828819D02*
X170260095Y-90781200D01*
X170260095Y-90781200D02*
X170164857Y-90685961D01*
X170164857Y-90685961D02*
X170117238Y-90495485D01*
X170117238Y-90495485D02*
X170117238Y-90162152D01*
X170117238Y-90162152D02*
X170164857Y-89971676D01*
X170164857Y-89971676D02*
X170260095Y-89876438D01*
X170260095Y-89876438D02*
X170355333Y-89828819D01*
X171069619Y-90162152D02*
X171450571Y-90162152D01*
X171212476Y-90828819D02*
X171212476Y-89971676D01*
X171212476Y-89971676D02*
X171260095Y-89876438D01*
X171260095Y-89876438D02*
X171355333Y-89828819D01*
X171355333Y-89828819D02*
X171450571Y-89828819D01*
X171641048Y-90162152D02*
X172022000Y-90162152D01*
X171783905Y-90828819D02*
X171783905Y-89971676D01*
X171783905Y-89971676D02*
X171831524Y-89876438D01*
X171831524Y-89876438D02*
X171926762Y-89828819D01*
X171926762Y-89828819D02*
X172022000Y-89828819D01*
X170976333Y-103147819D02*
X170643000Y-102671628D01*
X170404905Y-103147819D02*
X170404905Y-102147819D01*
X170404905Y-102147819D02*
X170785857Y-102147819D01*
X170785857Y-102147819D02*
X170881095Y-102195438D01*
X170881095Y-102195438D02*
X170928714Y-102243057D01*
X170928714Y-102243057D02*
X170976333Y-102338295D01*
X170976333Y-102338295D02*
X170976333Y-102481152D01*
X170976333Y-102481152D02*
X170928714Y-102576390D01*
X170928714Y-102576390D02*
X170881095Y-102624009D01*
X170881095Y-102624009D02*
X170785857Y-102671628D01*
X170785857Y-102671628D02*
X170404905Y-102671628D01*
X171309667Y-102147819D02*
X171928714Y-102147819D01*
X171928714Y-102147819D02*
X171595381Y-102528771D01*
X171595381Y-102528771D02*
X171738238Y-102528771D01*
X171738238Y-102528771D02*
X171833476Y-102576390D01*
X171833476Y-102576390D02*
X171881095Y-102624009D01*
X171881095Y-102624009D02*
X171928714Y-102719247D01*
X171928714Y-102719247D02*
X171928714Y-102957342D01*
X171928714Y-102957342D02*
X171881095Y-103052580D01*
X171881095Y-103052580D02*
X171833476Y-103100200D01*
X171833476Y-103100200D02*
X171738238Y-103147819D01*
X171738238Y-103147819D02*
X171452524Y-103147819D01*
X171452524Y-103147819D02*
X171357286Y-103100200D01*
X171357286Y-103100200D02*
X171309667Y-103052580D01*
X165950333Y-100988819D02*
X165378905Y-100988819D01*
X165664619Y-100988819D02*
X165664619Y-99988819D01*
X165664619Y-99988819D02*
X165569381Y-100131676D01*
X165569381Y-100131676D02*
X165474143Y-100226914D01*
X165474143Y-100226914D02*
X165378905Y-100274533D01*
X166521762Y-100417390D02*
X166426524Y-100369771D01*
X166426524Y-100369771D02*
X166378905Y-100322152D01*
X166378905Y-100322152D02*
X166331286Y-100226914D01*
X166331286Y-100226914D02*
X166331286Y-100179295D01*
X166331286Y-100179295D02*
X166378905Y-100084057D01*
X166378905Y-100084057D02*
X166426524Y-100036438D01*
X166426524Y-100036438D02*
X166521762Y-99988819D01*
X166521762Y-99988819D02*
X166712238Y-99988819D01*
X166712238Y-99988819D02*
X166807476Y-100036438D01*
X166807476Y-100036438D02*
X166855095Y-100084057D01*
X166855095Y-100084057D02*
X166902714Y-100179295D01*
X166902714Y-100179295D02*
X166902714Y-100226914D01*
X166902714Y-100226914D02*
X166855095Y-100322152D01*
X166855095Y-100322152D02*
X166807476Y-100369771D01*
X166807476Y-100369771D02*
X166712238Y-100417390D01*
X166712238Y-100417390D02*
X166521762Y-100417390D01*
X166521762Y-100417390D02*
X166426524Y-100465009D01*
X166426524Y-100465009D02*
X166378905Y-100512628D01*
X166378905Y-100512628D02*
X166331286Y-100607866D01*
X166331286Y-100607866D02*
X166331286Y-100798342D01*
X166331286Y-100798342D02*
X166378905Y-100893580D01*
X166378905Y-100893580D02*
X166426524Y-100941200D01*
X166426524Y-100941200D02*
X166521762Y-100988819D01*
X166521762Y-100988819D02*
X166712238Y-100988819D01*
X166712238Y-100988819D02*
X166807476Y-100941200D01*
X166807476Y-100941200D02*
X166855095Y-100893580D01*
X166855095Y-100893580D02*
X166902714Y-100798342D01*
X166902714Y-100798342D02*
X166902714Y-100607866D01*
X166902714Y-100607866D02*
X166855095Y-100512628D01*
X166855095Y-100512628D02*
X166807476Y-100465009D01*
X166807476Y-100465009D02*
X166712238Y-100417390D01*
X167521762Y-99988819D02*
X167617000Y-99988819D01*
X167617000Y-99988819D02*
X167712238Y-100036438D01*
X167712238Y-100036438D02*
X167759857Y-100084057D01*
X167759857Y-100084057D02*
X167807476Y-100179295D01*
X167807476Y-100179295D02*
X167855095Y-100369771D01*
X167855095Y-100369771D02*
X167855095Y-100607866D01*
X167855095Y-100607866D02*
X167807476Y-100798342D01*
X167807476Y-100798342D02*
X167759857Y-100893580D01*
X167759857Y-100893580D02*
X167712238Y-100941200D01*
X167712238Y-100941200D02*
X167617000Y-100988819D01*
X167617000Y-100988819D02*
X167521762Y-100988819D01*
X167521762Y-100988819D02*
X167426524Y-100941200D01*
X167426524Y-100941200D02*
X167378905Y-100893580D01*
X167378905Y-100893580D02*
X167331286Y-100798342D01*
X167331286Y-100798342D02*
X167283667Y-100607866D01*
X167283667Y-100607866D02*
X167283667Y-100369771D01*
X167283667Y-100369771D02*
X167331286Y-100179295D01*
X167331286Y-100179295D02*
X167378905Y-100084057D01*
X167378905Y-100084057D02*
X167426524Y-100036438D01*
X167426524Y-100036438D02*
X167521762Y-99988819D01*
X168283667Y-100988819D02*
X168283667Y-99988819D01*
X168855095Y-100988819D02*
X168426524Y-100417390D01*
X168855095Y-99988819D02*
X168283667Y-100560247D01*
X150435333Y-115627580D02*
X150387714Y-115675200D01*
X150387714Y-115675200D02*
X150244857Y-115722819D01*
X150244857Y-115722819D02*
X150149619Y-115722819D01*
X150149619Y-115722819D02*
X150006762Y-115675200D01*
X150006762Y-115675200D02*
X149911524Y-115579961D01*
X149911524Y-115579961D02*
X149863905Y-115484723D01*
X149863905Y-115484723D02*
X149816286Y-115294247D01*
X149816286Y-115294247D02*
X149816286Y-115151390D01*
X149816286Y-115151390D02*
X149863905Y-114960914D01*
X149863905Y-114960914D02*
X149911524Y-114865676D01*
X149911524Y-114865676D02*
X150006762Y-114770438D01*
X150006762Y-114770438D02*
X150149619Y-114722819D01*
X150149619Y-114722819D02*
X150244857Y-114722819D01*
X150244857Y-114722819D02*
X150387714Y-114770438D01*
X150387714Y-114770438D02*
X150435333Y-114818057D01*
X151340095Y-114722819D02*
X150863905Y-114722819D01*
X150863905Y-114722819D02*
X150816286Y-115199009D01*
X150816286Y-115199009D02*
X150863905Y-115151390D01*
X150863905Y-115151390D02*
X150959143Y-115103771D01*
X150959143Y-115103771D02*
X151197238Y-115103771D01*
X151197238Y-115103771D02*
X151292476Y-115151390D01*
X151292476Y-115151390D02*
X151340095Y-115199009D01*
X151340095Y-115199009D02*
X151387714Y-115294247D01*
X151387714Y-115294247D02*
X151387714Y-115532342D01*
X151387714Y-115532342D02*
X151340095Y-115627580D01*
X151340095Y-115627580D02*
X151292476Y-115675200D01*
X151292476Y-115675200D02*
X151197238Y-115722819D01*
X151197238Y-115722819D02*
X150959143Y-115722819D01*
X150959143Y-115722819D02*
X150863905Y-115675200D01*
X150863905Y-115675200D02*
X150816286Y-115627580D01*
X149197237Y-124522819D02*
X148625809Y-124522819D01*
X148911523Y-124522819D02*
X148911523Y-123522819D01*
X148911523Y-123522819D02*
X148816285Y-123665676D01*
X148816285Y-123665676D02*
X148721047Y-123760914D01*
X148721047Y-123760914D02*
X148625809Y-123808533D01*
X149816285Y-123522819D02*
X149911523Y-123522819D01*
X149911523Y-123522819D02*
X150006761Y-123570438D01*
X150006761Y-123570438D02*
X150054380Y-123618057D01*
X150054380Y-123618057D02*
X150101999Y-123713295D01*
X150101999Y-123713295D02*
X150149618Y-123903771D01*
X150149618Y-123903771D02*
X150149618Y-124141866D01*
X150149618Y-124141866D02*
X150101999Y-124332342D01*
X150101999Y-124332342D02*
X150054380Y-124427580D01*
X150054380Y-124427580D02*
X150006761Y-124475200D01*
X150006761Y-124475200D02*
X149911523Y-124522819D01*
X149911523Y-124522819D02*
X149816285Y-124522819D01*
X149816285Y-124522819D02*
X149721047Y-124475200D01*
X149721047Y-124475200D02*
X149673428Y-124427580D01*
X149673428Y-124427580D02*
X149625809Y-124332342D01*
X149625809Y-124332342D02*
X149578190Y-124141866D01*
X149578190Y-124141866D02*
X149578190Y-123903771D01*
X149578190Y-123903771D02*
X149625809Y-123713295D01*
X149625809Y-123713295D02*
X149673428Y-123618057D01*
X149673428Y-123618057D02*
X149721047Y-123570438D01*
X149721047Y-123570438D02*
X149816285Y-123522819D01*
X150768666Y-123522819D02*
X150863904Y-123522819D01*
X150863904Y-123522819D02*
X150959142Y-123570438D01*
X150959142Y-123570438D02*
X151006761Y-123618057D01*
X151006761Y-123618057D02*
X151054380Y-123713295D01*
X151054380Y-123713295D02*
X151101999Y-123903771D01*
X151101999Y-123903771D02*
X151101999Y-124141866D01*
X151101999Y-124141866D02*
X151054380Y-124332342D01*
X151054380Y-124332342D02*
X151006761Y-124427580D01*
X151006761Y-124427580D02*
X150959142Y-124475200D01*
X150959142Y-124475200D02*
X150863904Y-124522819D01*
X150863904Y-124522819D02*
X150768666Y-124522819D01*
X150768666Y-124522819D02*
X150673428Y-124475200D01*
X150673428Y-124475200D02*
X150625809Y-124427580D01*
X150625809Y-124427580D02*
X150578190Y-124332342D01*
X150578190Y-124332342D02*
X150530571Y-124141866D01*
X150530571Y-124141866D02*
X150530571Y-123903771D01*
X150530571Y-123903771D02*
X150578190Y-123713295D01*
X150578190Y-123713295D02*
X150625809Y-123618057D01*
X150625809Y-123618057D02*
X150673428Y-123570438D01*
X150673428Y-123570438D02*
X150768666Y-123522819D01*
X151959142Y-123856152D02*
X151959142Y-124522819D01*
X151530571Y-123856152D02*
X151530571Y-124379961D01*
X151530571Y-124379961D02*
X151578190Y-124475200D01*
X151578190Y-124475200D02*
X151673428Y-124522819D01*
X151673428Y-124522819D02*
X151816285Y-124522819D01*
X151816285Y-124522819D02*
X151911523Y-124475200D01*
X151911523Y-124475200D02*
X151959142Y-124427580D01*
X152292476Y-123856152D02*
X152673428Y-123856152D01*
X152435333Y-124522819D02*
X152435333Y-123665676D01*
X152435333Y-123665676D02*
X152482952Y-123570438D01*
X152482952Y-123570438D02*
X152578190Y-123522819D01*
X152578190Y-123522819D02*
X152673428Y-123522819D01*
X213782333Y-115847819D02*
X213449000Y-115371628D01*
X213210905Y-115847819D02*
X213210905Y-114847819D01*
X213210905Y-114847819D02*
X213591857Y-114847819D01*
X213591857Y-114847819D02*
X213687095Y-114895438D01*
X213687095Y-114895438D02*
X213734714Y-114943057D01*
X213734714Y-114943057D02*
X213782333Y-115038295D01*
X213782333Y-115038295D02*
X213782333Y-115181152D01*
X213782333Y-115181152D02*
X213734714Y-115276390D01*
X213734714Y-115276390D02*
X213687095Y-115324009D01*
X213687095Y-115324009D02*
X213591857Y-115371628D01*
X213591857Y-115371628D02*
X213210905Y-115371628D01*
X214115667Y-114847819D02*
X214782333Y-114847819D01*
X214782333Y-114847819D02*
X214353762Y-115847819D01*
X221508523Y-115847819D02*
X220937095Y-115847819D01*
X221222809Y-115847819D02*
X221222809Y-114847819D01*
X221222809Y-114847819D02*
X221127571Y-114990676D01*
X221127571Y-114990676D02*
X221032333Y-115085914D01*
X221032333Y-115085914D02*
X220937095Y-115133533D01*
X222127571Y-114847819D02*
X222222809Y-114847819D01*
X222222809Y-114847819D02*
X222318047Y-114895438D01*
X222318047Y-114895438D02*
X222365666Y-114943057D01*
X222365666Y-114943057D02*
X222413285Y-115038295D01*
X222413285Y-115038295D02*
X222460904Y-115228771D01*
X222460904Y-115228771D02*
X222460904Y-115466866D01*
X222460904Y-115466866D02*
X222413285Y-115657342D01*
X222413285Y-115657342D02*
X222365666Y-115752580D01*
X222365666Y-115752580D02*
X222318047Y-115800200D01*
X222318047Y-115800200D02*
X222222809Y-115847819D01*
X222222809Y-115847819D02*
X222127571Y-115847819D01*
X222127571Y-115847819D02*
X222032333Y-115800200D01*
X222032333Y-115800200D02*
X221984714Y-115752580D01*
X221984714Y-115752580D02*
X221937095Y-115657342D01*
X221937095Y-115657342D02*
X221889476Y-115466866D01*
X221889476Y-115466866D02*
X221889476Y-115228771D01*
X221889476Y-115228771D02*
X221937095Y-115038295D01*
X221937095Y-115038295D02*
X221984714Y-114943057D01*
X221984714Y-114943057D02*
X222032333Y-114895438D01*
X222032333Y-114895438D02*
X222127571Y-114847819D01*
X222889476Y-115847819D02*
X222889476Y-114847819D01*
X223460904Y-115847819D02*
X223032333Y-115276390D01*
X223460904Y-114847819D02*
X222889476Y-115419247D01*
X161300095Y-116812819D02*
X161300095Y-117622342D01*
X161300095Y-117622342D02*
X161347714Y-117717580D01*
X161347714Y-117717580D02*
X161395333Y-117765200D01*
X161395333Y-117765200D02*
X161490571Y-117812819D01*
X161490571Y-117812819D02*
X161681047Y-117812819D01*
X161681047Y-117812819D02*
X161776285Y-117765200D01*
X161776285Y-117765200D02*
X161823904Y-117717580D01*
X161823904Y-117717580D02*
X161871523Y-117622342D01*
X161871523Y-117622342D02*
X161871523Y-116812819D01*
X162300095Y-116908057D02*
X162347714Y-116860438D01*
X162347714Y-116860438D02*
X162442952Y-116812819D01*
X162442952Y-116812819D02*
X162681047Y-116812819D01*
X162681047Y-116812819D02*
X162776285Y-116860438D01*
X162776285Y-116860438D02*
X162823904Y-116908057D01*
X162823904Y-116908057D02*
X162871523Y-117003295D01*
X162871523Y-117003295D02*
X162871523Y-117098533D01*
X162871523Y-117098533D02*
X162823904Y-117241390D01*
X162823904Y-117241390D02*
X162252476Y-117812819D01*
X162252476Y-117812819D02*
X162871523Y-117812819D01*
X154657238Y-124162819D02*
X154657238Y-123162819D01*
X154657238Y-123162819D02*
X154990571Y-123877104D01*
X154990571Y-123877104D02*
X155323904Y-123162819D01*
X155323904Y-123162819D02*
X155323904Y-124162819D01*
X156371523Y-124067580D02*
X156323904Y-124115200D01*
X156323904Y-124115200D02*
X156181047Y-124162819D01*
X156181047Y-124162819D02*
X156085809Y-124162819D01*
X156085809Y-124162819D02*
X155942952Y-124115200D01*
X155942952Y-124115200D02*
X155847714Y-124019961D01*
X155847714Y-124019961D02*
X155800095Y-123924723D01*
X155800095Y-123924723D02*
X155752476Y-123734247D01*
X155752476Y-123734247D02*
X155752476Y-123591390D01*
X155752476Y-123591390D02*
X155800095Y-123400914D01*
X155800095Y-123400914D02*
X155847714Y-123305676D01*
X155847714Y-123305676D02*
X155942952Y-123210438D01*
X155942952Y-123210438D02*
X156085809Y-123162819D01*
X156085809Y-123162819D02*
X156181047Y-123162819D01*
X156181047Y-123162819D02*
X156323904Y-123210438D01*
X156323904Y-123210438D02*
X156371523Y-123258057D01*
X156800095Y-124162819D02*
X156800095Y-123162819D01*
X156800095Y-123162819D02*
X157181047Y-123162819D01*
X157181047Y-123162819D02*
X157276285Y-123210438D01*
X157276285Y-123210438D02*
X157323904Y-123258057D01*
X157323904Y-123258057D02*
X157371523Y-123353295D01*
X157371523Y-123353295D02*
X157371523Y-123496152D01*
X157371523Y-123496152D02*
X157323904Y-123591390D01*
X157323904Y-123591390D02*
X157276285Y-123639009D01*
X157276285Y-123639009D02*
X157181047Y-123686628D01*
X157181047Y-123686628D02*
X156800095Y-123686628D01*
X158323904Y-124162819D02*
X157752476Y-124162819D01*
X158038190Y-124162819D02*
X158038190Y-123162819D01*
X158038190Y-123162819D02*
X157942952Y-123305676D01*
X157942952Y-123305676D02*
X157847714Y-123400914D01*
X157847714Y-123400914D02*
X157752476Y-123448533D01*
X158657238Y-123162819D02*
X159323904Y-123162819D01*
X159323904Y-123162819D02*
X158895333Y-124162819D01*
X159895333Y-123162819D02*
X159990571Y-123162819D01*
X159990571Y-123162819D02*
X160085809Y-123210438D01*
X160085809Y-123210438D02*
X160133428Y-123258057D01*
X160133428Y-123258057D02*
X160181047Y-123353295D01*
X160181047Y-123353295D02*
X160228666Y-123543771D01*
X160228666Y-123543771D02*
X160228666Y-123781866D01*
X160228666Y-123781866D02*
X160181047Y-123972342D01*
X160181047Y-123972342D02*
X160133428Y-124067580D01*
X160133428Y-124067580D02*
X160085809Y-124115200D01*
X160085809Y-124115200D02*
X159990571Y-124162819D01*
X159990571Y-124162819D02*
X159895333Y-124162819D01*
X159895333Y-124162819D02*
X159800095Y-124115200D01*
X159800095Y-124115200D02*
X159752476Y-124067580D01*
X159752476Y-124067580D02*
X159704857Y-123972342D01*
X159704857Y-123972342D02*
X159657238Y-123781866D01*
X159657238Y-123781866D02*
X159657238Y-123543771D01*
X159657238Y-123543771D02*
X159704857Y-123353295D01*
X159704857Y-123353295D02*
X159752476Y-123258057D01*
X159752476Y-123258057D02*
X159800095Y-123210438D01*
X159800095Y-123210438D02*
X159895333Y-123162819D01*
X160847714Y-123162819D02*
X160942952Y-123162819D01*
X160942952Y-123162819D02*
X161038190Y-123210438D01*
X161038190Y-123210438D02*
X161085809Y-123258057D01*
X161085809Y-123258057D02*
X161133428Y-123353295D01*
X161133428Y-123353295D02*
X161181047Y-123543771D01*
X161181047Y-123543771D02*
X161181047Y-123781866D01*
X161181047Y-123781866D02*
X161133428Y-123972342D01*
X161133428Y-123972342D02*
X161085809Y-124067580D01*
X161085809Y-124067580D02*
X161038190Y-124115200D01*
X161038190Y-124115200D02*
X160942952Y-124162819D01*
X160942952Y-124162819D02*
X160847714Y-124162819D01*
X160847714Y-124162819D02*
X160752476Y-124115200D01*
X160752476Y-124115200D02*
X160704857Y-124067580D01*
X160704857Y-124067580D02*
X160657238Y-123972342D01*
X160657238Y-123972342D02*
X160609619Y-123781866D01*
X160609619Y-123781866D02*
X160609619Y-123543771D01*
X160609619Y-123543771D02*
X160657238Y-123353295D01*
X160657238Y-123353295D02*
X160704857Y-123258057D01*
X160704857Y-123258057D02*
X160752476Y-123210438D01*
X160752476Y-123210438D02*
X160847714Y-123162819D01*
X161514381Y-124162819D02*
X162038190Y-123496152D01*
X161514381Y-123496152D02*
X162038190Y-124162819D01*
X162419143Y-123781866D02*
X163181048Y-123781866D01*
X163562000Y-123162819D02*
X164181047Y-123162819D01*
X164181047Y-123162819D02*
X163847714Y-123543771D01*
X163847714Y-123543771D02*
X163990571Y-123543771D01*
X163990571Y-123543771D02*
X164085809Y-123591390D01*
X164085809Y-123591390D02*
X164133428Y-123639009D01*
X164133428Y-123639009D02*
X164181047Y-123734247D01*
X164181047Y-123734247D02*
X164181047Y-123972342D01*
X164181047Y-123972342D02*
X164133428Y-124067580D01*
X164133428Y-124067580D02*
X164085809Y-124115200D01*
X164085809Y-124115200D02*
X163990571Y-124162819D01*
X163990571Y-124162819D02*
X163704857Y-124162819D01*
X163704857Y-124162819D02*
X163609619Y-124115200D01*
X163609619Y-124115200D02*
X163562000Y-124067580D01*
X164514381Y-123162819D02*
X165133428Y-123162819D01*
X165133428Y-123162819D02*
X164800095Y-123543771D01*
X164800095Y-123543771D02*
X164942952Y-123543771D01*
X164942952Y-123543771D02*
X165038190Y-123591390D01*
X165038190Y-123591390D02*
X165085809Y-123639009D01*
X165085809Y-123639009D02*
X165133428Y-123734247D01*
X165133428Y-123734247D02*
X165133428Y-123972342D01*
X165133428Y-123972342D02*
X165085809Y-124067580D01*
X165085809Y-124067580D02*
X165038190Y-124115200D01*
X165038190Y-124115200D02*
X164942952Y-124162819D01*
X164942952Y-124162819D02*
X164657238Y-124162819D01*
X164657238Y-124162819D02*
X164562000Y-124115200D01*
X164562000Y-124115200D02*
X164514381Y-124067580D01*
X165752476Y-123162819D02*
X165847714Y-123162819D01*
X165847714Y-123162819D02*
X165942952Y-123210438D01*
X165942952Y-123210438D02*
X165990571Y-123258057D01*
X165990571Y-123258057D02*
X166038190Y-123353295D01*
X166038190Y-123353295D02*
X166085809Y-123543771D01*
X166085809Y-123543771D02*
X166085809Y-123781866D01*
X166085809Y-123781866D02*
X166038190Y-123972342D01*
X166038190Y-123972342D02*
X165990571Y-124067580D01*
X165990571Y-124067580D02*
X165942952Y-124115200D01*
X165942952Y-124115200D02*
X165847714Y-124162819D01*
X165847714Y-124162819D02*
X165752476Y-124162819D01*
X165752476Y-124162819D02*
X165657238Y-124115200D01*
X165657238Y-124115200D02*
X165609619Y-124067580D01*
X165609619Y-124067580D02*
X165562000Y-123972342D01*
X165562000Y-123972342D02*
X165514381Y-123781866D01*
X165514381Y-123781866D02*
X165514381Y-123543771D01*
X165514381Y-123543771D02*
X165562000Y-123353295D01*
X165562000Y-123353295D02*
X165609619Y-123258057D01*
X165609619Y-123258057D02*
X165657238Y-123210438D01*
X165657238Y-123210438D02*
X165752476Y-123162819D01*
X166419143Y-124162819D02*
X166942952Y-123496152D01*
X166419143Y-123496152D02*
X166942952Y-124162819D01*
X167228667Y-124162819D02*
X167752476Y-123496152D01*
X167228667Y-123496152D02*
X167752476Y-124162819D01*
X167990572Y-123162819D02*
X168562000Y-123162819D01*
X168276286Y-124162819D02*
X168276286Y-123162819D01*
X169085810Y-123162819D02*
X169276286Y-123162819D01*
X169276286Y-123162819D02*
X169371524Y-123210438D01*
X169371524Y-123210438D02*
X169466762Y-123305676D01*
X169466762Y-123305676D02*
X169514381Y-123496152D01*
X169514381Y-123496152D02*
X169514381Y-123829485D01*
X169514381Y-123829485D02*
X169466762Y-124019961D01*
X169466762Y-124019961D02*
X169371524Y-124115200D01*
X169371524Y-124115200D02*
X169276286Y-124162819D01*
X169276286Y-124162819D02*
X169085810Y-124162819D01*
X169085810Y-124162819D02*
X168990572Y-124115200D01*
X168990572Y-124115200D02*
X168895334Y-124019961D01*
X168895334Y-124019961D02*
X168847715Y-123829485D01*
X168847715Y-123829485D02*
X168847715Y-123496152D01*
X168847715Y-123496152D02*
X168895334Y-123305676D01*
X168895334Y-123305676D02*
X168990572Y-123210438D01*
X168990572Y-123210438D02*
X169085810Y-123162819D01*
X186767095Y-98406819D02*
X186767095Y-99216342D01*
X186767095Y-99216342D02*
X186814714Y-99311580D01*
X186814714Y-99311580D02*
X186862333Y-99359200D01*
X186862333Y-99359200D02*
X186957571Y-99406819D01*
X186957571Y-99406819D02*
X187148047Y-99406819D01*
X187148047Y-99406819D02*
X187243285Y-99359200D01*
X187243285Y-99359200D02*
X187290904Y-99311580D01*
X187290904Y-99311580D02*
X187338523Y-99216342D01*
X187338523Y-99216342D02*
X187338523Y-98406819D01*
X188338523Y-99406819D02*
X187767095Y-99406819D01*
X188052809Y-99406819D02*
X188052809Y-98406819D01*
X188052809Y-98406819D02*
X187957571Y-98549676D01*
X187957571Y-98549676D02*
X187862333Y-98644914D01*
X187862333Y-98644914D02*
X187767095Y-98692533D01*
X184933761Y-111111580D02*
X184886142Y-111159200D01*
X184886142Y-111159200D02*
X184743285Y-111206819D01*
X184743285Y-111206819D02*
X184648047Y-111206819D01*
X184648047Y-111206819D02*
X184505190Y-111159200D01*
X184505190Y-111159200D02*
X184409952Y-111063961D01*
X184409952Y-111063961D02*
X184362333Y-110968723D01*
X184362333Y-110968723D02*
X184314714Y-110778247D01*
X184314714Y-110778247D02*
X184314714Y-110635390D01*
X184314714Y-110635390D02*
X184362333Y-110444914D01*
X184362333Y-110444914D02*
X184409952Y-110349676D01*
X184409952Y-110349676D02*
X184505190Y-110254438D01*
X184505190Y-110254438D02*
X184648047Y-110206819D01*
X184648047Y-110206819D02*
X184743285Y-110206819D01*
X184743285Y-110206819D02*
X184886142Y-110254438D01*
X184886142Y-110254438D02*
X184933761Y-110302057D01*
X185362333Y-111206819D02*
X185362333Y-110206819D01*
X185362333Y-110206819D02*
X185600428Y-110206819D01*
X185600428Y-110206819D02*
X185743285Y-110254438D01*
X185743285Y-110254438D02*
X185838523Y-110349676D01*
X185838523Y-110349676D02*
X185886142Y-110444914D01*
X185886142Y-110444914D02*
X185933761Y-110635390D01*
X185933761Y-110635390D02*
X185933761Y-110778247D01*
X185933761Y-110778247D02*
X185886142Y-110968723D01*
X185886142Y-110968723D02*
X185838523Y-111063961D01*
X185838523Y-111063961D02*
X185743285Y-111159200D01*
X185743285Y-111159200D02*
X185600428Y-111206819D01*
X185600428Y-111206819D02*
X185362333Y-111206819D01*
X186790904Y-110540152D02*
X186790904Y-111206819D01*
X186552809Y-110159200D02*
X186314714Y-110873485D01*
X186314714Y-110873485D02*
X186933761Y-110873485D01*
X187505190Y-110206819D02*
X187600428Y-110206819D01*
X187600428Y-110206819D02*
X187695666Y-110254438D01*
X187695666Y-110254438D02*
X187743285Y-110302057D01*
X187743285Y-110302057D02*
X187790904Y-110397295D01*
X187790904Y-110397295D02*
X187838523Y-110587771D01*
X187838523Y-110587771D02*
X187838523Y-110825866D01*
X187838523Y-110825866D02*
X187790904Y-111016342D01*
X187790904Y-111016342D02*
X187743285Y-111111580D01*
X187743285Y-111111580D02*
X187695666Y-111159200D01*
X187695666Y-111159200D02*
X187600428Y-111206819D01*
X187600428Y-111206819D02*
X187505190Y-111206819D01*
X187505190Y-111206819D02*
X187409952Y-111159200D01*
X187409952Y-111159200D02*
X187362333Y-111111580D01*
X187362333Y-111111580D02*
X187314714Y-111016342D01*
X187314714Y-111016342D02*
X187267095Y-110825866D01*
X187267095Y-110825866D02*
X187267095Y-110587771D01*
X187267095Y-110587771D02*
X187314714Y-110397295D01*
X187314714Y-110397295D02*
X187362333Y-110302057D01*
X187362333Y-110302057D02*
X187409952Y-110254438D01*
X187409952Y-110254438D02*
X187505190Y-110206819D01*
X188743285Y-110206819D02*
X188267095Y-110206819D01*
X188267095Y-110206819D02*
X188219476Y-110683009D01*
X188219476Y-110683009D02*
X188267095Y-110635390D01*
X188267095Y-110635390D02*
X188362333Y-110587771D01*
X188362333Y-110587771D02*
X188600428Y-110587771D01*
X188600428Y-110587771D02*
X188695666Y-110635390D01*
X188695666Y-110635390D02*
X188743285Y-110683009D01*
X188743285Y-110683009D02*
X188790904Y-110778247D01*
X188790904Y-110778247D02*
X188790904Y-111016342D01*
X188790904Y-111016342D02*
X188743285Y-111111580D01*
X188743285Y-111111580D02*
X188695666Y-111159200D01*
X188695666Y-111159200D02*
X188600428Y-111206819D01*
X188600428Y-111206819D02*
X188362333Y-111206819D01*
X188362333Y-111206819D02*
X188267095Y-111159200D01*
X188267095Y-111159200D02*
X188219476Y-111111580D01*
X189743285Y-111206819D02*
X189171857Y-111206819D01*
X189457571Y-111206819D02*
X189457571Y-110206819D01*
X189457571Y-110206819D02*
X189362333Y-110349676D01*
X189362333Y-110349676D02*
X189267095Y-110444914D01*
X189267095Y-110444914D02*
X189171857Y-110492533D01*
X190505190Y-110683009D02*
X190648047Y-110730628D01*
X190648047Y-110730628D02*
X190695666Y-110778247D01*
X190695666Y-110778247D02*
X190743285Y-110873485D01*
X190743285Y-110873485D02*
X190743285Y-111016342D01*
X190743285Y-111016342D02*
X190695666Y-111111580D01*
X190695666Y-111111580D02*
X190648047Y-111159200D01*
X190648047Y-111159200D02*
X190552809Y-111206819D01*
X190552809Y-111206819D02*
X190171857Y-111206819D01*
X190171857Y-111206819D02*
X190171857Y-110206819D01*
X190171857Y-110206819D02*
X190505190Y-110206819D01*
X190505190Y-110206819D02*
X190600428Y-110254438D01*
X190600428Y-110254438D02*
X190648047Y-110302057D01*
X190648047Y-110302057D02*
X190695666Y-110397295D01*
X190695666Y-110397295D02*
X190695666Y-110492533D01*
X190695666Y-110492533D02*
X190648047Y-110587771D01*
X190648047Y-110587771D02*
X190600428Y-110635390D01*
X190600428Y-110635390D02*
X190505190Y-110683009D01*
X190505190Y-110683009D02*
X190171857Y-110683009D01*
X226768666Y-101642819D02*
X226768666Y-102357104D01*
X226768666Y-102357104D02*
X226721047Y-102499961D01*
X226721047Y-102499961D02*
X226625809Y-102595200D01*
X226625809Y-102595200D02*
X226482952Y-102642819D01*
X226482952Y-102642819D02*
X226387714Y-102642819D01*
X227387714Y-102071390D02*
X227292476Y-102023771D01*
X227292476Y-102023771D02*
X227244857Y-101976152D01*
X227244857Y-101976152D02*
X227197238Y-101880914D01*
X227197238Y-101880914D02*
X227197238Y-101833295D01*
X227197238Y-101833295D02*
X227244857Y-101738057D01*
X227244857Y-101738057D02*
X227292476Y-101690438D01*
X227292476Y-101690438D02*
X227387714Y-101642819D01*
X227387714Y-101642819D02*
X227578190Y-101642819D01*
X227578190Y-101642819D02*
X227673428Y-101690438D01*
X227673428Y-101690438D02*
X227721047Y-101738057D01*
X227721047Y-101738057D02*
X227768666Y-101833295D01*
X227768666Y-101833295D02*
X227768666Y-101880914D01*
X227768666Y-101880914D02*
X227721047Y-101976152D01*
X227721047Y-101976152D02*
X227673428Y-102023771D01*
X227673428Y-102023771D02*
X227578190Y-102071390D01*
X227578190Y-102071390D02*
X227387714Y-102071390D01*
X227387714Y-102071390D02*
X227292476Y-102119009D01*
X227292476Y-102119009D02*
X227244857Y-102166628D01*
X227244857Y-102166628D02*
X227197238Y-102261866D01*
X227197238Y-102261866D02*
X227197238Y-102452342D01*
X227197238Y-102452342D02*
X227244857Y-102547580D01*
X227244857Y-102547580D02*
X227292476Y-102595200D01*
X227292476Y-102595200D02*
X227387714Y-102642819D01*
X227387714Y-102642819D02*
X227578190Y-102642819D01*
X227578190Y-102642819D02*
X227673428Y-102595200D01*
X227673428Y-102595200D02*
X227721047Y-102547580D01*
X227721047Y-102547580D02*
X227768666Y-102452342D01*
X227768666Y-102452342D02*
X227768666Y-102261866D01*
X227768666Y-102261866D02*
X227721047Y-102166628D01*
X227721047Y-102166628D02*
X227673428Y-102119009D01*
X227673428Y-102119009D02*
X227578190Y-102071390D01*
X213924333Y-119403819D02*
X213591000Y-118927628D01*
X213352905Y-119403819D02*
X213352905Y-118403819D01*
X213352905Y-118403819D02*
X213733857Y-118403819D01*
X213733857Y-118403819D02*
X213829095Y-118451438D01*
X213829095Y-118451438D02*
X213876714Y-118499057D01*
X213876714Y-118499057D02*
X213924333Y-118594295D01*
X213924333Y-118594295D02*
X213924333Y-118737152D01*
X213924333Y-118737152D02*
X213876714Y-118832390D01*
X213876714Y-118832390D02*
X213829095Y-118880009D01*
X213829095Y-118880009D02*
X213733857Y-118927628D01*
X213733857Y-118927628D02*
X213352905Y-118927628D01*
X214495762Y-118832390D02*
X214400524Y-118784771D01*
X214400524Y-118784771D02*
X214352905Y-118737152D01*
X214352905Y-118737152D02*
X214305286Y-118641914D01*
X214305286Y-118641914D02*
X214305286Y-118594295D01*
X214305286Y-118594295D02*
X214352905Y-118499057D01*
X214352905Y-118499057D02*
X214400524Y-118451438D01*
X214400524Y-118451438D02*
X214495762Y-118403819D01*
X214495762Y-118403819D02*
X214686238Y-118403819D01*
X214686238Y-118403819D02*
X214781476Y-118451438D01*
X214781476Y-118451438D02*
X214829095Y-118499057D01*
X214829095Y-118499057D02*
X214876714Y-118594295D01*
X214876714Y-118594295D02*
X214876714Y-118641914D01*
X214876714Y-118641914D02*
X214829095Y-118737152D01*
X214829095Y-118737152D02*
X214781476Y-118784771D01*
X214781476Y-118784771D02*
X214686238Y-118832390D01*
X214686238Y-118832390D02*
X214495762Y-118832390D01*
X214495762Y-118832390D02*
X214400524Y-118880009D01*
X214400524Y-118880009D02*
X214352905Y-118927628D01*
X214352905Y-118927628D02*
X214305286Y-119022866D01*
X214305286Y-119022866D02*
X214305286Y-119213342D01*
X214305286Y-119213342D02*
X214352905Y-119308580D01*
X214352905Y-119308580D02*
X214400524Y-119356200D01*
X214400524Y-119356200D02*
X214495762Y-119403819D01*
X214495762Y-119403819D02*
X214686238Y-119403819D01*
X214686238Y-119403819D02*
X214781476Y-119356200D01*
X214781476Y-119356200D02*
X214829095Y-119308580D01*
X214829095Y-119308580D02*
X214876714Y-119213342D01*
X214876714Y-119213342D02*
X214876714Y-119022866D01*
X214876714Y-119022866D02*
X214829095Y-118927628D01*
X214829095Y-118927628D02*
X214781476Y-118880009D01*
X214781476Y-118880009D02*
X214686238Y-118832390D01*
X221400523Y-119403819D02*
X220829095Y-119403819D01*
X221114809Y-119403819D02*
X221114809Y-118403819D01*
X221114809Y-118403819D02*
X221019571Y-118546676D01*
X221019571Y-118546676D02*
X220924333Y-118641914D01*
X220924333Y-118641914D02*
X220829095Y-118689533D01*
X222019571Y-118403819D02*
X222114809Y-118403819D01*
X222114809Y-118403819D02*
X222210047Y-118451438D01*
X222210047Y-118451438D02*
X222257666Y-118499057D01*
X222257666Y-118499057D02*
X222305285Y-118594295D01*
X222305285Y-118594295D02*
X222352904Y-118784771D01*
X222352904Y-118784771D02*
X222352904Y-119022866D01*
X222352904Y-119022866D02*
X222305285Y-119213342D01*
X222305285Y-119213342D02*
X222257666Y-119308580D01*
X222257666Y-119308580D02*
X222210047Y-119356200D01*
X222210047Y-119356200D02*
X222114809Y-119403819D01*
X222114809Y-119403819D02*
X222019571Y-119403819D01*
X222019571Y-119403819D02*
X221924333Y-119356200D01*
X221924333Y-119356200D02*
X221876714Y-119308580D01*
X221876714Y-119308580D02*
X221829095Y-119213342D01*
X221829095Y-119213342D02*
X221781476Y-119022866D01*
X221781476Y-119022866D02*
X221781476Y-118784771D01*
X221781476Y-118784771D02*
X221829095Y-118594295D01*
X221829095Y-118594295D02*
X221876714Y-118499057D01*
X221876714Y-118499057D02*
X221924333Y-118451438D01*
X221924333Y-118451438D02*
X222019571Y-118403819D01*
X222781476Y-119403819D02*
X222781476Y-118403819D01*
X223352904Y-119403819D02*
X222924333Y-118832390D01*
X223352904Y-118403819D02*
X222781476Y-118975247D01*
X181555333Y-103401819D02*
X181222000Y-102925628D01*
X180983905Y-103401819D02*
X180983905Y-102401819D01*
X180983905Y-102401819D02*
X181364857Y-102401819D01*
X181364857Y-102401819D02*
X181460095Y-102449438D01*
X181460095Y-102449438D02*
X181507714Y-102497057D01*
X181507714Y-102497057D02*
X181555333Y-102592295D01*
X181555333Y-102592295D02*
X181555333Y-102735152D01*
X181555333Y-102735152D02*
X181507714Y-102830390D01*
X181507714Y-102830390D02*
X181460095Y-102878009D01*
X181460095Y-102878009D02*
X181364857Y-102925628D01*
X181364857Y-102925628D02*
X180983905Y-102925628D01*
X181936286Y-102497057D02*
X181983905Y-102449438D01*
X181983905Y-102449438D02*
X182079143Y-102401819D01*
X182079143Y-102401819D02*
X182317238Y-102401819D01*
X182317238Y-102401819D02*
X182412476Y-102449438D01*
X182412476Y-102449438D02*
X182460095Y-102497057D01*
X182460095Y-102497057D02*
X182507714Y-102592295D01*
X182507714Y-102592295D02*
X182507714Y-102687533D01*
X182507714Y-102687533D02*
X182460095Y-102830390D01*
X182460095Y-102830390D02*
X181888667Y-103401819D01*
X181888667Y-103401819D02*
X182507714Y-103401819D01*
X177570761Y-100861819D02*
X176999333Y-100861819D01*
X177285047Y-100861819D02*
X177285047Y-99861819D01*
X177285047Y-99861819D02*
X177189809Y-100004676D01*
X177189809Y-100004676D02*
X177094571Y-100099914D01*
X177094571Y-100099914D02*
X176999333Y-100147533D01*
X177951714Y-99957057D02*
X177999333Y-99909438D01*
X177999333Y-99909438D02*
X178094571Y-99861819D01*
X178094571Y-99861819D02*
X178332666Y-99861819D01*
X178332666Y-99861819D02*
X178427904Y-99909438D01*
X178427904Y-99909438D02*
X178475523Y-99957057D01*
X178475523Y-99957057D02*
X178523142Y-100052295D01*
X178523142Y-100052295D02*
X178523142Y-100147533D01*
X178523142Y-100147533D02*
X178475523Y-100290390D01*
X178475523Y-100290390D02*
X177904095Y-100861819D01*
X177904095Y-100861819D02*
X178523142Y-100861819D01*
X178951714Y-100861819D02*
X178951714Y-99861819D01*
X179046952Y-100480866D02*
X179332666Y-100861819D01*
X179332666Y-100195152D02*
X178951714Y-100576104D01*
X203613666Y-89828819D02*
X203613666Y-90543104D01*
X203613666Y-90543104D02*
X203566047Y-90685961D01*
X203566047Y-90685961D02*
X203470809Y-90781200D01*
X203470809Y-90781200D02*
X203327952Y-90828819D01*
X203327952Y-90828819D02*
X203232714Y-90828819D01*
X204518428Y-90162152D02*
X204518428Y-90828819D01*
X204280333Y-89781200D02*
X204042238Y-90495485D01*
X204042238Y-90495485D02*
X204661285Y-90495485D01*
X236701667Y-82453200D02*
X236844524Y-82500819D01*
X236844524Y-82500819D02*
X237082619Y-82500819D01*
X237082619Y-82500819D02*
X237177857Y-82453200D01*
X237177857Y-82453200D02*
X237225476Y-82405580D01*
X237225476Y-82405580D02*
X237273095Y-82310342D01*
X237273095Y-82310342D02*
X237273095Y-82215104D01*
X237273095Y-82215104D02*
X237225476Y-82119866D01*
X237225476Y-82119866D02*
X237177857Y-82072247D01*
X237177857Y-82072247D02*
X237082619Y-82024628D01*
X237082619Y-82024628D02*
X236892143Y-81977009D01*
X236892143Y-81977009D02*
X236796905Y-81929390D01*
X236796905Y-81929390D02*
X236749286Y-81881771D01*
X236749286Y-81881771D02*
X236701667Y-81786533D01*
X236701667Y-81786533D02*
X236701667Y-81691295D01*
X236701667Y-81691295D02*
X236749286Y-81596057D01*
X236749286Y-81596057D02*
X236796905Y-81548438D01*
X236796905Y-81548438D02*
X236892143Y-81500819D01*
X236892143Y-81500819D02*
X237130238Y-81500819D01*
X237130238Y-81500819D02*
X237273095Y-81548438D01*
X237606429Y-81500819D02*
X237844524Y-82500819D01*
X237844524Y-82500819D02*
X238035000Y-81786533D01*
X238035000Y-81786533D02*
X238225476Y-82500819D01*
X238225476Y-82500819D02*
X238463572Y-81500819D01*
X239273095Y-81834152D02*
X239273095Y-82500819D01*
X239035000Y-81453200D02*
X238796905Y-82167485D01*
X238796905Y-82167485D02*
X239415952Y-82167485D01*
X233032617Y-90955580D02*
X232984998Y-91003200D01*
X232984998Y-91003200D02*
X232842141Y-91050819D01*
X232842141Y-91050819D02*
X232746903Y-91050819D01*
X232746903Y-91050819D02*
X232604046Y-91003200D01*
X232604046Y-91003200D02*
X232508808Y-90907961D01*
X232508808Y-90907961D02*
X232461189Y-90812723D01*
X232461189Y-90812723D02*
X232413570Y-90622247D01*
X232413570Y-90622247D02*
X232413570Y-90479390D01*
X232413570Y-90479390D02*
X232461189Y-90288914D01*
X232461189Y-90288914D02*
X232508808Y-90193676D01*
X232508808Y-90193676D02*
X232604046Y-90098438D01*
X232604046Y-90098438D02*
X232746903Y-90050819D01*
X232746903Y-90050819D02*
X232842141Y-90050819D01*
X232842141Y-90050819D02*
X232984998Y-90098438D01*
X232984998Y-90098438D02*
X233032617Y-90146057D01*
X233604046Y-91050819D02*
X233508808Y-91003200D01*
X233508808Y-91003200D02*
X233461189Y-90907961D01*
X233461189Y-90907961D02*
X233461189Y-90050819D01*
X234127856Y-91050819D02*
X234032618Y-91003200D01*
X234032618Y-91003200D02*
X233984999Y-90955580D01*
X233984999Y-90955580D02*
X233937380Y-90860342D01*
X233937380Y-90860342D02*
X233937380Y-90574628D01*
X233937380Y-90574628D02*
X233984999Y-90479390D01*
X233984999Y-90479390D02*
X234032618Y-90431771D01*
X234032618Y-90431771D02*
X234127856Y-90384152D01*
X234127856Y-90384152D02*
X234270713Y-90384152D01*
X234270713Y-90384152D02*
X234365951Y-90431771D01*
X234365951Y-90431771D02*
X234413570Y-90479390D01*
X234413570Y-90479390D02*
X234461189Y-90574628D01*
X234461189Y-90574628D02*
X234461189Y-90860342D01*
X234461189Y-90860342D02*
X234413570Y-90955580D01*
X234413570Y-90955580D02*
X234365951Y-91003200D01*
X234365951Y-91003200D02*
X234270713Y-91050819D01*
X234270713Y-91050819D02*
X234127856Y-91050819D01*
X234842142Y-91003200D02*
X234937380Y-91050819D01*
X234937380Y-91050819D02*
X235127856Y-91050819D01*
X235127856Y-91050819D02*
X235223094Y-91003200D01*
X235223094Y-91003200D02*
X235270713Y-90907961D01*
X235270713Y-90907961D02*
X235270713Y-90860342D01*
X235270713Y-90860342D02*
X235223094Y-90765104D01*
X235223094Y-90765104D02*
X235127856Y-90717485D01*
X235127856Y-90717485D02*
X234984999Y-90717485D01*
X234984999Y-90717485D02*
X234889761Y-90669866D01*
X234889761Y-90669866D02*
X234842142Y-90574628D01*
X234842142Y-90574628D02*
X234842142Y-90527009D01*
X234842142Y-90527009D02*
X234889761Y-90431771D01*
X234889761Y-90431771D02*
X234984999Y-90384152D01*
X234984999Y-90384152D02*
X235127856Y-90384152D01*
X235127856Y-90384152D02*
X235223094Y-90431771D01*
X236080237Y-91003200D02*
X235984999Y-91050819D01*
X235984999Y-91050819D02*
X235794523Y-91050819D01*
X235794523Y-91050819D02*
X235699285Y-91003200D01*
X235699285Y-91003200D02*
X235651666Y-90907961D01*
X235651666Y-90907961D02*
X235651666Y-90527009D01*
X235651666Y-90527009D02*
X235699285Y-90431771D01*
X235699285Y-90431771D02*
X235794523Y-90384152D01*
X235794523Y-90384152D02*
X235984999Y-90384152D01*
X235984999Y-90384152D02*
X236080237Y-90431771D01*
X236080237Y-90431771D02*
X236127856Y-90527009D01*
X236127856Y-90527009D02*
X236127856Y-90622247D01*
X236127856Y-90622247D02*
X235651666Y-90717485D01*
X237175476Y-90384152D02*
X237556428Y-90384152D01*
X237318333Y-91050819D02*
X237318333Y-90193676D01*
X237318333Y-90193676D02*
X237365952Y-90098438D01*
X237365952Y-90098438D02*
X237461190Y-90050819D01*
X237461190Y-90050819D02*
X237556428Y-90050819D01*
X238032619Y-91050819D02*
X237937381Y-91003200D01*
X237937381Y-91003200D02*
X237889762Y-90955580D01*
X237889762Y-90955580D02*
X237842143Y-90860342D01*
X237842143Y-90860342D02*
X237842143Y-90574628D01*
X237842143Y-90574628D02*
X237889762Y-90479390D01*
X237889762Y-90479390D02*
X237937381Y-90431771D01*
X237937381Y-90431771D02*
X238032619Y-90384152D01*
X238032619Y-90384152D02*
X238175476Y-90384152D01*
X238175476Y-90384152D02*
X238270714Y-90431771D01*
X238270714Y-90431771D02*
X238318333Y-90479390D01*
X238318333Y-90479390D02*
X238365952Y-90574628D01*
X238365952Y-90574628D02*
X238365952Y-90860342D01*
X238365952Y-90860342D02*
X238318333Y-90955580D01*
X238318333Y-90955580D02*
X238270714Y-91003200D01*
X238270714Y-91003200D02*
X238175476Y-91050819D01*
X238175476Y-91050819D02*
X238032619Y-91050819D01*
X238794524Y-91050819D02*
X238794524Y-90384152D01*
X238794524Y-90574628D02*
X238842143Y-90479390D01*
X238842143Y-90479390D02*
X238889762Y-90431771D01*
X238889762Y-90431771D02*
X238985000Y-90384152D01*
X238985000Y-90384152D02*
X239080238Y-90384152D01*
X240175477Y-90384152D02*
X240175477Y-91384152D01*
X240175477Y-90431771D02*
X240270715Y-90384152D01*
X240270715Y-90384152D02*
X240461191Y-90384152D01*
X240461191Y-90384152D02*
X240556429Y-90431771D01*
X240556429Y-90431771D02*
X240604048Y-90479390D01*
X240604048Y-90479390D02*
X240651667Y-90574628D01*
X240651667Y-90574628D02*
X240651667Y-90860342D01*
X240651667Y-90860342D02*
X240604048Y-90955580D01*
X240604048Y-90955580D02*
X240556429Y-91003200D01*
X240556429Y-91003200D02*
X240461191Y-91050819D01*
X240461191Y-91050819D02*
X240270715Y-91050819D01*
X240270715Y-91050819D02*
X240175477Y-91003200D01*
X241080239Y-91050819D02*
X241080239Y-90384152D01*
X241080239Y-90574628D02*
X241127858Y-90479390D01*
X241127858Y-90479390D02*
X241175477Y-90431771D01*
X241175477Y-90431771D02*
X241270715Y-90384152D01*
X241270715Y-90384152D02*
X241365953Y-90384152D01*
X241842144Y-91050819D02*
X241746906Y-91003200D01*
X241746906Y-91003200D02*
X241699287Y-90955580D01*
X241699287Y-90955580D02*
X241651668Y-90860342D01*
X241651668Y-90860342D02*
X241651668Y-90574628D01*
X241651668Y-90574628D02*
X241699287Y-90479390D01*
X241699287Y-90479390D02*
X241746906Y-90431771D01*
X241746906Y-90431771D02*
X241842144Y-90384152D01*
X241842144Y-90384152D02*
X241985001Y-90384152D01*
X241985001Y-90384152D02*
X242080239Y-90431771D01*
X242080239Y-90431771D02*
X242127858Y-90479390D01*
X242127858Y-90479390D02*
X242175477Y-90574628D01*
X242175477Y-90574628D02*
X242175477Y-90860342D01*
X242175477Y-90860342D02*
X242127858Y-90955580D01*
X242127858Y-90955580D02*
X242080239Y-91003200D01*
X242080239Y-91003200D02*
X241985001Y-91050819D01*
X241985001Y-91050819D02*
X241842144Y-91050819D01*
X243032620Y-90384152D02*
X243032620Y-91193676D01*
X243032620Y-91193676D02*
X242985001Y-91288914D01*
X242985001Y-91288914D02*
X242937382Y-91336533D01*
X242937382Y-91336533D02*
X242842144Y-91384152D01*
X242842144Y-91384152D02*
X242699287Y-91384152D01*
X242699287Y-91384152D02*
X242604049Y-91336533D01*
X243032620Y-91003200D02*
X242937382Y-91050819D01*
X242937382Y-91050819D02*
X242746906Y-91050819D01*
X242746906Y-91050819D02*
X242651668Y-91003200D01*
X242651668Y-91003200D02*
X242604049Y-90955580D01*
X242604049Y-90955580D02*
X242556430Y-90860342D01*
X242556430Y-90860342D02*
X242556430Y-90574628D01*
X242556430Y-90574628D02*
X242604049Y-90479390D01*
X242604049Y-90479390D02*
X242651668Y-90431771D01*
X242651668Y-90431771D02*
X242746906Y-90384152D01*
X242746906Y-90384152D02*
X242937382Y-90384152D01*
X242937382Y-90384152D02*
X243032620Y-90431771D01*
X243508811Y-90955580D02*
X243556430Y-91003200D01*
X243556430Y-91003200D02*
X243508811Y-91050819D01*
X243508811Y-91050819D02*
X243461192Y-91003200D01*
X243461192Y-91003200D02*
X243508811Y-90955580D01*
X243508811Y-90955580D02*
X243508811Y-91050819D01*
X170887333Y-105941819D02*
X170554000Y-105465628D01*
X170315905Y-105941819D02*
X170315905Y-104941819D01*
X170315905Y-104941819D02*
X170696857Y-104941819D01*
X170696857Y-104941819D02*
X170792095Y-104989438D01*
X170792095Y-104989438D02*
X170839714Y-105037057D01*
X170839714Y-105037057D02*
X170887333Y-105132295D01*
X170887333Y-105132295D02*
X170887333Y-105275152D01*
X170887333Y-105275152D02*
X170839714Y-105370390D01*
X170839714Y-105370390D02*
X170792095Y-105418009D01*
X170792095Y-105418009D02*
X170696857Y-105465628D01*
X170696857Y-105465628D02*
X170315905Y-105465628D01*
X171744476Y-105275152D02*
X171744476Y-105941819D01*
X171506381Y-104894200D02*
X171268286Y-105608485D01*
X171268286Y-105608485D02*
X171887333Y-105608485D01*
X166378904Y-106973819D02*
X165902714Y-106973819D01*
X165902714Y-106973819D02*
X165855095Y-107450009D01*
X165855095Y-107450009D02*
X165902714Y-107402390D01*
X165902714Y-107402390D02*
X165997952Y-107354771D01*
X165997952Y-107354771D02*
X166236047Y-107354771D01*
X166236047Y-107354771D02*
X166331285Y-107402390D01*
X166331285Y-107402390D02*
X166378904Y-107450009D01*
X166378904Y-107450009D02*
X166426523Y-107545247D01*
X166426523Y-107545247D02*
X166426523Y-107783342D01*
X166426523Y-107783342D02*
X166378904Y-107878580D01*
X166378904Y-107878580D02*
X166331285Y-107926200D01*
X166331285Y-107926200D02*
X166236047Y-107973819D01*
X166236047Y-107973819D02*
X165997952Y-107973819D01*
X165997952Y-107973819D02*
X165902714Y-107926200D01*
X165902714Y-107926200D02*
X165855095Y-107878580D01*
X167283666Y-106973819D02*
X167093190Y-106973819D01*
X167093190Y-106973819D02*
X166997952Y-107021438D01*
X166997952Y-107021438D02*
X166950333Y-107069057D01*
X166950333Y-107069057D02*
X166855095Y-107211914D01*
X166855095Y-107211914D02*
X166807476Y-107402390D01*
X166807476Y-107402390D02*
X166807476Y-107783342D01*
X166807476Y-107783342D02*
X166855095Y-107878580D01*
X166855095Y-107878580D02*
X166902714Y-107926200D01*
X166902714Y-107926200D02*
X166997952Y-107973819D01*
X166997952Y-107973819D02*
X167188428Y-107973819D01*
X167188428Y-107973819D02*
X167283666Y-107926200D01*
X167283666Y-107926200D02*
X167331285Y-107878580D01*
X167331285Y-107878580D02*
X167378904Y-107783342D01*
X167378904Y-107783342D02*
X167378904Y-107545247D01*
X167378904Y-107545247D02*
X167331285Y-107450009D01*
X167331285Y-107450009D02*
X167283666Y-107402390D01*
X167283666Y-107402390D02*
X167188428Y-107354771D01*
X167188428Y-107354771D02*
X166997952Y-107354771D01*
X166997952Y-107354771D02*
X166902714Y-107402390D01*
X166902714Y-107402390D02*
X166855095Y-107450009D01*
X166855095Y-107450009D02*
X166807476Y-107545247D01*
X167807476Y-107973819D02*
X167807476Y-106973819D01*
X168378904Y-107973819D02*
X167950333Y-107402390D01*
X168378904Y-106973819D02*
X167807476Y-107545247D01*
X174157666Y-81827819D02*
X174157666Y-82542104D01*
X174157666Y-82542104D02*
X174110047Y-82684961D01*
X174110047Y-82684961D02*
X174014809Y-82780200D01*
X174014809Y-82780200D02*
X173871952Y-82827819D01*
X173871952Y-82827819D02*
X173776714Y-82827819D01*
X174633857Y-82827819D02*
X174633857Y-81827819D01*
X174633857Y-81827819D02*
X175014809Y-81827819D01*
X175014809Y-81827819D02*
X175110047Y-81875438D01*
X175110047Y-81875438D02*
X175157666Y-81923057D01*
X175157666Y-81923057D02*
X175205285Y-82018295D01*
X175205285Y-82018295D02*
X175205285Y-82161152D01*
X175205285Y-82161152D02*
X175157666Y-82256390D01*
X175157666Y-82256390D02*
X175110047Y-82304009D01*
X175110047Y-82304009D02*
X175014809Y-82351628D01*
X175014809Y-82351628D02*
X174633857Y-82351628D01*
X175538619Y-81827819D02*
X176157666Y-81827819D01*
X176157666Y-81827819D02*
X175824333Y-82208771D01*
X175824333Y-82208771D02*
X175967190Y-82208771D01*
X175967190Y-82208771D02*
X176062428Y-82256390D01*
X176062428Y-82256390D02*
X176110047Y-82304009D01*
X176110047Y-82304009D02*
X176157666Y-82399247D01*
X176157666Y-82399247D02*
X176157666Y-82637342D01*
X176157666Y-82637342D02*
X176110047Y-82732580D01*
X176110047Y-82732580D02*
X176062428Y-82780200D01*
X176062428Y-82780200D02*
X175967190Y-82827819D01*
X175967190Y-82827819D02*
X175681476Y-82827819D01*
X175681476Y-82827819D02*
X175586238Y-82780200D01*
X175586238Y-82780200D02*
X175538619Y-82732580D01*
X173641810Y-90082819D02*
X174260857Y-90082819D01*
X174260857Y-90082819D02*
X173927524Y-90463771D01*
X173927524Y-90463771D02*
X174070381Y-90463771D01*
X174070381Y-90463771D02*
X174165619Y-90511390D01*
X174165619Y-90511390D02*
X174213238Y-90559009D01*
X174213238Y-90559009D02*
X174260857Y-90654247D01*
X174260857Y-90654247D02*
X174260857Y-90892342D01*
X174260857Y-90892342D02*
X174213238Y-90987580D01*
X174213238Y-90987580D02*
X174165619Y-91035200D01*
X174165619Y-91035200D02*
X174070381Y-91082819D01*
X174070381Y-91082819D02*
X173784667Y-91082819D01*
X173784667Y-91082819D02*
X173689429Y-91035200D01*
X173689429Y-91035200D02*
X173641810Y-90987580D01*
X174689429Y-90987580D02*
X174737048Y-91035200D01*
X174737048Y-91035200D02*
X174689429Y-91082819D01*
X174689429Y-91082819D02*
X174641810Y-91035200D01*
X174641810Y-91035200D02*
X174689429Y-90987580D01*
X174689429Y-90987580D02*
X174689429Y-91082819D01*
X175070381Y-90082819D02*
X175689428Y-90082819D01*
X175689428Y-90082819D02*
X175356095Y-90463771D01*
X175356095Y-90463771D02*
X175498952Y-90463771D01*
X175498952Y-90463771D02*
X175594190Y-90511390D01*
X175594190Y-90511390D02*
X175641809Y-90559009D01*
X175641809Y-90559009D02*
X175689428Y-90654247D01*
X175689428Y-90654247D02*
X175689428Y-90892342D01*
X175689428Y-90892342D02*
X175641809Y-90987580D01*
X175641809Y-90987580D02*
X175594190Y-91035200D01*
X175594190Y-91035200D02*
X175498952Y-91082819D01*
X175498952Y-91082819D02*
X175213238Y-91082819D01*
X175213238Y-91082819D02*
X175118000Y-91035200D01*
X175118000Y-91035200D02*
X175070381Y-90987580D01*
X175975143Y-90082819D02*
X176308476Y-91082819D01*
X176308476Y-91082819D02*
X176641809Y-90082819D01*
X210013761Y-83833057D02*
X209918523Y-83785438D01*
X209918523Y-83785438D02*
X209823285Y-83690200D01*
X209823285Y-83690200D02*
X209680428Y-83547342D01*
X209680428Y-83547342D02*
X209585190Y-83499723D01*
X209585190Y-83499723D02*
X209489952Y-83499723D01*
X209537571Y-83737819D02*
X209442333Y-83690200D01*
X209442333Y-83690200D02*
X209347095Y-83594961D01*
X209347095Y-83594961D02*
X209299476Y-83404485D01*
X209299476Y-83404485D02*
X209299476Y-83071152D01*
X209299476Y-83071152D02*
X209347095Y-82880676D01*
X209347095Y-82880676D02*
X209442333Y-82785438D01*
X209442333Y-82785438D02*
X209537571Y-82737819D01*
X209537571Y-82737819D02*
X209728047Y-82737819D01*
X209728047Y-82737819D02*
X209823285Y-82785438D01*
X209823285Y-82785438D02*
X209918523Y-82880676D01*
X209918523Y-82880676D02*
X209966142Y-83071152D01*
X209966142Y-83071152D02*
X209966142Y-83404485D01*
X209966142Y-83404485D02*
X209918523Y-83594961D01*
X209918523Y-83594961D02*
X209823285Y-83690200D01*
X209823285Y-83690200D02*
X209728047Y-83737819D01*
X209728047Y-83737819D02*
X209537571Y-83737819D01*
X210347095Y-82833057D02*
X210394714Y-82785438D01*
X210394714Y-82785438D02*
X210489952Y-82737819D01*
X210489952Y-82737819D02*
X210728047Y-82737819D01*
X210728047Y-82737819D02*
X210823285Y-82785438D01*
X210823285Y-82785438D02*
X210870904Y-82833057D01*
X210870904Y-82833057D02*
X210918523Y-82928295D01*
X210918523Y-82928295D02*
X210918523Y-83023533D01*
X210918523Y-83023533D02*
X210870904Y-83166390D01*
X210870904Y-83166390D02*
X210299476Y-83737819D01*
X210299476Y-83737819D02*
X210918523Y-83737819D01*
X207626048Y-87824819D02*
X207626048Y-88634342D01*
X207626048Y-88634342D02*
X207673667Y-88729580D01*
X207673667Y-88729580D02*
X207721286Y-88777200D01*
X207721286Y-88777200D02*
X207816524Y-88824819D01*
X207816524Y-88824819D02*
X208007000Y-88824819D01*
X208007000Y-88824819D02*
X208102238Y-88777200D01*
X208102238Y-88777200D02*
X208149857Y-88729580D01*
X208149857Y-88729580D02*
X208197476Y-88634342D01*
X208197476Y-88634342D02*
X208197476Y-87824819D01*
X208673667Y-88824819D02*
X208673667Y-87824819D01*
X208673667Y-87824819D02*
X209007000Y-88539104D01*
X209007000Y-88539104D02*
X209340333Y-87824819D01*
X209340333Y-87824819D02*
X209340333Y-88824819D01*
X209816524Y-88824819D02*
X209816524Y-87824819D01*
X209816524Y-88301009D02*
X210387952Y-88301009D01*
X210387952Y-88824819D02*
X210387952Y-87824819D01*
X210768905Y-87824819D02*
X211387952Y-87824819D01*
X211387952Y-87824819D02*
X211054619Y-88205771D01*
X211054619Y-88205771D02*
X211197476Y-88205771D01*
X211197476Y-88205771D02*
X211292714Y-88253390D01*
X211292714Y-88253390D02*
X211340333Y-88301009D01*
X211340333Y-88301009D02*
X211387952Y-88396247D01*
X211387952Y-88396247D02*
X211387952Y-88634342D01*
X211387952Y-88634342D02*
X211340333Y-88729580D01*
X211340333Y-88729580D02*
X211292714Y-88777200D01*
X211292714Y-88777200D02*
X211197476Y-88824819D01*
X211197476Y-88824819D02*
X210911762Y-88824819D01*
X210911762Y-88824819D02*
X210816524Y-88777200D01*
X210816524Y-88777200D02*
X210768905Y-88729580D01*
X211816524Y-88824819D02*
X211816524Y-87824819D01*
X211816524Y-87824819D02*
X212387952Y-88824819D01*
X212387952Y-88824819D02*
X212387952Y-87824819D01*
X188441667Y-82453200D02*
X188584524Y-82500819D01*
X188584524Y-82500819D02*
X188822619Y-82500819D01*
X188822619Y-82500819D02*
X188917857Y-82453200D01*
X188917857Y-82453200D02*
X188965476Y-82405580D01*
X188965476Y-82405580D02*
X189013095Y-82310342D01*
X189013095Y-82310342D02*
X189013095Y-82215104D01*
X189013095Y-82215104D02*
X188965476Y-82119866D01*
X188965476Y-82119866D02*
X188917857Y-82072247D01*
X188917857Y-82072247D02*
X188822619Y-82024628D01*
X188822619Y-82024628D02*
X188632143Y-81977009D01*
X188632143Y-81977009D02*
X188536905Y-81929390D01*
X188536905Y-81929390D02*
X188489286Y-81881771D01*
X188489286Y-81881771D02*
X188441667Y-81786533D01*
X188441667Y-81786533D02*
X188441667Y-81691295D01*
X188441667Y-81691295D02*
X188489286Y-81596057D01*
X188489286Y-81596057D02*
X188536905Y-81548438D01*
X188536905Y-81548438D02*
X188632143Y-81500819D01*
X188632143Y-81500819D02*
X188870238Y-81500819D01*
X188870238Y-81500819D02*
X189013095Y-81548438D01*
X189346429Y-81500819D02*
X189584524Y-82500819D01*
X189584524Y-82500819D02*
X189775000Y-81786533D01*
X189775000Y-81786533D02*
X189965476Y-82500819D01*
X189965476Y-82500819D02*
X190203572Y-81500819D01*
X191060714Y-81500819D02*
X190584524Y-81500819D01*
X190584524Y-81500819D02*
X190536905Y-81977009D01*
X190536905Y-81977009D02*
X190584524Y-81929390D01*
X190584524Y-81929390D02*
X190679762Y-81881771D01*
X190679762Y-81881771D02*
X190917857Y-81881771D01*
X190917857Y-81881771D02*
X191013095Y-81929390D01*
X191013095Y-81929390D02*
X191060714Y-81977009D01*
X191060714Y-81977009D02*
X191108333Y-82072247D01*
X191108333Y-82072247D02*
X191108333Y-82310342D01*
X191108333Y-82310342D02*
X191060714Y-82405580D01*
X191060714Y-82405580D02*
X191013095Y-82453200D01*
X191013095Y-82453200D02*
X190917857Y-82500819D01*
X190917857Y-82500819D02*
X190679762Y-82500819D01*
X190679762Y-82500819D02*
X190584524Y-82453200D01*
X190584524Y-82453200D02*
X190536905Y-82405580D01*
X188486904Y-91050819D02*
X188153571Y-90574628D01*
X187915476Y-91050819D02*
X187915476Y-90050819D01*
X187915476Y-90050819D02*
X188296428Y-90050819D01*
X188296428Y-90050819D02*
X188391666Y-90098438D01*
X188391666Y-90098438D02*
X188439285Y-90146057D01*
X188439285Y-90146057D02*
X188486904Y-90241295D01*
X188486904Y-90241295D02*
X188486904Y-90384152D01*
X188486904Y-90384152D02*
X188439285Y-90479390D01*
X188439285Y-90479390D02*
X188391666Y-90527009D01*
X188391666Y-90527009D02*
X188296428Y-90574628D01*
X188296428Y-90574628D02*
X187915476Y-90574628D01*
X189296428Y-91003200D02*
X189201190Y-91050819D01*
X189201190Y-91050819D02*
X189010714Y-91050819D01*
X189010714Y-91050819D02*
X188915476Y-91003200D01*
X188915476Y-91003200D02*
X188867857Y-90907961D01*
X188867857Y-90907961D02*
X188867857Y-90527009D01*
X188867857Y-90527009D02*
X188915476Y-90431771D01*
X188915476Y-90431771D02*
X189010714Y-90384152D01*
X189010714Y-90384152D02*
X189201190Y-90384152D01*
X189201190Y-90384152D02*
X189296428Y-90431771D01*
X189296428Y-90431771D02*
X189344047Y-90527009D01*
X189344047Y-90527009D02*
X189344047Y-90622247D01*
X189344047Y-90622247D02*
X188867857Y-90717485D01*
X189725000Y-91003200D02*
X189820238Y-91050819D01*
X189820238Y-91050819D02*
X190010714Y-91050819D01*
X190010714Y-91050819D02*
X190105952Y-91003200D01*
X190105952Y-91003200D02*
X190153571Y-90907961D01*
X190153571Y-90907961D02*
X190153571Y-90860342D01*
X190153571Y-90860342D02*
X190105952Y-90765104D01*
X190105952Y-90765104D02*
X190010714Y-90717485D01*
X190010714Y-90717485D02*
X189867857Y-90717485D01*
X189867857Y-90717485D02*
X189772619Y-90669866D01*
X189772619Y-90669866D02*
X189725000Y-90574628D01*
X189725000Y-90574628D02*
X189725000Y-90527009D01*
X189725000Y-90527009D02*
X189772619Y-90431771D01*
X189772619Y-90431771D02*
X189867857Y-90384152D01*
X189867857Y-90384152D02*
X190010714Y-90384152D01*
X190010714Y-90384152D02*
X190105952Y-90431771D01*
X190963095Y-91003200D02*
X190867857Y-91050819D01*
X190867857Y-91050819D02*
X190677381Y-91050819D01*
X190677381Y-91050819D02*
X190582143Y-91003200D01*
X190582143Y-91003200D02*
X190534524Y-90907961D01*
X190534524Y-90907961D02*
X190534524Y-90527009D01*
X190534524Y-90527009D02*
X190582143Y-90431771D01*
X190582143Y-90431771D02*
X190677381Y-90384152D01*
X190677381Y-90384152D02*
X190867857Y-90384152D01*
X190867857Y-90384152D02*
X190963095Y-90431771D01*
X190963095Y-90431771D02*
X191010714Y-90527009D01*
X191010714Y-90527009D02*
X191010714Y-90622247D01*
X191010714Y-90622247D02*
X190534524Y-90717485D01*
X191296429Y-90384152D02*
X191677381Y-90384152D01*
X191439286Y-90050819D02*
X191439286Y-90907961D01*
X191439286Y-90907961D02*
X191486905Y-91003200D01*
X191486905Y-91003200D02*
X191582143Y-91050819D01*
X191582143Y-91050819D02*
X191677381Y-91050819D01*
X147125333Y-113589580D02*
X147077714Y-113637200D01*
X147077714Y-113637200D02*
X146934857Y-113684819D01*
X146934857Y-113684819D02*
X146839619Y-113684819D01*
X146839619Y-113684819D02*
X146696762Y-113637200D01*
X146696762Y-113637200D02*
X146601524Y-113541961D01*
X146601524Y-113541961D02*
X146553905Y-113446723D01*
X146553905Y-113446723D02*
X146506286Y-113256247D01*
X146506286Y-113256247D02*
X146506286Y-113113390D01*
X146506286Y-113113390D02*
X146553905Y-112922914D01*
X146553905Y-112922914D02*
X146601524Y-112827676D01*
X146601524Y-112827676D02*
X146696762Y-112732438D01*
X146696762Y-112732438D02*
X146839619Y-112684819D01*
X146839619Y-112684819D02*
X146934857Y-112684819D01*
X146934857Y-112684819D02*
X147077714Y-112732438D01*
X147077714Y-112732438D02*
X147125333Y-112780057D01*
X147982476Y-112684819D02*
X147792000Y-112684819D01*
X147792000Y-112684819D02*
X147696762Y-112732438D01*
X147696762Y-112732438D02*
X147649143Y-112780057D01*
X147649143Y-112780057D02*
X147553905Y-112922914D01*
X147553905Y-112922914D02*
X147506286Y-113113390D01*
X147506286Y-113113390D02*
X147506286Y-113494342D01*
X147506286Y-113494342D02*
X147553905Y-113589580D01*
X147553905Y-113589580D02*
X147601524Y-113637200D01*
X147601524Y-113637200D02*
X147696762Y-113684819D01*
X147696762Y-113684819D02*
X147887238Y-113684819D01*
X147887238Y-113684819D02*
X147982476Y-113637200D01*
X147982476Y-113637200D02*
X148030095Y-113589580D01*
X148030095Y-113589580D02*
X148077714Y-113494342D01*
X148077714Y-113494342D02*
X148077714Y-113256247D01*
X148077714Y-113256247D02*
X148030095Y-113161009D01*
X148030095Y-113161009D02*
X147982476Y-113113390D01*
X147982476Y-113113390D02*
X147887238Y-113065771D01*
X147887238Y-113065771D02*
X147696762Y-113065771D01*
X147696762Y-113065771D02*
X147601524Y-113113390D01*
X147601524Y-113113390D02*
X147553905Y-113161009D01*
X147553905Y-113161009D02*
X147506286Y-113256247D01*
X149544737Y-111434819D02*
X148973309Y-111434819D01*
X149259023Y-111434819D02*
X149259023Y-110434819D01*
X149259023Y-110434819D02*
X149163785Y-110577676D01*
X149163785Y-110577676D02*
X149068547Y-110672914D01*
X149068547Y-110672914D02*
X148973309Y-110720533D01*
X150163785Y-110434819D02*
X150259023Y-110434819D01*
X150259023Y-110434819D02*
X150354261Y-110482438D01*
X150354261Y-110482438D02*
X150401880Y-110530057D01*
X150401880Y-110530057D02*
X150449499Y-110625295D01*
X150449499Y-110625295D02*
X150497118Y-110815771D01*
X150497118Y-110815771D02*
X150497118Y-111053866D01*
X150497118Y-111053866D02*
X150449499Y-111244342D01*
X150449499Y-111244342D02*
X150401880Y-111339580D01*
X150401880Y-111339580D02*
X150354261Y-111387200D01*
X150354261Y-111387200D02*
X150259023Y-111434819D01*
X150259023Y-111434819D02*
X150163785Y-111434819D01*
X150163785Y-111434819D02*
X150068547Y-111387200D01*
X150068547Y-111387200D02*
X150020928Y-111339580D01*
X150020928Y-111339580D02*
X149973309Y-111244342D01*
X149973309Y-111244342D02*
X149925690Y-111053866D01*
X149925690Y-111053866D02*
X149925690Y-110815771D01*
X149925690Y-110815771D02*
X149973309Y-110625295D01*
X149973309Y-110625295D02*
X150020928Y-110530057D01*
X150020928Y-110530057D02*
X150068547Y-110482438D01*
X150068547Y-110482438D02*
X150163785Y-110434819D01*
X151116166Y-110434819D02*
X151211404Y-110434819D01*
X151211404Y-110434819D02*
X151306642Y-110482438D01*
X151306642Y-110482438D02*
X151354261Y-110530057D01*
X151354261Y-110530057D02*
X151401880Y-110625295D01*
X151401880Y-110625295D02*
X151449499Y-110815771D01*
X151449499Y-110815771D02*
X151449499Y-111053866D01*
X151449499Y-111053866D02*
X151401880Y-111244342D01*
X151401880Y-111244342D02*
X151354261Y-111339580D01*
X151354261Y-111339580D02*
X151306642Y-111387200D01*
X151306642Y-111387200D02*
X151211404Y-111434819D01*
X151211404Y-111434819D02*
X151116166Y-111434819D01*
X151116166Y-111434819D02*
X151020928Y-111387200D01*
X151020928Y-111387200D02*
X150973309Y-111339580D01*
X150973309Y-111339580D02*
X150925690Y-111244342D01*
X150925690Y-111244342D02*
X150878071Y-111053866D01*
X150878071Y-111053866D02*
X150878071Y-110815771D01*
X150878071Y-110815771D02*
X150925690Y-110625295D01*
X150925690Y-110625295D02*
X150973309Y-110530057D01*
X150973309Y-110530057D02*
X151020928Y-110482438D01*
X151020928Y-110482438D02*
X151116166Y-110434819D01*
X151878071Y-110768152D02*
X151878071Y-111434819D01*
X151878071Y-110863390D02*
X151925690Y-110815771D01*
X151925690Y-110815771D02*
X152020928Y-110768152D01*
X152020928Y-110768152D02*
X152163785Y-110768152D01*
X152163785Y-110768152D02*
X152259023Y-110815771D01*
X152259023Y-110815771D02*
X152306642Y-110911009D01*
X152306642Y-110911009D02*
X152306642Y-111434819D01*
X152639976Y-110768152D02*
X153020928Y-110768152D01*
X152782833Y-111434819D02*
X152782833Y-110577676D01*
X152782833Y-110577676D02*
X152830452Y-110482438D01*
X152830452Y-110482438D02*
X152925690Y-110434819D01*
X152925690Y-110434819D02*
X153020928Y-110434819D01*
X180126666Y-81987819D02*
X180126666Y-82702104D01*
X180126666Y-82702104D02*
X180079047Y-82844961D01*
X180079047Y-82844961D02*
X179983809Y-82940200D01*
X179983809Y-82940200D02*
X179840952Y-82987819D01*
X179840952Y-82987819D02*
X179745714Y-82987819D01*
X180602857Y-82987819D02*
X180602857Y-81987819D01*
X180602857Y-81987819D02*
X180983809Y-81987819D01*
X180983809Y-81987819D02*
X181079047Y-82035438D01*
X181079047Y-82035438D02*
X181126666Y-82083057D01*
X181126666Y-82083057D02*
X181174285Y-82178295D01*
X181174285Y-82178295D02*
X181174285Y-82321152D01*
X181174285Y-82321152D02*
X181126666Y-82416390D01*
X181126666Y-82416390D02*
X181079047Y-82464009D01*
X181079047Y-82464009D02*
X180983809Y-82511628D01*
X180983809Y-82511628D02*
X180602857Y-82511628D01*
X181555238Y-82083057D02*
X181602857Y-82035438D01*
X181602857Y-82035438D02*
X181698095Y-81987819D01*
X181698095Y-81987819D02*
X181936190Y-81987819D01*
X181936190Y-81987819D02*
X182031428Y-82035438D01*
X182031428Y-82035438D02*
X182079047Y-82083057D01*
X182079047Y-82083057D02*
X182126666Y-82178295D01*
X182126666Y-82178295D02*
X182126666Y-82273533D01*
X182126666Y-82273533D02*
X182079047Y-82416390D01*
X182079047Y-82416390D02*
X181507619Y-82987819D01*
X181507619Y-82987819D02*
X182126666Y-82987819D01*
X179721904Y-90955819D02*
X179388571Y-90479628D01*
X179150476Y-90955819D02*
X179150476Y-89955819D01*
X179150476Y-89955819D02*
X179531428Y-89955819D01*
X179531428Y-89955819D02*
X179626666Y-90003438D01*
X179626666Y-90003438D02*
X179674285Y-90051057D01*
X179674285Y-90051057D02*
X179721904Y-90146295D01*
X179721904Y-90146295D02*
X179721904Y-90289152D01*
X179721904Y-90289152D02*
X179674285Y-90384390D01*
X179674285Y-90384390D02*
X179626666Y-90432009D01*
X179626666Y-90432009D02*
X179531428Y-90479628D01*
X179531428Y-90479628D02*
X179150476Y-90479628D01*
X180531428Y-90908200D02*
X180436190Y-90955819D01*
X180436190Y-90955819D02*
X180245714Y-90955819D01*
X180245714Y-90955819D02*
X180150476Y-90908200D01*
X180150476Y-90908200D02*
X180102857Y-90812961D01*
X180102857Y-90812961D02*
X180102857Y-90432009D01*
X180102857Y-90432009D02*
X180150476Y-90336771D01*
X180150476Y-90336771D02*
X180245714Y-90289152D01*
X180245714Y-90289152D02*
X180436190Y-90289152D01*
X180436190Y-90289152D02*
X180531428Y-90336771D01*
X180531428Y-90336771D02*
X180579047Y-90432009D01*
X180579047Y-90432009D02*
X180579047Y-90527247D01*
X180579047Y-90527247D02*
X180102857Y-90622485D01*
X180960000Y-90908200D02*
X181055238Y-90955819D01*
X181055238Y-90955819D02*
X181245714Y-90955819D01*
X181245714Y-90955819D02*
X181340952Y-90908200D01*
X181340952Y-90908200D02*
X181388571Y-90812961D01*
X181388571Y-90812961D02*
X181388571Y-90765342D01*
X181388571Y-90765342D02*
X181340952Y-90670104D01*
X181340952Y-90670104D02*
X181245714Y-90622485D01*
X181245714Y-90622485D02*
X181102857Y-90622485D01*
X181102857Y-90622485D02*
X181007619Y-90574866D01*
X181007619Y-90574866D02*
X180960000Y-90479628D01*
X180960000Y-90479628D02*
X180960000Y-90432009D01*
X180960000Y-90432009D02*
X181007619Y-90336771D01*
X181007619Y-90336771D02*
X181102857Y-90289152D01*
X181102857Y-90289152D02*
X181245714Y-90289152D01*
X181245714Y-90289152D02*
X181340952Y-90336771D01*
X182198095Y-90908200D02*
X182102857Y-90955819D01*
X182102857Y-90955819D02*
X181912381Y-90955819D01*
X181912381Y-90955819D02*
X181817143Y-90908200D01*
X181817143Y-90908200D02*
X181769524Y-90812961D01*
X181769524Y-90812961D02*
X181769524Y-90432009D01*
X181769524Y-90432009D02*
X181817143Y-90336771D01*
X181817143Y-90336771D02*
X181912381Y-90289152D01*
X181912381Y-90289152D02*
X182102857Y-90289152D01*
X182102857Y-90289152D02*
X182198095Y-90336771D01*
X182198095Y-90336771D02*
X182245714Y-90432009D01*
X182245714Y-90432009D02*
X182245714Y-90527247D01*
X182245714Y-90527247D02*
X181769524Y-90622485D01*
X182531429Y-90289152D02*
X182912381Y-90289152D01*
X182674286Y-89955819D02*
X182674286Y-90812961D01*
X182674286Y-90812961D02*
X182721905Y-90908200D01*
X182721905Y-90908200D02*
X182817143Y-90955819D01*
X182817143Y-90955819D02*
X182912381Y-90955819D01*
X241606819Y-116751333D02*
X242321104Y-116751333D01*
X242321104Y-116751333D02*
X242463961Y-116798952D01*
X242463961Y-116798952D02*
X242559200Y-116894190D01*
X242559200Y-116894190D02*
X242606819Y-117037047D01*
X242606819Y-117037047D02*
X242606819Y-117132285D01*
X242606819Y-115751333D02*
X242606819Y-116322761D01*
X242606819Y-116037047D02*
X241606819Y-116037047D01*
X241606819Y-116037047D02*
X241749676Y-116132285D01*
X241749676Y-116132285D02*
X241844914Y-116227523D01*
X241844914Y-116227523D02*
X241892533Y-116322761D01*
X233933009Y-120632285D02*
X233980628Y-120489428D01*
X233980628Y-120489428D02*
X234028247Y-120441809D01*
X234028247Y-120441809D02*
X234123485Y-120394190D01*
X234123485Y-120394190D02*
X234266342Y-120394190D01*
X234266342Y-120394190D02*
X234361580Y-120441809D01*
X234361580Y-120441809D02*
X234409200Y-120489428D01*
X234409200Y-120489428D02*
X234456819Y-120584666D01*
X234456819Y-120584666D02*
X234456819Y-120965618D01*
X234456819Y-120965618D02*
X233456819Y-120965618D01*
X233456819Y-120965618D02*
X233456819Y-120632285D01*
X233456819Y-120632285D02*
X233504438Y-120537047D01*
X233504438Y-120537047D02*
X233552057Y-120489428D01*
X233552057Y-120489428D02*
X233647295Y-120441809D01*
X233647295Y-120441809D02*
X233742533Y-120441809D01*
X233742533Y-120441809D02*
X233837771Y-120489428D01*
X233837771Y-120489428D02*
X233885390Y-120537047D01*
X233885390Y-120537047D02*
X233933009Y-120632285D01*
X233933009Y-120632285D02*
X233933009Y-120965618D01*
X234456819Y-119965618D02*
X233456819Y-119965618D01*
X233933009Y-119965618D02*
X233933009Y-119394190D01*
X234456819Y-119394190D02*
X233456819Y-119394190D01*
X234456819Y-117632285D02*
X234456819Y-118203713D01*
X234456819Y-117917999D02*
X233456819Y-117917999D01*
X233456819Y-117917999D02*
X233599676Y-118013237D01*
X233599676Y-118013237D02*
X233694914Y-118108475D01*
X233694914Y-118108475D02*
X233742533Y-118203713D01*
X233456819Y-117298951D02*
X233456819Y-116632285D01*
X233456819Y-116632285D02*
X234456819Y-117060856D01*
X233456819Y-115775142D02*
X233456819Y-116251332D01*
X233456819Y-116251332D02*
X233933009Y-116298951D01*
X233933009Y-116298951D02*
X233885390Y-116251332D01*
X233885390Y-116251332D02*
X233837771Y-116156094D01*
X233837771Y-116156094D02*
X233837771Y-115917999D01*
X233837771Y-115917999D02*
X233885390Y-115822761D01*
X233885390Y-115822761D02*
X233933009Y-115775142D01*
X233933009Y-115775142D02*
X234028247Y-115727523D01*
X234028247Y-115727523D02*
X234266342Y-115727523D01*
X234266342Y-115727523D02*
X234361580Y-115775142D01*
X234361580Y-115775142D02*
X234409200Y-115822761D01*
X234409200Y-115822761D02*
X234456819Y-115917999D01*
X234456819Y-115917999D02*
X234456819Y-116156094D01*
X234456819Y-116156094D02*
X234409200Y-116251332D01*
X234409200Y-116251332D02*
X234361580Y-116298951D01*
X233456819Y-115108475D02*
X233456819Y-115013237D01*
X233456819Y-115013237D02*
X233504438Y-114917999D01*
X233504438Y-114917999D02*
X233552057Y-114870380D01*
X233552057Y-114870380D02*
X233647295Y-114822761D01*
X233647295Y-114822761D02*
X233837771Y-114775142D01*
X233837771Y-114775142D02*
X234075866Y-114775142D01*
X234075866Y-114775142D02*
X234266342Y-114822761D01*
X234266342Y-114822761D02*
X234361580Y-114870380D01*
X234361580Y-114870380D02*
X234409200Y-114917999D01*
X234409200Y-114917999D02*
X234456819Y-115013237D01*
X234456819Y-115013237D02*
X234456819Y-115108475D01*
X234456819Y-115108475D02*
X234409200Y-115203713D01*
X234409200Y-115203713D02*
X234361580Y-115251332D01*
X234361580Y-115251332D02*
X234266342Y-115298951D01*
X234266342Y-115298951D02*
X234075866Y-115346570D01*
X234075866Y-115346570D02*
X233837771Y-115346570D01*
X233837771Y-115346570D02*
X233647295Y-115298951D01*
X233647295Y-115298951D02*
X233552057Y-115251332D01*
X233552057Y-115251332D02*
X233504438Y-115203713D01*
X233504438Y-115203713D02*
X233456819Y-115108475D01*
X233933009Y-113251332D02*
X233933009Y-113584665D01*
X234456819Y-113584665D02*
X233456819Y-113584665D01*
X233456819Y-113584665D02*
X233456819Y-113108475D01*
X233456819Y-112870379D02*
X234456819Y-112537046D01*
X234456819Y-112537046D02*
X233456819Y-112203713D01*
X234456819Y-111870379D02*
X233456819Y-111870379D01*
X192086819Y-100251333D02*
X192801104Y-100251333D01*
X192801104Y-100251333D02*
X192943961Y-100298952D01*
X192943961Y-100298952D02*
X193039200Y-100394190D01*
X193039200Y-100394190D02*
X193086819Y-100537047D01*
X193086819Y-100537047D02*
X193086819Y-100632285D01*
X192086819Y-99870380D02*
X192086819Y-99251333D01*
X192086819Y-99251333D02*
X192467771Y-99584666D01*
X192467771Y-99584666D02*
X192467771Y-99441809D01*
X192467771Y-99441809D02*
X192515390Y-99346571D01*
X192515390Y-99346571D02*
X192563009Y-99298952D01*
X192563009Y-99298952D02*
X192658247Y-99251333D01*
X192658247Y-99251333D02*
X192896342Y-99251333D01*
X192896342Y-99251333D02*
X192991580Y-99298952D01*
X192991580Y-99298952D02*
X193039200Y-99346571D01*
X193039200Y-99346571D02*
X193086819Y-99441809D01*
X193086819Y-99441809D02*
X193086819Y-99727523D01*
X193086819Y-99727523D02*
X193039200Y-99822761D01*
X193039200Y-99822761D02*
X192991580Y-99870380D01*
X183587333Y-116736819D02*
X183254000Y-116260628D01*
X183015905Y-116736819D02*
X183015905Y-115736819D01*
X183015905Y-115736819D02*
X183396857Y-115736819D01*
X183396857Y-115736819D02*
X183492095Y-115784438D01*
X183492095Y-115784438D02*
X183539714Y-115832057D01*
X183539714Y-115832057D02*
X183587333Y-115927295D01*
X183587333Y-115927295D02*
X183587333Y-116070152D01*
X183587333Y-116070152D02*
X183539714Y-116165390D01*
X183539714Y-116165390D02*
X183492095Y-116213009D01*
X183492095Y-116213009D02*
X183396857Y-116260628D01*
X183396857Y-116260628D02*
X183015905Y-116260628D01*
X184492095Y-115736819D02*
X184015905Y-115736819D01*
X184015905Y-115736819D02*
X183968286Y-116213009D01*
X183968286Y-116213009D02*
X184015905Y-116165390D01*
X184015905Y-116165390D02*
X184111143Y-116117771D01*
X184111143Y-116117771D02*
X184349238Y-116117771D01*
X184349238Y-116117771D02*
X184444476Y-116165390D01*
X184444476Y-116165390D02*
X184492095Y-116213009D01*
X184492095Y-116213009D02*
X184539714Y-116308247D01*
X184539714Y-116308247D02*
X184539714Y-116546342D01*
X184539714Y-116546342D02*
X184492095Y-116641580D01*
X184492095Y-116641580D02*
X184444476Y-116689200D01*
X184444476Y-116689200D02*
X184349238Y-116736819D01*
X184349238Y-116736819D02*
X184111143Y-116736819D01*
X184111143Y-116736819D02*
X184015905Y-116689200D01*
X184015905Y-116689200D02*
X183968286Y-116641580D01*
X190334286Y-115705057D02*
X190381905Y-115657438D01*
X190381905Y-115657438D02*
X190477143Y-115609819D01*
X190477143Y-115609819D02*
X190715238Y-115609819D01*
X190715238Y-115609819D02*
X190810476Y-115657438D01*
X190810476Y-115657438D02*
X190858095Y-115705057D01*
X190858095Y-115705057D02*
X190905714Y-115800295D01*
X190905714Y-115800295D02*
X190905714Y-115895533D01*
X190905714Y-115895533D02*
X190858095Y-116038390D01*
X190858095Y-116038390D02*
X190286667Y-116609819D01*
X190286667Y-116609819D02*
X190905714Y-116609819D01*
X191334286Y-116609819D02*
X191334286Y-115609819D01*
X191905714Y-116609819D02*
X191477143Y-116038390D01*
X191905714Y-115609819D02*
X191334286Y-116181247D01*
X164524819Y-84280333D02*
X165239104Y-84280333D01*
X165239104Y-84280333D02*
X165381961Y-84327952D01*
X165381961Y-84327952D02*
X165477200Y-84423190D01*
X165477200Y-84423190D02*
X165524819Y-84566047D01*
X165524819Y-84566047D02*
X165524819Y-84661285D01*
X164524819Y-83327952D02*
X164524819Y-83804142D01*
X164524819Y-83804142D02*
X165001009Y-83851761D01*
X165001009Y-83851761D02*
X164953390Y-83804142D01*
X164953390Y-83804142D02*
X164905771Y-83708904D01*
X164905771Y-83708904D02*
X164905771Y-83470809D01*
X164905771Y-83470809D02*
X164953390Y-83375571D01*
X164953390Y-83375571D02*
X165001009Y-83327952D01*
X165001009Y-83327952D02*
X165096247Y-83280333D01*
X165096247Y-83280333D02*
X165334342Y-83280333D01*
X165334342Y-83280333D02*
X165429580Y-83327952D01*
X165429580Y-83327952D02*
X165477200Y-83375571D01*
X165477200Y-83375571D02*
X165524819Y-83470809D01*
X165524819Y-83470809D02*
X165524819Y-83708904D01*
X165524819Y-83708904D02*
X165477200Y-83804142D01*
X165477200Y-83804142D02*
X165429580Y-83851761D01*
X164143819Y-99622904D02*
X164143819Y-99051476D01*
X165143819Y-99337190D02*
X164143819Y-99337190D01*
X165143819Y-98718142D02*
X164143819Y-98718142D01*
X164143819Y-98718142D02*
X164143819Y-98337190D01*
X164143819Y-98337190D02*
X164191438Y-98241952D01*
X164191438Y-98241952D02*
X164239057Y-98194333D01*
X164239057Y-98194333D02*
X164334295Y-98146714D01*
X164334295Y-98146714D02*
X164477152Y-98146714D01*
X164477152Y-98146714D02*
X164572390Y-98194333D01*
X164572390Y-98194333D02*
X164620009Y-98241952D01*
X164620009Y-98241952D02*
X164667628Y-98337190D01*
X164667628Y-98337190D02*
X164667628Y-98718142D01*
X164477152Y-97289571D02*
X165143819Y-97289571D01*
X164096200Y-97527666D02*
X164810485Y-97765761D01*
X164810485Y-97765761D02*
X164810485Y-97146714D01*
X164143819Y-96575285D02*
X164143819Y-96480047D01*
X164143819Y-96480047D02*
X164191438Y-96384809D01*
X164191438Y-96384809D02*
X164239057Y-96337190D01*
X164239057Y-96337190D02*
X164334295Y-96289571D01*
X164334295Y-96289571D02*
X164524771Y-96241952D01*
X164524771Y-96241952D02*
X164762866Y-96241952D01*
X164762866Y-96241952D02*
X164953342Y-96289571D01*
X164953342Y-96289571D02*
X165048580Y-96337190D01*
X165048580Y-96337190D02*
X165096200Y-96384809D01*
X165096200Y-96384809D02*
X165143819Y-96480047D01*
X165143819Y-96480047D02*
X165143819Y-96575285D01*
X165143819Y-96575285D02*
X165096200Y-96670523D01*
X165096200Y-96670523D02*
X165048580Y-96718142D01*
X165048580Y-96718142D02*
X164953342Y-96765761D01*
X164953342Y-96765761D02*
X164762866Y-96813380D01*
X164762866Y-96813380D02*
X164524771Y-96813380D01*
X164524771Y-96813380D02*
X164334295Y-96765761D01*
X164334295Y-96765761D02*
X164239057Y-96718142D01*
X164239057Y-96718142D02*
X164191438Y-96670523D01*
X164191438Y-96670523D02*
X164143819Y-96575285D01*
X164143819Y-95337190D02*
X164143819Y-95813380D01*
X164143819Y-95813380D02*
X164620009Y-95860999D01*
X164620009Y-95860999D02*
X164572390Y-95813380D01*
X164572390Y-95813380D02*
X164524771Y-95718142D01*
X164524771Y-95718142D02*
X164524771Y-95480047D01*
X164524771Y-95480047D02*
X164572390Y-95384809D01*
X164572390Y-95384809D02*
X164620009Y-95337190D01*
X164620009Y-95337190D02*
X164715247Y-95289571D01*
X164715247Y-95289571D02*
X164953342Y-95289571D01*
X164953342Y-95289571D02*
X165048580Y-95337190D01*
X165048580Y-95337190D02*
X165096200Y-95384809D01*
X165096200Y-95384809D02*
X165143819Y-95480047D01*
X165143819Y-95480047D02*
X165143819Y-95718142D01*
X165143819Y-95718142D02*
X165096200Y-95813380D01*
X165096200Y-95813380D02*
X165048580Y-95860999D01*
X164143819Y-94432428D02*
X164143819Y-94622904D01*
X164143819Y-94622904D02*
X164191438Y-94718142D01*
X164191438Y-94718142D02*
X164239057Y-94765761D01*
X164239057Y-94765761D02*
X164381914Y-94860999D01*
X164381914Y-94860999D02*
X164572390Y-94908618D01*
X164572390Y-94908618D02*
X164953342Y-94908618D01*
X164953342Y-94908618D02*
X165048580Y-94860999D01*
X165048580Y-94860999D02*
X165096200Y-94813380D01*
X165096200Y-94813380D02*
X165143819Y-94718142D01*
X165143819Y-94718142D02*
X165143819Y-94527666D01*
X165143819Y-94527666D02*
X165096200Y-94432428D01*
X165096200Y-94432428D02*
X165048580Y-94384809D01*
X165048580Y-94384809D02*
X164953342Y-94337190D01*
X164953342Y-94337190D02*
X164715247Y-94337190D01*
X164715247Y-94337190D02*
X164620009Y-94384809D01*
X164620009Y-94384809D02*
X164572390Y-94432428D01*
X164572390Y-94432428D02*
X164524771Y-94527666D01*
X164524771Y-94527666D02*
X164524771Y-94718142D01*
X164524771Y-94718142D02*
X164572390Y-94813380D01*
X164572390Y-94813380D02*
X164620009Y-94860999D01*
X164620009Y-94860999D02*
X164715247Y-94908618D01*
X165143819Y-93146713D02*
X164143819Y-93146713D01*
X164143819Y-93146713D02*
X164858104Y-92813380D01*
X164858104Y-92813380D02*
X164143819Y-92480047D01*
X164143819Y-92480047D02*
X165143819Y-92480047D01*
X165143819Y-91860999D02*
X165096200Y-91956237D01*
X165096200Y-91956237D02*
X165048580Y-92003856D01*
X165048580Y-92003856D02*
X164953342Y-92051475D01*
X164953342Y-92051475D02*
X164667628Y-92051475D01*
X164667628Y-92051475D02*
X164572390Y-92003856D01*
X164572390Y-92003856D02*
X164524771Y-91956237D01*
X164524771Y-91956237D02*
X164477152Y-91860999D01*
X164477152Y-91860999D02*
X164477152Y-91718142D01*
X164477152Y-91718142D02*
X164524771Y-91622904D01*
X164524771Y-91622904D02*
X164572390Y-91575285D01*
X164572390Y-91575285D02*
X164667628Y-91527666D01*
X164667628Y-91527666D02*
X164953342Y-91527666D01*
X164953342Y-91527666D02*
X165048580Y-91575285D01*
X165048580Y-91575285D02*
X165096200Y-91622904D01*
X165096200Y-91622904D02*
X165143819Y-91718142D01*
X165143819Y-91718142D02*
X165143819Y-91860999D01*
X165143819Y-90670523D02*
X164143819Y-90670523D01*
X165096200Y-90670523D02*
X165143819Y-90765761D01*
X165143819Y-90765761D02*
X165143819Y-90956237D01*
X165143819Y-90956237D02*
X165096200Y-91051475D01*
X165096200Y-91051475D02*
X165048580Y-91099094D01*
X165048580Y-91099094D02*
X164953342Y-91146713D01*
X164953342Y-91146713D02*
X164667628Y-91146713D01*
X164667628Y-91146713D02*
X164572390Y-91099094D01*
X164572390Y-91099094D02*
X164524771Y-91051475D01*
X164524771Y-91051475D02*
X164477152Y-90956237D01*
X164477152Y-90956237D02*
X164477152Y-90765761D01*
X164477152Y-90765761D02*
X164524771Y-90670523D01*
X164477152Y-89765761D02*
X165143819Y-89765761D01*
X164477152Y-90194332D02*
X165000961Y-90194332D01*
X165000961Y-90194332D02*
X165096200Y-90146713D01*
X165096200Y-90146713D02*
X165143819Y-90051475D01*
X165143819Y-90051475D02*
X165143819Y-89908618D01*
X165143819Y-89908618D02*
X165096200Y-89813380D01*
X165096200Y-89813380D02*
X165048580Y-89765761D01*
X165143819Y-89146713D02*
X165096200Y-89241951D01*
X165096200Y-89241951D02*
X165000961Y-89289570D01*
X165000961Y-89289570D02*
X164143819Y-89289570D01*
X146991819Y-104636380D02*
X146991819Y-104445904D01*
X146991819Y-104445904D02*
X147039438Y-104350666D01*
X147039438Y-104350666D02*
X147134676Y-104255428D01*
X147134676Y-104255428D02*
X147325152Y-104207809D01*
X147325152Y-104207809D02*
X147658485Y-104207809D01*
X147658485Y-104207809D02*
X147848961Y-104255428D01*
X147848961Y-104255428D02*
X147944200Y-104350666D01*
X147944200Y-104350666D02*
X147991819Y-104445904D01*
X147991819Y-104445904D02*
X147991819Y-104636380D01*
X147991819Y-104636380D02*
X147944200Y-104731618D01*
X147944200Y-104731618D02*
X147848961Y-104826856D01*
X147848961Y-104826856D02*
X147658485Y-104874475D01*
X147658485Y-104874475D02*
X147325152Y-104874475D01*
X147325152Y-104874475D02*
X147134676Y-104826856D01*
X147134676Y-104826856D02*
X147039438Y-104731618D01*
X147039438Y-104731618D02*
X146991819Y-104636380D01*
X147325152Y-103350666D02*
X147991819Y-103350666D01*
X147325152Y-103779237D02*
X147848961Y-103779237D01*
X147848961Y-103779237D02*
X147944200Y-103731618D01*
X147944200Y-103731618D02*
X147991819Y-103636380D01*
X147991819Y-103636380D02*
X147991819Y-103493523D01*
X147991819Y-103493523D02*
X147944200Y-103398285D01*
X147944200Y-103398285D02*
X147896580Y-103350666D01*
X147325152Y-103017332D02*
X147325152Y-102636380D01*
X146991819Y-102874475D02*
X147848961Y-102874475D01*
X147848961Y-102874475D02*
X147944200Y-102826856D01*
X147944200Y-102826856D02*
X147991819Y-102731618D01*
X147991819Y-102731618D02*
X147991819Y-102636380D01*
X147610866Y-102303046D02*
X147610866Y-101541142D01*
X162210866Y-86564951D02*
X162210866Y-85803047D01*
X162591819Y-86183999D02*
X161829914Y-86183999D01*
X150968009Y-104531618D02*
X151015628Y-104388761D01*
X151015628Y-104388761D02*
X151063247Y-104341142D01*
X151063247Y-104341142D02*
X151158485Y-104293523D01*
X151158485Y-104293523D02*
X151301342Y-104293523D01*
X151301342Y-104293523D02*
X151396580Y-104341142D01*
X151396580Y-104341142D02*
X151444200Y-104388761D01*
X151444200Y-104388761D02*
X151491819Y-104483999D01*
X151491819Y-104483999D02*
X151491819Y-104864951D01*
X151491819Y-104864951D02*
X150491819Y-104864951D01*
X150491819Y-104864951D02*
X150491819Y-104531618D01*
X150491819Y-104531618D02*
X150539438Y-104436380D01*
X150539438Y-104436380D02*
X150587057Y-104388761D01*
X150587057Y-104388761D02*
X150682295Y-104341142D01*
X150682295Y-104341142D02*
X150777533Y-104341142D01*
X150777533Y-104341142D02*
X150872771Y-104388761D01*
X150872771Y-104388761D02*
X150920390Y-104436380D01*
X150920390Y-104436380D02*
X150968009Y-104531618D01*
X150968009Y-104531618D02*
X150968009Y-104864951D01*
X151110866Y-103864951D02*
X151110866Y-103103047D01*
X153375095Y-83338819D02*
X153375095Y-84148342D01*
X153375095Y-84148342D02*
X153422714Y-84243580D01*
X153422714Y-84243580D02*
X153470333Y-84291200D01*
X153470333Y-84291200D02*
X153565571Y-84338819D01*
X153565571Y-84338819D02*
X153756047Y-84338819D01*
X153756047Y-84338819D02*
X153851285Y-84291200D01*
X153851285Y-84291200D02*
X153898904Y-84243580D01*
X153898904Y-84243580D02*
X153946523Y-84148342D01*
X153946523Y-84148342D02*
X153946523Y-83338819D01*
X154375095Y-84291200D02*
X154517952Y-84338819D01*
X154517952Y-84338819D02*
X154756047Y-84338819D01*
X154756047Y-84338819D02*
X154851285Y-84291200D01*
X154851285Y-84291200D02*
X154898904Y-84243580D01*
X154898904Y-84243580D02*
X154946523Y-84148342D01*
X154946523Y-84148342D02*
X154946523Y-84053104D01*
X154946523Y-84053104D02*
X154898904Y-83957866D01*
X154898904Y-83957866D02*
X154851285Y-83910247D01*
X154851285Y-83910247D02*
X154756047Y-83862628D01*
X154756047Y-83862628D02*
X154565571Y-83815009D01*
X154565571Y-83815009D02*
X154470333Y-83767390D01*
X154470333Y-83767390D02*
X154422714Y-83719771D01*
X154422714Y-83719771D02*
X154375095Y-83624533D01*
X154375095Y-83624533D02*
X154375095Y-83529295D01*
X154375095Y-83529295D02*
X154422714Y-83434057D01*
X154422714Y-83434057D02*
X154470333Y-83386438D01*
X154470333Y-83386438D02*
X154565571Y-83338819D01*
X154565571Y-83338819D02*
X154803666Y-83338819D01*
X154803666Y-83338819D02*
X154946523Y-83386438D01*
X155708428Y-83815009D02*
X155851285Y-83862628D01*
X155851285Y-83862628D02*
X155898904Y-83910247D01*
X155898904Y-83910247D02*
X155946523Y-84005485D01*
X155946523Y-84005485D02*
X155946523Y-84148342D01*
X155946523Y-84148342D02*
X155898904Y-84243580D01*
X155898904Y-84243580D02*
X155851285Y-84291200D01*
X155851285Y-84291200D02*
X155756047Y-84338819D01*
X155756047Y-84338819D02*
X155375095Y-84338819D01*
X155375095Y-84338819D02*
X155375095Y-83338819D01*
X155375095Y-83338819D02*
X155708428Y-83338819D01*
X155708428Y-83338819D02*
X155803666Y-83386438D01*
X155803666Y-83386438D02*
X155851285Y-83434057D01*
X155851285Y-83434057D02*
X155898904Y-83529295D01*
X155898904Y-83529295D02*
X155898904Y-83624533D01*
X155898904Y-83624533D02*
X155851285Y-83719771D01*
X155851285Y-83719771D02*
X155803666Y-83767390D01*
X155803666Y-83767390D02*
X155708428Y-83815009D01*
X155708428Y-83815009D02*
X155375095Y-83815009D01*
X149539438Y-84845904D02*
X149491819Y-84941142D01*
X149491819Y-84941142D02*
X149491819Y-85083999D01*
X149491819Y-85083999D02*
X149539438Y-85226856D01*
X149539438Y-85226856D02*
X149634676Y-85322094D01*
X149634676Y-85322094D02*
X149729914Y-85369713D01*
X149729914Y-85369713D02*
X149920390Y-85417332D01*
X149920390Y-85417332D02*
X150063247Y-85417332D01*
X150063247Y-85417332D02*
X150253723Y-85369713D01*
X150253723Y-85369713D02*
X150348961Y-85322094D01*
X150348961Y-85322094D02*
X150444200Y-85226856D01*
X150444200Y-85226856D02*
X150491819Y-85083999D01*
X150491819Y-85083999D02*
X150491819Y-84988761D01*
X150491819Y-84988761D02*
X150444200Y-84845904D01*
X150444200Y-84845904D02*
X150396580Y-84798285D01*
X150396580Y-84798285D02*
X150063247Y-84798285D01*
X150063247Y-84798285D02*
X150063247Y-84988761D01*
X150491819Y-84369713D02*
X149491819Y-84369713D01*
X149491819Y-84369713D02*
X150491819Y-83798285D01*
X150491819Y-83798285D02*
X149491819Y-83798285D01*
X150491819Y-83322094D02*
X149491819Y-83322094D01*
X149491819Y-83322094D02*
X149491819Y-83083999D01*
X149491819Y-83083999D02*
X149539438Y-82941142D01*
X149539438Y-82941142D02*
X149634676Y-82845904D01*
X149634676Y-82845904D02*
X149729914Y-82798285D01*
X149729914Y-82798285D02*
X149920390Y-82750666D01*
X149920390Y-82750666D02*
X150063247Y-82750666D01*
X150063247Y-82750666D02*
X150253723Y-82798285D01*
X150253723Y-82798285D02*
X150348961Y-82845904D01*
X150348961Y-82845904D02*
X150444200Y-82941142D01*
X150444200Y-82941142D02*
X150491819Y-83083999D01*
X150491819Y-83083999D02*
X150491819Y-83322094D01*
X158568009Y-104531618D02*
X158615628Y-104388761D01*
X158615628Y-104388761D02*
X158663247Y-104341142D01*
X158663247Y-104341142D02*
X158758485Y-104293523D01*
X158758485Y-104293523D02*
X158901342Y-104293523D01*
X158901342Y-104293523D02*
X158996580Y-104341142D01*
X158996580Y-104341142D02*
X159044200Y-104388761D01*
X159044200Y-104388761D02*
X159091819Y-104483999D01*
X159091819Y-104483999D02*
X159091819Y-104864951D01*
X159091819Y-104864951D02*
X158091819Y-104864951D01*
X158091819Y-104864951D02*
X158091819Y-104531618D01*
X158091819Y-104531618D02*
X158139438Y-104436380D01*
X158139438Y-104436380D02*
X158187057Y-104388761D01*
X158187057Y-104388761D02*
X158282295Y-104341142D01*
X158282295Y-104341142D02*
X158377533Y-104341142D01*
X158377533Y-104341142D02*
X158472771Y-104388761D01*
X158472771Y-104388761D02*
X158520390Y-104436380D01*
X158520390Y-104436380D02*
X158568009Y-104531618D01*
X158568009Y-104531618D02*
X158568009Y-104864951D01*
X158710866Y-103864951D02*
X158710866Y-103103047D01*
X159091819Y-103483999D02*
X158329914Y-103483999D01*
X149507009Y-101384858D02*
X149554628Y-101242001D01*
X149554628Y-101242001D02*
X149602247Y-101194382D01*
X149602247Y-101194382D02*
X149697485Y-101146763D01*
X149697485Y-101146763D02*
X149840342Y-101146763D01*
X149840342Y-101146763D02*
X149935580Y-101194382D01*
X149935580Y-101194382D02*
X149983200Y-101242001D01*
X149983200Y-101242001D02*
X150030819Y-101337239D01*
X150030819Y-101337239D02*
X150030819Y-101718191D01*
X150030819Y-101718191D02*
X149030819Y-101718191D01*
X149030819Y-101718191D02*
X149030819Y-101384858D01*
X149030819Y-101384858D02*
X149078438Y-101289620D01*
X149078438Y-101289620D02*
X149126057Y-101242001D01*
X149126057Y-101242001D02*
X149221295Y-101194382D01*
X149221295Y-101194382D02*
X149316533Y-101194382D01*
X149316533Y-101194382D02*
X149411771Y-101242001D01*
X149411771Y-101242001D02*
X149459390Y-101289620D01*
X149459390Y-101289620D02*
X149507009Y-101384858D01*
X149507009Y-101384858D02*
X149507009Y-101718191D01*
X150030819Y-100289620D02*
X149507009Y-100289620D01*
X149507009Y-100289620D02*
X149411771Y-100337239D01*
X149411771Y-100337239D02*
X149364152Y-100432477D01*
X149364152Y-100432477D02*
X149364152Y-100622953D01*
X149364152Y-100622953D02*
X149411771Y-100718191D01*
X149983200Y-100289620D02*
X150030819Y-100384858D01*
X150030819Y-100384858D02*
X150030819Y-100622953D01*
X150030819Y-100622953D02*
X149983200Y-100718191D01*
X149983200Y-100718191D02*
X149887961Y-100765810D01*
X149887961Y-100765810D02*
X149792723Y-100765810D01*
X149792723Y-100765810D02*
X149697485Y-100718191D01*
X149697485Y-100718191D02*
X149649866Y-100622953D01*
X149649866Y-100622953D02*
X149649866Y-100384858D01*
X149649866Y-100384858D02*
X149602247Y-100289620D01*
X149364152Y-99956286D02*
X149364152Y-99575334D01*
X149030819Y-99813429D02*
X149887961Y-99813429D01*
X149887961Y-99813429D02*
X149983200Y-99765810D01*
X149983200Y-99765810D02*
X150030819Y-99670572D01*
X150030819Y-99670572D02*
X150030819Y-99575334D01*
X149364152Y-99384857D02*
X149364152Y-99003905D01*
X149030819Y-99242000D02*
X149887961Y-99242000D01*
X149887961Y-99242000D02*
X149983200Y-99194381D01*
X149983200Y-99194381D02*
X150030819Y-99099143D01*
X150030819Y-99099143D02*
X150030819Y-99003905D01*
X149983200Y-98289619D02*
X150030819Y-98384857D01*
X150030819Y-98384857D02*
X150030819Y-98575333D01*
X150030819Y-98575333D02*
X149983200Y-98670571D01*
X149983200Y-98670571D02*
X149887961Y-98718190D01*
X149887961Y-98718190D02*
X149507009Y-98718190D01*
X149507009Y-98718190D02*
X149411771Y-98670571D01*
X149411771Y-98670571D02*
X149364152Y-98575333D01*
X149364152Y-98575333D02*
X149364152Y-98384857D01*
X149364152Y-98384857D02*
X149411771Y-98289619D01*
X149411771Y-98289619D02*
X149507009Y-98242000D01*
X149507009Y-98242000D02*
X149602247Y-98242000D01*
X149602247Y-98242000D02*
X149697485Y-98718190D01*
X150030819Y-97813428D02*
X149364152Y-97813428D01*
X149554628Y-97813428D02*
X149459390Y-97765809D01*
X149459390Y-97765809D02*
X149411771Y-97718190D01*
X149411771Y-97718190D02*
X149364152Y-97622952D01*
X149364152Y-97622952D02*
X149364152Y-97527714D01*
X149364152Y-97289618D02*
X150030819Y-97051523D01*
X149364152Y-96813428D02*
X150030819Y-97051523D01*
X150030819Y-97051523D02*
X150268914Y-97146761D01*
X150268914Y-97146761D02*
X150316533Y-97194380D01*
X150316533Y-97194380D02*
X150364152Y-97289618D01*
X149935580Y-95099142D02*
X149983200Y-95146761D01*
X149983200Y-95146761D02*
X150030819Y-95289618D01*
X150030819Y-95289618D02*
X150030819Y-95384856D01*
X150030819Y-95384856D02*
X149983200Y-95527713D01*
X149983200Y-95527713D02*
X149887961Y-95622951D01*
X149887961Y-95622951D02*
X149792723Y-95670570D01*
X149792723Y-95670570D02*
X149602247Y-95718189D01*
X149602247Y-95718189D02*
X149459390Y-95718189D01*
X149459390Y-95718189D02*
X149268914Y-95670570D01*
X149268914Y-95670570D02*
X149173676Y-95622951D01*
X149173676Y-95622951D02*
X149078438Y-95527713D01*
X149078438Y-95527713D02*
X149030819Y-95384856D01*
X149030819Y-95384856D02*
X149030819Y-95289618D01*
X149030819Y-95289618D02*
X149078438Y-95146761D01*
X149078438Y-95146761D02*
X149126057Y-95099142D01*
X150030819Y-94670570D02*
X149030819Y-94670570D01*
X150030819Y-94241999D02*
X149507009Y-94241999D01*
X149507009Y-94241999D02*
X149411771Y-94289618D01*
X149411771Y-94289618D02*
X149364152Y-94384856D01*
X149364152Y-94384856D02*
X149364152Y-94527713D01*
X149364152Y-94527713D02*
X149411771Y-94622951D01*
X149411771Y-94622951D02*
X149459390Y-94670570D01*
X150030819Y-93337237D02*
X149507009Y-93337237D01*
X149507009Y-93337237D02*
X149411771Y-93384856D01*
X149411771Y-93384856D02*
X149364152Y-93480094D01*
X149364152Y-93480094D02*
X149364152Y-93670570D01*
X149364152Y-93670570D02*
X149411771Y-93765808D01*
X149983200Y-93337237D02*
X150030819Y-93432475D01*
X150030819Y-93432475D02*
X150030819Y-93670570D01*
X150030819Y-93670570D02*
X149983200Y-93765808D01*
X149983200Y-93765808D02*
X149887961Y-93813427D01*
X149887961Y-93813427D02*
X149792723Y-93813427D01*
X149792723Y-93813427D02*
X149697485Y-93765808D01*
X149697485Y-93765808D02*
X149649866Y-93670570D01*
X149649866Y-93670570D02*
X149649866Y-93432475D01*
X149649866Y-93432475D02*
X149602247Y-93337237D01*
X150030819Y-92861046D02*
X149364152Y-92861046D01*
X149554628Y-92861046D02*
X149459390Y-92813427D01*
X149459390Y-92813427D02*
X149411771Y-92765808D01*
X149411771Y-92765808D02*
X149364152Y-92670570D01*
X149364152Y-92670570D02*
X149364152Y-92575332D01*
X149364152Y-91813427D02*
X150173676Y-91813427D01*
X150173676Y-91813427D02*
X150268914Y-91861046D01*
X150268914Y-91861046D02*
X150316533Y-91908665D01*
X150316533Y-91908665D02*
X150364152Y-92003903D01*
X150364152Y-92003903D02*
X150364152Y-92146760D01*
X150364152Y-92146760D02*
X150316533Y-92241998D01*
X149983200Y-91813427D02*
X150030819Y-91908665D01*
X150030819Y-91908665D02*
X150030819Y-92099141D01*
X150030819Y-92099141D02*
X149983200Y-92194379D01*
X149983200Y-92194379D02*
X149935580Y-92241998D01*
X149935580Y-92241998D02*
X149840342Y-92289617D01*
X149840342Y-92289617D02*
X149554628Y-92289617D01*
X149554628Y-92289617D02*
X149459390Y-92241998D01*
X149459390Y-92241998D02*
X149411771Y-92194379D01*
X149411771Y-92194379D02*
X149364152Y-92099141D01*
X149364152Y-92099141D02*
X149364152Y-91908665D01*
X149364152Y-91908665D02*
X149411771Y-91813427D01*
X149983200Y-90956284D02*
X150030819Y-91051522D01*
X150030819Y-91051522D02*
X150030819Y-91241998D01*
X150030819Y-91241998D02*
X149983200Y-91337236D01*
X149983200Y-91337236D02*
X149887961Y-91384855D01*
X149887961Y-91384855D02*
X149507009Y-91384855D01*
X149507009Y-91384855D02*
X149411771Y-91337236D01*
X149411771Y-91337236D02*
X149364152Y-91241998D01*
X149364152Y-91241998D02*
X149364152Y-91051522D01*
X149364152Y-91051522D02*
X149411771Y-90956284D01*
X149411771Y-90956284D02*
X149507009Y-90908665D01*
X149507009Y-90908665D02*
X149602247Y-90908665D01*
X149602247Y-90908665D02*
X149697485Y-91384855D01*
X150030819Y-90480093D02*
X149364152Y-90480093D01*
X149554628Y-90480093D02*
X149459390Y-90432474D01*
X149459390Y-90432474D02*
X149411771Y-90384855D01*
X149411771Y-90384855D02*
X149364152Y-90289617D01*
X149364152Y-90289617D02*
X149364152Y-90194379D01*
X150030819Y-88575331D02*
X150030819Y-89146759D01*
X150030819Y-88861045D02*
X149030819Y-88861045D01*
X149030819Y-88861045D02*
X149173676Y-88956283D01*
X149173676Y-88956283D02*
X149268914Y-89051521D01*
X149268914Y-89051521D02*
X149316533Y-89146759D01*
X149745104Y-88194378D02*
X149745104Y-87718188D01*
X150030819Y-88289616D02*
X149030819Y-87956283D01*
X149030819Y-87956283D02*
X150030819Y-87622950D01*
X147010866Y-86664951D02*
X147010866Y-85903047D01*
X161591819Y-104636380D02*
X161591819Y-104445904D01*
X161591819Y-104445904D02*
X161639438Y-104350666D01*
X161639438Y-104350666D02*
X161734676Y-104255428D01*
X161734676Y-104255428D02*
X161925152Y-104207809D01*
X161925152Y-104207809D02*
X162258485Y-104207809D01*
X162258485Y-104207809D02*
X162448961Y-104255428D01*
X162448961Y-104255428D02*
X162544200Y-104350666D01*
X162544200Y-104350666D02*
X162591819Y-104445904D01*
X162591819Y-104445904D02*
X162591819Y-104636380D01*
X162591819Y-104636380D02*
X162544200Y-104731618D01*
X162544200Y-104731618D02*
X162448961Y-104826856D01*
X162448961Y-104826856D02*
X162258485Y-104874475D01*
X162258485Y-104874475D02*
X161925152Y-104874475D01*
X161925152Y-104874475D02*
X161734676Y-104826856D01*
X161734676Y-104826856D02*
X161639438Y-104731618D01*
X161639438Y-104731618D02*
X161591819Y-104636380D01*
X161925152Y-103350666D02*
X162591819Y-103350666D01*
X161925152Y-103779237D02*
X162448961Y-103779237D01*
X162448961Y-103779237D02*
X162544200Y-103731618D01*
X162544200Y-103731618D02*
X162591819Y-103636380D01*
X162591819Y-103636380D02*
X162591819Y-103493523D01*
X162591819Y-103493523D02*
X162544200Y-103398285D01*
X162544200Y-103398285D02*
X162496580Y-103350666D01*
X161925152Y-103017332D02*
X161925152Y-102636380D01*
X161591819Y-102874475D02*
X162448961Y-102874475D01*
X162448961Y-102874475D02*
X162544200Y-102826856D01*
X162544200Y-102826856D02*
X162591819Y-102731618D01*
X162591819Y-102731618D02*
X162591819Y-102636380D01*
X162210866Y-102303046D02*
X162210866Y-101541142D01*
X162591819Y-101922094D02*
X161829914Y-101922094D01*
X159091819Y-84126857D02*
X159091819Y-84603047D01*
X159091819Y-84603047D02*
X159568009Y-84650666D01*
X159568009Y-84650666D02*
X159520390Y-84603047D01*
X159520390Y-84603047D02*
X159472771Y-84507809D01*
X159472771Y-84507809D02*
X159472771Y-84269714D01*
X159472771Y-84269714D02*
X159520390Y-84174476D01*
X159520390Y-84174476D02*
X159568009Y-84126857D01*
X159568009Y-84126857D02*
X159663247Y-84079238D01*
X159663247Y-84079238D02*
X159901342Y-84079238D01*
X159901342Y-84079238D02*
X159996580Y-84126857D01*
X159996580Y-84126857D02*
X160044200Y-84174476D01*
X160044200Y-84174476D02*
X160091819Y-84269714D01*
X160091819Y-84269714D02*
X160091819Y-84507809D01*
X160091819Y-84507809D02*
X160044200Y-84603047D01*
X160044200Y-84603047D02*
X159996580Y-84650666D01*
X159425152Y-83745904D02*
X160091819Y-83507809D01*
X160091819Y-83507809D02*
X159425152Y-83269714D01*
X192223333Y-94130819D02*
X191890000Y-93654628D01*
X191651905Y-94130819D02*
X191651905Y-93130819D01*
X191651905Y-93130819D02*
X192032857Y-93130819D01*
X192032857Y-93130819D02*
X192128095Y-93178438D01*
X192128095Y-93178438D02*
X192175714Y-93226057D01*
X192175714Y-93226057D02*
X192223333Y-93321295D01*
X192223333Y-93321295D02*
X192223333Y-93464152D01*
X192223333Y-93464152D02*
X192175714Y-93559390D01*
X192175714Y-93559390D02*
X192128095Y-93607009D01*
X192128095Y-93607009D02*
X192032857Y-93654628D01*
X192032857Y-93654628D02*
X191651905Y-93654628D01*
X193080476Y-93130819D02*
X192890000Y-93130819D01*
X192890000Y-93130819D02*
X192794762Y-93178438D01*
X192794762Y-93178438D02*
X192747143Y-93226057D01*
X192747143Y-93226057D02*
X192651905Y-93368914D01*
X192651905Y-93368914D02*
X192604286Y-93559390D01*
X192604286Y-93559390D02*
X192604286Y-93940342D01*
X192604286Y-93940342D02*
X192651905Y-94035580D01*
X192651905Y-94035580D02*
X192699524Y-94083200D01*
X192699524Y-94083200D02*
X192794762Y-94130819D01*
X192794762Y-94130819D02*
X192985238Y-94130819D01*
X192985238Y-94130819D02*
X193080476Y-94083200D01*
X193080476Y-94083200D02*
X193128095Y-94035580D01*
X193128095Y-94035580D02*
X193175714Y-93940342D01*
X193175714Y-93940342D02*
X193175714Y-93702247D01*
X193175714Y-93702247D02*
X193128095Y-93607009D01*
X193128095Y-93607009D02*
X193080476Y-93559390D01*
X193080476Y-93559390D02*
X192985238Y-93511771D01*
X192985238Y-93511771D02*
X192794762Y-93511771D01*
X192794762Y-93511771D02*
X192699524Y-93559390D01*
X192699524Y-93559390D02*
X192651905Y-93607009D01*
X192651905Y-93607009D02*
X192604286Y-93702247D01*
X183893523Y-93876819D02*
X183322095Y-93876819D01*
X183607809Y-93876819D02*
X183607809Y-92876819D01*
X183607809Y-92876819D02*
X183512571Y-93019676D01*
X183512571Y-93019676D02*
X183417333Y-93114914D01*
X183417333Y-93114914D02*
X183322095Y-93162533D01*
X184512571Y-92876819D02*
X184607809Y-92876819D01*
X184607809Y-92876819D02*
X184703047Y-92924438D01*
X184703047Y-92924438D02*
X184750666Y-92972057D01*
X184750666Y-92972057D02*
X184798285Y-93067295D01*
X184798285Y-93067295D02*
X184845904Y-93257771D01*
X184845904Y-93257771D02*
X184845904Y-93495866D01*
X184845904Y-93495866D02*
X184798285Y-93686342D01*
X184798285Y-93686342D02*
X184750666Y-93781580D01*
X184750666Y-93781580D02*
X184703047Y-93829200D01*
X184703047Y-93829200D02*
X184607809Y-93876819D01*
X184607809Y-93876819D02*
X184512571Y-93876819D01*
X184512571Y-93876819D02*
X184417333Y-93829200D01*
X184417333Y-93829200D02*
X184369714Y-93781580D01*
X184369714Y-93781580D02*
X184322095Y-93686342D01*
X184322095Y-93686342D02*
X184274476Y-93495866D01*
X184274476Y-93495866D02*
X184274476Y-93257771D01*
X184274476Y-93257771D02*
X184322095Y-93067295D01*
X184322095Y-93067295D02*
X184369714Y-92972057D01*
X184369714Y-92972057D02*
X184417333Y-92924438D01*
X184417333Y-92924438D02*
X184512571Y-92876819D01*
X185274476Y-93876819D02*
X185274476Y-92876819D01*
X185845904Y-93876819D02*
X185417333Y-93305390D01*
X185845904Y-92876819D02*
X185274476Y-93448247D01*
X201340095Y-102314819D02*
X201340095Y-103124342D01*
X201340095Y-103124342D02*
X201387714Y-103219580D01*
X201387714Y-103219580D02*
X201435333Y-103267200D01*
X201435333Y-103267200D02*
X201530571Y-103314819D01*
X201530571Y-103314819D02*
X201721047Y-103314819D01*
X201721047Y-103314819D02*
X201816285Y-103267200D01*
X201816285Y-103267200D02*
X201863904Y-103219580D01*
X201863904Y-103219580D02*
X201911523Y-103124342D01*
X201911523Y-103124342D02*
X201911523Y-102314819D01*
X202292476Y-102314819D02*
X202959142Y-102314819D01*
X202959142Y-102314819D02*
X202530571Y-103314819D01*
X182963905Y-119528819D02*
X182963905Y-118528819D01*
X182963905Y-118528819D02*
X183202000Y-118528819D01*
X183202000Y-118528819D02*
X183344857Y-118576438D01*
X183344857Y-118576438D02*
X183440095Y-118671676D01*
X183440095Y-118671676D02*
X183487714Y-118766914D01*
X183487714Y-118766914D02*
X183535333Y-118957390D01*
X183535333Y-118957390D02*
X183535333Y-119100247D01*
X183535333Y-119100247D02*
X183487714Y-119290723D01*
X183487714Y-119290723D02*
X183440095Y-119385961D01*
X183440095Y-119385961D02*
X183344857Y-119481200D01*
X183344857Y-119481200D02*
X183202000Y-119528819D01*
X183202000Y-119528819D02*
X182963905Y-119528819D01*
X184392476Y-118862152D02*
X184392476Y-119528819D01*
X184154381Y-118481200D02*
X183916286Y-119195485D01*
X183916286Y-119195485D02*
X184535333Y-119195485D01*
X183587333Y-113815819D02*
X183254000Y-113339628D01*
X183015905Y-113815819D02*
X183015905Y-112815819D01*
X183015905Y-112815819D02*
X183396857Y-112815819D01*
X183396857Y-112815819D02*
X183492095Y-112863438D01*
X183492095Y-112863438D02*
X183539714Y-112911057D01*
X183539714Y-112911057D02*
X183587333Y-113006295D01*
X183587333Y-113006295D02*
X183587333Y-113149152D01*
X183587333Y-113149152D02*
X183539714Y-113244390D01*
X183539714Y-113244390D02*
X183492095Y-113292009D01*
X183492095Y-113292009D02*
X183396857Y-113339628D01*
X183396857Y-113339628D02*
X183015905Y-113339628D01*
X184063524Y-113815819D02*
X184254000Y-113815819D01*
X184254000Y-113815819D02*
X184349238Y-113768200D01*
X184349238Y-113768200D02*
X184396857Y-113720580D01*
X184396857Y-113720580D02*
X184492095Y-113577723D01*
X184492095Y-113577723D02*
X184539714Y-113387247D01*
X184539714Y-113387247D02*
X184539714Y-113006295D01*
X184539714Y-113006295D02*
X184492095Y-112911057D01*
X184492095Y-112911057D02*
X184444476Y-112863438D01*
X184444476Y-112863438D02*
X184349238Y-112815819D01*
X184349238Y-112815819D02*
X184158762Y-112815819D01*
X184158762Y-112815819D02*
X184063524Y-112863438D01*
X184063524Y-112863438D02*
X184015905Y-112911057D01*
X184015905Y-112911057D02*
X183968286Y-113006295D01*
X183968286Y-113006295D02*
X183968286Y-113244390D01*
X183968286Y-113244390D02*
X184015905Y-113339628D01*
X184015905Y-113339628D02*
X184063524Y-113387247D01*
X184063524Y-113387247D02*
X184158762Y-113434866D01*
X184158762Y-113434866D02*
X184349238Y-113434866D01*
X184349238Y-113434866D02*
X184444476Y-113387247D01*
X184444476Y-113387247D02*
X184492095Y-113339628D01*
X184492095Y-113339628D02*
X184539714Y-113244390D01*
X190810523Y-113942819D02*
X190239095Y-113942819D01*
X190524809Y-113942819D02*
X190524809Y-112942819D01*
X190524809Y-112942819D02*
X190429571Y-113085676D01*
X190429571Y-113085676D02*
X190334333Y-113180914D01*
X190334333Y-113180914D02*
X190239095Y-113228533D01*
X191429571Y-112942819D02*
X191524809Y-112942819D01*
X191524809Y-112942819D02*
X191620047Y-112990438D01*
X191620047Y-112990438D02*
X191667666Y-113038057D01*
X191667666Y-113038057D02*
X191715285Y-113133295D01*
X191715285Y-113133295D02*
X191762904Y-113323771D01*
X191762904Y-113323771D02*
X191762904Y-113561866D01*
X191762904Y-113561866D02*
X191715285Y-113752342D01*
X191715285Y-113752342D02*
X191667666Y-113847580D01*
X191667666Y-113847580D02*
X191620047Y-113895200D01*
X191620047Y-113895200D02*
X191524809Y-113942819D01*
X191524809Y-113942819D02*
X191429571Y-113942819D01*
X191429571Y-113942819D02*
X191334333Y-113895200D01*
X191334333Y-113895200D02*
X191286714Y-113847580D01*
X191286714Y-113847580D02*
X191239095Y-113752342D01*
X191239095Y-113752342D02*
X191191476Y-113561866D01*
X191191476Y-113561866D02*
X191191476Y-113323771D01*
X191191476Y-113323771D02*
X191239095Y-113133295D01*
X191239095Y-113133295D02*
X191286714Y-113038057D01*
X191286714Y-113038057D02*
X191334333Y-112990438D01*
X191334333Y-112990438D02*
X191429571Y-112942819D01*
X192191476Y-113942819D02*
X192191476Y-112942819D01*
X192762904Y-113942819D02*
X192334333Y-113371390D01*
X192762904Y-112942819D02*
X192191476Y-113514247D01*
D13*
%TO.C,R1*%
X177412936Y-104577000D02*
X178867064Y-104577000D01*
X177412936Y-106397000D02*
X178867064Y-106397000D01*
%TO.C,C4*%
X196306000Y-85687248D02*
X196306000Y-87109752D01*
X198126000Y-85687248D02*
X198126000Y-87109752D01*
%TO.C,JP6*%
X167515000Y-83533000D02*
X168895000Y-83533000D01*
X167515000Y-84913000D02*
X167515000Y-83533000D01*
X167515000Y-86183000D02*
X167515000Y-88833000D01*
X167515000Y-86183000D02*
X170275000Y-86183000D01*
X167515000Y-88833000D02*
X170275000Y-88833000D01*
X170275000Y-86183000D02*
X170275000Y-88833000D01*
%TO.C,R3*%
X166415936Y-101783000D02*
X167870064Y-101783000D01*
X166415936Y-103603000D02*
X167870064Y-103603000D01*
%TO.C,C5*%
X147101759Y-117829000D02*
X147731759Y-117829000D01*
X147416759Y-117514000D02*
X147416759Y-118144000D01*
X150602000Y-116438000D02*
X150602000Y-122898000D01*
X150642000Y-116438000D02*
X150642000Y-122898000D01*
X150682000Y-116439000D02*
X150682000Y-122897000D01*
X150722000Y-116440000D02*
X150722000Y-122896000D01*
X150762000Y-116442000D02*
X150762000Y-122894000D01*
X150802000Y-116444000D02*
X150802000Y-122892000D01*
X150842000Y-116447000D02*
X150842000Y-118628000D01*
X150842000Y-120708000D02*
X150842000Y-122889000D01*
X150882000Y-116450000D02*
X150882000Y-118628000D01*
X150882000Y-120708000D02*
X150882000Y-122886000D01*
X150922000Y-116454000D02*
X150922000Y-118628000D01*
X150922000Y-120708000D02*
X150922000Y-122882000D01*
X150962000Y-116458000D02*
X150962000Y-118628000D01*
X150962000Y-120708000D02*
X150962000Y-122878000D01*
X151002000Y-116463000D02*
X151002000Y-118628000D01*
X151002000Y-120708000D02*
X151002000Y-122873000D01*
X151042000Y-116468000D02*
X151042000Y-118628000D01*
X151042000Y-120708000D02*
X151042000Y-122868000D01*
X151082000Y-116473000D02*
X151082000Y-118628000D01*
X151082000Y-120708000D02*
X151082000Y-122863000D01*
X151122000Y-116480000D02*
X151122000Y-118628000D01*
X151122000Y-120708000D02*
X151122000Y-122856000D01*
X151162000Y-116486000D02*
X151162000Y-118628000D01*
X151162000Y-120708000D02*
X151162000Y-122850000D01*
X151202000Y-116494000D02*
X151202000Y-118628000D01*
X151202000Y-120708000D02*
X151202000Y-122842000D01*
X151242000Y-116501000D02*
X151242000Y-118628000D01*
X151242000Y-120708000D02*
X151242000Y-122835000D01*
X151282000Y-116509000D02*
X151282000Y-118628000D01*
X151282000Y-120708000D02*
X151282000Y-122827000D01*
X151322000Y-116518000D02*
X151322000Y-118628000D01*
X151322000Y-120708000D02*
X151322000Y-122818000D01*
X151362000Y-116528000D02*
X151362000Y-118628000D01*
X151362000Y-120708000D02*
X151362000Y-122808000D01*
X151402000Y-116537000D02*
X151402000Y-118628000D01*
X151402000Y-120708000D02*
X151402000Y-122799000D01*
X151442000Y-116548000D02*
X151442000Y-118628000D01*
X151442000Y-120708000D02*
X151442000Y-122788000D01*
X151482000Y-116559000D02*
X151482000Y-118628000D01*
X151482000Y-120708000D02*
X151482000Y-122777000D01*
X151522000Y-116570000D02*
X151522000Y-118628000D01*
X151522000Y-120708000D02*
X151522000Y-122766000D01*
X151562000Y-116582000D02*
X151562000Y-118628000D01*
X151562000Y-120708000D02*
X151562000Y-122754000D01*
X151602000Y-116595000D02*
X151602000Y-118628000D01*
X151602000Y-120708000D02*
X151602000Y-122741000D01*
X151642000Y-116608000D02*
X151642000Y-118628000D01*
X151642000Y-120708000D02*
X151642000Y-122728000D01*
X151682000Y-116621000D02*
X151682000Y-118628000D01*
X151682000Y-120708000D02*
X151682000Y-122715000D01*
X151722000Y-116636000D02*
X151722000Y-118628000D01*
X151722000Y-120708000D02*
X151722000Y-122700000D01*
X151762000Y-116651000D02*
X151762000Y-118628000D01*
X151762000Y-120708000D02*
X151762000Y-122685000D01*
X151802000Y-116666000D02*
X151802000Y-118628000D01*
X151802000Y-120708000D02*
X151802000Y-122670000D01*
X151842000Y-116682000D02*
X151842000Y-118628000D01*
X151842000Y-120708000D02*
X151842000Y-122654000D01*
X151882000Y-116699000D02*
X151882000Y-118628000D01*
X151882000Y-120708000D02*
X151882000Y-122637000D01*
X151922000Y-116716000D02*
X151922000Y-118628000D01*
X151922000Y-120708000D02*
X151922000Y-122620000D01*
X151962000Y-116734000D02*
X151962000Y-118628000D01*
X151962000Y-120708000D02*
X151962000Y-122602000D01*
X152002000Y-116753000D02*
X152002000Y-118628000D01*
X152002000Y-120708000D02*
X152002000Y-122583000D01*
X152042000Y-116772000D02*
X152042000Y-118628000D01*
X152042000Y-120708000D02*
X152042000Y-122564000D01*
X152082000Y-116792000D02*
X152082000Y-118628000D01*
X152082000Y-120708000D02*
X152082000Y-122544000D01*
X152122000Y-116813000D02*
X152122000Y-118628000D01*
X152122000Y-120708000D02*
X152122000Y-122523000D01*
X152162000Y-116834000D02*
X152162000Y-118628000D01*
X152162000Y-120708000D02*
X152162000Y-122502000D01*
X152202000Y-116856000D02*
X152202000Y-118628000D01*
X152202000Y-120708000D02*
X152202000Y-122480000D01*
X152242000Y-116879000D02*
X152242000Y-118628000D01*
X152242000Y-120708000D02*
X152242000Y-122457000D01*
X152282000Y-116903000D02*
X152282000Y-118628000D01*
X152282000Y-120708000D02*
X152282000Y-122433000D01*
X152322000Y-116927000D02*
X152322000Y-118628000D01*
X152322000Y-120708000D02*
X152322000Y-122409000D01*
X152362000Y-116952000D02*
X152362000Y-118628000D01*
X152362000Y-120708000D02*
X152362000Y-122384000D01*
X152402000Y-116978000D02*
X152402000Y-118628000D01*
X152402000Y-120708000D02*
X152402000Y-122358000D01*
X152442000Y-117005000D02*
X152442000Y-118628000D01*
X152442000Y-120708000D02*
X152442000Y-122331000D01*
X152482000Y-117032000D02*
X152482000Y-118628000D01*
X152482000Y-120708000D02*
X152482000Y-122304000D01*
X152522000Y-117061000D02*
X152522000Y-118628000D01*
X152522000Y-120708000D02*
X152522000Y-122275000D01*
X152562000Y-117091000D02*
X152562000Y-118628000D01*
X152562000Y-120708000D02*
X152562000Y-122245000D01*
X152602000Y-117121000D02*
X152602000Y-118628000D01*
X152602000Y-120708000D02*
X152602000Y-122215000D01*
X152642000Y-117152000D02*
X152642000Y-118628000D01*
X152642000Y-120708000D02*
X152642000Y-122184000D01*
X152682000Y-117185000D02*
X152682000Y-118628000D01*
X152682000Y-120708000D02*
X152682000Y-122151000D01*
X152722000Y-117218000D02*
X152722000Y-118628000D01*
X152722000Y-120708000D02*
X152722000Y-122118000D01*
X152762000Y-117253000D02*
X152762000Y-118628000D01*
X152762000Y-120708000D02*
X152762000Y-122083000D01*
X152802000Y-117289000D02*
X152802000Y-118628000D01*
X152802000Y-120708000D02*
X152802000Y-122047000D01*
X152842000Y-117326000D02*
X152842000Y-118628000D01*
X152842000Y-120708000D02*
X152842000Y-122010000D01*
X152882000Y-117364000D02*
X152882000Y-118628000D01*
X152882000Y-120708000D02*
X152882000Y-121972000D01*
X152922000Y-117404000D02*
X152922000Y-121932000D01*
X152962000Y-117445000D02*
X152962000Y-121891000D01*
X153002000Y-117487000D02*
X153002000Y-121849000D01*
X153042000Y-117531000D02*
X153042000Y-121805000D01*
X153082000Y-117577000D02*
X153082000Y-121759000D01*
X153122000Y-117624000D02*
X153122000Y-121712000D01*
X153162000Y-117673000D02*
X153162000Y-121663000D01*
X153202000Y-117725000D02*
X153202000Y-121611000D01*
X153242000Y-117778000D02*
X153242000Y-121558000D01*
X153282000Y-117834000D02*
X153282000Y-121502000D01*
X153322000Y-117893000D02*
X153322000Y-121443000D01*
X153362000Y-117954000D02*
X153362000Y-121382000D01*
X153402000Y-118019000D02*
X153402000Y-121317000D01*
X153442000Y-118087000D02*
X153442000Y-121249000D01*
X153482000Y-118159000D02*
X153482000Y-121177000D01*
X153522000Y-118236000D02*
X153522000Y-121100000D01*
X153562000Y-118318000D02*
X153562000Y-121018000D01*
X153602000Y-118407000D02*
X153602000Y-120929000D01*
X153642000Y-118503000D02*
X153642000Y-120833000D01*
X153682000Y-118610000D02*
X153682000Y-120726000D01*
X153722000Y-118729000D02*
X153722000Y-120607000D01*
X153762000Y-118867000D02*
X153762000Y-120469000D01*
X153802000Y-119035000D02*
X153802000Y-120301000D01*
X153842000Y-119266000D02*
X153842000Y-120070000D01*
X153872000Y-119668000D02*
G75*
G02*
X147332000Y-119668000I-3270000J0D01*
G01*
X147332000Y-119668000D02*
G75*
G02*
X153872000Y-119668000I3270000J0D01*
G01*
%TO.C,R7*%
X217171936Y-114483000D02*
X218626064Y-114483000D01*
X217171936Y-116303000D02*
X218626064Y-116303000D01*
%TO.C,U2*%
X160122000Y-122618000D02*
X163972000Y-122618000D01*
X159705600Y-119819193D02*
G75*
G02*
X162062000Y-118318000I2356400J-1098807D01*
G01*
X160122000Y-122618000D02*
G75*
G02*
X159739369Y-122040045I1940000J1700000D01*
G01*
X162062000Y-118318000D02*
G75*
G02*
X164418400Y-119819193I0J-2600000D01*
G01*
X164364383Y-122030264D02*
G75*
G02*
X163972000Y-122618000I-2302383J1112264D01*
G01*
%TO.C,U1*%
X187529000Y-99792000D02*
X185579000Y-99792000D01*
X187529000Y-99792000D02*
X189479000Y-99792000D01*
X187529000Y-109912000D02*
X185579000Y-109912000D01*
X187529000Y-109912000D02*
X189479000Y-109912000D01*
X184829000Y-99847000D02*
X184589000Y-99517000D01*
X185069000Y-99517000D01*
X184829000Y-99847000D01*
G36*
X184829000Y-99847000D02*
G01*
X184589000Y-99517000D01*
X185069000Y-99517000D01*
X184829000Y-99847000D01*
G37*
%TO.C,J8*%
X225772000Y-98148000D02*
X225772000Y-90468000D01*
X225772000Y-100748000D02*
X225772000Y-99418000D01*
X227102000Y-100748000D02*
X225772000Y-100748000D01*
X228432000Y-90468000D02*
X225772000Y-90468000D01*
X228432000Y-98148000D02*
X225772000Y-98148000D01*
X228432000Y-98148000D02*
X228432000Y-90468000D01*
%TO.C,R8*%
X217163936Y-118039000D02*
X218618064Y-118039000D01*
X217163936Y-119859000D02*
X218618064Y-119859000D01*
%TO.C,R2*%
X178867064Y-101783000D02*
X177412936Y-101783000D01*
X178867064Y-103603000D02*
X177412936Y-103603000D01*
%TO.C,J4*%
X202440000Y-86310000D02*
X202440000Y-83660000D01*
X205200000Y-83660000D02*
X202440000Y-83660000D01*
X205200000Y-86310000D02*
X202440000Y-86310000D01*
X205200000Y-86310000D02*
X205200000Y-83660000D01*
X205200000Y-87580000D02*
X205200000Y-88960000D01*
X205200000Y-88960000D02*
X203820000Y-88960000D01*
%TO.C,SW4*%
X234915000Y-87686000D02*
X234915000Y-85006000D01*
X235065000Y-83226000D02*
X241005000Y-83226000D01*
X235065000Y-89466000D02*
X241005000Y-89466000D01*
X241155000Y-85006000D02*
X241155000Y-87686000D01*
X239449214Y-86346000D02*
G75*
G02*
X236620786Y-86346000I-1414214J0D01*
G01*
X236620786Y-86346000D02*
G75*
G02*
X239449214Y-86346000I1414214J0D01*
G01*
%TO.C,R4*%
X167870064Y-104577000D02*
X166415936Y-104577000D01*
X167870064Y-106397000D02*
X166415936Y-106397000D01*
%TO.C,JP3*%
X173738000Y-86310000D02*
X173738000Y-83660000D01*
X176498000Y-83660000D02*
X173738000Y-83660000D01*
X176498000Y-86310000D02*
X173738000Y-86310000D01*
X176498000Y-86310000D02*
X176498000Y-83660000D01*
X176498000Y-87580000D02*
X176498000Y-88960000D01*
X176498000Y-88960000D02*
X175118000Y-88960000D01*
%TO.C,Q2*%
X209399000Y-84373000D02*
X210809000Y-84373000D01*
X209409000Y-86693000D02*
X210809000Y-86693000D01*
X209029000Y-84423000D02*
X208789000Y-84093000D01*
X209269000Y-84093000D01*
X209029000Y-84423000D01*
G36*
X209029000Y-84423000D02*
G01*
X208789000Y-84093000D01*
X209269000Y-84093000D01*
X209029000Y-84423000D01*
G37*
%TO.C,SW5*%
X186655000Y-87686000D02*
X186655000Y-85006000D01*
X186805000Y-83226000D02*
X192745000Y-83226000D01*
X186805000Y-89466000D02*
X192745000Y-89466000D01*
X192895000Y-85006000D02*
X192895000Y-87686000D01*
X191189214Y-86346000D02*
G75*
G02*
X188360786Y-86346000I-1414214J0D01*
G01*
X188360786Y-86346000D02*
G75*
G02*
X191189214Y-86346000I1414214J0D01*
G01*
%TO.C,C6*%
X150238248Y-112070000D02*
X151660752Y-112070000D01*
X150238248Y-113890000D02*
X151660752Y-113890000D01*
%TO.C,JP2*%
X179580000Y-83533000D02*
X180960000Y-83533000D01*
X179580000Y-84913000D02*
X179580000Y-83533000D01*
X179580000Y-86183000D02*
X179580000Y-88833000D01*
X179580000Y-86183000D02*
X182340000Y-86183000D01*
X179580000Y-88833000D02*
X182340000Y-88833000D01*
X182340000Y-86183000D02*
X182340000Y-88833000D01*
%TO.C,J1*%
X235092000Y-108858000D02*
X235092000Y-123978000D01*
X235092000Y-123978000D02*
X241062000Y-123978000D01*
X235852000Y-109618000D02*
X235852000Y-116418000D01*
X235852000Y-123218000D02*
X235852000Y-116418000D01*
X238802000Y-108868000D02*
X238802000Y-109618000D01*
X238802000Y-109618000D02*
X235852000Y-109618000D01*
X238802000Y-123218000D02*
X235852000Y-123218000D01*
X238802000Y-123968000D02*
X238802000Y-123218000D01*
X240302000Y-108868000D02*
X240302000Y-110668000D01*
X240302000Y-110668000D02*
X241052000Y-110668000D01*
X240302000Y-112168000D02*
X240302000Y-120668000D01*
X240302000Y-120668000D02*
X241052000Y-120668000D01*
X240302000Y-122168000D02*
X240302000Y-123968000D01*
X240302000Y-123968000D02*
X241052000Y-123968000D01*
X241052000Y-108868000D02*
X240302000Y-108868000D01*
X241052000Y-110668000D02*
X241052000Y-108868000D01*
X241052000Y-112168000D02*
X240302000Y-112168000D01*
X241052000Y-120668000D02*
X241052000Y-112168000D01*
X241052000Y-122168000D02*
X240302000Y-122168000D01*
X241052000Y-123968000D02*
X241052000Y-122168000D01*
X241062000Y-108858000D02*
X235092000Y-108858000D01*
X241062000Y-123978000D02*
X241062000Y-108858000D01*
X241352000Y-108568000D02*
X240102000Y-108568000D01*
X241352000Y-109818000D02*
X241352000Y-108568000D01*
%TO.C,J3*%
X194072000Y-98588000D02*
X195402000Y-98588000D01*
X194072000Y-99918000D02*
X194072000Y-98588000D01*
X196672000Y-98588000D02*
X209432000Y-98588000D01*
X196672000Y-101248000D02*
X196672000Y-98588000D01*
X196672000Y-101248000D02*
X209432000Y-101248000D01*
X209432000Y-101248000D02*
X209432000Y-98588000D01*
%TO.C,R5*%
X188086064Y-115243000D02*
X186631936Y-115243000D01*
X188086064Y-117063000D02*
X186631936Y-117063000D01*
D11*
%TO.C,J5*%
X145937000Y-82284000D02*
X163737000Y-82284000D01*
X145937000Y-110684000D02*
X145937000Y-82284000D01*
X148037000Y-110684000D02*
X145937000Y-110684000D01*
X148337000Y-108384000D02*
X148337000Y-108684000D01*
X148337000Y-108584000D02*
X148337000Y-110684000D01*
X148337000Y-110684000D02*
X148037000Y-110684000D01*
X152737000Y-82684000D02*
X156437000Y-82684000D01*
X152737000Y-85184000D02*
X152737000Y-82684000D01*
X156537000Y-82684000D02*
X156537000Y-85184000D01*
X156537000Y-85184000D02*
X152737000Y-85184000D01*
X161237000Y-108384000D02*
X148337000Y-108384000D01*
X161237000Y-110684000D02*
X161237000Y-108384000D01*
X163737000Y-82284000D02*
X163737000Y-108584000D01*
X163737000Y-108584000D02*
X163737000Y-110684000D01*
X163737000Y-110684000D02*
X161237000Y-110684000D01*
D13*
%TO.C,R6*%
X189561064Y-92512000D02*
X188106936Y-92512000D01*
X189561064Y-94332000D02*
X188106936Y-94332000D01*
%TO.C,U7*%
X193982000Y-103740000D02*
X210222000Y-103740000D01*
X193982000Y-104560000D02*
X193982000Y-103740000D01*
X193982000Y-106160000D02*
X193982000Y-106560000D01*
X193982000Y-108160000D02*
X193982000Y-108560000D01*
X193982000Y-110160000D02*
X193982000Y-110560000D01*
X193982000Y-112160000D02*
X193982000Y-112560000D01*
X193982000Y-114160000D02*
X193982000Y-114560000D01*
X193982000Y-116160000D02*
X193982000Y-116560000D01*
X193982000Y-118160000D02*
X193982000Y-118560000D01*
X210222000Y-103740000D02*
X210222000Y-104560000D01*
X210222000Y-106160000D02*
X210222000Y-106560000D01*
X210222000Y-108160000D02*
X210222000Y-108560000D01*
X210222000Y-110160000D02*
X210222000Y-110560000D01*
X210222000Y-112160000D02*
X210222000Y-112560000D01*
X210222000Y-114160000D02*
X210222000Y-114560000D01*
X210222000Y-116160000D02*
X210222000Y-116560000D01*
X210222000Y-118160000D02*
X210222000Y-118560000D01*
X210842000Y-120496000D02*
X210362000Y-120496000D01*
X210602000Y-120160000D01*
X210842000Y-120496000D01*
G36*
X210842000Y-120496000D02*
G01*
X210362000Y-120496000D01*
X210602000Y-120160000D01*
X210842000Y-120496000D01*
G37*
%TO.C,D4*%
X185015500Y-117812000D02*
X185015500Y-120082000D01*
X185015500Y-120082000D02*
X189075500Y-120082000D01*
X187094500Y-118959000D02*
X186840500Y-118959000D01*
X187094500Y-118959000D02*
X187856500Y-118463000D01*
X187094500Y-119467000D02*
X187094500Y-118451000D01*
X187856500Y-118959000D02*
X188110500Y-118959000D01*
X187856500Y-119455000D02*
X187094500Y-118959000D01*
X187856500Y-119455000D02*
X187856500Y-118463000D01*
X188999500Y-120082000D02*
X189380500Y-120090000D01*
X189075500Y-117812000D02*
X185015500Y-117812000D01*
X189075500Y-117812000D02*
X189888500Y-117804000D01*
X189126500Y-120090000D02*
X189888500Y-120090000D01*
X189888500Y-117804000D02*
X189888500Y-120090000D01*
X189888500Y-120090000D02*
X188999500Y-120082000D01*
%TO.C,R9*%
X188011064Y-112578000D02*
X186556936Y-112578000D01*
X188011064Y-114398000D02*
X186556936Y-114398000D01*
%TD*%
M02*
