%TF.GenerationSoftware,KiCad,Pcbnew,9.0.3*%
%TF.CreationDate,2025-07-30T11:35:09+02:00*%
%TF.ProjectId,TPOneBoard,54504f6e-6542-46f6-9172-642e6b696361,rev?*%
%TF.SameCoordinates,Original*%
%TF.FileFunction,Legend,Bot*%
%TF.FilePolarity,Positive*%
%FSLAX46Y46*%
G04 Gerber Fmt 4.6, Leading zero omitted, Abs format (unit mm)*
G04 Created by KiCad (PCBNEW 9.0.3) date 2025-07-30 11:35:09*
%MOMM*%
%LPD*%
G01*
G04 APERTURE LIST*
%ADD10C,0.150000*%
%ADD11C,0.300000*%
%ADD12C,0.450000*%
%ADD13C,0.120000*%
%ADD14C,0.010000*%
%ADD15C,0.152400*%
G04 APERTURE END LIST*
D10*
X224168411Y-91125155D02*
X224739839Y-91125155D01*
X224454125Y-91125155D02*
X224454125Y-90125155D01*
X224454125Y-90125155D02*
X224549363Y-90268012D01*
X224549363Y-90268012D02*
X224644601Y-90363250D01*
X224644601Y-90363250D02*
X224739839Y-90410869D01*
X223596982Y-90553726D02*
X223692220Y-90506107D01*
X223692220Y-90506107D02*
X223739839Y-90458488D01*
X223739839Y-90458488D02*
X223787458Y-90363250D01*
X223787458Y-90363250D02*
X223787458Y-90315631D01*
X223787458Y-90315631D02*
X223739839Y-90220393D01*
X223739839Y-90220393D02*
X223692220Y-90172774D01*
X223692220Y-90172774D02*
X223596982Y-90125155D01*
X223596982Y-90125155D02*
X223406506Y-90125155D01*
X223406506Y-90125155D02*
X223311268Y-90172774D01*
X223311268Y-90172774D02*
X223263649Y-90220393D01*
X223263649Y-90220393D02*
X223216030Y-90315631D01*
X223216030Y-90315631D02*
X223216030Y-90363250D01*
X223216030Y-90363250D02*
X223263649Y-90458488D01*
X223263649Y-90458488D02*
X223311268Y-90506107D01*
X223311268Y-90506107D02*
X223406506Y-90553726D01*
X223406506Y-90553726D02*
X223596982Y-90553726D01*
X223596982Y-90553726D02*
X223692220Y-90601345D01*
X223692220Y-90601345D02*
X223739839Y-90648964D01*
X223739839Y-90648964D02*
X223787458Y-90744202D01*
X223787458Y-90744202D02*
X223787458Y-90934678D01*
X223787458Y-90934678D02*
X223739839Y-91029916D01*
X223739839Y-91029916D02*
X223692220Y-91077536D01*
X223692220Y-91077536D02*
X223596982Y-91125155D01*
X223596982Y-91125155D02*
X223406506Y-91125155D01*
X223406506Y-91125155D02*
X223311268Y-91077536D01*
X223311268Y-91077536D02*
X223263649Y-91029916D01*
X223263649Y-91029916D02*
X223216030Y-90934678D01*
X223216030Y-90934678D02*
X223216030Y-90744202D01*
X223216030Y-90744202D02*
X223263649Y-90648964D01*
X223263649Y-90648964D02*
X223311268Y-90601345D01*
X223311268Y-90601345D02*
X223406506Y-90553726D01*
X222358887Y-90125155D02*
X222549363Y-90125155D01*
X222549363Y-90125155D02*
X222644601Y-90172774D01*
X222644601Y-90172774D02*
X222692220Y-90220393D01*
X222692220Y-90220393D02*
X222787458Y-90363250D01*
X222787458Y-90363250D02*
X222835077Y-90553726D01*
X222835077Y-90553726D02*
X222835077Y-90934678D01*
X222835077Y-90934678D02*
X222787458Y-91029916D01*
X222787458Y-91029916D02*
X222739839Y-91077536D01*
X222739839Y-91077536D02*
X222644601Y-91125155D01*
X222644601Y-91125155D02*
X222454125Y-91125155D01*
X222454125Y-91125155D02*
X222358887Y-91077536D01*
X222358887Y-91077536D02*
X222311268Y-91029916D01*
X222311268Y-91029916D02*
X222263649Y-90934678D01*
X222263649Y-90934678D02*
X222263649Y-90696583D01*
X222263649Y-90696583D02*
X222311268Y-90601345D01*
X222311268Y-90601345D02*
X222358887Y-90553726D01*
X222358887Y-90553726D02*
X222454125Y-90506107D01*
X222454125Y-90506107D02*
X222644601Y-90506107D01*
X222644601Y-90506107D02*
X222739839Y-90553726D01*
X222739839Y-90553726D02*
X222787458Y-90601345D01*
X222787458Y-90601345D02*
X222835077Y-90696583D01*
X221358887Y-90125155D02*
X221835077Y-90125155D01*
X221835077Y-90125155D02*
X221882696Y-90601345D01*
X221882696Y-90601345D02*
X221835077Y-90553726D01*
X221835077Y-90553726D02*
X221739839Y-90506107D01*
X221739839Y-90506107D02*
X221501744Y-90506107D01*
X221501744Y-90506107D02*
X221406506Y-90553726D01*
X221406506Y-90553726D02*
X221358887Y-90601345D01*
X221358887Y-90601345D02*
X221311268Y-90696583D01*
X221311268Y-90696583D02*
X221311268Y-90934678D01*
X221311268Y-90934678D02*
X221358887Y-91029916D01*
X221358887Y-91029916D02*
X221406506Y-91077536D01*
X221406506Y-91077536D02*
X221501744Y-91125155D01*
X221501744Y-91125155D02*
X221739839Y-91125155D01*
X221739839Y-91125155D02*
X221835077Y-91077536D01*
X221835077Y-91077536D02*
X221882696Y-91029916D01*
X220692220Y-90125155D02*
X220596982Y-90125155D01*
X220596982Y-90125155D02*
X220501744Y-90172774D01*
X220501744Y-90172774D02*
X220454125Y-90220393D01*
X220454125Y-90220393D02*
X220406506Y-90315631D01*
X220406506Y-90315631D02*
X220358887Y-90506107D01*
X220358887Y-90506107D02*
X220358887Y-90744202D01*
X220358887Y-90744202D02*
X220406506Y-90934678D01*
X220406506Y-90934678D02*
X220454125Y-91029916D01*
X220454125Y-91029916D02*
X220501744Y-91077536D01*
X220501744Y-91077536D02*
X220596982Y-91125155D01*
X220596982Y-91125155D02*
X220692220Y-91125155D01*
X220692220Y-91125155D02*
X220787458Y-91077536D01*
X220787458Y-91077536D02*
X220835077Y-91029916D01*
X220835077Y-91029916D02*
X220882696Y-90934678D01*
X220882696Y-90934678D02*
X220930315Y-90744202D01*
X220930315Y-90744202D02*
X220930315Y-90506107D01*
X220930315Y-90506107D02*
X220882696Y-90315631D01*
X220882696Y-90315631D02*
X220835077Y-90220393D01*
X220835077Y-90220393D02*
X220787458Y-90172774D01*
X220787458Y-90172774D02*
X220692220Y-90125155D01*
X219168410Y-90744202D02*
X218406506Y-90744202D01*
X224168411Y-94345043D02*
X224739839Y-94345043D01*
X224454125Y-94345043D02*
X224454125Y-93345043D01*
X224454125Y-93345043D02*
X224549363Y-93487900D01*
X224549363Y-93487900D02*
X224644601Y-93583138D01*
X224644601Y-93583138D02*
X224739839Y-93630757D01*
X223596982Y-93773614D02*
X223692220Y-93725995D01*
X223692220Y-93725995D02*
X223739839Y-93678376D01*
X223739839Y-93678376D02*
X223787458Y-93583138D01*
X223787458Y-93583138D02*
X223787458Y-93535519D01*
X223787458Y-93535519D02*
X223739839Y-93440281D01*
X223739839Y-93440281D02*
X223692220Y-93392662D01*
X223692220Y-93392662D02*
X223596982Y-93345043D01*
X223596982Y-93345043D02*
X223406506Y-93345043D01*
X223406506Y-93345043D02*
X223311268Y-93392662D01*
X223311268Y-93392662D02*
X223263649Y-93440281D01*
X223263649Y-93440281D02*
X223216030Y-93535519D01*
X223216030Y-93535519D02*
X223216030Y-93583138D01*
X223216030Y-93583138D02*
X223263649Y-93678376D01*
X223263649Y-93678376D02*
X223311268Y-93725995D01*
X223311268Y-93725995D02*
X223406506Y-93773614D01*
X223406506Y-93773614D02*
X223596982Y-93773614D01*
X223596982Y-93773614D02*
X223692220Y-93821233D01*
X223692220Y-93821233D02*
X223739839Y-93868852D01*
X223739839Y-93868852D02*
X223787458Y-93964090D01*
X223787458Y-93964090D02*
X223787458Y-94154566D01*
X223787458Y-94154566D02*
X223739839Y-94249804D01*
X223739839Y-94249804D02*
X223692220Y-94297424D01*
X223692220Y-94297424D02*
X223596982Y-94345043D01*
X223596982Y-94345043D02*
X223406506Y-94345043D01*
X223406506Y-94345043D02*
X223311268Y-94297424D01*
X223311268Y-94297424D02*
X223263649Y-94249804D01*
X223263649Y-94249804D02*
X223216030Y-94154566D01*
X223216030Y-94154566D02*
X223216030Y-93964090D01*
X223216030Y-93964090D02*
X223263649Y-93868852D01*
X223263649Y-93868852D02*
X223311268Y-93821233D01*
X223311268Y-93821233D02*
X223406506Y-93773614D01*
X222358887Y-93345043D02*
X222549363Y-93345043D01*
X222549363Y-93345043D02*
X222644601Y-93392662D01*
X222644601Y-93392662D02*
X222692220Y-93440281D01*
X222692220Y-93440281D02*
X222787458Y-93583138D01*
X222787458Y-93583138D02*
X222835077Y-93773614D01*
X222835077Y-93773614D02*
X222835077Y-94154566D01*
X222835077Y-94154566D02*
X222787458Y-94249804D01*
X222787458Y-94249804D02*
X222739839Y-94297424D01*
X222739839Y-94297424D02*
X222644601Y-94345043D01*
X222644601Y-94345043D02*
X222454125Y-94345043D01*
X222454125Y-94345043D02*
X222358887Y-94297424D01*
X222358887Y-94297424D02*
X222311268Y-94249804D01*
X222311268Y-94249804D02*
X222263649Y-94154566D01*
X222263649Y-94154566D02*
X222263649Y-93916471D01*
X222263649Y-93916471D02*
X222311268Y-93821233D01*
X222311268Y-93821233D02*
X222358887Y-93773614D01*
X222358887Y-93773614D02*
X222454125Y-93725995D01*
X222454125Y-93725995D02*
X222644601Y-93725995D01*
X222644601Y-93725995D02*
X222739839Y-93773614D01*
X222739839Y-93773614D02*
X222787458Y-93821233D01*
X222787458Y-93821233D02*
X222835077Y-93916471D01*
X221358887Y-93345043D02*
X221835077Y-93345043D01*
X221835077Y-93345043D02*
X221882696Y-93821233D01*
X221882696Y-93821233D02*
X221835077Y-93773614D01*
X221835077Y-93773614D02*
X221739839Y-93725995D01*
X221739839Y-93725995D02*
X221501744Y-93725995D01*
X221501744Y-93725995D02*
X221406506Y-93773614D01*
X221406506Y-93773614D02*
X221358887Y-93821233D01*
X221358887Y-93821233D02*
X221311268Y-93916471D01*
X221311268Y-93916471D02*
X221311268Y-94154566D01*
X221311268Y-94154566D02*
X221358887Y-94249804D01*
X221358887Y-94249804D02*
X221406506Y-94297424D01*
X221406506Y-94297424D02*
X221501744Y-94345043D01*
X221501744Y-94345043D02*
X221739839Y-94345043D01*
X221739839Y-94345043D02*
X221835077Y-94297424D01*
X221835077Y-94297424D02*
X221882696Y-94249804D01*
X220692220Y-93345043D02*
X220596982Y-93345043D01*
X220596982Y-93345043D02*
X220501744Y-93392662D01*
X220501744Y-93392662D02*
X220454125Y-93440281D01*
X220454125Y-93440281D02*
X220406506Y-93535519D01*
X220406506Y-93535519D02*
X220358887Y-93725995D01*
X220358887Y-93725995D02*
X220358887Y-93964090D01*
X220358887Y-93964090D02*
X220406506Y-94154566D01*
X220406506Y-94154566D02*
X220454125Y-94249804D01*
X220454125Y-94249804D02*
X220501744Y-94297424D01*
X220501744Y-94297424D02*
X220596982Y-94345043D01*
X220596982Y-94345043D02*
X220692220Y-94345043D01*
X220692220Y-94345043D02*
X220787458Y-94297424D01*
X220787458Y-94297424D02*
X220835077Y-94249804D01*
X220835077Y-94249804D02*
X220882696Y-94154566D01*
X220882696Y-94154566D02*
X220930315Y-93964090D01*
X220930315Y-93964090D02*
X220930315Y-93725995D01*
X220930315Y-93725995D02*
X220882696Y-93535519D01*
X220882696Y-93535519D02*
X220835077Y-93440281D01*
X220835077Y-93440281D02*
X220787458Y-93392662D01*
X220787458Y-93392662D02*
X220692220Y-93345043D01*
X219168410Y-93964090D02*
X218406506Y-93964090D01*
X218787458Y-94345043D02*
X218787458Y-93583138D01*
X224168411Y-97564931D02*
X224739839Y-97564931D01*
X224454125Y-97564931D02*
X224454125Y-96564931D01*
X224454125Y-96564931D02*
X224549363Y-96707788D01*
X224549363Y-96707788D02*
X224644601Y-96803026D01*
X224644601Y-96803026D02*
X224739839Y-96850645D01*
X223596982Y-96993502D02*
X223692220Y-96945883D01*
X223692220Y-96945883D02*
X223739839Y-96898264D01*
X223739839Y-96898264D02*
X223787458Y-96803026D01*
X223787458Y-96803026D02*
X223787458Y-96755407D01*
X223787458Y-96755407D02*
X223739839Y-96660169D01*
X223739839Y-96660169D02*
X223692220Y-96612550D01*
X223692220Y-96612550D02*
X223596982Y-96564931D01*
X223596982Y-96564931D02*
X223406506Y-96564931D01*
X223406506Y-96564931D02*
X223311268Y-96612550D01*
X223311268Y-96612550D02*
X223263649Y-96660169D01*
X223263649Y-96660169D02*
X223216030Y-96755407D01*
X223216030Y-96755407D02*
X223216030Y-96803026D01*
X223216030Y-96803026D02*
X223263649Y-96898264D01*
X223263649Y-96898264D02*
X223311268Y-96945883D01*
X223311268Y-96945883D02*
X223406506Y-96993502D01*
X223406506Y-96993502D02*
X223596982Y-96993502D01*
X223596982Y-96993502D02*
X223692220Y-97041121D01*
X223692220Y-97041121D02*
X223739839Y-97088740D01*
X223739839Y-97088740D02*
X223787458Y-97183978D01*
X223787458Y-97183978D02*
X223787458Y-97374454D01*
X223787458Y-97374454D02*
X223739839Y-97469692D01*
X223739839Y-97469692D02*
X223692220Y-97517312D01*
X223692220Y-97517312D02*
X223596982Y-97564931D01*
X223596982Y-97564931D02*
X223406506Y-97564931D01*
X223406506Y-97564931D02*
X223311268Y-97517312D01*
X223311268Y-97517312D02*
X223263649Y-97469692D01*
X223263649Y-97469692D02*
X223216030Y-97374454D01*
X223216030Y-97374454D02*
X223216030Y-97183978D01*
X223216030Y-97183978D02*
X223263649Y-97088740D01*
X223263649Y-97088740D02*
X223311268Y-97041121D01*
X223311268Y-97041121D02*
X223406506Y-96993502D01*
X222358887Y-96564931D02*
X222549363Y-96564931D01*
X222549363Y-96564931D02*
X222644601Y-96612550D01*
X222644601Y-96612550D02*
X222692220Y-96660169D01*
X222692220Y-96660169D02*
X222787458Y-96803026D01*
X222787458Y-96803026D02*
X222835077Y-96993502D01*
X222835077Y-96993502D02*
X222835077Y-97374454D01*
X222835077Y-97374454D02*
X222787458Y-97469692D01*
X222787458Y-97469692D02*
X222739839Y-97517312D01*
X222739839Y-97517312D02*
X222644601Y-97564931D01*
X222644601Y-97564931D02*
X222454125Y-97564931D01*
X222454125Y-97564931D02*
X222358887Y-97517312D01*
X222358887Y-97517312D02*
X222311268Y-97469692D01*
X222311268Y-97469692D02*
X222263649Y-97374454D01*
X222263649Y-97374454D02*
X222263649Y-97136359D01*
X222263649Y-97136359D02*
X222311268Y-97041121D01*
X222311268Y-97041121D02*
X222358887Y-96993502D01*
X222358887Y-96993502D02*
X222454125Y-96945883D01*
X222454125Y-96945883D02*
X222644601Y-96945883D01*
X222644601Y-96945883D02*
X222739839Y-96993502D01*
X222739839Y-96993502D02*
X222787458Y-97041121D01*
X222787458Y-97041121D02*
X222835077Y-97136359D01*
X221358887Y-96564931D02*
X221835077Y-96564931D01*
X221835077Y-96564931D02*
X221882696Y-97041121D01*
X221882696Y-97041121D02*
X221835077Y-96993502D01*
X221835077Y-96993502D02*
X221739839Y-96945883D01*
X221739839Y-96945883D02*
X221501744Y-96945883D01*
X221501744Y-96945883D02*
X221406506Y-96993502D01*
X221406506Y-96993502D02*
X221358887Y-97041121D01*
X221358887Y-97041121D02*
X221311268Y-97136359D01*
X221311268Y-97136359D02*
X221311268Y-97374454D01*
X221311268Y-97374454D02*
X221358887Y-97469692D01*
X221358887Y-97469692D02*
X221406506Y-97517312D01*
X221406506Y-97517312D02*
X221501744Y-97564931D01*
X221501744Y-97564931D02*
X221739839Y-97564931D01*
X221739839Y-97564931D02*
X221835077Y-97517312D01*
X221835077Y-97517312D02*
X221882696Y-97469692D01*
X220692220Y-96564931D02*
X220596982Y-96564931D01*
X220596982Y-96564931D02*
X220501744Y-96612550D01*
X220501744Y-96612550D02*
X220454125Y-96660169D01*
X220454125Y-96660169D02*
X220406506Y-96755407D01*
X220406506Y-96755407D02*
X220358887Y-96945883D01*
X220358887Y-96945883D02*
X220358887Y-97183978D01*
X220358887Y-97183978D02*
X220406506Y-97374454D01*
X220406506Y-97374454D02*
X220454125Y-97469692D01*
X220454125Y-97469692D02*
X220501744Y-97517312D01*
X220501744Y-97517312D02*
X220596982Y-97564931D01*
X220596982Y-97564931D02*
X220692220Y-97564931D01*
X220692220Y-97564931D02*
X220787458Y-97517312D01*
X220787458Y-97517312D02*
X220835077Y-97469692D01*
X220835077Y-97469692D02*
X220882696Y-97374454D01*
X220882696Y-97374454D02*
X220930315Y-97183978D01*
X220930315Y-97183978D02*
X220930315Y-96945883D01*
X220930315Y-96945883D02*
X220882696Y-96755407D01*
X220882696Y-96755407D02*
X220835077Y-96660169D01*
X220835077Y-96660169D02*
X220787458Y-96612550D01*
X220787458Y-96612550D02*
X220692220Y-96564931D01*
X219168410Y-97183978D02*
X218406506Y-97183978D01*
X224168411Y-100784819D02*
X224739839Y-100784819D01*
X224454125Y-100784819D02*
X224454125Y-99784819D01*
X224454125Y-99784819D02*
X224549363Y-99927676D01*
X224549363Y-99927676D02*
X224644601Y-100022914D01*
X224644601Y-100022914D02*
X224739839Y-100070533D01*
X223596982Y-100213390D02*
X223692220Y-100165771D01*
X223692220Y-100165771D02*
X223739839Y-100118152D01*
X223739839Y-100118152D02*
X223787458Y-100022914D01*
X223787458Y-100022914D02*
X223787458Y-99975295D01*
X223787458Y-99975295D02*
X223739839Y-99880057D01*
X223739839Y-99880057D02*
X223692220Y-99832438D01*
X223692220Y-99832438D02*
X223596982Y-99784819D01*
X223596982Y-99784819D02*
X223406506Y-99784819D01*
X223406506Y-99784819D02*
X223311268Y-99832438D01*
X223311268Y-99832438D02*
X223263649Y-99880057D01*
X223263649Y-99880057D02*
X223216030Y-99975295D01*
X223216030Y-99975295D02*
X223216030Y-100022914D01*
X223216030Y-100022914D02*
X223263649Y-100118152D01*
X223263649Y-100118152D02*
X223311268Y-100165771D01*
X223311268Y-100165771D02*
X223406506Y-100213390D01*
X223406506Y-100213390D02*
X223596982Y-100213390D01*
X223596982Y-100213390D02*
X223692220Y-100261009D01*
X223692220Y-100261009D02*
X223739839Y-100308628D01*
X223739839Y-100308628D02*
X223787458Y-100403866D01*
X223787458Y-100403866D02*
X223787458Y-100594342D01*
X223787458Y-100594342D02*
X223739839Y-100689580D01*
X223739839Y-100689580D02*
X223692220Y-100737200D01*
X223692220Y-100737200D02*
X223596982Y-100784819D01*
X223596982Y-100784819D02*
X223406506Y-100784819D01*
X223406506Y-100784819D02*
X223311268Y-100737200D01*
X223311268Y-100737200D02*
X223263649Y-100689580D01*
X223263649Y-100689580D02*
X223216030Y-100594342D01*
X223216030Y-100594342D02*
X223216030Y-100403866D01*
X223216030Y-100403866D02*
X223263649Y-100308628D01*
X223263649Y-100308628D02*
X223311268Y-100261009D01*
X223311268Y-100261009D02*
X223406506Y-100213390D01*
X222358887Y-99784819D02*
X222549363Y-99784819D01*
X222549363Y-99784819D02*
X222644601Y-99832438D01*
X222644601Y-99832438D02*
X222692220Y-99880057D01*
X222692220Y-99880057D02*
X222787458Y-100022914D01*
X222787458Y-100022914D02*
X222835077Y-100213390D01*
X222835077Y-100213390D02*
X222835077Y-100594342D01*
X222835077Y-100594342D02*
X222787458Y-100689580D01*
X222787458Y-100689580D02*
X222739839Y-100737200D01*
X222739839Y-100737200D02*
X222644601Y-100784819D01*
X222644601Y-100784819D02*
X222454125Y-100784819D01*
X222454125Y-100784819D02*
X222358887Y-100737200D01*
X222358887Y-100737200D02*
X222311268Y-100689580D01*
X222311268Y-100689580D02*
X222263649Y-100594342D01*
X222263649Y-100594342D02*
X222263649Y-100356247D01*
X222263649Y-100356247D02*
X222311268Y-100261009D01*
X222311268Y-100261009D02*
X222358887Y-100213390D01*
X222358887Y-100213390D02*
X222454125Y-100165771D01*
X222454125Y-100165771D02*
X222644601Y-100165771D01*
X222644601Y-100165771D02*
X222739839Y-100213390D01*
X222739839Y-100213390D02*
X222787458Y-100261009D01*
X222787458Y-100261009D02*
X222835077Y-100356247D01*
X221358887Y-99784819D02*
X221835077Y-99784819D01*
X221835077Y-99784819D02*
X221882696Y-100261009D01*
X221882696Y-100261009D02*
X221835077Y-100213390D01*
X221835077Y-100213390D02*
X221739839Y-100165771D01*
X221739839Y-100165771D02*
X221501744Y-100165771D01*
X221501744Y-100165771D02*
X221406506Y-100213390D01*
X221406506Y-100213390D02*
X221358887Y-100261009D01*
X221358887Y-100261009D02*
X221311268Y-100356247D01*
X221311268Y-100356247D02*
X221311268Y-100594342D01*
X221311268Y-100594342D02*
X221358887Y-100689580D01*
X221358887Y-100689580D02*
X221406506Y-100737200D01*
X221406506Y-100737200D02*
X221501744Y-100784819D01*
X221501744Y-100784819D02*
X221739839Y-100784819D01*
X221739839Y-100784819D02*
X221835077Y-100737200D01*
X221835077Y-100737200D02*
X221882696Y-100689580D01*
X220692220Y-99784819D02*
X220596982Y-99784819D01*
X220596982Y-99784819D02*
X220501744Y-99832438D01*
X220501744Y-99832438D02*
X220454125Y-99880057D01*
X220454125Y-99880057D02*
X220406506Y-99975295D01*
X220406506Y-99975295D02*
X220358887Y-100165771D01*
X220358887Y-100165771D02*
X220358887Y-100403866D01*
X220358887Y-100403866D02*
X220406506Y-100594342D01*
X220406506Y-100594342D02*
X220454125Y-100689580D01*
X220454125Y-100689580D02*
X220501744Y-100737200D01*
X220501744Y-100737200D02*
X220596982Y-100784819D01*
X220596982Y-100784819D02*
X220692220Y-100784819D01*
X220692220Y-100784819D02*
X220787458Y-100737200D01*
X220787458Y-100737200D02*
X220835077Y-100689580D01*
X220835077Y-100689580D02*
X220882696Y-100594342D01*
X220882696Y-100594342D02*
X220930315Y-100403866D01*
X220930315Y-100403866D02*
X220930315Y-100165771D01*
X220930315Y-100165771D02*
X220882696Y-99975295D01*
X220882696Y-99975295D02*
X220835077Y-99880057D01*
X220835077Y-99880057D02*
X220787458Y-99832438D01*
X220787458Y-99832438D02*
X220692220Y-99784819D01*
X219168410Y-100403866D02*
X218406506Y-100403866D01*
X218787458Y-100784819D02*
X218787458Y-100022914D01*
X220424333Y-108121931D02*
X219852905Y-108121931D01*
X220138619Y-109121931D02*
X220138619Y-108121931D01*
X219519571Y-109121931D02*
X219519571Y-108121931D01*
X219519571Y-108121931D02*
X219138619Y-108121931D01*
X219138619Y-108121931D02*
X219043381Y-108169550D01*
X219043381Y-108169550D02*
X218995762Y-108217169D01*
X218995762Y-108217169D02*
X218948143Y-108312407D01*
X218948143Y-108312407D02*
X218948143Y-108455264D01*
X218948143Y-108455264D02*
X218995762Y-108550502D01*
X218995762Y-108550502D02*
X219043381Y-108598121D01*
X219043381Y-108598121D02*
X219138619Y-108645740D01*
X219138619Y-108645740D02*
X219519571Y-108645740D01*
X217186238Y-109026692D02*
X217233857Y-109074312D01*
X217233857Y-109074312D02*
X217376714Y-109121931D01*
X217376714Y-109121931D02*
X217471952Y-109121931D01*
X217471952Y-109121931D02*
X217614809Y-109074312D01*
X217614809Y-109074312D02*
X217710047Y-108979073D01*
X217710047Y-108979073D02*
X217757666Y-108883835D01*
X217757666Y-108883835D02*
X217805285Y-108693359D01*
X217805285Y-108693359D02*
X217805285Y-108550502D01*
X217805285Y-108550502D02*
X217757666Y-108360026D01*
X217757666Y-108360026D02*
X217710047Y-108264788D01*
X217710047Y-108264788D02*
X217614809Y-108169550D01*
X217614809Y-108169550D02*
X217471952Y-108121931D01*
X217471952Y-108121931D02*
X217376714Y-108121931D01*
X217376714Y-108121931D02*
X217233857Y-108169550D01*
X217233857Y-108169550D02*
X217186238Y-108217169D01*
X216614809Y-109121931D02*
X216710047Y-109074312D01*
X216710047Y-109074312D02*
X216757666Y-109026692D01*
X216757666Y-109026692D02*
X216805285Y-108931454D01*
X216805285Y-108931454D02*
X216805285Y-108645740D01*
X216805285Y-108645740D02*
X216757666Y-108550502D01*
X216757666Y-108550502D02*
X216710047Y-108502883D01*
X216710047Y-108502883D02*
X216614809Y-108455264D01*
X216614809Y-108455264D02*
X216471952Y-108455264D01*
X216471952Y-108455264D02*
X216376714Y-108502883D01*
X216376714Y-108502883D02*
X216329095Y-108550502D01*
X216329095Y-108550502D02*
X216281476Y-108645740D01*
X216281476Y-108645740D02*
X216281476Y-108931454D01*
X216281476Y-108931454D02*
X216329095Y-109026692D01*
X216329095Y-109026692D02*
X216376714Y-109074312D01*
X216376714Y-109074312D02*
X216471952Y-109121931D01*
X216471952Y-109121931D02*
X216614809Y-109121931D01*
X215852904Y-109121931D02*
X215852904Y-108455264D01*
X215852904Y-108550502D02*
X215805285Y-108502883D01*
X215805285Y-108502883D02*
X215710047Y-108455264D01*
X215710047Y-108455264D02*
X215567190Y-108455264D01*
X215567190Y-108455264D02*
X215471952Y-108502883D01*
X215471952Y-108502883D02*
X215424333Y-108598121D01*
X215424333Y-108598121D02*
X215424333Y-109121931D01*
X215424333Y-108598121D02*
X215376714Y-108502883D01*
X215376714Y-108502883D02*
X215281476Y-108455264D01*
X215281476Y-108455264D02*
X215138619Y-108455264D01*
X215138619Y-108455264D02*
X215043380Y-108502883D01*
X215043380Y-108502883D02*
X214995761Y-108598121D01*
X214995761Y-108598121D02*
X214995761Y-109121931D01*
X214519571Y-108455264D02*
X214519571Y-109455264D01*
X214519571Y-108502883D02*
X214424333Y-108455264D01*
X214424333Y-108455264D02*
X214233857Y-108455264D01*
X214233857Y-108455264D02*
X214138619Y-108502883D01*
X214138619Y-108502883D02*
X214091000Y-108550502D01*
X214091000Y-108550502D02*
X214043381Y-108645740D01*
X214043381Y-108645740D02*
X214043381Y-108931454D01*
X214043381Y-108931454D02*
X214091000Y-109026692D01*
X214091000Y-109026692D02*
X214138619Y-109074312D01*
X214138619Y-109074312D02*
X214233857Y-109121931D01*
X214233857Y-109121931D02*
X214424333Y-109121931D01*
X214424333Y-109121931D02*
X214519571Y-109074312D01*
X213186238Y-108455264D02*
X213186238Y-109121931D01*
X213614809Y-108455264D02*
X213614809Y-108979073D01*
X213614809Y-108979073D02*
X213567190Y-109074312D01*
X213567190Y-109074312D02*
X213471952Y-109121931D01*
X213471952Y-109121931D02*
X213329095Y-109121931D01*
X213329095Y-109121931D02*
X213233857Y-109074312D01*
X213233857Y-109074312D02*
X213186238Y-109026692D01*
X212852904Y-108455264D02*
X212471952Y-108455264D01*
X212710047Y-108121931D02*
X212710047Y-108979073D01*
X212710047Y-108979073D02*
X212662428Y-109074312D01*
X212662428Y-109074312D02*
X212567190Y-109121931D01*
X212567190Y-109121931D02*
X212471952Y-109121931D01*
X211757666Y-109074312D02*
X211852904Y-109121931D01*
X211852904Y-109121931D02*
X212043380Y-109121931D01*
X212043380Y-109121931D02*
X212138618Y-109074312D01*
X212138618Y-109074312D02*
X212186237Y-108979073D01*
X212186237Y-108979073D02*
X212186237Y-108598121D01*
X212186237Y-108598121D02*
X212138618Y-108502883D01*
X212138618Y-108502883D02*
X212043380Y-108455264D01*
X212043380Y-108455264D02*
X211852904Y-108455264D01*
X211852904Y-108455264D02*
X211757666Y-108502883D01*
X211757666Y-108502883D02*
X211710047Y-108598121D01*
X211710047Y-108598121D02*
X211710047Y-108693359D01*
X211710047Y-108693359D02*
X212186237Y-108788597D01*
X211281475Y-109121931D02*
X211281475Y-108455264D01*
X211281475Y-108645740D02*
X211233856Y-108550502D01*
X211233856Y-108550502D02*
X211186237Y-108502883D01*
X211186237Y-108502883D02*
X211090999Y-108455264D01*
X211090999Y-108455264D02*
X210995761Y-108455264D01*
X210710046Y-109074312D02*
X210614808Y-109121931D01*
X210614808Y-109121931D02*
X210424332Y-109121931D01*
X210424332Y-109121931D02*
X210329094Y-109074312D01*
X210329094Y-109074312D02*
X210281475Y-108979073D01*
X210281475Y-108979073D02*
X210281475Y-108931454D01*
X210281475Y-108931454D02*
X210329094Y-108836216D01*
X210329094Y-108836216D02*
X210424332Y-108788597D01*
X210424332Y-108788597D02*
X210567189Y-108788597D01*
X210567189Y-108788597D02*
X210662427Y-108740978D01*
X210662427Y-108740978D02*
X210710046Y-108645740D01*
X210710046Y-108645740D02*
X210710046Y-108598121D01*
X210710046Y-108598121D02*
X210662427Y-108502883D01*
X210662427Y-108502883D02*
X210567189Y-108455264D01*
X210567189Y-108455264D02*
X210424332Y-108455264D01*
X210424332Y-108455264D02*
X210329094Y-108502883D01*
X209471951Y-109074312D02*
X209567189Y-109121931D01*
X209567189Y-109121931D02*
X209757665Y-109121931D01*
X209757665Y-109121931D02*
X209852903Y-109074312D01*
X209852903Y-109074312D02*
X209900522Y-108979073D01*
X209900522Y-108979073D02*
X209900522Y-108598121D01*
X209900522Y-108598121D02*
X209852903Y-108502883D01*
X209852903Y-108502883D02*
X209757665Y-108455264D01*
X209757665Y-108455264D02*
X209567189Y-108455264D01*
X209567189Y-108455264D02*
X209471951Y-108502883D01*
X209471951Y-108502883D02*
X209424332Y-108598121D01*
X209424332Y-108598121D02*
X209424332Y-108693359D01*
X209424332Y-108693359D02*
X209900522Y-108788597D01*
X208995760Y-109121931D02*
X208995760Y-108455264D01*
X208995760Y-108645740D02*
X208948141Y-108550502D01*
X208948141Y-108550502D02*
X208900522Y-108502883D01*
X208900522Y-108502883D02*
X208805284Y-108455264D01*
X208805284Y-108455264D02*
X208710046Y-108455264D01*
X208471950Y-108455264D02*
X208233855Y-109121931D01*
X208233855Y-109121931D02*
X207995760Y-108455264D01*
X207614807Y-109121931D02*
X207614807Y-108455264D01*
X207614807Y-108121931D02*
X207662426Y-108169550D01*
X207662426Y-108169550D02*
X207614807Y-108217169D01*
X207614807Y-108217169D02*
X207567188Y-108169550D01*
X207567188Y-108169550D02*
X207614807Y-108121931D01*
X207614807Y-108121931D02*
X207614807Y-108217169D01*
X206710046Y-109074312D02*
X206805284Y-109121931D01*
X206805284Y-109121931D02*
X206995760Y-109121931D01*
X206995760Y-109121931D02*
X207090998Y-109074312D01*
X207090998Y-109074312D02*
X207138617Y-109026692D01*
X207138617Y-109026692D02*
X207186236Y-108931454D01*
X207186236Y-108931454D02*
X207186236Y-108645740D01*
X207186236Y-108645740D02*
X207138617Y-108550502D01*
X207138617Y-108550502D02*
X207090998Y-108502883D01*
X207090998Y-108502883D02*
X206995760Y-108455264D01*
X206995760Y-108455264D02*
X206805284Y-108455264D01*
X206805284Y-108455264D02*
X206710046Y-108502883D01*
X205900522Y-109074312D02*
X205995760Y-109121931D01*
X205995760Y-109121931D02*
X206186236Y-109121931D01*
X206186236Y-109121931D02*
X206281474Y-109074312D01*
X206281474Y-109074312D02*
X206329093Y-108979073D01*
X206329093Y-108979073D02*
X206329093Y-108598121D01*
X206329093Y-108598121D02*
X206281474Y-108502883D01*
X206281474Y-108502883D02*
X206186236Y-108455264D01*
X206186236Y-108455264D02*
X205995760Y-108455264D01*
X205995760Y-108455264D02*
X205900522Y-108502883D01*
X205900522Y-108502883D02*
X205852903Y-108598121D01*
X205852903Y-108598121D02*
X205852903Y-108693359D01*
X205852903Y-108693359D02*
X206329093Y-108788597D01*
X216305285Y-110731875D02*
X216305285Y-109731875D01*
X216305285Y-109731875D02*
X216067190Y-109731875D01*
X216067190Y-109731875D02*
X215924333Y-109779494D01*
X215924333Y-109779494D02*
X215829095Y-109874732D01*
X215829095Y-109874732D02*
X215781476Y-109969970D01*
X215781476Y-109969970D02*
X215733857Y-110160446D01*
X215733857Y-110160446D02*
X215733857Y-110303303D01*
X215733857Y-110303303D02*
X215781476Y-110493779D01*
X215781476Y-110493779D02*
X215829095Y-110589017D01*
X215829095Y-110589017D02*
X215924333Y-110684256D01*
X215924333Y-110684256D02*
X216067190Y-110731875D01*
X216067190Y-110731875D02*
X216305285Y-110731875D01*
X215305285Y-110731875D02*
X215305285Y-110065208D01*
X215305285Y-109731875D02*
X215352904Y-109779494D01*
X215352904Y-109779494D02*
X215305285Y-109827113D01*
X215305285Y-109827113D02*
X215257666Y-109779494D01*
X215257666Y-109779494D02*
X215305285Y-109731875D01*
X215305285Y-109731875D02*
X215305285Y-109827113D01*
X214971952Y-110065208D02*
X214591000Y-110065208D01*
X214829095Y-109731875D02*
X214829095Y-110589017D01*
X214829095Y-110589017D02*
X214781476Y-110684256D01*
X214781476Y-110684256D02*
X214686238Y-110731875D01*
X214686238Y-110731875D02*
X214591000Y-110731875D01*
X214352904Y-110065208D02*
X213829095Y-110065208D01*
X213829095Y-110065208D02*
X214352904Y-110731875D01*
X214352904Y-110731875D02*
X213829095Y-110731875D01*
X213448142Y-110731875D02*
X213448142Y-110065208D01*
X213448142Y-109731875D02*
X213495761Y-109779494D01*
X213495761Y-109779494D02*
X213448142Y-109827113D01*
X213448142Y-109827113D02*
X213400523Y-109779494D01*
X213400523Y-109779494D02*
X213448142Y-109731875D01*
X213448142Y-109731875D02*
X213448142Y-109827113D01*
X212971952Y-110065208D02*
X212971952Y-110731875D01*
X212971952Y-110160446D02*
X212924333Y-110112827D01*
X212924333Y-110112827D02*
X212829095Y-110065208D01*
X212829095Y-110065208D02*
X212686238Y-110065208D01*
X212686238Y-110065208D02*
X212591000Y-110112827D01*
X212591000Y-110112827D02*
X212543381Y-110208065D01*
X212543381Y-110208065D02*
X212543381Y-110731875D01*
X211638619Y-110065208D02*
X211638619Y-110874732D01*
X211638619Y-110874732D02*
X211686238Y-110969970D01*
X211686238Y-110969970D02*
X211733857Y-111017589D01*
X211733857Y-111017589D02*
X211829095Y-111065208D01*
X211829095Y-111065208D02*
X211971952Y-111065208D01*
X211971952Y-111065208D02*
X212067190Y-111017589D01*
X211638619Y-110684256D02*
X211733857Y-110731875D01*
X211733857Y-110731875D02*
X211924333Y-110731875D01*
X211924333Y-110731875D02*
X212019571Y-110684256D01*
X212019571Y-110684256D02*
X212067190Y-110636636D01*
X212067190Y-110636636D02*
X212114809Y-110541398D01*
X212114809Y-110541398D02*
X212114809Y-110255684D01*
X212114809Y-110255684D02*
X212067190Y-110160446D01*
X212067190Y-110160446D02*
X212019571Y-110112827D01*
X212019571Y-110112827D02*
X211924333Y-110065208D01*
X211924333Y-110065208D02*
X211733857Y-110065208D01*
X211733857Y-110065208D02*
X211638619Y-110112827D01*
X210781476Y-110684256D02*
X210876714Y-110731875D01*
X210876714Y-110731875D02*
X211067190Y-110731875D01*
X211067190Y-110731875D02*
X211162428Y-110684256D01*
X211162428Y-110684256D02*
X211210047Y-110589017D01*
X211210047Y-110589017D02*
X211210047Y-110208065D01*
X211210047Y-110208065D02*
X211162428Y-110112827D01*
X211162428Y-110112827D02*
X211067190Y-110065208D01*
X211067190Y-110065208D02*
X210876714Y-110065208D01*
X210876714Y-110065208D02*
X210781476Y-110112827D01*
X210781476Y-110112827D02*
X210733857Y-110208065D01*
X210733857Y-110208065D02*
X210733857Y-110303303D01*
X210733857Y-110303303D02*
X211210047Y-110398541D01*
X210305285Y-110065208D02*
X210305285Y-110731875D01*
X210305285Y-110160446D02*
X210257666Y-110112827D01*
X210257666Y-110112827D02*
X210162428Y-110065208D01*
X210162428Y-110065208D02*
X210019571Y-110065208D01*
X210019571Y-110065208D02*
X209924333Y-110112827D01*
X209924333Y-110112827D02*
X209876714Y-110208065D01*
X209876714Y-110208065D02*
X209876714Y-110731875D01*
X218710047Y-111341819D02*
X218519571Y-111341819D01*
X218519571Y-111341819D02*
X218424333Y-111389438D01*
X218424333Y-111389438D02*
X218329095Y-111484676D01*
X218329095Y-111484676D02*
X218281476Y-111675152D01*
X218281476Y-111675152D02*
X218281476Y-112008485D01*
X218281476Y-112008485D02*
X218329095Y-112198961D01*
X218329095Y-112198961D02*
X218424333Y-112294200D01*
X218424333Y-112294200D02*
X218519571Y-112341819D01*
X218519571Y-112341819D02*
X218710047Y-112341819D01*
X218710047Y-112341819D02*
X218805285Y-112294200D01*
X218805285Y-112294200D02*
X218900523Y-112198961D01*
X218900523Y-112198961D02*
X218948142Y-112008485D01*
X218948142Y-112008485D02*
X218948142Y-111675152D01*
X218948142Y-111675152D02*
X218900523Y-111484676D01*
X218900523Y-111484676D02*
X218805285Y-111389438D01*
X218805285Y-111389438D02*
X218710047Y-111341819D01*
X217852904Y-112341819D02*
X217852904Y-111341819D01*
X217852904Y-111341819D02*
X217281476Y-112341819D01*
X217281476Y-112341819D02*
X217281476Y-111341819D01*
X216805285Y-111818009D02*
X216471952Y-111818009D01*
X216329095Y-112341819D02*
X216805285Y-112341819D01*
X216805285Y-112341819D02*
X216805285Y-111341819D01*
X216805285Y-111341819D02*
X216329095Y-111341819D01*
X214805285Y-111818009D02*
X214662428Y-111865628D01*
X214662428Y-111865628D02*
X214614809Y-111913247D01*
X214614809Y-111913247D02*
X214567190Y-112008485D01*
X214567190Y-112008485D02*
X214567190Y-112151342D01*
X214567190Y-112151342D02*
X214614809Y-112246580D01*
X214614809Y-112246580D02*
X214662428Y-112294200D01*
X214662428Y-112294200D02*
X214757666Y-112341819D01*
X214757666Y-112341819D02*
X215138618Y-112341819D01*
X215138618Y-112341819D02*
X215138618Y-111341819D01*
X215138618Y-111341819D02*
X214805285Y-111341819D01*
X214805285Y-111341819D02*
X214710047Y-111389438D01*
X214710047Y-111389438D02*
X214662428Y-111437057D01*
X214662428Y-111437057D02*
X214614809Y-111532295D01*
X214614809Y-111532295D02*
X214614809Y-111627533D01*
X214614809Y-111627533D02*
X214662428Y-111722771D01*
X214662428Y-111722771D02*
X214710047Y-111770390D01*
X214710047Y-111770390D02*
X214805285Y-111818009D01*
X214805285Y-111818009D02*
X215138618Y-111818009D01*
X213995761Y-112341819D02*
X214090999Y-112294200D01*
X214090999Y-112294200D02*
X214138618Y-112246580D01*
X214138618Y-112246580D02*
X214186237Y-112151342D01*
X214186237Y-112151342D02*
X214186237Y-111865628D01*
X214186237Y-111865628D02*
X214138618Y-111770390D01*
X214138618Y-111770390D02*
X214090999Y-111722771D01*
X214090999Y-111722771D02*
X213995761Y-111675152D01*
X213995761Y-111675152D02*
X213852904Y-111675152D01*
X213852904Y-111675152D02*
X213757666Y-111722771D01*
X213757666Y-111722771D02*
X213710047Y-111770390D01*
X213710047Y-111770390D02*
X213662428Y-111865628D01*
X213662428Y-111865628D02*
X213662428Y-112151342D01*
X213662428Y-112151342D02*
X213710047Y-112246580D01*
X213710047Y-112246580D02*
X213757666Y-112294200D01*
X213757666Y-112294200D02*
X213852904Y-112341819D01*
X213852904Y-112341819D02*
X213995761Y-112341819D01*
X212805285Y-112341819D02*
X212805285Y-111818009D01*
X212805285Y-111818009D02*
X212852904Y-111722771D01*
X212852904Y-111722771D02*
X212948142Y-111675152D01*
X212948142Y-111675152D02*
X213138618Y-111675152D01*
X213138618Y-111675152D02*
X213233856Y-111722771D01*
X212805285Y-112294200D02*
X212900523Y-112341819D01*
X212900523Y-112341819D02*
X213138618Y-112341819D01*
X213138618Y-112341819D02*
X213233856Y-112294200D01*
X213233856Y-112294200D02*
X213281475Y-112198961D01*
X213281475Y-112198961D02*
X213281475Y-112103723D01*
X213281475Y-112103723D02*
X213233856Y-112008485D01*
X213233856Y-112008485D02*
X213138618Y-111960866D01*
X213138618Y-111960866D02*
X212900523Y-111960866D01*
X212900523Y-111960866D02*
X212805285Y-111913247D01*
X212329094Y-112341819D02*
X212329094Y-111675152D01*
X212329094Y-111865628D02*
X212281475Y-111770390D01*
X212281475Y-111770390D02*
X212233856Y-111722771D01*
X212233856Y-111722771D02*
X212138618Y-111675152D01*
X212138618Y-111675152D02*
X212043380Y-111675152D01*
X211281475Y-112341819D02*
X211281475Y-111341819D01*
X211281475Y-112294200D02*
X211376713Y-112341819D01*
X211376713Y-112341819D02*
X211567189Y-112341819D01*
X211567189Y-112341819D02*
X211662427Y-112294200D01*
X211662427Y-112294200D02*
X211710046Y-112246580D01*
X211710046Y-112246580D02*
X211757665Y-112151342D01*
X211757665Y-112151342D02*
X211757665Y-111865628D01*
X211757665Y-111865628D02*
X211710046Y-111770390D01*
X211710046Y-111770390D02*
X211662427Y-111722771D01*
X211662427Y-111722771D02*
X211567189Y-111675152D01*
X211567189Y-111675152D02*
X211376713Y-111675152D01*
X211376713Y-111675152D02*
X211281475Y-111722771D01*
X210186236Y-111341819D02*
X209852903Y-112341819D01*
X209852903Y-112341819D02*
X209519570Y-111341819D01*
X209281474Y-111341819D02*
X208662427Y-111341819D01*
X208662427Y-111341819D02*
X208995760Y-111722771D01*
X208995760Y-111722771D02*
X208852903Y-111722771D01*
X208852903Y-111722771D02*
X208757665Y-111770390D01*
X208757665Y-111770390D02*
X208710046Y-111818009D01*
X208710046Y-111818009D02*
X208662427Y-111913247D01*
X208662427Y-111913247D02*
X208662427Y-112151342D01*
X208662427Y-112151342D02*
X208710046Y-112246580D01*
X208710046Y-112246580D02*
X208757665Y-112294200D01*
X208757665Y-112294200D02*
X208852903Y-112341819D01*
X208852903Y-112341819D02*
X209138617Y-112341819D01*
X209138617Y-112341819D02*
X209233855Y-112294200D01*
X209233855Y-112294200D02*
X209281474Y-112246580D01*
X208233855Y-112246580D02*
X208186236Y-112294200D01*
X208186236Y-112294200D02*
X208233855Y-112341819D01*
X208233855Y-112341819D02*
X208281474Y-112294200D01*
X208281474Y-112294200D02*
X208233855Y-112246580D01*
X208233855Y-112246580D02*
X208233855Y-112341819D01*
X207567189Y-111341819D02*
X207471951Y-111341819D01*
X207471951Y-111341819D02*
X207376713Y-111389438D01*
X207376713Y-111389438D02*
X207329094Y-111437057D01*
X207329094Y-111437057D02*
X207281475Y-111532295D01*
X207281475Y-111532295D02*
X207233856Y-111722771D01*
X207233856Y-111722771D02*
X207233856Y-111960866D01*
X207233856Y-111960866D02*
X207281475Y-112151342D01*
X207281475Y-112151342D02*
X207329094Y-112246580D01*
X207329094Y-112246580D02*
X207376713Y-112294200D01*
X207376713Y-112294200D02*
X207471951Y-112341819D01*
X207471951Y-112341819D02*
X207567189Y-112341819D01*
X207567189Y-112341819D02*
X207662427Y-112294200D01*
X207662427Y-112294200D02*
X207710046Y-112246580D01*
X207710046Y-112246580D02*
X207757665Y-112151342D01*
X207757665Y-112151342D02*
X207805284Y-111960866D01*
X207805284Y-111960866D02*
X207805284Y-111722771D01*
X207805284Y-111722771D02*
X207757665Y-111532295D01*
X207757665Y-111532295D02*
X207710046Y-111437057D01*
X207710046Y-111437057D02*
X207662427Y-111389438D01*
X207662427Y-111389438D02*
X207567189Y-111341819D01*
D11*
X239545558Y-107131733D02*
X241069368Y-107131733D01*
D12*
X253520233Y-41367793D02*
X251805948Y-41367793D01*
X252663090Y-44367793D02*
X252663090Y-41367793D01*
X250805948Y-44367793D02*
X250805948Y-41367793D01*
X250805948Y-41367793D02*
X249663091Y-41367793D01*
X249663091Y-41367793D02*
X249377376Y-41510650D01*
X249377376Y-41510650D02*
X249234519Y-41653507D01*
X249234519Y-41653507D02*
X249091662Y-41939221D01*
X249091662Y-41939221D02*
X249091662Y-42367793D01*
X249091662Y-42367793D02*
X249234519Y-42653507D01*
X249234519Y-42653507D02*
X249377376Y-42796364D01*
X249377376Y-42796364D02*
X249663091Y-42939221D01*
X249663091Y-42939221D02*
X250805948Y-42939221D01*
X243805948Y-44082078D02*
X243948805Y-44224936D01*
X243948805Y-44224936D02*
X244377377Y-44367793D01*
X244377377Y-44367793D02*
X244663091Y-44367793D01*
X244663091Y-44367793D02*
X245091662Y-44224936D01*
X245091662Y-44224936D02*
X245377377Y-43939221D01*
X245377377Y-43939221D02*
X245520234Y-43653507D01*
X245520234Y-43653507D02*
X245663091Y-43082078D01*
X245663091Y-43082078D02*
X245663091Y-42653507D01*
X245663091Y-42653507D02*
X245520234Y-42082078D01*
X245520234Y-42082078D02*
X245377377Y-41796364D01*
X245377377Y-41796364D02*
X245091662Y-41510650D01*
X245091662Y-41510650D02*
X244663091Y-41367793D01*
X244663091Y-41367793D02*
X244377377Y-41367793D01*
X244377377Y-41367793D02*
X243948805Y-41510650D01*
X243948805Y-41510650D02*
X243805948Y-41653507D01*
X242091662Y-44367793D02*
X242377377Y-44224936D01*
X242377377Y-44224936D02*
X242520234Y-44082078D01*
X242520234Y-44082078D02*
X242663091Y-43796364D01*
X242663091Y-43796364D02*
X242663091Y-42939221D01*
X242663091Y-42939221D02*
X242520234Y-42653507D01*
X242520234Y-42653507D02*
X242377377Y-42510650D01*
X242377377Y-42510650D02*
X242091662Y-42367793D01*
X242091662Y-42367793D02*
X241663091Y-42367793D01*
X241663091Y-42367793D02*
X241377377Y-42510650D01*
X241377377Y-42510650D02*
X241234520Y-42653507D01*
X241234520Y-42653507D02*
X241091662Y-42939221D01*
X241091662Y-42939221D02*
X241091662Y-43796364D01*
X241091662Y-43796364D02*
X241234520Y-44082078D01*
X241234520Y-44082078D02*
X241377377Y-44224936D01*
X241377377Y-44224936D02*
X241663091Y-44367793D01*
X241663091Y-44367793D02*
X242091662Y-44367793D01*
X239805948Y-44367793D02*
X239805948Y-42367793D01*
X239805948Y-42653507D02*
X239663091Y-42510650D01*
X239663091Y-42510650D02*
X239377376Y-42367793D01*
X239377376Y-42367793D02*
X238948805Y-42367793D01*
X238948805Y-42367793D02*
X238663091Y-42510650D01*
X238663091Y-42510650D02*
X238520234Y-42796364D01*
X238520234Y-42796364D02*
X238520234Y-44367793D01*
X238520234Y-42796364D02*
X238377376Y-42510650D01*
X238377376Y-42510650D02*
X238091662Y-42367793D01*
X238091662Y-42367793D02*
X237663091Y-42367793D01*
X237663091Y-42367793D02*
X237377376Y-42510650D01*
X237377376Y-42510650D02*
X237234519Y-42796364D01*
X237234519Y-42796364D02*
X237234519Y-44367793D01*
X235805948Y-42367793D02*
X235805948Y-45367793D01*
X235805948Y-42510650D02*
X235520234Y-42367793D01*
X235520234Y-42367793D02*
X234948805Y-42367793D01*
X234948805Y-42367793D02*
X234663091Y-42510650D01*
X234663091Y-42510650D02*
X234520234Y-42653507D01*
X234520234Y-42653507D02*
X234377376Y-42939221D01*
X234377376Y-42939221D02*
X234377376Y-43796364D01*
X234377376Y-43796364D02*
X234520234Y-44082078D01*
X234520234Y-44082078D02*
X234663091Y-44224936D01*
X234663091Y-44224936D02*
X234948805Y-44367793D01*
X234948805Y-44367793D02*
X235520234Y-44367793D01*
X235520234Y-44367793D02*
X235805948Y-44224936D01*
X231805948Y-42367793D02*
X231805948Y-44367793D01*
X233091662Y-42367793D02*
X233091662Y-43939221D01*
X233091662Y-43939221D02*
X232948805Y-44224936D01*
X232948805Y-44224936D02*
X232663090Y-44367793D01*
X232663090Y-44367793D02*
X232234519Y-44367793D01*
X232234519Y-44367793D02*
X231948805Y-44224936D01*
X231948805Y-44224936D02*
X231805948Y-44082078D01*
X230805947Y-42367793D02*
X229663090Y-42367793D01*
X230377376Y-41367793D02*
X230377376Y-43939221D01*
X230377376Y-43939221D02*
X230234519Y-44224936D01*
X230234519Y-44224936D02*
X229948804Y-44367793D01*
X229948804Y-44367793D02*
X229663090Y-44367793D01*
X227520233Y-44224936D02*
X227805947Y-44367793D01*
X227805947Y-44367793D02*
X228377376Y-44367793D01*
X228377376Y-44367793D02*
X228663090Y-44224936D01*
X228663090Y-44224936D02*
X228805947Y-43939221D01*
X228805947Y-43939221D02*
X228805947Y-42796364D01*
X228805947Y-42796364D02*
X228663090Y-42510650D01*
X228663090Y-42510650D02*
X228377376Y-42367793D01*
X228377376Y-42367793D02*
X227805947Y-42367793D01*
X227805947Y-42367793D02*
X227520233Y-42510650D01*
X227520233Y-42510650D02*
X227377376Y-42796364D01*
X227377376Y-42796364D02*
X227377376Y-43082078D01*
X227377376Y-43082078D02*
X228805947Y-43367793D01*
X226091661Y-44367793D02*
X226091661Y-42367793D01*
X226091661Y-42939221D02*
X225948804Y-42653507D01*
X225948804Y-42653507D02*
X225805947Y-42510650D01*
X225805947Y-42510650D02*
X225520232Y-42367793D01*
X225520232Y-42367793D02*
X225234518Y-42367793D01*
X224377375Y-44224936D02*
X224091661Y-44367793D01*
X224091661Y-44367793D02*
X223520232Y-44367793D01*
X223520232Y-44367793D02*
X223234518Y-44224936D01*
X223234518Y-44224936D02*
X223091661Y-43939221D01*
X223091661Y-43939221D02*
X223091661Y-43796364D01*
X223091661Y-43796364D02*
X223234518Y-43510650D01*
X223234518Y-43510650D02*
X223520232Y-43367793D01*
X223520232Y-43367793D02*
X223948804Y-43367793D01*
X223948804Y-43367793D02*
X224234518Y-43224936D01*
X224234518Y-43224936D02*
X224377375Y-42939221D01*
X224377375Y-42939221D02*
X224377375Y-42796364D01*
X224377375Y-42796364D02*
X224234518Y-42510650D01*
X224234518Y-42510650D02*
X223948804Y-42367793D01*
X223948804Y-42367793D02*
X223520232Y-42367793D01*
X223520232Y-42367793D02*
X223234518Y-42510650D01*
X220663090Y-44224936D02*
X220948804Y-44367793D01*
X220948804Y-44367793D02*
X221520233Y-44367793D01*
X221520233Y-44367793D02*
X221805947Y-44224936D01*
X221805947Y-44224936D02*
X221948804Y-43939221D01*
X221948804Y-43939221D02*
X221948804Y-42796364D01*
X221948804Y-42796364D02*
X221805947Y-42510650D01*
X221805947Y-42510650D02*
X221520233Y-42367793D01*
X221520233Y-42367793D02*
X220948804Y-42367793D01*
X220948804Y-42367793D02*
X220663090Y-42510650D01*
X220663090Y-42510650D02*
X220520233Y-42796364D01*
X220520233Y-42796364D02*
X220520233Y-43082078D01*
X220520233Y-43082078D02*
X221948804Y-43367793D01*
X219234518Y-44367793D02*
X219234518Y-42367793D01*
X219234518Y-42939221D02*
X219091661Y-42653507D01*
X219091661Y-42653507D02*
X218948804Y-42510650D01*
X218948804Y-42510650D02*
X218663089Y-42367793D01*
X218663089Y-42367793D02*
X218377375Y-42367793D01*
X217663089Y-42367793D02*
X216948803Y-44367793D01*
X216948803Y-44367793D02*
X216234518Y-42367793D01*
X215091661Y-44367793D02*
X215091661Y-42367793D01*
X215091661Y-41367793D02*
X215234518Y-41510650D01*
X215234518Y-41510650D02*
X215091661Y-41653507D01*
X215091661Y-41653507D02*
X214948804Y-41510650D01*
X214948804Y-41510650D02*
X215091661Y-41367793D01*
X215091661Y-41367793D02*
X215091661Y-41653507D01*
X212377376Y-44224936D02*
X212663090Y-44367793D01*
X212663090Y-44367793D02*
X213234518Y-44367793D01*
X213234518Y-44367793D02*
X213520233Y-44224936D01*
X213520233Y-44224936D02*
X213663090Y-44082078D01*
X213663090Y-44082078D02*
X213805947Y-43796364D01*
X213805947Y-43796364D02*
X213805947Y-42939221D01*
X213805947Y-42939221D02*
X213663090Y-42653507D01*
X213663090Y-42653507D02*
X213520233Y-42510650D01*
X213520233Y-42510650D02*
X213234518Y-42367793D01*
X213234518Y-42367793D02*
X212663090Y-42367793D01*
X212663090Y-42367793D02*
X212377376Y-42510650D01*
X209948804Y-44224936D02*
X210234518Y-44367793D01*
X210234518Y-44367793D02*
X210805947Y-44367793D01*
X210805947Y-44367793D02*
X211091661Y-44224936D01*
X211091661Y-44224936D02*
X211234518Y-43939221D01*
X211234518Y-43939221D02*
X211234518Y-42796364D01*
X211234518Y-42796364D02*
X211091661Y-42510650D01*
X211091661Y-42510650D02*
X210805947Y-42367793D01*
X210805947Y-42367793D02*
X210234518Y-42367793D01*
X210234518Y-42367793D02*
X209948804Y-42510650D01*
X209948804Y-42510650D02*
X209805947Y-42796364D01*
X209805947Y-42796364D02*
X209805947Y-43082078D01*
X209805947Y-43082078D02*
X211234518Y-43367793D01*
X253377376Y-46197625D02*
X252663090Y-49197625D01*
X252663090Y-49197625D02*
X252091662Y-47054768D01*
X252091662Y-47054768D02*
X251520233Y-49197625D01*
X251520233Y-49197625D02*
X250805948Y-46197625D01*
X248520234Y-49054768D02*
X248805948Y-49197625D01*
X248805948Y-49197625D02*
X249377377Y-49197625D01*
X249377377Y-49197625D02*
X249663091Y-49054768D01*
X249663091Y-49054768D02*
X249805948Y-48769053D01*
X249805948Y-48769053D02*
X249805948Y-47626196D01*
X249805948Y-47626196D02*
X249663091Y-47340482D01*
X249663091Y-47340482D02*
X249377377Y-47197625D01*
X249377377Y-47197625D02*
X248805948Y-47197625D01*
X248805948Y-47197625D02*
X248520234Y-47340482D01*
X248520234Y-47340482D02*
X248377377Y-47626196D01*
X248377377Y-47626196D02*
X248377377Y-47911910D01*
X248377377Y-47911910D02*
X249805948Y-48197625D01*
X247520233Y-47197625D02*
X246377376Y-47197625D01*
X247091662Y-46197625D02*
X247091662Y-48769053D01*
X247091662Y-48769053D02*
X246948805Y-49054768D01*
X246948805Y-49054768D02*
X246663090Y-49197625D01*
X246663090Y-49197625D02*
X246377376Y-49197625D01*
X245805947Y-47197625D02*
X244663090Y-47197625D01*
X245377376Y-46197625D02*
X245377376Y-48769053D01*
X245377376Y-48769053D02*
X245234519Y-49054768D01*
X245234519Y-49054768D02*
X244948804Y-49197625D01*
X244948804Y-49197625D02*
X244663090Y-49197625D01*
X242520233Y-49054768D02*
X242805947Y-49197625D01*
X242805947Y-49197625D02*
X243377376Y-49197625D01*
X243377376Y-49197625D02*
X243663090Y-49054768D01*
X243663090Y-49054768D02*
X243805947Y-48769053D01*
X243805947Y-48769053D02*
X243805947Y-47626196D01*
X243805947Y-47626196D02*
X243663090Y-47340482D01*
X243663090Y-47340482D02*
X243377376Y-47197625D01*
X243377376Y-47197625D02*
X242805947Y-47197625D01*
X242805947Y-47197625D02*
X242520233Y-47340482D01*
X242520233Y-47340482D02*
X242377376Y-47626196D01*
X242377376Y-47626196D02*
X242377376Y-47911910D01*
X242377376Y-47911910D02*
X243805947Y-48197625D01*
X241091661Y-49197625D02*
X241091661Y-47197625D01*
X241091661Y-47769053D02*
X240948804Y-47483339D01*
X240948804Y-47483339D02*
X240805947Y-47340482D01*
X240805947Y-47340482D02*
X240520232Y-47197625D01*
X240520232Y-47197625D02*
X240234518Y-47197625D01*
X239377375Y-49054768D02*
X238948804Y-49197625D01*
X238948804Y-49197625D02*
X238234518Y-49197625D01*
X238234518Y-49197625D02*
X237948804Y-49054768D01*
X237948804Y-49054768D02*
X237805946Y-48911910D01*
X237805946Y-48911910D02*
X237663089Y-48626196D01*
X237663089Y-48626196D02*
X237663089Y-48340482D01*
X237663089Y-48340482D02*
X237805946Y-48054768D01*
X237805946Y-48054768D02*
X237948804Y-47911910D01*
X237948804Y-47911910D02*
X238234518Y-47769053D01*
X238234518Y-47769053D02*
X238805946Y-47626196D01*
X238805946Y-47626196D02*
X239091661Y-47483339D01*
X239091661Y-47483339D02*
X239234518Y-47340482D01*
X239234518Y-47340482D02*
X239377375Y-47054768D01*
X239377375Y-47054768D02*
X239377375Y-46769053D01*
X239377375Y-46769053D02*
X239234518Y-46483339D01*
X239234518Y-46483339D02*
X239091661Y-46340482D01*
X239091661Y-46340482D02*
X238805946Y-46197625D01*
X238805946Y-46197625D02*
X238091661Y-46197625D01*
X238091661Y-46197625D02*
X237663089Y-46340482D01*
X236805946Y-47197625D02*
X235663089Y-47197625D01*
X236377375Y-46197625D02*
X236377375Y-48769053D01*
X236377375Y-48769053D02*
X236234518Y-49054768D01*
X236234518Y-49054768D02*
X235948803Y-49197625D01*
X235948803Y-49197625D02*
X235663089Y-49197625D01*
X233377375Y-49197625D02*
X233377375Y-47626196D01*
X233377375Y-47626196D02*
X233520232Y-47340482D01*
X233520232Y-47340482D02*
X233805946Y-47197625D01*
X233805946Y-47197625D02*
X234377375Y-47197625D01*
X234377375Y-47197625D02*
X234663089Y-47340482D01*
X233377375Y-49054768D02*
X233663089Y-49197625D01*
X233663089Y-49197625D02*
X234377375Y-49197625D01*
X234377375Y-49197625D02*
X234663089Y-49054768D01*
X234663089Y-49054768D02*
X234805946Y-48769053D01*
X234805946Y-48769053D02*
X234805946Y-48483339D01*
X234805946Y-48483339D02*
X234663089Y-48197625D01*
X234663089Y-48197625D02*
X234377375Y-48054768D01*
X234377375Y-48054768D02*
X233663089Y-48054768D01*
X233663089Y-48054768D02*
X233377375Y-47911910D01*
X232377374Y-47197625D02*
X231234517Y-47197625D01*
X231948803Y-46197625D02*
X231948803Y-48769053D01*
X231948803Y-48769053D02*
X231805946Y-49054768D01*
X231805946Y-49054768D02*
X231520231Y-49197625D01*
X231520231Y-49197625D02*
X231234517Y-49197625D01*
X230234517Y-49197625D02*
X230234517Y-47197625D01*
X230234517Y-46197625D02*
X230377374Y-46340482D01*
X230377374Y-46340482D02*
X230234517Y-46483339D01*
X230234517Y-46483339D02*
X230091660Y-46340482D01*
X230091660Y-46340482D02*
X230234517Y-46197625D01*
X230234517Y-46197625D02*
X230234517Y-46483339D01*
X228377374Y-49197625D02*
X228663089Y-49054768D01*
X228663089Y-49054768D02*
X228805946Y-48911910D01*
X228805946Y-48911910D02*
X228948803Y-48626196D01*
X228948803Y-48626196D02*
X228948803Y-47769053D01*
X228948803Y-47769053D02*
X228805946Y-47483339D01*
X228805946Y-47483339D02*
X228663089Y-47340482D01*
X228663089Y-47340482D02*
X228377374Y-47197625D01*
X228377374Y-47197625D02*
X227948803Y-47197625D01*
X227948803Y-47197625D02*
X227663089Y-47340482D01*
X227663089Y-47340482D02*
X227520232Y-47483339D01*
X227520232Y-47483339D02*
X227377374Y-47769053D01*
X227377374Y-47769053D02*
X227377374Y-48626196D01*
X227377374Y-48626196D02*
X227520232Y-48911910D01*
X227520232Y-48911910D02*
X227663089Y-49054768D01*
X227663089Y-49054768D02*
X227948803Y-49197625D01*
X227948803Y-49197625D02*
X228377374Y-49197625D01*
X226091660Y-47197625D02*
X226091660Y-49197625D01*
X226091660Y-47483339D02*
X225948803Y-47340482D01*
X225948803Y-47340482D02*
X225663088Y-47197625D01*
X225663088Y-47197625D02*
X225234517Y-47197625D01*
X225234517Y-47197625D02*
X224948803Y-47340482D01*
X224948803Y-47340482D02*
X224805946Y-47626196D01*
X224805946Y-47626196D02*
X224805946Y-49197625D01*
X221091660Y-47626196D02*
X220091660Y-47626196D01*
X219663088Y-49197625D02*
X221091660Y-49197625D01*
X221091660Y-49197625D02*
X221091660Y-46197625D01*
X221091660Y-46197625D02*
X219663088Y-46197625D01*
X218520231Y-49054768D02*
X218091660Y-49197625D01*
X218091660Y-49197625D02*
X217377374Y-49197625D01*
X217377374Y-49197625D02*
X217091660Y-49054768D01*
X217091660Y-49054768D02*
X216948802Y-48911910D01*
X216948802Y-48911910D02*
X216805945Y-48626196D01*
X216805945Y-48626196D02*
X216805945Y-48340482D01*
X216805945Y-48340482D02*
X216948802Y-48054768D01*
X216948802Y-48054768D02*
X217091660Y-47911910D01*
X217091660Y-47911910D02*
X217377374Y-47769053D01*
X217377374Y-47769053D02*
X217948802Y-47626196D01*
X217948802Y-47626196D02*
X218234517Y-47483339D01*
X218234517Y-47483339D02*
X218377374Y-47340482D01*
X218377374Y-47340482D02*
X218520231Y-47054768D01*
X218520231Y-47054768D02*
X218520231Y-46769053D01*
X218520231Y-46769053D02*
X218377374Y-46483339D01*
X218377374Y-46483339D02*
X218234517Y-46340482D01*
X218234517Y-46340482D02*
X217948802Y-46197625D01*
X217948802Y-46197625D02*
X217234517Y-46197625D01*
X217234517Y-46197625D02*
X216805945Y-46340482D01*
X215520231Y-49197625D02*
X215520231Y-46197625D01*
X215520231Y-46197625D02*
X214377374Y-46197625D01*
X214377374Y-46197625D02*
X214091659Y-46340482D01*
X214091659Y-46340482D02*
X213948802Y-46483339D01*
X213948802Y-46483339D02*
X213805945Y-46769053D01*
X213805945Y-46769053D02*
X213805945Y-47197625D01*
X213805945Y-47197625D02*
X213948802Y-47483339D01*
X213948802Y-47483339D02*
X214091659Y-47626196D01*
X214091659Y-47626196D02*
X214377374Y-47769053D01*
X214377374Y-47769053D02*
X215520231Y-47769053D01*
X211948802Y-46197625D02*
X211663088Y-46197625D01*
X211663088Y-46197625D02*
X211377374Y-46340482D01*
X211377374Y-46340482D02*
X211234517Y-46483339D01*
X211234517Y-46483339D02*
X211091659Y-46769053D01*
X211091659Y-46769053D02*
X210948802Y-47340482D01*
X210948802Y-47340482D02*
X210948802Y-48054768D01*
X210948802Y-48054768D02*
X211091659Y-48626196D01*
X211091659Y-48626196D02*
X211234517Y-48911910D01*
X211234517Y-48911910D02*
X211377374Y-49054768D01*
X211377374Y-49054768D02*
X211663088Y-49197625D01*
X211663088Y-49197625D02*
X211948802Y-49197625D01*
X211948802Y-49197625D02*
X212234517Y-49054768D01*
X212234517Y-49054768D02*
X212377374Y-48911910D01*
X212377374Y-48911910D02*
X212520231Y-48626196D01*
X212520231Y-48626196D02*
X212663088Y-48054768D01*
X212663088Y-48054768D02*
X212663088Y-47340482D01*
X212663088Y-47340482D02*
X212520231Y-46769053D01*
X212520231Y-46769053D02*
X212377374Y-46483339D01*
X212377374Y-46483339D02*
X212234517Y-46340482D01*
X212234517Y-46340482D02*
X211948802Y-46197625D01*
X209948802Y-46197625D02*
X207948802Y-46197625D01*
X207948802Y-46197625D02*
X209234516Y-49197625D01*
X206948802Y-49054768D02*
X206663088Y-49197625D01*
X206663088Y-49197625D02*
X206091659Y-49197625D01*
X206091659Y-49197625D02*
X205805945Y-49054768D01*
X205805945Y-49054768D02*
X205663088Y-48769053D01*
X205663088Y-48769053D02*
X205663088Y-48626196D01*
X205663088Y-48626196D02*
X205805945Y-48340482D01*
X205805945Y-48340482D02*
X206091659Y-48197625D01*
X206091659Y-48197625D02*
X206520231Y-48197625D01*
X206520231Y-48197625D02*
X206805945Y-48054768D01*
X206805945Y-48054768D02*
X206948802Y-47769053D01*
X206948802Y-47769053D02*
X206948802Y-47626196D01*
X206948802Y-47626196D02*
X206805945Y-47340482D01*
X206805945Y-47340482D02*
X206520231Y-47197625D01*
X206520231Y-47197625D02*
X206091659Y-47197625D01*
X206091659Y-47197625D02*
X205805945Y-47340482D01*
X253520233Y-51027457D02*
X252520233Y-54027457D01*
X252520233Y-54027457D02*
X251520233Y-51027457D01*
X250663090Y-51313171D02*
X250520233Y-51170314D01*
X250520233Y-51170314D02*
X250234519Y-51027457D01*
X250234519Y-51027457D02*
X249520233Y-51027457D01*
X249520233Y-51027457D02*
X249234519Y-51170314D01*
X249234519Y-51170314D02*
X249091661Y-51313171D01*
X249091661Y-51313171D02*
X248948804Y-51598885D01*
X248948804Y-51598885D02*
X248948804Y-51884600D01*
X248948804Y-51884600D02*
X249091661Y-52313171D01*
X249091661Y-52313171D02*
X250805947Y-54027457D01*
X250805947Y-54027457D02*
X248948804Y-54027457D01*
X247663090Y-53741742D02*
X247520233Y-53884600D01*
X247520233Y-53884600D02*
X247663090Y-54027457D01*
X247663090Y-54027457D02*
X247805947Y-53884600D01*
X247805947Y-53884600D02*
X247663090Y-53741742D01*
X247663090Y-53741742D02*
X247663090Y-54027457D01*
X245663090Y-51027457D02*
X245377376Y-51027457D01*
X245377376Y-51027457D02*
X245091662Y-51170314D01*
X245091662Y-51170314D02*
X244948805Y-51313171D01*
X244948805Y-51313171D02*
X244805947Y-51598885D01*
X244805947Y-51598885D02*
X244663090Y-52170314D01*
X244663090Y-52170314D02*
X244663090Y-52884600D01*
X244663090Y-52884600D02*
X244805947Y-53456028D01*
X244805947Y-53456028D02*
X244948805Y-53741742D01*
X244948805Y-53741742D02*
X245091662Y-53884600D01*
X245091662Y-53884600D02*
X245377376Y-54027457D01*
X245377376Y-54027457D02*
X245663090Y-54027457D01*
X245663090Y-54027457D02*
X245948805Y-53884600D01*
X245948805Y-53884600D02*
X246091662Y-53741742D01*
X246091662Y-53741742D02*
X246234519Y-53456028D01*
X246234519Y-53456028D02*
X246377376Y-52884600D01*
X246377376Y-52884600D02*
X246377376Y-52170314D01*
X246377376Y-52170314D02*
X246234519Y-51598885D01*
X246234519Y-51598885D02*
X246091662Y-51313171D01*
X246091662Y-51313171D02*
X245948805Y-51170314D01*
X245948805Y-51170314D02*
X245663090Y-51027457D01*
D10*
X173304839Y-114453200D02*
X173161982Y-114500819D01*
X173161982Y-114500819D02*
X172923887Y-114500819D01*
X172923887Y-114500819D02*
X172828649Y-114453200D01*
X172828649Y-114453200D02*
X172781030Y-114405580D01*
X172781030Y-114405580D02*
X172733411Y-114310342D01*
X172733411Y-114310342D02*
X172733411Y-114215104D01*
X172733411Y-114215104D02*
X172781030Y-114119866D01*
X172781030Y-114119866D02*
X172828649Y-114072247D01*
X172828649Y-114072247D02*
X172923887Y-114024628D01*
X172923887Y-114024628D02*
X173114363Y-113977009D01*
X173114363Y-113977009D02*
X173209601Y-113929390D01*
X173209601Y-113929390D02*
X173257220Y-113881771D01*
X173257220Y-113881771D02*
X173304839Y-113786533D01*
X173304839Y-113786533D02*
X173304839Y-113691295D01*
X173304839Y-113691295D02*
X173257220Y-113596057D01*
X173257220Y-113596057D02*
X173209601Y-113548438D01*
X173209601Y-113548438D02*
X173114363Y-113500819D01*
X173114363Y-113500819D02*
X172876268Y-113500819D01*
X172876268Y-113500819D02*
X172733411Y-113548438D01*
X171733411Y-114405580D02*
X171781030Y-114453200D01*
X171781030Y-114453200D02*
X171923887Y-114500819D01*
X171923887Y-114500819D02*
X172019125Y-114500819D01*
X172019125Y-114500819D02*
X172161982Y-114453200D01*
X172161982Y-114453200D02*
X172257220Y-114357961D01*
X172257220Y-114357961D02*
X172304839Y-114262723D01*
X172304839Y-114262723D02*
X172352458Y-114072247D01*
X172352458Y-114072247D02*
X172352458Y-113929390D01*
X172352458Y-113929390D02*
X172304839Y-113738914D01*
X172304839Y-113738914D02*
X172257220Y-113643676D01*
X172257220Y-113643676D02*
X172161982Y-113548438D01*
X172161982Y-113548438D02*
X172019125Y-113500819D01*
X172019125Y-113500819D02*
X171923887Y-113500819D01*
X171923887Y-113500819D02*
X171781030Y-113548438D01*
X171781030Y-113548438D02*
X171733411Y-113596057D01*
X170923887Y-114453200D02*
X171019125Y-114500819D01*
X171019125Y-114500819D02*
X171209601Y-114500819D01*
X171209601Y-114500819D02*
X171304839Y-114453200D01*
X171304839Y-114453200D02*
X171352458Y-114357961D01*
X171352458Y-114357961D02*
X171352458Y-113977009D01*
X171352458Y-113977009D02*
X171304839Y-113881771D01*
X171304839Y-113881771D02*
X171209601Y-113834152D01*
X171209601Y-113834152D02*
X171019125Y-113834152D01*
X171019125Y-113834152D02*
X170923887Y-113881771D01*
X170923887Y-113881771D02*
X170876268Y-113977009D01*
X170876268Y-113977009D02*
X170876268Y-114072247D01*
X170876268Y-114072247D02*
X171352458Y-114167485D01*
X170304839Y-114500819D02*
X170400077Y-114453200D01*
X170400077Y-114453200D02*
X170447696Y-114357961D01*
X170447696Y-114357961D02*
X170447696Y-113500819D01*
X169781029Y-114500819D02*
X169876267Y-114453200D01*
X169876267Y-114453200D02*
X169923886Y-114357961D01*
X169923886Y-114357961D02*
X169923886Y-113500819D01*
X168638171Y-114119866D02*
X167876267Y-114119866D01*
X168257219Y-114500819D02*
X168257219Y-113738914D01*
D11*
X171523441Y-107385733D02*
X169999632Y-107385733D01*
X170761536Y-108147638D02*
X170761536Y-106623828D01*
D10*
X173304839Y-111278200D02*
X173161982Y-111325819D01*
X173161982Y-111325819D02*
X172923887Y-111325819D01*
X172923887Y-111325819D02*
X172828649Y-111278200D01*
X172828649Y-111278200D02*
X172781030Y-111230580D01*
X172781030Y-111230580D02*
X172733411Y-111135342D01*
X172733411Y-111135342D02*
X172733411Y-111040104D01*
X172733411Y-111040104D02*
X172781030Y-110944866D01*
X172781030Y-110944866D02*
X172828649Y-110897247D01*
X172828649Y-110897247D02*
X172923887Y-110849628D01*
X172923887Y-110849628D02*
X173114363Y-110802009D01*
X173114363Y-110802009D02*
X173209601Y-110754390D01*
X173209601Y-110754390D02*
X173257220Y-110706771D01*
X173257220Y-110706771D02*
X173304839Y-110611533D01*
X173304839Y-110611533D02*
X173304839Y-110516295D01*
X173304839Y-110516295D02*
X173257220Y-110421057D01*
X173257220Y-110421057D02*
X173209601Y-110373438D01*
X173209601Y-110373438D02*
X173114363Y-110325819D01*
X173114363Y-110325819D02*
X172876268Y-110325819D01*
X172876268Y-110325819D02*
X172733411Y-110373438D01*
X171733411Y-111230580D02*
X171781030Y-111278200D01*
X171781030Y-111278200D02*
X171923887Y-111325819D01*
X171923887Y-111325819D02*
X172019125Y-111325819D01*
X172019125Y-111325819D02*
X172161982Y-111278200D01*
X172161982Y-111278200D02*
X172257220Y-111182961D01*
X172257220Y-111182961D02*
X172304839Y-111087723D01*
X172304839Y-111087723D02*
X172352458Y-110897247D01*
X172352458Y-110897247D02*
X172352458Y-110754390D01*
X172352458Y-110754390D02*
X172304839Y-110563914D01*
X172304839Y-110563914D02*
X172257220Y-110468676D01*
X172257220Y-110468676D02*
X172161982Y-110373438D01*
X172161982Y-110373438D02*
X172019125Y-110325819D01*
X172019125Y-110325819D02*
X171923887Y-110325819D01*
X171923887Y-110325819D02*
X171781030Y-110373438D01*
X171781030Y-110373438D02*
X171733411Y-110421057D01*
X170923887Y-111278200D02*
X171019125Y-111325819D01*
X171019125Y-111325819D02*
X171209601Y-111325819D01*
X171209601Y-111325819D02*
X171304839Y-111278200D01*
X171304839Y-111278200D02*
X171352458Y-111182961D01*
X171352458Y-111182961D02*
X171352458Y-110802009D01*
X171352458Y-110802009D02*
X171304839Y-110706771D01*
X171304839Y-110706771D02*
X171209601Y-110659152D01*
X171209601Y-110659152D02*
X171019125Y-110659152D01*
X171019125Y-110659152D02*
X170923887Y-110706771D01*
X170923887Y-110706771D02*
X170876268Y-110802009D01*
X170876268Y-110802009D02*
X170876268Y-110897247D01*
X170876268Y-110897247D02*
X171352458Y-110992485D01*
X170304839Y-111325819D02*
X170400077Y-111278200D01*
X170400077Y-111278200D02*
X170447696Y-111182961D01*
X170447696Y-111182961D02*
X170447696Y-110325819D01*
X169781029Y-111325819D02*
X169876267Y-111278200D01*
X169876267Y-111278200D02*
X169923886Y-111182961D01*
X169923886Y-111182961D02*
X169923886Y-110325819D01*
X168638171Y-110944866D02*
X167876267Y-110944866D01*
X163335411Y-91125155D02*
X163906839Y-91125155D01*
X163621125Y-91125155D02*
X163621125Y-90125155D01*
X163621125Y-90125155D02*
X163716363Y-90268012D01*
X163716363Y-90268012D02*
X163811601Y-90363250D01*
X163811601Y-90363250D02*
X163906839Y-90410869D01*
X162763982Y-90553726D02*
X162859220Y-90506107D01*
X162859220Y-90506107D02*
X162906839Y-90458488D01*
X162906839Y-90458488D02*
X162954458Y-90363250D01*
X162954458Y-90363250D02*
X162954458Y-90315631D01*
X162954458Y-90315631D02*
X162906839Y-90220393D01*
X162906839Y-90220393D02*
X162859220Y-90172774D01*
X162859220Y-90172774D02*
X162763982Y-90125155D01*
X162763982Y-90125155D02*
X162573506Y-90125155D01*
X162573506Y-90125155D02*
X162478268Y-90172774D01*
X162478268Y-90172774D02*
X162430649Y-90220393D01*
X162430649Y-90220393D02*
X162383030Y-90315631D01*
X162383030Y-90315631D02*
X162383030Y-90363250D01*
X162383030Y-90363250D02*
X162430649Y-90458488D01*
X162430649Y-90458488D02*
X162478268Y-90506107D01*
X162478268Y-90506107D02*
X162573506Y-90553726D01*
X162573506Y-90553726D02*
X162763982Y-90553726D01*
X162763982Y-90553726D02*
X162859220Y-90601345D01*
X162859220Y-90601345D02*
X162906839Y-90648964D01*
X162906839Y-90648964D02*
X162954458Y-90744202D01*
X162954458Y-90744202D02*
X162954458Y-90934678D01*
X162954458Y-90934678D02*
X162906839Y-91029916D01*
X162906839Y-91029916D02*
X162859220Y-91077536D01*
X162859220Y-91077536D02*
X162763982Y-91125155D01*
X162763982Y-91125155D02*
X162573506Y-91125155D01*
X162573506Y-91125155D02*
X162478268Y-91077536D01*
X162478268Y-91077536D02*
X162430649Y-91029916D01*
X162430649Y-91029916D02*
X162383030Y-90934678D01*
X162383030Y-90934678D02*
X162383030Y-90744202D01*
X162383030Y-90744202D02*
X162430649Y-90648964D01*
X162430649Y-90648964D02*
X162478268Y-90601345D01*
X162478268Y-90601345D02*
X162573506Y-90553726D01*
X161525887Y-90125155D02*
X161716363Y-90125155D01*
X161716363Y-90125155D02*
X161811601Y-90172774D01*
X161811601Y-90172774D02*
X161859220Y-90220393D01*
X161859220Y-90220393D02*
X161954458Y-90363250D01*
X161954458Y-90363250D02*
X162002077Y-90553726D01*
X162002077Y-90553726D02*
X162002077Y-90934678D01*
X162002077Y-90934678D02*
X161954458Y-91029916D01*
X161954458Y-91029916D02*
X161906839Y-91077536D01*
X161906839Y-91077536D02*
X161811601Y-91125155D01*
X161811601Y-91125155D02*
X161621125Y-91125155D01*
X161621125Y-91125155D02*
X161525887Y-91077536D01*
X161525887Y-91077536D02*
X161478268Y-91029916D01*
X161478268Y-91029916D02*
X161430649Y-90934678D01*
X161430649Y-90934678D02*
X161430649Y-90696583D01*
X161430649Y-90696583D02*
X161478268Y-90601345D01*
X161478268Y-90601345D02*
X161525887Y-90553726D01*
X161525887Y-90553726D02*
X161621125Y-90506107D01*
X161621125Y-90506107D02*
X161811601Y-90506107D01*
X161811601Y-90506107D02*
X161906839Y-90553726D01*
X161906839Y-90553726D02*
X161954458Y-90601345D01*
X161954458Y-90601345D02*
X162002077Y-90696583D01*
X160525887Y-90125155D02*
X161002077Y-90125155D01*
X161002077Y-90125155D02*
X161049696Y-90601345D01*
X161049696Y-90601345D02*
X161002077Y-90553726D01*
X161002077Y-90553726D02*
X160906839Y-90506107D01*
X160906839Y-90506107D02*
X160668744Y-90506107D01*
X160668744Y-90506107D02*
X160573506Y-90553726D01*
X160573506Y-90553726D02*
X160525887Y-90601345D01*
X160525887Y-90601345D02*
X160478268Y-90696583D01*
X160478268Y-90696583D02*
X160478268Y-90934678D01*
X160478268Y-90934678D02*
X160525887Y-91029916D01*
X160525887Y-91029916D02*
X160573506Y-91077536D01*
X160573506Y-91077536D02*
X160668744Y-91125155D01*
X160668744Y-91125155D02*
X160906839Y-91125155D01*
X160906839Y-91125155D02*
X161002077Y-91077536D01*
X161002077Y-91077536D02*
X161049696Y-91029916D01*
X159859220Y-90125155D02*
X159763982Y-90125155D01*
X159763982Y-90125155D02*
X159668744Y-90172774D01*
X159668744Y-90172774D02*
X159621125Y-90220393D01*
X159621125Y-90220393D02*
X159573506Y-90315631D01*
X159573506Y-90315631D02*
X159525887Y-90506107D01*
X159525887Y-90506107D02*
X159525887Y-90744202D01*
X159525887Y-90744202D02*
X159573506Y-90934678D01*
X159573506Y-90934678D02*
X159621125Y-91029916D01*
X159621125Y-91029916D02*
X159668744Y-91077536D01*
X159668744Y-91077536D02*
X159763982Y-91125155D01*
X159763982Y-91125155D02*
X159859220Y-91125155D01*
X159859220Y-91125155D02*
X159954458Y-91077536D01*
X159954458Y-91077536D02*
X160002077Y-91029916D01*
X160002077Y-91029916D02*
X160049696Y-90934678D01*
X160049696Y-90934678D02*
X160097315Y-90744202D01*
X160097315Y-90744202D02*
X160097315Y-90506107D01*
X160097315Y-90506107D02*
X160049696Y-90315631D01*
X160049696Y-90315631D02*
X160002077Y-90220393D01*
X160002077Y-90220393D02*
X159954458Y-90172774D01*
X159954458Y-90172774D02*
X159859220Y-90125155D01*
X158335410Y-90744202D02*
X157573506Y-90744202D01*
X163335411Y-94345043D02*
X163906839Y-94345043D01*
X163621125Y-94345043D02*
X163621125Y-93345043D01*
X163621125Y-93345043D02*
X163716363Y-93487900D01*
X163716363Y-93487900D02*
X163811601Y-93583138D01*
X163811601Y-93583138D02*
X163906839Y-93630757D01*
X162763982Y-93773614D02*
X162859220Y-93725995D01*
X162859220Y-93725995D02*
X162906839Y-93678376D01*
X162906839Y-93678376D02*
X162954458Y-93583138D01*
X162954458Y-93583138D02*
X162954458Y-93535519D01*
X162954458Y-93535519D02*
X162906839Y-93440281D01*
X162906839Y-93440281D02*
X162859220Y-93392662D01*
X162859220Y-93392662D02*
X162763982Y-93345043D01*
X162763982Y-93345043D02*
X162573506Y-93345043D01*
X162573506Y-93345043D02*
X162478268Y-93392662D01*
X162478268Y-93392662D02*
X162430649Y-93440281D01*
X162430649Y-93440281D02*
X162383030Y-93535519D01*
X162383030Y-93535519D02*
X162383030Y-93583138D01*
X162383030Y-93583138D02*
X162430649Y-93678376D01*
X162430649Y-93678376D02*
X162478268Y-93725995D01*
X162478268Y-93725995D02*
X162573506Y-93773614D01*
X162573506Y-93773614D02*
X162763982Y-93773614D01*
X162763982Y-93773614D02*
X162859220Y-93821233D01*
X162859220Y-93821233D02*
X162906839Y-93868852D01*
X162906839Y-93868852D02*
X162954458Y-93964090D01*
X162954458Y-93964090D02*
X162954458Y-94154566D01*
X162954458Y-94154566D02*
X162906839Y-94249804D01*
X162906839Y-94249804D02*
X162859220Y-94297424D01*
X162859220Y-94297424D02*
X162763982Y-94345043D01*
X162763982Y-94345043D02*
X162573506Y-94345043D01*
X162573506Y-94345043D02*
X162478268Y-94297424D01*
X162478268Y-94297424D02*
X162430649Y-94249804D01*
X162430649Y-94249804D02*
X162383030Y-94154566D01*
X162383030Y-94154566D02*
X162383030Y-93964090D01*
X162383030Y-93964090D02*
X162430649Y-93868852D01*
X162430649Y-93868852D02*
X162478268Y-93821233D01*
X162478268Y-93821233D02*
X162573506Y-93773614D01*
X161525887Y-93345043D02*
X161716363Y-93345043D01*
X161716363Y-93345043D02*
X161811601Y-93392662D01*
X161811601Y-93392662D02*
X161859220Y-93440281D01*
X161859220Y-93440281D02*
X161954458Y-93583138D01*
X161954458Y-93583138D02*
X162002077Y-93773614D01*
X162002077Y-93773614D02*
X162002077Y-94154566D01*
X162002077Y-94154566D02*
X161954458Y-94249804D01*
X161954458Y-94249804D02*
X161906839Y-94297424D01*
X161906839Y-94297424D02*
X161811601Y-94345043D01*
X161811601Y-94345043D02*
X161621125Y-94345043D01*
X161621125Y-94345043D02*
X161525887Y-94297424D01*
X161525887Y-94297424D02*
X161478268Y-94249804D01*
X161478268Y-94249804D02*
X161430649Y-94154566D01*
X161430649Y-94154566D02*
X161430649Y-93916471D01*
X161430649Y-93916471D02*
X161478268Y-93821233D01*
X161478268Y-93821233D02*
X161525887Y-93773614D01*
X161525887Y-93773614D02*
X161621125Y-93725995D01*
X161621125Y-93725995D02*
X161811601Y-93725995D01*
X161811601Y-93725995D02*
X161906839Y-93773614D01*
X161906839Y-93773614D02*
X161954458Y-93821233D01*
X161954458Y-93821233D02*
X162002077Y-93916471D01*
X160525887Y-93345043D02*
X161002077Y-93345043D01*
X161002077Y-93345043D02*
X161049696Y-93821233D01*
X161049696Y-93821233D02*
X161002077Y-93773614D01*
X161002077Y-93773614D02*
X160906839Y-93725995D01*
X160906839Y-93725995D02*
X160668744Y-93725995D01*
X160668744Y-93725995D02*
X160573506Y-93773614D01*
X160573506Y-93773614D02*
X160525887Y-93821233D01*
X160525887Y-93821233D02*
X160478268Y-93916471D01*
X160478268Y-93916471D02*
X160478268Y-94154566D01*
X160478268Y-94154566D02*
X160525887Y-94249804D01*
X160525887Y-94249804D02*
X160573506Y-94297424D01*
X160573506Y-94297424D02*
X160668744Y-94345043D01*
X160668744Y-94345043D02*
X160906839Y-94345043D01*
X160906839Y-94345043D02*
X161002077Y-94297424D01*
X161002077Y-94297424D02*
X161049696Y-94249804D01*
X159859220Y-93345043D02*
X159763982Y-93345043D01*
X159763982Y-93345043D02*
X159668744Y-93392662D01*
X159668744Y-93392662D02*
X159621125Y-93440281D01*
X159621125Y-93440281D02*
X159573506Y-93535519D01*
X159573506Y-93535519D02*
X159525887Y-93725995D01*
X159525887Y-93725995D02*
X159525887Y-93964090D01*
X159525887Y-93964090D02*
X159573506Y-94154566D01*
X159573506Y-94154566D02*
X159621125Y-94249804D01*
X159621125Y-94249804D02*
X159668744Y-94297424D01*
X159668744Y-94297424D02*
X159763982Y-94345043D01*
X159763982Y-94345043D02*
X159859220Y-94345043D01*
X159859220Y-94345043D02*
X159954458Y-94297424D01*
X159954458Y-94297424D02*
X160002077Y-94249804D01*
X160002077Y-94249804D02*
X160049696Y-94154566D01*
X160049696Y-94154566D02*
X160097315Y-93964090D01*
X160097315Y-93964090D02*
X160097315Y-93725995D01*
X160097315Y-93725995D02*
X160049696Y-93535519D01*
X160049696Y-93535519D02*
X160002077Y-93440281D01*
X160002077Y-93440281D02*
X159954458Y-93392662D01*
X159954458Y-93392662D02*
X159859220Y-93345043D01*
X158335410Y-93964090D02*
X157573506Y-93964090D01*
X157954458Y-94345043D02*
X157954458Y-93583138D01*
X163335411Y-97564931D02*
X163906839Y-97564931D01*
X163621125Y-97564931D02*
X163621125Y-96564931D01*
X163621125Y-96564931D02*
X163716363Y-96707788D01*
X163716363Y-96707788D02*
X163811601Y-96803026D01*
X163811601Y-96803026D02*
X163906839Y-96850645D01*
X162763982Y-96993502D02*
X162859220Y-96945883D01*
X162859220Y-96945883D02*
X162906839Y-96898264D01*
X162906839Y-96898264D02*
X162954458Y-96803026D01*
X162954458Y-96803026D02*
X162954458Y-96755407D01*
X162954458Y-96755407D02*
X162906839Y-96660169D01*
X162906839Y-96660169D02*
X162859220Y-96612550D01*
X162859220Y-96612550D02*
X162763982Y-96564931D01*
X162763982Y-96564931D02*
X162573506Y-96564931D01*
X162573506Y-96564931D02*
X162478268Y-96612550D01*
X162478268Y-96612550D02*
X162430649Y-96660169D01*
X162430649Y-96660169D02*
X162383030Y-96755407D01*
X162383030Y-96755407D02*
X162383030Y-96803026D01*
X162383030Y-96803026D02*
X162430649Y-96898264D01*
X162430649Y-96898264D02*
X162478268Y-96945883D01*
X162478268Y-96945883D02*
X162573506Y-96993502D01*
X162573506Y-96993502D02*
X162763982Y-96993502D01*
X162763982Y-96993502D02*
X162859220Y-97041121D01*
X162859220Y-97041121D02*
X162906839Y-97088740D01*
X162906839Y-97088740D02*
X162954458Y-97183978D01*
X162954458Y-97183978D02*
X162954458Y-97374454D01*
X162954458Y-97374454D02*
X162906839Y-97469692D01*
X162906839Y-97469692D02*
X162859220Y-97517312D01*
X162859220Y-97517312D02*
X162763982Y-97564931D01*
X162763982Y-97564931D02*
X162573506Y-97564931D01*
X162573506Y-97564931D02*
X162478268Y-97517312D01*
X162478268Y-97517312D02*
X162430649Y-97469692D01*
X162430649Y-97469692D02*
X162383030Y-97374454D01*
X162383030Y-97374454D02*
X162383030Y-97183978D01*
X162383030Y-97183978D02*
X162430649Y-97088740D01*
X162430649Y-97088740D02*
X162478268Y-97041121D01*
X162478268Y-97041121D02*
X162573506Y-96993502D01*
X161525887Y-96564931D02*
X161716363Y-96564931D01*
X161716363Y-96564931D02*
X161811601Y-96612550D01*
X161811601Y-96612550D02*
X161859220Y-96660169D01*
X161859220Y-96660169D02*
X161954458Y-96803026D01*
X161954458Y-96803026D02*
X162002077Y-96993502D01*
X162002077Y-96993502D02*
X162002077Y-97374454D01*
X162002077Y-97374454D02*
X161954458Y-97469692D01*
X161954458Y-97469692D02*
X161906839Y-97517312D01*
X161906839Y-97517312D02*
X161811601Y-97564931D01*
X161811601Y-97564931D02*
X161621125Y-97564931D01*
X161621125Y-97564931D02*
X161525887Y-97517312D01*
X161525887Y-97517312D02*
X161478268Y-97469692D01*
X161478268Y-97469692D02*
X161430649Y-97374454D01*
X161430649Y-97374454D02*
X161430649Y-97136359D01*
X161430649Y-97136359D02*
X161478268Y-97041121D01*
X161478268Y-97041121D02*
X161525887Y-96993502D01*
X161525887Y-96993502D02*
X161621125Y-96945883D01*
X161621125Y-96945883D02*
X161811601Y-96945883D01*
X161811601Y-96945883D02*
X161906839Y-96993502D01*
X161906839Y-96993502D02*
X161954458Y-97041121D01*
X161954458Y-97041121D02*
X162002077Y-97136359D01*
X160525887Y-96564931D02*
X161002077Y-96564931D01*
X161002077Y-96564931D02*
X161049696Y-97041121D01*
X161049696Y-97041121D02*
X161002077Y-96993502D01*
X161002077Y-96993502D02*
X160906839Y-96945883D01*
X160906839Y-96945883D02*
X160668744Y-96945883D01*
X160668744Y-96945883D02*
X160573506Y-96993502D01*
X160573506Y-96993502D02*
X160525887Y-97041121D01*
X160525887Y-97041121D02*
X160478268Y-97136359D01*
X160478268Y-97136359D02*
X160478268Y-97374454D01*
X160478268Y-97374454D02*
X160525887Y-97469692D01*
X160525887Y-97469692D02*
X160573506Y-97517312D01*
X160573506Y-97517312D02*
X160668744Y-97564931D01*
X160668744Y-97564931D02*
X160906839Y-97564931D01*
X160906839Y-97564931D02*
X161002077Y-97517312D01*
X161002077Y-97517312D02*
X161049696Y-97469692D01*
X159859220Y-96564931D02*
X159763982Y-96564931D01*
X159763982Y-96564931D02*
X159668744Y-96612550D01*
X159668744Y-96612550D02*
X159621125Y-96660169D01*
X159621125Y-96660169D02*
X159573506Y-96755407D01*
X159573506Y-96755407D02*
X159525887Y-96945883D01*
X159525887Y-96945883D02*
X159525887Y-97183978D01*
X159525887Y-97183978D02*
X159573506Y-97374454D01*
X159573506Y-97374454D02*
X159621125Y-97469692D01*
X159621125Y-97469692D02*
X159668744Y-97517312D01*
X159668744Y-97517312D02*
X159763982Y-97564931D01*
X159763982Y-97564931D02*
X159859220Y-97564931D01*
X159859220Y-97564931D02*
X159954458Y-97517312D01*
X159954458Y-97517312D02*
X160002077Y-97469692D01*
X160002077Y-97469692D02*
X160049696Y-97374454D01*
X160049696Y-97374454D02*
X160097315Y-97183978D01*
X160097315Y-97183978D02*
X160097315Y-96945883D01*
X160097315Y-96945883D02*
X160049696Y-96755407D01*
X160049696Y-96755407D02*
X160002077Y-96660169D01*
X160002077Y-96660169D02*
X159954458Y-96612550D01*
X159954458Y-96612550D02*
X159859220Y-96564931D01*
X158335410Y-97183978D02*
X157573506Y-97183978D01*
X163335411Y-100784819D02*
X163906839Y-100784819D01*
X163621125Y-100784819D02*
X163621125Y-99784819D01*
X163621125Y-99784819D02*
X163716363Y-99927676D01*
X163716363Y-99927676D02*
X163811601Y-100022914D01*
X163811601Y-100022914D02*
X163906839Y-100070533D01*
X162763982Y-100213390D02*
X162859220Y-100165771D01*
X162859220Y-100165771D02*
X162906839Y-100118152D01*
X162906839Y-100118152D02*
X162954458Y-100022914D01*
X162954458Y-100022914D02*
X162954458Y-99975295D01*
X162954458Y-99975295D02*
X162906839Y-99880057D01*
X162906839Y-99880057D02*
X162859220Y-99832438D01*
X162859220Y-99832438D02*
X162763982Y-99784819D01*
X162763982Y-99784819D02*
X162573506Y-99784819D01*
X162573506Y-99784819D02*
X162478268Y-99832438D01*
X162478268Y-99832438D02*
X162430649Y-99880057D01*
X162430649Y-99880057D02*
X162383030Y-99975295D01*
X162383030Y-99975295D02*
X162383030Y-100022914D01*
X162383030Y-100022914D02*
X162430649Y-100118152D01*
X162430649Y-100118152D02*
X162478268Y-100165771D01*
X162478268Y-100165771D02*
X162573506Y-100213390D01*
X162573506Y-100213390D02*
X162763982Y-100213390D01*
X162763982Y-100213390D02*
X162859220Y-100261009D01*
X162859220Y-100261009D02*
X162906839Y-100308628D01*
X162906839Y-100308628D02*
X162954458Y-100403866D01*
X162954458Y-100403866D02*
X162954458Y-100594342D01*
X162954458Y-100594342D02*
X162906839Y-100689580D01*
X162906839Y-100689580D02*
X162859220Y-100737200D01*
X162859220Y-100737200D02*
X162763982Y-100784819D01*
X162763982Y-100784819D02*
X162573506Y-100784819D01*
X162573506Y-100784819D02*
X162478268Y-100737200D01*
X162478268Y-100737200D02*
X162430649Y-100689580D01*
X162430649Y-100689580D02*
X162383030Y-100594342D01*
X162383030Y-100594342D02*
X162383030Y-100403866D01*
X162383030Y-100403866D02*
X162430649Y-100308628D01*
X162430649Y-100308628D02*
X162478268Y-100261009D01*
X162478268Y-100261009D02*
X162573506Y-100213390D01*
X161525887Y-99784819D02*
X161716363Y-99784819D01*
X161716363Y-99784819D02*
X161811601Y-99832438D01*
X161811601Y-99832438D02*
X161859220Y-99880057D01*
X161859220Y-99880057D02*
X161954458Y-100022914D01*
X161954458Y-100022914D02*
X162002077Y-100213390D01*
X162002077Y-100213390D02*
X162002077Y-100594342D01*
X162002077Y-100594342D02*
X161954458Y-100689580D01*
X161954458Y-100689580D02*
X161906839Y-100737200D01*
X161906839Y-100737200D02*
X161811601Y-100784819D01*
X161811601Y-100784819D02*
X161621125Y-100784819D01*
X161621125Y-100784819D02*
X161525887Y-100737200D01*
X161525887Y-100737200D02*
X161478268Y-100689580D01*
X161478268Y-100689580D02*
X161430649Y-100594342D01*
X161430649Y-100594342D02*
X161430649Y-100356247D01*
X161430649Y-100356247D02*
X161478268Y-100261009D01*
X161478268Y-100261009D02*
X161525887Y-100213390D01*
X161525887Y-100213390D02*
X161621125Y-100165771D01*
X161621125Y-100165771D02*
X161811601Y-100165771D01*
X161811601Y-100165771D02*
X161906839Y-100213390D01*
X161906839Y-100213390D02*
X161954458Y-100261009D01*
X161954458Y-100261009D02*
X162002077Y-100356247D01*
X160525887Y-99784819D02*
X161002077Y-99784819D01*
X161002077Y-99784819D02*
X161049696Y-100261009D01*
X161049696Y-100261009D02*
X161002077Y-100213390D01*
X161002077Y-100213390D02*
X160906839Y-100165771D01*
X160906839Y-100165771D02*
X160668744Y-100165771D01*
X160668744Y-100165771D02*
X160573506Y-100213390D01*
X160573506Y-100213390D02*
X160525887Y-100261009D01*
X160525887Y-100261009D02*
X160478268Y-100356247D01*
X160478268Y-100356247D02*
X160478268Y-100594342D01*
X160478268Y-100594342D02*
X160525887Y-100689580D01*
X160525887Y-100689580D02*
X160573506Y-100737200D01*
X160573506Y-100737200D02*
X160668744Y-100784819D01*
X160668744Y-100784819D02*
X160906839Y-100784819D01*
X160906839Y-100784819D02*
X161002077Y-100737200D01*
X161002077Y-100737200D02*
X161049696Y-100689580D01*
X159859220Y-99784819D02*
X159763982Y-99784819D01*
X159763982Y-99784819D02*
X159668744Y-99832438D01*
X159668744Y-99832438D02*
X159621125Y-99880057D01*
X159621125Y-99880057D02*
X159573506Y-99975295D01*
X159573506Y-99975295D02*
X159525887Y-100165771D01*
X159525887Y-100165771D02*
X159525887Y-100403866D01*
X159525887Y-100403866D02*
X159573506Y-100594342D01*
X159573506Y-100594342D02*
X159621125Y-100689580D01*
X159621125Y-100689580D02*
X159668744Y-100737200D01*
X159668744Y-100737200D02*
X159763982Y-100784819D01*
X159763982Y-100784819D02*
X159859220Y-100784819D01*
X159859220Y-100784819D02*
X159954458Y-100737200D01*
X159954458Y-100737200D02*
X160002077Y-100689580D01*
X160002077Y-100689580D02*
X160049696Y-100594342D01*
X160049696Y-100594342D02*
X160097315Y-100403866D01*
X160097315Y-100403866D02*
X160097315Y-100165771D01*
X160097315Y-100165771D02*
X160049696Y-99975295D01*
X160049696Y-99975295D02*
X160002077Y-99880057D01*
X160002077Y-99880057D02*
X159954458Y-99832438D01*
X159954458Y-99832438D02*
X159859220Y-99784819D01*
X158335410Y-100403866D02*
X157573506Y-100403866D01*
X157954458Y-100784819D02*
X157954458Y-100022914D01*
X181051839Y-111016536D02*
X180908982Y-111064155D01*
X180908982Y-111064155D02*
X180670887Y-111064155D01*
X180670887Y-111064155D02*
X180575649Y-111016536D01*
X180575649Y-111016536D02*
X180528030Y-110968916D01*
X180528030Y-110968916D02*
X180480411Y-110873678D01*
X180480411Y-110873678D02*
X180480411Y-110778440D01*
X180480411Y-110778440D02*
X180528030Y-110683202D01*
X180528030Y-110683202D02*
X180575649Y-110635583D01*
X180575649Y-110635583D02*
X180670887Y-110587964D01*
X180670887Y-110587964D02*
X180861363Y-110540345D01*
X180861363Y-110540345D02*
X180956601Y-110492726D01*
X180956601Y-110492726D02*
X181004220Y-110445107D01*
X181004220Y-110445107D02*
X181051839Y-110349869D01*
X181051839Y-110349869D02*
X181051839Y-110254631D01*
X181051839Y-110254631D02*
X181004220Y-110159393D01*
X181004220Y-110159393D02*
X180956601Y-110111774D01*
X180956601Y-110111774D02*
X180861363Y-110064155D01*
X180861363Y-110064155D02*
X180623268Y-110064155D01*
X180623268Y-110064155D02*
X180480411Y-110111774D01*
X180051839Y-111064155D02*
X180051839Y-110064155D01*
X180051839Y-110064155D02*
X179813744Y-110064155D01*
X179813744Y-110064155D02*
X179670887Y-110111774D01*
X179670887Y-110111774D02*
X179575649Y-110207012D01*
X179575649Y-110207012D02*
X179528030Y-110302250D01*
X179528030Y-110302250D02*
X179480411Y-110492726D01*
X179480411Y-110492726D02*
X179480411Y-110635583D01*
X179480411Y-110635583D02*
X179528030Y-110826059D01*
X179528030Y-110826059D02*
X179575649Y-110921297D01*
X179575649Y-110921297D02*
X179670887Y-111016536D01*
X179670887Y-111016536D02*
X179813744Y-111064155D01*
X179813744Y-111064155D02*
X180051839Y-111064155D01*
X179099458Y-110778440D02*
X178623268Y-110778440D01*
X179194696Y-111064155D02*
X178861363Y-110064155D01*
X178861363Y-110064155D02*
X178528030Y-111064155D01*
X181051839Y-114236424D02*
X180908982Y-114284043D01*
X180908982Y-114284043D02*
X180670887Y-114284043D01*
X180670887Y-114284043D02*
X180575649Y-114236424D01*
X180575649Y-114236424D02*
X180528030Y-114188804D01*
X180528030Y-114188804D02*
X180480411Y-114093566D01*
X180480411Y-114093566D02*
X180480411Y-113998328D01*
X180480411Y-113998328D02*
X180528030Y-113903090D01*
X180528030Y-113903090D02*
X180575649Y-113855471D01*
X180575649Y-113855471D02*
X180670887Y-113807852D01*
X180670887Y-113807852D02*
X180861363Y-113760233D01*
X180861363Y-113760233D02*
X180956601Y-113712614D01*
X180956601Y-113712614D02*
X181004220Y-113664995D01*
X181004220Y-113664995D02*
X181051839Y-113569757D01*
X181051839Y-113569757D02*
X181051839Y-113474519D01*
X181051839Y-113474519D02*
X181004220Y-113379281D01*
X181004220Y-113379281D02*
X180956601Y-113331662D01*
X180956601Y-113331662D02*
X180861363Y-113284043D01*
X180861363Y-113284043D02*
X180623268Y-113284043D01*
X180623268Y-113284043D02*
X180480411Y-113331662D01*
X179480411Y-114188804D02*
X179528030Y-114236424D01*
X179528030Y-114236424D02*
X179670887Y-114284043D01*
X179670887Y-114284043D02*
X179766125Y-114284043D01*
X179766125Y-114284043D02*
X179908982Y-114236424D01*
X179908982Y-114236424D02*
X180004220Y-114141185D01*
X180004220Y-114141185D02*
X180051839Y-114045947D01*
X180051839Y-114045947D02*
X180099458Y-113855471D01*
X180099458Y-113855471D02*
X180099458Y-113712614D01*
X180099458Y-113712614D02*
X180051839Y-113522138D01*
X180051839Y-113522138D02*
X180004220Y-113426900D01*
X180004220Y-113426900D02*
X179908982Y-113331662D01*
X179908982Y-113331662D02*
X179766125Y-113284043D01*
X179766125Y-113284043D02*
X179670887Y-113284043D01*
X179670887Y-113284043D02*
X179528030Y-113331662D01*
X179528030Y-113331662D02*
X179480411Y-113379281D01*
X178575649Y-114284043D02*
X179051839Y-114284043D01*
X179051839Y-114284043D02*
X179051839Y-113284043D01*
X180480411Y-116551550D02*
X180575649Y-116503931D01*
X180575649Y-116503931D02*
X180718506Y-116503931D01*
X180718506Y-116503931D02*
X180861363Y-116551550D01*
X180861363Y-116551550D02*
X180956601Y-116646788D01*
X180956601Y-116646788D02*
X181004220Y-116742026D01*
X181004220Y-116742026D02*
X181051839Y-116932502D01*
X181051839Y-116932502D02*
X181051839Y-117075359D01*
X181051839Y-117075359D02*
X181004220Y-117265835D01*
X181004220Y-117265835D02*
X180956601Y-117361073D01*
X180956601Y-117361073D02*
X180861363Y-117456312D01*
X180861363Y-117456312D02*
X180718506Y-117503931D01*
X180718506Y-117503931D02*
X180623268Y-117503931D01*
X180623268Y-117503931D02*
X180480411Y-117456312D01*
X180480411Y-117456312D02*
X180432792Y-117408692D01*
X180432792Y-117408692D02*
X180432792Y-117075359D01*
X180432792Y-117075359D02*
X180623268Y-117075359D01*
X180004220Y-117503931D02*
X180004220Y-116503931D01*
X180004220Y-116503931D02*
X179432792Y-117503931D01*
X179432792Y-117503931D02*
X179432792Y-116503931D01*
X178956601Y-117503931D02*
X178956601Y-116503931D01*
X178956601Y-116503931D02*
X178718506Y-116503931D01*
X178718506Y-116503931D02*
X178575649Y-116551550D01*
X178575649Y-116551550D02*
X178480411Y-116646788D01*
X178480411Y-116646788D02*
X178432792Y-116742026D01*
X178432792Y-116742026D02*
X178385173Y-116932502D01*
X178385173Y-116932502D02*
X178385173Y-117075359D01*
X178385173Y-117075359D02*
X178432792Y-117265835D01*
X178432792Y-117265835D02*
X178480411Y-117361073D01*
X178480411Y-117361073D02*
X178575649Y-117456312D01*
X178575649Y-117456312D02*
X178718506Y-117503931D01*
X178718506Y-117503931D02*
X178956601Y-117503931D01*
X181099458Y-119723819D02*
X180480411Y-119723819D01*
X180480411Y-119723819D02*
X180813744Y-120104771D01*
X180813744Y-120104771D02*
X180670887Y-120104771D01*
X180670887Y-120104771D02*
X180575649Y-120152390D01*
X180575649Y-120152390D02*
X180528030Y-120200009D01*
X180528030Y-120200009D02*
X180480411Y-120295247D01*
X180480411Y-120295247D02*
X180480411Y-120533342D01*
X180480411Y-120533342D02*
X180528030Y-120628580D01*
X180528030Y-120628580D02*
X180575649Y-120676200D01*
X180575649Y-120676200D02*
X180670887Y-120723819D01*
X180670887Y-120723819D02*
X180956601Y-120723819D01*
X180956601Y-120723819D02*
X181051839Y-120676200D01*
X181051839Y-120676200D02*
X181099458Y-120628580D01*
X180051839Y-120628580D02*
X180004220Y-120676200D01*
X180004220Y-120676200D02*
X180051839Y-120723819D01*
X180051839Y-120723819D02*
X180099458Y-120676200D01*
X180099458Y-120676200D02*
X180051839Y-120628580D01*
X180051839Y-120628580D02*
X180051839Y-120723819D01*
X179670887Y-119723819D02*
X179051840Y-119723819D01*
X179051840Y-119723819D02*
X179385173Y-120104771D01*
X179385173Y-120104771D02*
X179242316Y-120104771D01*
X179242316Y-120104771D02*
X179147078Y-120152390D01*
X179147078Y-120152390D02*
X179099459Y-120200009D01*
X179099459Y-120200009D02*
X179051840Y-120295247D01*
X179051840Y-120295247D02*
X179051840Y-120533342D01*
X179051840Y-120533342D02*
X179099459Y-120628580D01*
X179099459Y-120628580D02*
X179147078Y-120676200D01*
X179147078Y-120676200D02*
X179242316Y-120723819D01*
X179242316Y-120723819D02*
X179528030Y-120723819D01*
X179528030Y-120723819D02*
X179623268Y-120676200D01*
X179623268Y-120676200D02*
X179670887Y-120628580D01*
X178766125Y-119723819D02*
X178432792Y-120723819D01*
X178432792Y-120723819D02*
X178099459Y-119723819D01*
X176848333Y-120919819D02*
X176848333Y-121634104D01*
X176848333Y-121634104D02*
X176895952Y-121776961D01*
X176895952Y-121776961D02*
X176991190Y-121872200D01*
X176991190Y-121872200D02*
X177134047Y-121919819D01*
X177134047Y-121919819D02*
X177229285Y-121919819D01*
X176419761Y-121015057D02*
X176372142Y-120967438D01*
X176372142Y-120967438D02*
X176276904Y-120919819D01*
X176276904Y-120919819D02*
X176038809Y-120919819D01*
X176038809Y-120919819D02*
X175943571Y-120967438D01*
X175943571Y-120967438D02*
X175895952Y-121015057D01*
X175895952Y-121015057D02*
X175848333Y-121110295D01*
X175848333Y-121110295D02*
X175848333Y-121205533D01*
X175848333Y-121205533D02*
X175895952Y-121348390D01*
X175895952Y-121348390D02*
X176467380Y-121919819D01*
X176467380Y-121919819D02*
X175848333Y-121919819D01*
X182161009Y-110789809D02*
X182208628Y-110932666D01*
X182208628Y-110932666D02*
X182256247Y-110980285D01*
X182256247Y-110980285D02*
X182351485Y-111027904D01*
X182351485Y-111027904D02*
X182494342Y-111027904D01*
X182494342Y-111027904D02*
X182589580Y-110980285D01*
X182589580Y-110980285D02*
X182637200Y-110932666D01*
X182637200Y-110932666D02*
X182684819Y-110837428D01*
X182684819Y-110837428D02*
X182684819Y-110456476D01*
X182684819Y-110456476D02*
X181684819Y-110456476D01*
X181684819Y-110456476D02*
X181684819Y-110789809D01*
X181684819Y-110789809D02*
X181732438Y-110885047D01*
X181732438Y-110885047D02*
X181780057Y-110932666D01*
X181780057Y-110932666D02*
X181875295Y-110980285D01*
X181875295Y-110980285D02*
X181970533Y-110980285D01*
X181970533Y-110980285D02*
X182065771Y-110932666D01*
X182065771Y-110932666D02*
X182113390Y-110885047D01*
X182113390Y-110885047D02*
X182161009Y-110789809D01*
X182161009Y-110789809D02*
X182161009Y-110456476D01*
X182684819Y-111456476D02*
X181684819Y-111456476D01*
X181684819Y-111456476D02*
X182399104Y-111789809D01*
X182399104Y-111789809D02*
X181684819Y-112123142D01*
X181684819Y-112123142D02*
X182684819Y-112123142D01*
X182161009Y-112599333D02*
X182161009Y-112932666D01*
X182684819Y-113075523D02*
X182684819Y-112599333D01*
X182684819Y-112599333D02*
X181684819Y-112599333D01*
X181684819Y-112599333D02*
X181684819Y-113075523D01*
X181637200Y-114218380D02*
X182922914Y-113361238D01*
X182161009Y-114885047D02*
X182208628Y-115027904D01*
X182208628Y-115027904D02*
X182256247Y-115075523D01*
X182256247Y-115075523D02*
X182351485Y-115123142D01*
X182351485Y-115123142D02*
X182494342Y-115123142D01*
X182494342Y-115123142D02*
X182589580Y-115075523D01*
X182589580Y-115075523D02*
X182637200Y-115027904D01*
X182637200Y-115027904D02*
X182684819Y-114932666D01*
X182684819Y-114932666D02*
X182684819Y-114551714D01*
X182684819Y-114551714D02*
X181684819Y-114551714D01*
X181684819Y-114551714D02*
X181684819Y-114885047D01*
X181684819Y-114885047D02*
X181732438Y-114980285D01*
X181732438Y-114980285D02*
X181780057Y-115027904D01*
X181780057Y-115027904D02*
X181875295Y-115075523D01*
X181875295Y-115075523D02*
X181970533Y-115075523D01*
X181970533Y-115075523D02*
X182065771Y-115027904D01*
X182065771Y-115027904D02*
X182113390Y-114980285D01*
X182113390Y-114980285D02*
X182161009Y-114885047D01*
X182161009Y-114885047D02*
X182161009Y-114551714D01*
X182684819Y-115551714D02*
X181684819Y-115551714D01*
X181684819Y-115551714D02*
X182399104Y-115885047D01*
X182399104Y-115885047D02*
X181684819Y-116218380D01*
X181684819Y-116218380D02*
X182684819Y-116218380D01*
X182684819Y-116694571D02*
X181684819Y-116694571D01*
X181684819Y-116694571D02*
X181684819Y-117075523D01*
X181684819Y-117075523D02*
X181732438Y-117170761D01*
X181732438Y-117170761D02*
X181780057Y-117218380D01*
X181780057Y-117218380D02*
X181875295Y-117265999D01*
X181875295Y-117265999D02*
X182018152Y-117265999D01*
X182018152Y-117265999D02*
X182113390Y-117218380D01*
X182113390Y-117218380D02*
X182161009Y-117170761D01*
X182161009Y-117170761D02*
X182208628Y-117075523D01*
X182208628Y-117075523D02*
X182208628Y-116694571D01*
X181780057Y-117646952D02*
X181732438Y-117694571D01*
X181732438Y-117694571D02*
X181684819Y-117789809D01*
X181684819Y-117789809D02*
X181684819Y-118027904D01*
X181684819Y-118027904D02*
X181732438Y-118123142D01*
X181732438Y-118123142D02*
X181780057Y-118170761D01*
X181780057Y-118170761D02*
X181875295Y-118218380D01*
X181875295Y-118218380D02*
X181970533Y-118218380D01*
X181970533Y-118218380D02*
X182113390Y-118170761D01*
X182113390Y-118170761D02*
X182684819Y-117599333D01*
X182684819Y-117599333D02*
X182684819Y-118218380D01*
X182113390Y-118789809D02*
X182065771Y-118694571D01*
X182065771Y-118694571D02*
X182018152Y-118646952D01*
X182018152Y-118646952D02*
X181922914Y-118599333D01*
X181922914Y-118599333D02*
X181875295Y-118599333D01*
X181875295Y-118599333D02*
X181780057Y-118646952D01*
X181780057Y-118646952D02*
X181732438Y-118694571D01*
X181732438Y-118694571D02*
X181684819Y-118789809D01*
X181684819Y-118789809D02*
X181684819Y-118980285D01*
X181684819Y-118980285D02*
X181732438Y-119075523D01*
X181732438Y-119075523D02*
X181780057Y-119123142D01*
X181780057Y-119123142D02*
X181875295Y-119170761D01*
X181875295Y-119170761D02*
X181922914Y-119170761D01*
X181922914Y-119170761D02*
X182018152Y-119123142D01*
X182018152Y-119123142D02*
X182065771Y-119075523D01*
X182065771Y-119075523D02*
X182113390Y-118980285D01*
X182113390Y-118980285D02*
X182113390Y-118789809D01*
X182113390Y-118789809D02*
X182161009Y-118694571D01*
X182161009Y-118694571D02*
X182208628Y-118646952D01*
X182208628Y-118646952D02*
X182303866Y-118599333D01*
X182303866Y-118599333D02*
X182494342Y-118599333D01*
X182494342Y-118599333D02*
X182589580Y-118646952D01*
X182589580Y-118646952D02*
X182637200Y-118694571D01*
X182637200Y-118694571D02*
X182684819Y-118789809D01*
X182684819Y-118789809D02*
X182684819Y-118980285D01*
X182684819Y-118980285D02*
X182637200Y-119075523D01*
X182637200Y-119075523D02*
X182589580Y-119123142D01*
X182589580Y-119123142D02*
X182494342Y-119170761D01*
X182494342Y-119170761D02*
X182303866Y-119170761D01*
X182303866Y-119170761D02*
X182208628Y-119123142D01*
X182208628Y-119123142D02*
X182161009Y-119075523D01*
X182161009Y-119075523D02*
X182113390Y-118980285D01*
X181684819Y-119789809D02*
X181684819Y-119885047D01*
X181684819Y-119885047D02*
X181732438Y-119980285D01*
X181732438Y-119980285D02*
X181780057Y-120027904D01*
X181780057Y-120027904D02*
X181875295Y-120075523D01*
X181875295Y-120075523D02*
X182065771Y-120123142D01*
X182065771Y-120123142D02*
X182303866Y-120123142D01*
X182303866Y-120123142D02*
X182494342Y-120075523D01*
X182494342Y-120075523D02*
X182589580Y-120027904D01*
X182589580Y-120027904D02*
X182637200Y-119980285D01*
X182637200Y-119980285D02*
X182684819Y-119885047D01*
X182684819Y-119885047D02*
X182684819Y-119789809D01*
X182684819Y-119789809D02*
X182637200Y-119694571D01*
X182637200Y-119694571D02*
X182589580Y-119646952D01*
X182589580Y-119646952D02*
X182494342Y-119599333D01*
X182494342Y-119599333D02*
X182303866Y-119551714D01*
X182303866Y-119551714D02*
X182065771Y-119551714D01*
X182065771Y-119551714D02*
X181875295Y-119599333D01*
X181875295Y-119599333D02*
X181780057Y-119646952D01*
X181780057Y-119646952D02*
X181732438Y-119694571D01*
X181732438Y-119694571D02*
X181684819Y-119789809D01*
X205299714Y-94766009D02*
X205156857Y-94813628D01*
X205156857Y-94813628D02*
X205109238Y-94861247D01*
X205109238Y-94861247D02*
X205061619Y-94956485D01*
X205061619Y-94956485D02*
X205061619Y-95099342D01*
X205061619Y-95099342D02*
X205109238Y-95194580D01*
X205109238Y-95194580D02*
X205156857Y-95242200D01*
X205156857Y-95242200D02*
X205252095Y-95289819D01*
X205252095Y-95289819D02*
X205633047Y-95289819D01*
X205633047Y-95289819D02*
X205633047Y-94289819D01*
X205633047Y-94289819D02*
X205299714Y-94289819D01*
X205299714Y-94289819D02*
X205204476Y-94337438D01*
X205204476Y-94337438D02*
X205156857Y-94385057D01*
X205156857Y-94385057D02*
X205109238Y-94480295D01*
X205109238Y-94480295D02*
X205109238Y-94575533D01*
X205109238Y-94575533D02*
X205156857Y-94670771D01*
X205156857Y-94670771D02*
X205204476Y-94718390D01*
X205204476Y-94718390D02*
X205299714Y-94766009D01*
X205299714Y-94766009D02*
X205633047Y-94766009D01*
X204775904Y-94289819D02*
X204204476Y-94289819D01*
X204490190Y-95289819D02*
X204490190Y-94289819D01*
X203918761Y-94385057D02*
X203871142Y-94337438D01*
X203871142Y-94337438D02*
X203775904Y-94289819D01*
X203775904Y-94289819D02*
X203537809Y-94289819D01*
X203537809Y-94289819D02*
X203442571Y-94337438D01*
X203442571Y-94337438D02*
X203394952Y-94385057D01*
X203394952Y-94385057D02*
X203347333Y-94480295D01*
X203347333Y-94480295D02*
X203347333Y-94575533D01*
X203347333Y-94575533D02*
X203394952Y-94718390D01*
X203394952Y-94718390D02*
X203966380Y-95289819D01*
X203966380Y-95289819D02*
X203347333Y-95289819D01*
X162126819Y-112392665D02*
X162841104Y-112392665D01*
X162841104Y-112392665D02*
X162983961Y-112345046D01*
X162983961Y-112345046D02*
X163079200Y-112249808D01*
X163079200Y-112249808D02*
X163126819Y-112106951D01*
X163126819Y-112106951D02*
X163126819Y-112011713D01*
X162126819Y-113297427D02*
X162126819Y-113106951D01*
X162126819Y-113106951D02*
X162174438Y-113011713D01*
X162174438Y-113011713D02*
X162222057Y-112964094D01*
X162222057Y-112964094D02*
X162364914Y-112868856D01*
X162364914Y-112868856D02*
X162555390Y-112821237D01*
X162555390Y-112821237D02*
X162936342Y-112821237D01*
X162936342Y-112821237D02*
X163031580Y-112868856D01*
X163031580Y-112868856D02*
X163079200Y-112916475D01*
X163079200Y-112916475D02*
X163126819Y-113011713D01*
X163126819Y-113011713D02*
X163126819Y-113202189D01*
X163126819Y-113202189D02*
X163079200Y-113297427D01*
X163079200Y-113297427D02*
X163031580Y-113345046D01*
X163031580Y-113345046D02*
X162936342Y-113392665D01*
X162936342Y-113392665D02*
X162698247Y-113392665D01*
X162698247Y-113392665D02*
X162603009Y-113345046D01*
X162603009Y-113345046D02*
X162555390Y-113297427D01*
X162555390Y-113297427D02*
X162507771Y-113202189D01*
X162507771Y-113202189D02*
X162507771Y-113011713D01*
X162507771Y-113011713D02*
X162555390Y-112916475D01*
X162555390Y-112916475D02*
X162603009Y-112868856D01*
X162603009Y-112868856D02*
X162698247Y-112821237D01*
X156185333Y-101642819D02*
X156185333Y-102357104D01*
X156185333Y-102357104D02*
X156232952Y-102499961D01*
X156232952Y-102499961D02*
X156328190Y-102595200D01*
X156328190Y-102595200D02*
X156471047Y-102642819D01*
X156471047Y-102642819D02*
X156566285Y-102642819D01*
X155804380Y-101642819D02*
X155137714Y-101642819D01*
X155137714Y-101642819D02*
X155566285Y-102642819D01*
D13*
%TO.C,J2*%
X175185000Y-109745000D02*
X177845000Y-109745000D01*
X175185000Y-117425000D02*
X175185000Y-109745000D01*
X175185000Y-117425000D02*
X177845000Y-117425000D01*
X176515000Y-120025000D02*
X177845000Y-120025000D01*
X177845000Y-117425000D02*
X177845000Y-109745000D01*
X177845000Y-120025000D02*
X177845000Y-118695000D01*
%TO.C,BT2*%
X165514000Y-85785000D02*
X165514000Y-105885000D01*
X165514000Y-105885000D02*
X243514000Y-105885000D01*
X243514000Y-85785000D02*
X165514000Y-85785000D01*
X243514000Y-105885000D02*
X243514000Y-85785000D01*
D14*
%TO.C,G\u002A\u002A\u002A*%
X229982000Y-109805000D02*
X227188000Y-109805000D01*
X227188000Y-113234000D01*
X227187997Y-113300931D01*
X227183546Y-114659369D01*
X227162707Y-115592605D01*
X227113707Y-116180113D01*
X227024772Y-116501366D01*
X226884128Y-116635837D01*
X226680000Y-116663000D01*
X226555804Y-116656399D01*
X226377777Y-116573788D01*
X226265329Y-116326987D01*
X226203515Y-115830051D01*
X226177388Y-114997037D01*
X226172000Y-113742000D01*
X226172000Y-110821000D01*
X225156000Y-110821000D01*
X224569568Y-110792238D01*
X224225201Y-110645352D01*
X224140000Y-110313000D01*
X224125101Y-110134779D01*
X223970895Y-109922383D01*
X223550324Y-109827049D01*
X222743000Y-109805000D01*
X221346000Y-109805000D01*
X221346000Y-107519000D01*
X229982000Y-107519000D01*
X229982000Y-109805000D01*
G36*
X229982000Y-109805000D02*
G01*
X227188000Y-109805000D01*
X227188000Y-113234000D01*
X227187997Y-113300931D01*
X227183546Y-114659369D01*
X227162707Y-115592605D01*
X227113707Y-116180113D01*
X227024772Y-116501366D01*
X226884128Y-116635837D01*
X226680000Y-116663000D01*
X226555804Y-116656399D01*
X226377777Y-116573788D01*
X226265329Y-116326987D01*
X226203515Y-115830051D01*
X226177388Y-114997037D01*
X226172000Y-113742000D01*
X226172000Y-110821000D01*
X225156000Y-110821000D01*
X224569568Y-110792238D01*
X224225201Y-110645352D01*
X224140000Y-110313000D01*
X224125101Y-110134779D01*
X223970895Y-109922383D01*
X223550324Y-109827049D01*
X222743000Y-109805000D01*
X221346000Y-109805000D01*
X221346000Y-107519000D01*
X229982000Y-107519000D01*
X229982000Y-109805000D01*
G37*
X225918000Y-116663000D02*
X225029000Y-116663000D01*
X224810687Y-116661552D01*
X224348319Y-116594284D01*
X224169639Y-116316853D01*
X224140000Y-115680443D01*
X224135602Y-115317697D01*
X224047830Y-114875530D01*
X223737308Y-114669944D01*
X223063096Y-114553444D01*
X222713349Y-114489622D01*
X221800818Y-114099132D01*
X221262613Y-113486143D01*
X221150579Y-112772303D01*
X222937961Y-112772303D01*
X222950593Y-112936015D01*
X223228842Y-113258468D01*
X223647904Y-113473887D01*
X223979604Y-113436729D01*
X224064508Y-113278061D01*
X224140000Y-112793000D01*
X224029516Y-112449603D01*
X223588396Y-112390834D01*
X223240868Y-112498365D01*
X222937961Y-112772303D01*
X221150579Y-112772303D01*
X221143291Y-112725867D01*
X221487403Y-111893516D01*
X221550594Y-111807170D01*
X221818025Y-111553718D01*
X222214735Y-111409207D01*
X222866826Y-111344134D01*
X223900403Y-111329000D01*
X225918000Y-111329000D01*
X225918000Y-112793000D01*
X225918000Y-116663000D01*
G36*
X225918000Y-116663000D02*
G01*
X225029000Y-116663000D01*
X224810687Y-116661552D01*
X224348319Y-116594284D01*
X224169639Y-116316853D01*
X224140000Y-115680443D01*
X224135602Y-115317697D01*
X224047830Y-114875530D01*
X223737308Y-114669944D01*
X223063096Y-114553444D01*
X222713349Y-114489622D01*
X221800818Y-114099132D01*
X221262613Y-113486143D01*
X221150579Y-112772303D01*
X222937961Y-112772303D01*
X222950593Y-112936015D01*
X223228842Y-113258468D01*
X223647904Y-113473887D01*
X223979604Y-113436729D01*
X224064508Y-113278061D01*
X224140000Y-112793000D01*
X224029516Y-112449603D01*
X223588396Y-112390834D01*
X223240868Y-112498365D01*
X222937961Y-112772303D01*
X221150579Y-112772303D01*
X221143291Y-112725867D01*
X221487403Y-111893516D01*
X221550594Y-111807170D01*
X221818025Y-111553718D01*
X222214735Y-111409207D01*
X222866826Y-111344134D01*
X223900403Y-111329000D01*
X225918000Y-111329000D01*
X225918000Y-112793000D01*
X225918000Y-116663000D01*
G37*
D15*
%TO.C,J6*%
X154750001Y-108618935D02*
X167004001Y-108618935D01*
X154750001Y-117372933D02*
X154750001Y-108618935D01*
X167004001Y-108618935D02*
X167004001Y-117372933D01*
X167004001Y-117372933D02*
X154750001Y-117372933D01*
D13*
%TO.C,J7*%
X154522000Y-90468000D02*
X157182000Y-90468000D01*
X154522000Y-98148000D02*
X154522000Y-90468000D01*
X154522000Y-98148000D02*
X157182000Y-98148000D01*
X155852000Y-100748000D02*
X157182000Y-100748000D01*
X157182000Y-98148000D02*
X157182000Y-90468000D01*
X157182000Y-100748000D02*
X157182000Y-99418000D01*
%TD*%
M02*
