%TF.GenerationSoftware,KiCad,Pcbnew,9.0.3*%
%TF.CreationDate,2025-07-30T11:35:09+02:00*%
%TF.ProjectId,TPOneBoard,54504f6e-6542-46f6-9172-642e6b696361,rev?*%
%TF.SameCoordinates,Original*%
%TF.FileFunction,AssemblyDrawing,Bot*%
%FSLAX46Y46*%
G04 Gerber Fmt 4.6, Leading zero omitted, Abs format (unit mm)*
G04 Created by KiCad (PCBNEW 9.0.3) date 2025-07-30 11:35:09*
%MOMM*%
%LPD*%
G01*
G04 APERTURE LIST*
%ADD10C,0.150000*%
%ADD11C,0.100000*%
%ADD12C,0.152400*%
G04 APERTURE END LIST*
D10*
X175969819Y-114551666D02*
X176684104Y-114551666D01*
X176684104Y-114551666D02*
X176826961Y-114504047D01*
X176826961Y-114504047D02*
X176922200Y-114408809D01*
X176922200Y-114408809D02*
X176969819Y-114265952D01*
X176969819Y-114265952D02*
X176969819Y-114170714D01*
X176065057Y-114980238D02*
X176017438Y-115027857D01*
X176017438Y-115027857D02*
X175969819Y-115123095D01*
X175969819Y-115123095D02*
X175969819Y-115361190D01*
X175969819Y-115361190D02*
X176017438Y-115456428D01*
X176017438Y-115456428D02*
X176065057Y-115504047D01*
X176065057Y-115504047D02*
X176160295Y-115551666D01*
X176160295Y-115551666D02*
X176255533Y-115551666D01*
X176255533Y-115551666D02*
X176398390Y-115504047D01*
X176398390Y-115504047D02*
X176969819Y-114932619D01*
X176969819Y-114932619D02*
X176969819Y-115551666D01*
X208418763Y-96566009D02*
X208275906Y-96613628D01*
X208275906Y-96613628D02*
X208228287Y-96661247D01*
X208228287Y-96661247D02*
X208180668Y-96756485D01*
X208180668Y-96756485D02*
X208180668Y-96899342D01*
X208180668Y-96899342D02*
X208228287Y-96994580D01*
X208228287Y-96994580D02*
X208275906Y-97042200D01*
X208275906Y-97042200D02*
X208371144Y-97089819D01*
X208371144Y-97089819D02*
X208752096Y-97089819D01*
X208752096Y-97089819D02*
X208752096Y-96089819D01*
X208752096Y-96089819D02*
X208418763Y-96089819D01*
X208418763Y-96089819D02*
X208323525Y-96137438D01*
X208323525Y-96137438D02*
X208275906Y-96185057D01*
X208275906Y-96185057D02*
X208228287Y-96280295D01*
X208228287Y-96280295D02*
X208228287Y-96375533D01*
X208228287Y-96375533D02*
X208275906Y-96470771D01*
X208275906Y-96470771D02*
X208323525Y-96518390D01*
X208323525Y-96518390D02*
X208418763Y-96566009D01*
X208418763Y-96566009D02*
X208752096Y-96566009D01*
X207323525Y-97089819D02*
X207323525Y-96566009D01*
X207323525Y-96566009D02*
X207371144Y-96470771D01*
X207371144Y-96470771D02*
X207466382Y-96423152D01*
X207466382Y-96423152D02*
X207656858Y-96423152D01*
X207656858Y-96423152D02*
X207752096Y-96470771D01*
X207323525Y-97042200D02*
X207418763Y-97089819D01*
X207418763Y-97089819D02*
X207656858Y-97089819D01*
X207656858Y-97089819D02*
X207752096Y-97042200D01*
X207752096Y-97042200D02*
X207799715Y-96946961D01*
X207799715Y-96946961D02*
X207799715Y-96851723D01*
X207799715Y-96851723D02*
X207752096Y-96756485D01*
X207752096Y-96756485D02*
X207656858Y-96708866D01*
X207656858Y-96708866D02*
X207418763Y-96708866D01*
X207418763Y-96708866D02*
X207323525Y-96661247D01*
X206990191Y-96423152D02*
X206609239Y-96423152D01*
X206847334Y-96089819D02*
X206847334Y-96946961D01*
X206847334Y-96946961D02*
X206799715Y-97042200D01*
X206799715Y-97042200D02*
X206704477Y-97089819D01*
X206704477Y-97089819D02*
X206609239Y-97089819D01*
X206418762Y-96423152D02*
X206037810Y-96423152D01*
X206275905Y-96089819D02*
X206275905Y-96946961D01*
X206275905Y-96946961D02*
X206228286Y-97042200D01*
X206228286Y-97042200D02*
X206133048Y-97089819D01*
X206133048Y-97089819D02*
X206037810Y-97089819D01*
X205323524Y-97042200D02*
X205418762Y-97089819D01*
X205418762Y-97089819D02*
X205609238Y-97089819D01*
X205609238Y-97089819D02*
X205704476Y-97042200D01*
X205704476Y-97042200D02*
X205752095Y-96946961D01*
X205752095Y-96946961D02*
X205752095Y-96566009D01*
X205752095Y-96566009D02*
X205704476Y-96470771D01*
X205704476Y-96470771D02*
X205609238Y-96423152D01*
X205609238Y-96423152D02*
X205418762Y-96423152D01*
X205418762Y-96423152D02*
X205323524Y-96470771D01*
X205323524Y-96470771D02*
X205275905Y-96566009D01*
X205275905Y-96566009D02*
X205275905Y-96661247D01*
X205275905Y-96661247D02*
X205752095Y-96756485D01*
X204847333Y-97089819D02*
X204847333Y-96423152D01*
X204847333Y-96613628D02*
X204799714Y-96518390D01*
X204799714Y-96518390D02*
X204752095Y-96470771D01*
X204752095Y-96470771D02*
X204656857Y-96423152D01*
X204656857Y-96423152D02*
X204561619Y-96423152D01*
X204323523Y-96423152D02*
X204085428Y-97089819D01*
X203847333Y-96423152D02*
X204085428Y-97089819D01*
X204085428Y-97089819D02*
X204180666Y-97327914D01*
X204180666Y-97327914D02*
X204228285Y-97375533D01*
X204228285Y-97375533D02*
X204323523Y-97423152D01*
X203704476Y-97185057D02*
X202942571Y-97185057D01*
X202133047Y-96994580D02*
X202180666Y-97042200D01*
X202180666Y-97042200D02*
X202323523Y-97089819D01*
X202323523Y-97089819D02*
X202418761Y-97089819D01*
X202418761Y-97089819D02*
X202561618Y-97042200D01*
X202561618Y-97042200D02*
X202656856Y-96946961D01*
X202656856Y-96946961D02*
X202704475Y-96851723D01*
X202704475Y-96851723D02*
X202752094Y-96661247D01*
X202752094Y-96661247D02*
X202752094Y-96518390D01*
X202752094Y-96518390D02*
X202704475Y-96327914D01*
X202704475Y-96327914D02*
X202656856Y-96232676D01*
X202656856Y-96232676D02*
X202561618Y-96137438D01*
X202561618Y-96137438D02*
X202418761Y-96089819D01*
X202418761Y-96089819D02*
X202323523Y-96089819D01*
X202323523Y-96089819D02*
X202180666Y-96137438D01*
X202180666Y-96137438D02*
X202133047Y-96185057D01*
X201323523Y-97042200D02*
X201418761Y-97089819D01*
X201418761Y-97089819D02*
X201609237Y-97089819D01*
X201609237Y-97089819D02*
X201704475Y-97042200D01*
X201704475Y-97042200D02*
X201752094Y-96946961D01*
X201752094Y-96946961D02*
X201752094Y-96566009D01*
X201752094Y-96566009D02*
X201704475Y-96470771D01*
X201704475Y-96470771D02*
X201609237Y-96423152D01*
X201609237Y-96423152D02*
X201418761Y-96423152D01*
X201418761Y-96423152D02*
X201323523Y-96470771D01*
X201323523Y-96470771D02*
X201275904Y-96566009D01*
X201275904Y-96566009D02*
X201275904Y-96661247D01*
X201275904Y-96661247D02*
X201752094Y-96756485D01*
X200704475Y-97089819D02*
X200799713Y-97042200D01*
X200799713Y-97042200D02*
X200847332Y-96946961D01*
X200847332Y-96946961D02*
X200847332Y-96089819D01*
X200180665Y-97089819D02*
X200275903Y-97042200D01*
X200275903Y-97042200D02*
X200323522Y-96946961D01*
X200323522Y-96946961D02*
X200323522Y-96089819D01*
X205299714Y-98166009D02*
X205156857Y-98213628D01*
X205156857Y-98213628D02*
X205109238Y-98261247D01*
X205109238Y-98261247D02*
X205061619Y-98356485D01*
X205061619Y-98356485D02*
X205061619Y-98499342D01*
X205061619Y-98499342D02*
X205109238Y-98594580D01*
X205109238Y-98594580D02*
X205156857Y-98642200D01*
X205156857Y-98642200D02*
X205252095Y-98689819D01*
X205252095Y-98689819D02*
X205633047Y-98689819D01*
X205633047Y-98689819D02*
X205633047Y-97689819D01*
X205633047Y-97689819D02*
X205299714Y-97689819D01*
X205299714Y-97689819D02*
X205204476Y-97737438D01*
X205204476Y-97737438D02*
X205156857Y-97785057D01*
X205156857Y-97785057D02*
X205109238Y-97880295D01*
X205109238Y-97880295D02*
X205109238Y-97975533D01*
X205109238Y-97975533D02*
X205156857Y-98070771D01*
X205156857Y-98070771D02*
X205204476Y-98118390D01*
X205204476Y-98118390D02*
X205299714Y-98166009D01*
X205299714Y-98166009D02*
X205633047Y-98166009D01*
X204775904Y-97689819D02*
X204204476Y-97689819D01*
X204490190Y-98689819D02*
X204490190Y-97689819D01*
X203918761Y-97785057D02*
X203871142Y-97737438D01*
X203871142Y-97737438D02*
X203775904Y-97689819D01*
X203775904Y-97689819D02*
X203537809Y-97689819D01*
X203537809Y-97689819D02*
X203442571Y-97737438D01*
X203442571Y-97737438D02*
X203394952Y-97785057D01*
X203394952Y-97785057D02*
X203347333Y-97880295D01*
X203347333Y-97880295D02*
X203347333Y-97975533D01*
X203347333Y-97975533D02*
X203394952Y-98118390D01*
X203394952Y-98118390D02*
X203966380Y-98689819D01*
X203966380Y-98689819D02*
X203347333Y-98689819D01*
X164031819Y-113995999D02*
X164269914Y-113995999D01*
X164174676Y-113757904D02*
X164269914Y-113995999D01*
X164269914Y-113995999D02*
X164174676Y-114234094D01*
X164460390Y-113853142D02*
X164269914Y-113995999D01*
X164269914Y-113995999D02*
X164460390Y-114138856D01*
X155306819Y-95274666D02*
X156021104Y-95274666D01*
X156021104Y-95274666D02*
X156163961Y-95227047D01*
X156163961Y-95227047D02*
X156259200Y-95131809D01*
X156259200Y-95131809D02*
X156306819Y-94988952D01*
X156306819Y-94988952D02*
X156306819Y-94893714D01*
X155306819Y-95655619D02*
X155306819Y-96322285D01*
X155306819Y-96322285D02*
X156306819Y-95893714D01*
D11*
%TO.C,J2*%
X175245000Y-109805000D02*
X175245000Y-119965000D01*
X175245000Y-119965000D02*
X177150000Y-119965000D01*
X177150000Y-119965000D02*
X177785000Y-119330000D01*
X177785000Y-109805000D02*
X175245000Y-109805000D01*
X177785000Y-119330000D02*
X177785000Y-109805000D01*
%TO.C,BT2*%
X165714000Y-85985000D02*
X165714000Y-105685000D01*
X165714000Y-105685000D02*
X243314000Y-105685000D01*
X243314000Y-85985000D02*
X165714000Y-85985000D01*
X243314000Y-105685000D02*
X243314000Y-85985000D01*
D12*
%TO.C,J6*%
X154877001Y-108745935D02*
X166877001Y-108745935D01*
X154877001Y-117245933D02*
X154877001Y-108745935D01*
X166877001Y-108745935D02*
X166877001Y-117245933D01*
X166877001Y-117245933D02*
X154877001Y-117245933D01*
D11*
%TO.C,J7*%
X154582000Y-90528000D02*
X154582000Y-100688000D01*
X154582000Y-100688000D02*
X156487000Y-100688000D01*
X156487000Y-100688000D02*
X157122000Y-100053000D01*
X157122000Y-90528000D02*
X154582000Y-90528000D01*
X157122000Y-100053000D02*
X157122000Y-90528000D01*
%TD*%
M02*
